<svg id="Layer_1" data-name="Layer 1" xmlns="http://www.w3.org/2000/svg" width="400" height="400" viewBox="0 0 400 400">
  <title>b1</title>
  <circle cx="205" cy="208" r="182.5" fill="#ccc" stroke="#000" stroke-miterlimit="10"/>
  <g>
    <path d="M386.77,208.89a92,92,0,0,1-.48,14.46,183.1,183.1,0,0,1-9.6,44.69A178.75,178.75,0,0,1,346,322.82q-39,47.49-98.8,62.18a174.11,174.11,0,0,1-48.93,4.93c-39.58-1.62-75.19-14.43-106.29-39C60,325.64,38.8,293,28.31,253.52A177.66,177.66,0,0,1,23,221.37a188.27,188.27,0,0,1,.5-32.78c.54-5.53,1.47-11,2.51-16.49.23-1.21.81-1.05,1.68-.87Q56.82,177.44,86,183.6l70.27,15,46.26,9.83c.42.09.85.13,1.27.2a21.57,21.57,0,0,0,3.29.11H384.61A4.62,4.62,0,0,1,386.77,208.89Z" fill="#6398da"/>
    <path d="M203.23,206c-.08.72-.69.28-1.14.19-5.83-1.25-11.66-2.51-17.49-3.74q-25.44-5.39-50.88-10.78Q106.41,185.82,79.1,180q-25.34-5.39-50.7-10.71c-1.43-.3-1.67-.7-1.34-2.13a182.32,182.32,0,0,1,137.13-137c1.4-.32,1.76.09,2,1.35q5,23.76,10.05,47.51,8.7,41,17.42,81.92,4.67,22,9.35,43.91C203.11,205.11,203.14,205.42,203.23,206Z" fill="#fc755e"/>
    <path d="M206.41,206.12c4.21-13,8.33-25.75,12.48-38.51q19-58.48,38.06-117c1.54-4.74,3-9.49,4.56-14.23.31-1,.53-1.57,2-1.08a182.51,182.51,0,0,1,103.24,89,195.26,195.26,0,0,1,10.39,24.41c.49,1.39.33,1.91-1.14,2.39q-35.63,11.51-71.23,23.13l-68.46,22.21q-14.37,4.67-28.73,9.37C207.26,205.94,207,206,206.41,206.12Z" fill="#32c171"/>
    <path d="M205,203.7c-.83-3.8-1.56-7.05-2.25-10.31q-4.29-20.28-8.57-40.56-4.89-23-9.82-46.07-5.59-26.25-11.15-52.51c-1.65-7.74-3.29-15.48-5-23.2-.32-1.42.13-1.8,1.46-2a199.92,199.92,0,0,1,28.58-3.24,179.73,179.73,0,0,1,49.3,5c3.68.88,7.3,2,11,2.95,1.35.34,1.52.86,1.11,2.13Q252.76,56.58,246,77.42l-37.38,115Z" fill="#ffbb64"/>
    <path d="M212.59,206.4l20.58-6.7,100-32.47q21.69-7,43.36-14.16c1.54-.51,2-.16,2.5,1.34a182.18,182.18,0,0,1,7.92,51.11c0,.88-.15,1.27-1.06,1.18-.24,0-.49,0-.73,0H212.64Z" fill="#e477d1"/>
    <path d="M386.77,208.89l-1.84,0H206.8a6,6,0,0,1-3-.31c1.2-.39,2.4,0,3.6,0q88.56,0,177.12,0C385.25,208.57,386.09,208.28,386.77,208.89Z" fill="#a6c2eb"/>
    <path d="M159.77,343.92a7,7,0,0,1,4.47-.52c2.57.59,4.16,3,4.06,6a6.08,6.08,0,0,1-4.9,6,5.88,5.88,0,0,1-6.68-3.29c-.63-1.59-.19-2.16,1.47-2.11.67,0,.76.41,1,.86,1.09,2.39,2.73,3.09,4.6,2a4.39,4.39,0,0,0,1.33-5.82,3.57,3.57,0,0,0-5.29-.68c-.19.15-.33.38-.53.51a2.33,2.33,0,0,1-2.12,0c-.72-.29-.27-1.07-.17-1.63.41-2.22.9-4.43,1.25-6.65.14-.87.5-1.12,1.31-1.11,2.26,0,4.53.06,6.79,0,1.09,0,1.14.54,1.16,1.37s-.31,1.19-1.18,1.16c-1.34,0-2.71.12-4,0-1.54-.19-2.06.51-2.18,1.86C160.05,342.45,159.92,343,159.77,343.92Z" fill="#fcfcfd"/>
    <path d="M196.09,355.45a5.32,5.32,0,0,1-5.47-3.7c-.15-.56-.72-1.4.37-1.63.82-.17,1.69-.53,2.19.82,1,2.65,3.47,3.2,5.3,1.35a3.2,3.2,0,0,0,.73-3.71,3.15,3.15,0,0,0-3.23-1.94c-.48,0-1.29.7-1.33-.49,0-.76,0-1.42,1.08-1.54,1.55-.18,2.9-.76,3-2.63a2.39,2.39,0,0,0-2.16-2.56c-1.8-.3-2.85.8-3.33,2.43-.42,1.42-1.29.3-1.94.36s-.68-.49-.58-1a5.46,5.46,0,0,1,5.84-4c3.13.38,5,2.37,4.73,5.19,0,.47-.09,1.11-.39,1.37-1.55,1.32-.63,2.07.39,3.16,1.31,1.42,1.22,3.3.53,5a5.53,5.53,0,0,1-4.77,3.5A7.67,7.67,0,0,1,196.09,355.45Z" fill="#fcfcfd"/>
    <path d="M179.21,345.39c2.46,1.94,3.11,3.66,2.38,6.07a5.75,5.75,0,0,1-5.17,4c-2.85.17-5.09-1-6-3.23-.27-.66-.95-1.58.12-2.05s1.9-.47,2.37,1a2.92,2.92,0,0,0,3.76,2,3.57,3.57,0,0,0,2.43-3.85,3.3,3.3,0,0,0-3.58-2.72c-.46,0-1.24.56-1.24-.4,0-.6-.15-1.59,1-1.59a3.61,3.61,0,0,0,.72-.15,2.52,2.52,0,0,0,2.32-2.61,2.45,2.45,0,0,0-2.25-2.5,2.71,2.71,0,0,0-3,1.85c-.28.62-.15,1.41-1.36,1.2-1.47-.25-1.63-.86-1.09-2a5.61,5.61,0,0,1,9.93-.37C181.44,341.89,181.06,343.41,179.21,345.39Z" fill="#fcfcfd"/>
    <path d="M212.24,341.87c0,3.25-2.35,5.43-5,4.71-2-.55-3.24-2.95-2.86-5.68.35-2.55,1.71-3.83,4-3.79S212.25,339,212.24,341.87Z" fill="#fbfcfd"/>
    <path d="M215.63,351c0-3,1.42-4.66,3.9-4.67s4.07,1.84,4,4.8-1.7,4.81-4.17,4.75S215.62,353.89,215.63,351Z" fill="#fbfcfd"/>
    <path d="M219.61,337.21a8.29,8.29,0,0,1-1.2,2.73c-2.47,4.83-5,9.65-7.48,14.47a4.25,4.25,0,0,1-.62,1.11,1.57,1.57,0,0,1-1.87.16c-.57-.32,0-.87.21-1.25,2.79-5.42,5.65-10.82,8.4-16.26C217.69,336.91,218.53,337.05,219.61,337.21Z" fill="#fbfcfd"/>
    <path d="M187.58,354.14c0,1.71-.12,3.16-1.47,4.13-.34.24-.72.55-1.1,0s-.55-.67,0-1.2,1.67-1.42-.08-2.24c-.51-.24-.42-1.58,0-2.21s1.38-.33,2-.25C188.22,352.57,187.16,353.76,187.58,354.14Z" fill="#f6f9fc"/>
    <path d="M105.5,118.4c3,2.66,3.4,6.07,1,8.39a6.62,6.62,0,0,1-9-.14c-2.25-2.42-1.79-5.84,1.13-8.23-2.24-2.21-2.42-4.95-.47-6.84a5.91,5.91,0,0,1,8,.29C108,113.83,107.68,116.51,105.5,118.4Z" fill="#fdfcfc"/>
    <path d="M125.82,118.32c2.57,2.14,3.19,3.85,2.32,6.32a5.75,5.75,0,0,1-5.32,3.78c-2.79.1-4.88-1.08-5.8-3.26-.68-1.62-.3-2.23,1.28-2.23.72,0,.86.35,1.08.93.79,2,2.26,2.85,3.94,2.33a3.51,3.51,0,0,0,2.32-4.08c-.3-1.64-1.69-2.58-3.71-2.45-.47,0-1.07.35-1.05-.47,0-.56-.1-1.28.67-1.52.35-.11.72-.11,1.08-.2,1.38-.33,2.32-1,2.3-2.62a2.43,2.43,0,0,0-2.07-2.45c-1.46-.36-2.43.44-3.14,1.64-.34.57,0,1.63-1.42,1.38s-1.67-.75-1.12-2a5.44,5.44,0,0,1,6.36-3c2.68.61,4.1,2.38,4,4.89A4.11,4.11,0,0,1,125.82,118.32Z" fill="#fdfcfc"/>
    <path d="M88.51,114.92c-1.09.63-1.89,1.17-2.77,1.56-.42.19-1,.91-1.39.26s-.55-1.71.21-2.17a14.87,14.87,0,0,0,4.78-4.17c.29-.41.92-.31,1.38-.14s.34.73.34,1.12c0,5.19,0,10.39,0,15.58,0,1.1-.52,1.11-1.34,1.14s-1.27-.26-1.26-1.24C88.54,123,88.51,119,88.51,114.92Z" fill="#fffbfb"/>
    <path d="M149.79,124.07c0,3.25-2.39,5.42-5.07,4.64-2.1-.61-3.21-3-2.73-5.9.43-2.59,1.71-3.68,4.18-3.56C148.44,119.36,149.81,121.19,149.79,124.07Z" fill="#fffbfb"/>
    <path d="M130.64,114.84c-.05-1.86.28-3.61,2.15-4.46a3.77,3.77,0,0,1,4.11.46c1.48,1.19,2,3.83,1.24,6.07a3.8,3.8,0,0,1-3.87,2.7C131.94,119.51,130.65,117.81,130.64,114.84Z" fill="#fdfcfb"/>
    <path d="M134.3,128.58l5.38-10.41q1.72-3.33,3.46-6.65c.79-1.5.79-1.5,2.69-1.34.07.72-.42,1.23-.71,1.8-2.65,5.15-5.35,10.28-7.94,15.46C136.55,128.74,135.76,129.07,134.3,128.58Z" fill="#fffbfb"/>
    <path d="M113.79,127.66a3.73,3.73,0,0,1-1.35,3.49c-.37.27-.74.71-1.22.08-.36-.46-.36-.74.08-1.21.58-.63,1.64-1.36-.12-2.1-.64-.27-.45-1.6-.16-2.21.4-.83,1.44-.34,2.19-.34s.52.78.58,1.27A9.28,9.28,0,0,1,113.79,127.66Z" fill="#fff8f7"/>
    <path d="M295.12,105c1,0,2.08,0,3.12,0s1.49,0,1.48,1.23-.43,1.33-1.41,1.29c-1.4-.07-2.81,0-4.22,0-1.13,0-2.63,2.5-2.05,3.46.32.52.74.07,1.12,0,3-.67,5.49.36,6.72,2.77a6.69,6.69,0,0,1-1.43,7.75A6.37,6.37,0,0,1,291,122a4.64,4.64,0,0,1-2.13-2.65c-.16-.55-.82-1.52.45-1.73.81-.14,1.67-.65,2.12.82a3,3,0,0,0,4.33,2,4.26,4.26,0,0,0,1.52-5.89,3.54,3.54,0,0,0-5-1c-.3.21-.5.56-.8.75a2.36,2.36,0,0,1-2.27,0c-.58-.26-.16-1-.08-1.5.35-2.11.82-4.19,1.15-6.3.18-1.17.65-1.69,1.9-1.54A24.28,24.28,0,0,0,295.12,105Z" fill="#fcfdfc"/>
    <path d="M280.89,109.39c-1.49.76-2.64,1.81-4.16,2.1-.43-1.44-.22-2.45,1.24-3.15a7.37,7.37,0,0,0,3.22-2.91,1.4,1.4,0,0,1,1.69-.73c.86.22.55,1,.55,1.54,0,4.95,0,9.9,0,14.84,0,1-.11,1.51-1.35,1.54-1.4,0-1.23-.73-1.23-1.61C280.9,117.22,280.89,113.43,280.89,109.39Z" fill="#f9fcfa"/>
    <path d="M321.72,118.46c0,3.36-2.42,5.59-5.14,4.71-2.09-.67-3.15-3.05-2.65-5.94.45-2.56,1.76-3.63,4.25-3.48C320.36,113.87,321.72,115.67,321.72,118.46Z" fill="#fbfcfb"/>
    <path d="M302.58,109.75c0-2.34.32-4,2.08-4.85a3.81,3.81,0,0,1,4.27.5c1.43,1.18,1.94,3.95,1.1,6.11a3.67,3.67,0,0,1-3.76,2.59C303.86,114,302.57,112.32,302.58,109.75Z" fill="#fbfcfb"/>
    <path d="M318,104.74l-7.05,13.67c-.59,1.14-1.26,2.24-1.74,3.42a1.94,1.94,0,0,1-2.72,1.32c-.16-.66.33-1.12.59-1.63,2.66-5.15,5.38-10.26,8-15.44C315.66,104.75,316.41,104.23,318,104.74Z" fill="#fbfcfb"/>
    <path d="M188,64c-2.21-2.47-2.35-5-.38-6.86a5.93,5.93,0,0,1,7.85.2c1.9,2,1.68,4.47-.58,6.67,3,2.63,3.44,5.79,1.16,8.24a6.7,6.7,0,0,1-9.11,0C184.67,69.91,185.09,66.67,188,64Z" fill="#fdfdfc"/>
    <path d="M215.21,64c2.46,1.95,3.11,3.65,2.38,6.06a5.81,5.81,0,0,1-5,4c-2.6.24-4.73-.53-6-2.9-.4-.73-1.14-1.77,0-2.38s2-.26,2.43,1.15a2.9,2.9,0,0,0,3.69,1.89A3.57,3.57,0,0,0,215.09,68a3.34,3.34,0,0,0-3.4-2.75c-.49,0-1.35.71-1.44-.38-.08-.85.17-1.61,1.36-1.69a2.58,2.58,0,0,0,2.71-2.47A2.42,2.42,0,0,0,212.25,58,2.55,2.55,0,0,0,209,60c-.39,1.72-1.43,1-2.22.78-1.26-.33-.38-1.25-.19-1.75a4.92,4.92,0,0,1,4.53-3.21,5.3,5.3,0,0,1,5.09,2.31C217.48,60,217.16,61.9,215.21,64Z" fill="#fdfdfc"/>
    <path d="M231.31,69.61c0-1.79.29-3.5,2-4.36a3.78,3.78,0,0,1,4.13.32c1.58,1.18,2.18,3.9,1.34,6.2a3.81,3.81,0,0,1-3.91,2.66C232.6,74.31,231.28,72.54,231.31,69.61Z" fill="#fdfcfb"/>
    <path d="M227.81,60.38c0,3.33-2.39,5.59-5.08,4.75C220.61,64.47,219.53,62,220,59c.38-2.29,1.85-3.43,4.24-3.3C226.48,55.82,227.78,57.55,227.81,60.38Z" fill="#fdfcfb"/>
    <path d="M235.38,55.9c-3,5.72-5.93,11.38-8.79,17.1-.65,1.29-1.41,1.71-2.75,1.28-.12-.66.35-1.13.61-1.64,2.65-5.15,5.38-10.27,8-15.44C233.09,55.9,233.83,55.34,235.38,55.9Z" fill="#fdfcfb"/>
    <path d="M203.12,73.3a3.69,3.69,0,0,1-1.35,3.55c-.38.27-.79.59-1.24,0s-.32-.75.11-1.2c.66-.7,1.66-1.49-.21-2.18-.46-.17-.42-1.55,0-2.19s1.35-.28,2-.28c1,0,.57.86.66,1.38A6.7,6.7,0,0,1,203.12,73.3Z" fill="#fff9f2"/>
    <path d="M206.68,341.39a5.29,5.29,0,0,1,.09-1c.17-.76.54-1.39,1.44-1.41a1.47,1.47,0,0,1,1.52,1.31,6.24,6.24,0,0,1,.09,2.71c-.19,1-.55,1.91-1.66,1.8s-1.43-1-1.47-2C206.67,342.42,206.68,342.12,206.68,341.39Z" fill="#6398da"/>
    <path d="M221.22,351.06c0,.37,0,.67-.07,1-.08,1-.49,1.89-1.57,1.92s-1.4-.83-1.58-1.73a5.78,5.78,0,0,1,.05-2.54c.21-.83.54-1.56,1.52-1.55s1.44.78,1.56,1.71C221.19,350.26,221.19,350.69,221.22,351.06Z" fill="#6398da"/>
    <path d="M105.42,123.08a3.12,3.12,0,0,1-3.23,3.2,3.34,3.34,0,1,1,3.23-3.2Z" fill="#fc755e"/>
    <path d="M104.71,115a2.46,2.46,0,0,1-2.61,2.43,2.61,2.61,0,0,1-2.64-2.65,2.62,2.62,0,1,1,5.24.21Z" fill="#fc755e"/>
    <path d="M144.22,123.8c.09-1-.21-2.46,1.59-2.71,1.09-.15,1.87,1.25,1.71,3.09-.1,1.18-.12,2.78-1.74,2.7S144.2,125.33,144.22,123.8Z" fill="#fc755e"/>
    <path d="M136.24,114.68c0,.34,0,.65-.09,1-.16,1-.45,2.13-1.64,2.09s-1.59-1.15-1.63-2.28c0-.24,0-.49,0-.73,0-1.24,0-2.76,1.64-2.75S136.09,113.52,136.24,114.68Z" fill="#fc755e"/>
    <path d="M319.49,118.47c-.2,1.13,0,2.86-1.67,2.9s-1.68-1.58-1.67-2.88c0-.24,0-.49,0-.73.08-1,.25-2.06,1.48-2.17,1.41-.13,1.55,1.07,1.79,2.07A6,6,0,0,1,319.49,118.47Z" fill="#32c171"/>
    <path d="M308.17,109.24a9.83,9.83,0,0,1-.12,1.16c-.21.92-.55,1.9-1.66,1.82s-1.46-1-1.55-2a9.44,9.44,0,0,1,0-2c.11-.94.43-1.84,1.58-1.88s1.38.82,1.61,1.66A7.36,7.36,0,0,1,308.17,109.24Z" fill="#32c171"/>
    <path d="M194.77,68.6a3.07,3.07,0,0,1-3.15,3.31,3.34,3.34,0,1,1,3.15-3.31Z" fill="#ffbb64"/>
    <path d="M194.1,60.63a2.54,2.54,0,0,1-2.66,2.45,2.65,2.65,0,0,1-2.63-2.53,2.83,2.83,0,0,1,2.59-2.63A2.87,2.87,0,0,1,194.1,60.63Z" fill="#ffbb64"/>
    <path d="M233.52,69.44a8.2,8.2,0,0,1,.17-1.33c.2-.74.58-1.39,1.47-1.4s1.26.61,1.52,1.34a5.14,5.14,0,0,1,.07,2.89c-.19.81-.59,1.6-1.51,1.61s-1.42-.84-1.62-1.71A8.83,8.83,0,0,1,233.52,69.44Z" fill="#ffbb64"/>
    <path d="M225.54,60.4c0,1.31-.09,2.89-1.61,2.91s-1.72-1.57-1.73-2.89a4.75,4.75,0,0,1,0-.73c.15-1,.36-2.09,1.59-2.12s1.59,1.08,1.7,2.17C225.53,60,225.53,60.22,225.54,60.4Z" fill="#ffbb64"/>
  </g>
</svg>
