<svg id="Layer_1" data-name="Layer 1" xmlns="http://www.w3.org/2000/svg" width="400" height="400" viewBox="0 0 400 400">
  <title>b2</title>
  <circle cx="202" cy="200" r="182.5" fill="#ccc" stroke="#000" stroke-miterlimit="10"/>
  <g>
    <path d="M293.18,199.29q-43.77,0-87.55,0a8.47,8.47,0,0,1-5.33-1.75Q142.18,155.26,84,113q-13.4-9.74-26.83-19.44c-1.12-.81-1.34-1.26-.4-2.47q39.87-52,103.47-67.78A172.65,172.65,0,0,1,211,18.64c37.69,2,71.75,14.28,101.71,37.34,34.42,26.49,56.46,61.11,66.61,103.28a165.8,165.8,0,0,1,4.57,36.48c.05,3.56.08,3.56-3.4,3.56Z" fill="#e477d1"/>
    <path d="M202.26,382.06c-40.8-.3-77.73-12.43-110.17-37.2-34-26-56.08-60.11-66.54-101.64a174.87,174.87,0,0,1-5-36.81,187.17,187.17,0,0,1,3.27-41.26c.28-1.48.81-1.66,2.16-1.37q53.32,11.41,106.66,22.75,33.35,7.09,66.71,14.11A5.64,5.64,0,0,1,203,203Q255,274.63,307,346.15c1,1.37,1.06,2-.46,3.06a181.93,181.93,0,0,1-73.78,30.3A166.11,166.11,0,0,1,202.26,382.06Z" fill="#ffbb64"/>
    <path d="M205.14,201.39H381.28c2.75,0,2.68,0,2.65,2.7A169.15,169.15,0,0,1,381,233.38a182.4,182.4,0,0,1-41.61,86.26c-1.16,1.34-1.71,1.23-2.93.13q-28.33-25.63-56.74-51.16l-37.18-33.48L206.4,202.55Z" fill="#6398da"/>
    <path d="M196.75,198c-4-.84-8-1.66-12-2.51l-50.34-10.73Q109.15,179.34,83.89,174,56,168,28.06,162.18c-3.46-.73-3.48-.69-2.66-4.13A180.55,180.55,0,0,1,53.62,95.44c1.06-1.5,1.65-.69,2.51-.07l107,77.72,32,23.24c.61.44,1.2.92,1.79,1.38Z" fill="#32c171"/>
    <path d="M210.61,210c.9-.35,1.1.19,1.39.46l102.18,92q10.59,9.54,21.2,19.06c.73.66,1.43,1.07.33,2.23a205.3,205.3,0,0,1-24.15,21.82c-1.48,1.13-2,.73-2.86-.52q-23.35-32.25-46.78-64.45l-50.67-69.76C211.08,210.59,210.89,210.35,210.61,210Z" fill="#fc755e"/>
    <path d="M235,68.87a13.44,13.44,0,0,1,.81-5.75,5.14,5.14,0,0,1,5.11-3.41,5,5,0,0,1,5,3.61,16.81,16.81,0,0,1,.06,10.84,5,5,0,0,1-5.23,3.76c-2.55,0-4.24-1.33-5.12-3.93A14.31,14.31,0,0,1,235,68.87Z" fill="#fdfcfd"/>
    <path d="M230.74,65.41c0,1.23,0,2.45,0,3.68s-.17,2.23,1.6,2c.87-.12.72.7.74,1.26s0,1.17-.74,1.07c-2-.27-1.48,1.11-1.62,2.19-.09.68.66,1.79-.8,2-1.18.13-1.92,0-1.85-1.56.1-2.55,0-2.55-2.52-2.55h-3.1c-1.91,0-2.59-1-1.52-2.64,2.35-3.54,4.88-7,7.3-10.46.52-.75,1.22-.64,1.9-.57.89.1.6.86.61,1.38C230.76,62.57,230.74,64,230.74,65.41Z" fill="#fcfcfc"/>
    <path d="M249,64.24c0-3.21,1.66-5.06,4.24-4.78S257,61.82,256.75,65c-.18,2.57-1.82,4.15-4.21,4.05S248.93,67.24,249,64.24Z" fill="#fcfbfc"/>
    <path d="M268.06,73.48c0,3-1.75,5-4.28,4.81S260,76,260.27,72.46c.24-2.59,2-4.1,4.34-3.81C266.78,68.91,268.07,70.72,268.06,73.48Z" fill="#fcfbfc"/>
    <path d="M253.83,78.28c-1.11.14-1.25-.26-.77-1.18q4.39-8.38,8.72-16.79a1.41,1.41,0,0,1,2.08-.72c.88.5-.06,1.14-.29,1.6-2.67,5.29-5.4,10.54-8.13,15.8C255.1,77.66,254.87,78.51,253.83,78.28Z" fill="#fdfafc"/>
    <path d="M115,306.4c-2.3-2.43-2.47-5.11-.55-6.92a6,6,0,0,1,7.79.1c2,1.94,1.79,4.41-.47,6.78,2.43,2,3.15,4.11,2.19,6.53s-3.17,3.57-6.15,3.43a5.51,5.51,0,0,1-5.21-3.91C111.84,309.93,112.58,308,115,306.4Z" fill="#fdfdfc"/>
    <path d="M104.63,316.32a5.35,5.35,0,0,1-5.48-4c-.1-.51-.54-1.28.41-1.35.66,0,1.56-.67,2,.41.13.3.21.61.35.9a3.05,3.05,0,0,0,3.87,1.66,3.53,3.53,0,0,0,2.23-3.7,3.35,3.35,0,0,0-3.27-2.76c-.58,0-1.53.81-1.57-.54,0-.89.28-1.46,1.45-1.55a2.55,2.55,0,0,0,2.62-2.58,2.32,2.32,0,0,0-2.05-2.44,2.59,2.59,0,0,0-3.28,2c-.42,1.77-1.5.82-2.23.68-1.07-.21-.41-1-.22-1.54a5.58,5.58,0,0,1,9.26-1.69,4.22,4.22,0,0,1,.17,5.66c-.29.4-1,.59-.16,1.32,2.09,1.88,2.51,3.8,1.61,6A5.9,5.9,0,0,1,104.63,316.32Z" fill="#fdfcfc"/>
    <path d="M138.41,316.3a5.28,5.28,0,0,1-5.12-3.12c-.33-.69-1-1.69.11-2.15.88-.37,1.94-.52,2.35,1a2.73,2.73,0,0,0,3.31,2,3.12,3.12,0,0,0,2.77-2.58,3,3,0,0,0-1.45-3.5,2.69,2.69,0,0,0-2-.44c-.53.12-1.26.46-1.21-.56,0-.62-.21-1.55,1-1.52a1.83,1.83,0,0,0,.58-.05c1.29-.4,2.44-1,2.45-2.57a2.3,2.3,0,0,0-2-2.48,2.48,2.48,0,0,0-3.2,1.79c-.45,1.83-1.67,1.19-2.47.83-1.05-.47-.12-1.39.12-1.95a5.24,5.24,0,0,1,5.59-2.94,5,5,0,0,1,4.51,3.66,3.78,3.78,0,0,1-1,3.76c-.49.48-.74.78,0,1.3,2,1.36,2.23,3.44,1.63,5.52a5.48,5.48,0,0,1-4.8,3.94A7.53,7.53,0,0,1,138.41,316.3Z" fill="#fdfdfc"/>
    <path d="M165.89,311.8c-.05,1.89-.51,3.57-2.37,4.51a3.77,3.77,0,0,1-4.88-1.43c-1.32-2.19-.75-6,1.09-7.25a4,4,0,0,1,5.07.73A5.45,5.45,0,0,1,165.89,311.8Z" fill="#fdfcfb"/>
    <path d="M154.58,302.62c0,3-1.53,4.84-4,4.84s-3.85-1.71-3.9-4.52c-.06-3.18,1.44-5.1,4-5.09C153,297.86,154.55,299.77,154.58,302.62Z" fill="#fdfcfb"/>
    <path d="M150.38,316.5c.88-1.71,1.72-3.36,2.57-5q3.2-6.18,6.41-12.36c.29-.55.44-1.28,1.28-1.28.44,0,1-.16,1.26.26s-.13.73-.29,1c-2.83,5.5-5.7,11-8.5,16.51C152.48,316.91,151.61,316.8,150.38,316.5Z" fill="#fdfcfa"/>
    <path d="M129.95,315.4c0,1.38,0,2.73-1.28,3.64-.36.26-.74.59-1.18.14s-.46-.78,0-1.31,1.81-1.3,0-2.08c-.66-.28-.45-1.51-.17-2.13.38-.85,1.37-.41,2.07-.38.89,0,.54.84.61,1.35A5.06,5.06,0,0,1,129.95,315.4Z" fill="#fffbf7"/>
    <path d="M324.57,237.51c-2.55,0-4.73,0-6.91,0-.78,0-1.36,0-1.38-1.09s.47-1.28,1.4-1.26c2.91,0,5.81,0,8.72,0,.57,0,1.4-.41,1.67.48a2,2,0,0,1-.48,2,28.43,28.43,0,0,0-5,9.11,14.32,14.32,0,0,0-1,4.52c0,1.32-.66,1.39-1.7,1.41-1.34,0-1.07-.88-1-1.57a26.68,26.68,0,0,1,4.77-12.31C323.92,238.5,324.12,238.18,324.57,237.51Z" fill="#fcfcfd"/>
    <path d="M301.87,239.55c-1.06.61-1.82,1.07-2.61,1.48-.47.24-1.12.88-1.49.27s-.53-1.67.16-2.12a19.6,19.6,0,0,0,4.8-4.14c.49-.61,1.74-.6,1.73.92,0,5.17,0,10.34,0,15.5,0,1-.37,1.19-1.26,1.2s-1.38-.21-1.37-1.28C301.9,247.53,301.87,243.66,301.87,239.55Z" fill="#f9fafc"/>
    <path d="M286.08,241.6c-.46-1.57-.09-2.53,1.32-3.24a7.35,7.35,0,0,0,3.1-2.84,1.32,1.32,0,0,1,1.64-.64c.71.19.47.84.47,1.3,0,5,0,10.06,0,15.09,0,.88-.08,1.43-1.21,1.43s-1.27-.44-1.26-1.38c0-3.86,0-7.73,0-11.74C288.76,240.2,287.66,241.26,286.08,241.6Z" fill="#fcfcfd"/>
    <path d="M345.36,243.75c2.44,0,4.1,1.91,4.1,4.82s-1.59,4.76-3.92,4.83-4-1.83-4.05-4.66C341.41,245.74,342.92,243.79,345.36,243.75Z" fill="#fbfbfc"/>
    <path d="M338.06,239.4c0,3.1-1.46,4.82-4.06,4.77-2.32,0-3.75-1.82-3.77-4.69,0-3,1.51-4.95,4-4.94S338,236.43,338.06,239.4Z" fill="#fbfcfd"/>
    <path d="M335.07,253.4c-1.11.09-1.07-.39-.67-1.14q4.37-8.39,8.7-16.81a1.47,1.47,0,0,1,2.09-.78c.9.47,0,1.1-.23,1.56-2.69,5.28-5.43,10.53-8.14,15.8C336.43,252.78,336.14,253.63,335.07,253.4Z" fill="#fbfbfd"/>
    <path d="M313.45,252.46a3.52,3.52,0,0,1-1.34,3.29c-.37.28-.76.6-1.17.15s-.57-.76,0-1.28c.75-.71,1.4-1.44-.09-2.28-.44-.24-.4-1.56,0-2.14s1.33-.29,2-.21c.87.1.5.87.57,1.39A8.69,8.69,0,0,1,313.45,252.46Z" fill="#f6f9fc"/>
    <path d="M244,68.79a12.29,12.29,0,0,1-.46,4.59c-.44,1.28-1.21,2.34-2.72,2.34a2.76,2.76,0,0,1-2.74-2.29,17.08,17.08,0,0,1,.06-9.32,2.64,2.64,0,0,1,2.61-2.17,2.88,2.88,0,0,1,2.78,2.27A12,12,0,0,1,244,68.79Z" fill="#e477d1"/>
    <path d="M228.1,64.93q0,1,0,2.08c0,4.26,0,4.26-4.6,3.91l4.2-6.12Z" fill="#e477d1"/>
    <path d="M251.28,63.69a5.09,5.09,0,0,1,.17-1.17,1.45,1.45,0,0,1,1.41-1.12,1.49,1.49,0,0,1,1.31,1,5.26,5.26,0,0,1,.2,3.21c-.13.85-.57,1.66-1.63,1.55s-1.37-.85-1.45-1.76C251.25,65,251.28,64.61,251.28,63.69Z" fill="#e477d1"/>
    <path d="M262.49,73.19a8.44,8.44,0,0,1,.19-1.38,1.45,1.45,0,0,1,2.86,0,4.66,4.66,0,0,1,.21,1.52c0,1.28.11,3-1.61,3S262.59,74.61,262.49,73.19Z" fill="#e477d1"/>
    <path d="M121.67,310.9a3.31,3.31,0,0,1-6.62-.06,3.42,3.42,0,0,1,3.21-3.43A3.52,3.52,0,0,1,121.67,310.9Z" fill="#ffbb64"/>
    <path d="M118.31,300.32a2.52,2.52,0,0,1,2.62,2.49,2.71,2.71,0,0,1-2.58,2.59,2.62,2.62,0,0,1-2.57-2.56A2.41,2.41,0,0,1,118.31,300.32Z" fill="#ffbb64"/>
    <path d="M163.63,311.74c-.15,1.28-.07,3-1.76,3s-1.56-1.74-1.63-3a4.89,4.89,0,0,1,.16-1.14c.16-.81.51-1.54,1.43-1.57s1.39.79,1.63,1.62A8.14,8.14,0,0,1,163.63,311.74Z" fill="#ffbb64"/>
    <path d="M148.94,302.81a10.46,10.46,0,0,1,.09-1.2c.18-.94.53-1.85,1.65-1.8s1.39,1,1.56,1.92a4.29,4.29,0,0,1,0,1c-.05,1.23,0,2.77-1.61,2.81S149.07,304,148.94,302.81Z" fill="#ffbb64"/>
    <path d="M347.23,248.44c-.38,1.15,0,3-1.77,3-1.46,0-1.65-1.42-1.66-2.61s-.06-2.92,1.59-3.07S346.85,247.34,347.23,248.44Z" fill="#6398da"/>
    <path d="M335.78,239.59a9,9,0,0,1-.21,1.52c-.22.73-.73,1.3-1.55,1.13-1.49-.32-1.47-1.57-1.49-2.74s0-2.57,1.5-3a1.34,1.34,0,0,1,1.55,1.14A12.7,12.7,0,0,1,335.78,239.59Z" fill="#6398da"/>
  </g>
</svg>
