<svg id="Layer_1" data-name="Layer 1" xmlns="http://www.w3.org/2000/svg" viewBox="0 0 296.53 295.8"><defs><style>.cls-1{fill:#fff;}.cls-2{fill:#010101;}.cls-3{fill:#e3187f;}.cls-4{fill:#e31880;}.cls-5{fill:#f6c6de;}.cls-6{fill:#fefefe;}.cls-7{fill:#fafafa;}.cls-8{fill:#fcfcfc;}.cls-9{fill:#fbfbfb;}.cls-10{fill:#f8f9f9;}.cls-11{fill:#faf9fa;}.cls-12{fill:#f0efef;}.cls-13{fill:#f1f1f1;}.cls-14{fill:#f5f4f4;}.cls-15{fill:#ededec;}.cls-16{fill:#ebebeb;}.cls-17{fill:#e2e1e1;}.cls-18{fill:#eeeeed;}.cls-19{fill:#e7e6e6;}.cls-20{fill:#f3f3f3;}.cls-21{fill:#edecec;}.cls-22{fill:#f2f2f2;}.cls-23{fill:#e5e5e5;}.cls-24{fill:#e0e0e0;}.cls-25{fill:#eee;}.cls-26{fill:#e6e6e6;}.cls-27{fill:#d9d9d9;}.cls-28{fill:#dededd;}.cls-29{fill:#eaeaea;}.cls-30{fill:#5a5a5a;}.cls-31{fill:#dfdfde;}.cls-32{fill:#7c7d7d;}.cls-33{fill:#7a7a7b;}.cls-34{fill:#373837;}.cls-35{fill:#c5c5c5;}.cls-36{fill:#d1d1d1;}.cls-37{fill:#bcbbbb;}.cls-38{fill:#9d9d9d;}.cls-39{fill:#c4c4c4;}.cls-40{fill:#b1b1b0;}.cls-41{fill:#a8a8a8;}.cls-42{fill:#757575;}.cls-43{fill:#787878;}.cls-44{fill:#c9c7c8;}.cls-45{fill:#d5d5d5;}.cls-46{fill:#c8c7c7;}.cls-47{fill:#aaa;}.cls-48{fill:#8d8d8d;}.cls-49{fill:#3a3a3a;}.cls-50{fill:#cecdcd;}.cls-51{fill:#a5a4a4;}.cls-52{fill:#252525;}.cls-53{fill:#a0a0a0;}.cls-54{fill:#a09f9f;}.cls-55{fill:#828282;}.cls-56{fill:#6b6b6a;}.cls-57{fill:#111;}.cls-58{fill:#8c8b8b;}.cls-59{fill:#979797;}.cls-60{fill:#707070;}.cls-61{fill:#7b7b7b;}.cls-62{fill:#c1c0c0;}.cls-63{fill:#c2c2c1;}.cls-64{fill:#a9a8a8;}.cls-65{fill:#727272;}.cls-66{fill:#5e5e5e;}.cls-67{fill:#757475;}.cls-68{fill:#605f5f;}.cls-69{fill:#e7e6e7;}.cls-70{fill:#1f1f1f;}.cls-71{fill:#d6d5d5;}.cls-72{fill:#1b1b1b;}.cls-73{fill:#373737;}.cls-74{fill:#d2d2d2;}.cls-75{fill:#8a8a8a;}.cls-76{fill:#040505;}</style></defs><title>Funk</title><path class="cls-1" d="M1.06,148.39q0-73.14,0-146.28C1,.52,1.32.21,2.91.21Q149,.29,295,.21c1.59,0,1.9.31,1.9,1.9q-.07,146.28,0,292.56c0,1.59-.31,1.9-1.9,1.9q-146-.07-292.09,0c-1.59,0-1.9-.31-1.9-1.9Q1.09,221.53,1.06,148.39Z"/><path class="cls-2" d="M117.25,287.69c-11.18,0-20.22.42-29.24-.44-14.66-1.4-28.67-5-41.43-12.56-16.88-10-26.84-25-30.15-44.2-4.91-28.51-.34-56,9.88-82.77,5.28-13.85,13.4-25.06,26.47-32.41,6.67-3.75,13.83-6.29,21-8.94,12.28-4.56,25-5.36,37.82-4.51,12.58.83,25.17.65,37.75,1.33a84.33,84.33,0,0,1,23.56,4.34c15.74,5.53,26.34,16.21,31.6,32,2,6.13,3.95,12.29,6.52,18.22,3.33,7.69,4.45,15.84,5.05,24.08,1.17,16-.12,31.75-5.41,47a102.53,102.53,0,0,1-24.7,39.19c-10.93,11-24.49,16.5-39.6,18.74C136,288.33,125.53,287.49,117.25,287.69Z"/><path class="cls-3" d="M259.95,102.06c7.8,3.91,15.25,7.62,22.69,11.38,3,1.5,3.39,3.91,1,5.81-1.42,1.14-2.92.69-4.35,0-5.81-2.86-11.65-5.66-17.4-8.65-1.79-.93-2.3-.72-2.81,1.28-2.39,9.36-7.72,16.18-17.22,19.24-1.61.52-3,.58-4.13-1-1.38-2-.81-4,1.53-5.1a29.69,29.69,0,0,0,5.77-2.91,18.13,18.13,0,0,0,7.79-13.6c.19-2.55-.06-2.65-2.27-1.51q-7.72,4-15.43,7.94c-1.77.91-3.37,1.13-4.62-.83-1.37-2.14-1-3.65,1.62-5,6.39-3.42,12.82-6.77,19.24-10.15l23.76-12.49a31.16,31.16,0,0,1,3.12-1.52c2-.8,3.71-.2,4.44,1.61a3,3,0,0,1-1.53,4.25c-4.64,2.44-9.26,4.92-13.9,7.38Z"/><path class="cls-3" d="M233.7,75.85A29.26,29.26,0,0,0,227.88,83c-1.38,2.23-2.6,4.55-3.89,6.84-.91,1.61-2,2.81-4.07,1.83A3.26,3.26,0,0,1,218.13,87a62.58,62.58,0,0,1,10.55-16.24,68.2,68.2,0,0,1,13.57-11.85c1.61-1.07,3.25-2,5-.44,2,1.7,1.28,3.55.16,5.4a61.54,61.54,0,0,0-8.31,20.66c1,.56,1.9-.14,2.79-.51,6.71-2.76,13.47-5.34,20.67-6.52a17.37,17.37,0,0,1,1.83-.25c2.6-.14,3.71.71,4,3.05.26,1.92-.71,3-3.18,3.43a82.75,82.75,0,0,0-26.8,9.72,19.32,19.32,0,0,1-2,1.08c-3,1.25-5.61-.67-5.1-3.87.67-4.18,1.49-8.34,2.27-12.5A4.58,4.58,0,0,0,233.7,75.85Z"/><path class="cls-4" d="M204.14,36.39,188.93,25.84c-2.84-2-4.17-1.67-6,1.27a52.1,52.1,0,0,1-5.05,6.9,21.61,21.61,0,0,0-1.71,2.18c-2.07,3.1-1.63,5.21,1.55,7.12,2.24,1.35,4.72,2.31,6.69,4.1a3.87,3.87,0,0,1,1.64,2.42,3.42,3.42,0,0,1-1.49,3.2,2.7,2.7,0,0,1-3.24.08c-2.26-1.33-4.46-2.76-6.75-4-3.45-1.92-5.07-1.59-7.59,1.49-1.56,1.91-2.94,4-4.54,5.85s-4,1.74-5.51-.27c-1.3-1.71-.19-3.05.73-4.38,4.26-6.15,8.56-12.28,12.82-18.43,2.94-4.25,5.8-8.56,8.78-12.78,3.41-4.83,6.42-4.68,10.31-2.16,6,3.86,11.78,7.91,17.63,11.93a3.92,3.92,0,0,1,1.62,1.9C209.25,36,207.53,37.53,204.14,36.39Z"/><path class="cls-3" d="M210.58,35a10.74,10.74,0,0,1,4.12-1.41,2.82,2.82,0,0,1,3.08,1.92,2.87,2.87,0,0,1-.93,3.72c-1.9,1.31-3.91,2.47-5.86,3.71-4.33,2.76-7.47,6.38-8.48,11.59a9.21,9.21,0,0,0,3.24,9.32c2.74,2.35,5.77,2.15,8.9.86,4.65-1.92,7.53-5.54,9.4-10,1.21-2.91,2.14-5.94,3.19-8.91.94-2.68,2-3.44,4.08-2.94,2.31.54,2.75,2.29,2.5,4.29-1,8.23-5.42,14.6-11.17,20.21A17.18,17.18,0,0,1,211,72.18c-7.92.34-14.82-6.28-15.23-14.25-.41-8.16,3.38-14.17,9.27-19.23A14.18,14.18,0,0,1,210.58,35Z"/><path class="cls-5" d="M210.58,35A24,24,0,0,1,205,38.7c.22-1-.55-1.56-.89-2.31,4-.29,4.66-.87,4.68-4.15C209.92,32.83,208.26,35.18,210.58,35Z"/><path class="cls-1" d="M92.37,196.3a19,19,0,0,1,4.85-12.24c5.41-6.2,12.36-9.28,20.45-9.85A11.39,11.39,0,0,1,129.51,182a44.86,44.86,0,0,1,2.63,15.83c-.12,7.64-3.15,10.82-10.72,11.94-5.55.82-11.13,1.52-16.68,2.33a6.83,6.83,0,0,1-6.42-2.26A20.14,20.14,0,0,1,92.37,196.3Z"/><path class="cls-6" d="M181.43,215.82c-.08-8,.2-15.76-.49-23.53-1.82-20.59-10-37.24-29.5-46.58-9.74-4.66-20.15-5.88-30.88-5.15-11.14.76-21.36,4.85-31.76,8.33a73.58,73.58,0,0,1-9.46,2.78A7.8,7.8,0,0,1,82.76,148c15.41-8.55,31.82-13.16,49.54-12.31,12.86.62,24.77,4,34.68,12.69,9.13,8,14.28,18.38,17.66,29.8,2.81,9.5,3.2,19.29,3.19,29.08C187.83,212.53,186.12,214.54,181.43,215.82Z"/><path class="cls-7" d="M24.33,216.69a160.38,160.38,0,0,1-1.49-22.86c.49-27.4,10.42-50.52,30.75-69.14,5.51-5,11.7-6.72,18.89-5.94,0,.9-.8.88-1.24,1.14C60.68,126.17,51,133.49,43.16,143.06A76.8,76.8,0,0,0,26,185.46c-.65,6.87-.29,13.74-.32,20.61a78.14,78.14,0,0,1,.1,9.1C25.8,215.93,25.87,217.22,24.33,216.69Z"/><path class="cls-8" d="M98.89,279.87C111,280.53,123,279.1,135,277c20-3.47,38.31-10.63,53.79-24.14.63-.21,1.31-.55,1.48.53-9.48,13.8-22.59,22.16-38.78,26-10,2.34-20.21,2.22-30.37,2.63-6.94.28-13.88,0-20.82-.41C99.66,281.13,97.23,282.13,98.89,279.87Z"/><path class="cls-9" d="M98.89,279.87c-.72,1.52.87,1.18,1.38,1.72-16.16-.79-32.15-2.53-46.76-10.24-16.1-8.5-26.6-21.41-30.22-39.51a6.88,6.88,0,0,0-.33-.91c.61-.51,1.18-.27,1.76.15,1.9,1.38,3.59,2.93,4.24,5.31,4.84,17.55,16.77,28.12,33.63,33.43,10.59,3.33,21.1,7,32,9.28C96,279.39,97.45,279.61,98.89,279.87Z"/><path class="cls-7" d="M173.38,248.77c-4.11,6.46-10.21,9.9-17.1,12-14.14,4.32-28.14,3.3-42-1.48-.12,0-.2-.21-.54-.59C134.34,258.86,154.07,255.17,173.38,248.77Z"/><path class="cls-10" d="M154,183.87c2.51,7.23,2.43,14.68,1.68,22.15-.33,3.28-1.16,6.5-1.51,9.78a5.51,5.51,0,0,1-3.6,4.61c-1.58.74-3.29,1.23-5.32,2l6.54-29.68c.46-1.21.45-2.53,1-3.73a16.74,16.74,0,0,0,.23-3.15C153.09,185.07,152.81,184.07,154,183.87Z"/><path class="cls-11" d="M67.34,197.33c.31,7.68,3.3,14.33,7.88,20.35a21.6,21.6,0,0,1,3.73,8.54,20.16,20.16,0,0,1-6.31-5.44c-5.1-6.71-7.66-14.49-9.44-22.59-.74-3.37-1.82-6.68-2-10.17a12.49,12.49,0,0,1,4.73-11c1,.93.68,2.15.71,3.27C66.8,186,66.22,191.7,67.34,197.33Z"/><path class="cls-11" d="M142,247.94c6.32-1.62,11.73-5,16.86-8.84,4.54-3.42,9-6.91,13.94-10.66a17.76,17.76,0,0,1-3.41,11.25,15.55,15.55,0,0,1-8.28,6,88,88,0,0,1-17.28,4C143,249.32,141.55,249.69,142,247.94Z"/><path class="cls-10" d="M137,148.1c8.55,1.29,16.32,4.32,22.83,10.17,5,4.51,8,10.34,10.88,16.27-1.77-.83-2-.95-2.7-3a4.4,4.4,0,0,0-2.66-2.79c-6.12-2.85-11.37-7-16.79-11a115.51,115.51,0,0,0-13.13-8.52C135.38,148.08,136.15,148,137,148.1Z"/><path class="cls-10" d="M90.1,239.08c-11.11.63-19.66-4.3-26.37-12.69-6-7.5-8.92-15.95-6.58-25.65,1.3,3.5,2.33,7.07,3.6,10.56C65.89,225.48,74.93,235.43,90.1,239.08Z"/><path class="cls-9" d="M80.8,252.58c-5.2.59-10.2.73-15.11-.56-6.1-1.61-9.95-5.58-12-11.45-.17-.49-.63-1.09-.12-1.44.34-.23,1-.06,1.53.06,6.58,1.59,12.31,5,18,8.53C75.68,249.32,78.23,251,80.8,252.58Z"/><path class="cls-12" d="M119.8,216.37a50.9,50.9,0,0,0,11.83-4.44c3.9-2.17,5.68-5.6,6.26-9.94s-.26-8.79,0-13.57a18.34,18.34,0,0,1,2.81,7.61,31.51,31.51,0,0,1-.07,12.63c-1.44,6.68-6.51,10.18-13.25,9.31-2.22-.29-4.44-.52-6.66-.77C120.49,216.82,119.52,217.27,119.8,216.37Z"/><path class="cls-13" d="M146.22,234c8.11-3.94,13.39-10.58,17.48-18.34,1.18-2.24,2.27-4.52,3.39-6.79.44-2.87.05-5.75.2-8.63,0-.82-.39-2,1.1-2,0,5.78.56,11.6-.56,17.32-2,10.23-8.69,16.11-18.23,19.24-.66.21-1.34.35-2,.53C146.57,235.5,146.19,235,146.22,234Z"/><path class="cls-14" d="M102.18,244.64c3.57-.53,7.13-1,10.48-2.53,5.17-2.39,10.35-1.5,15.46.32,1.14.41,2.22,1,3.87,1.73a81.87,81.87,0,0,1-33,2.67C99.32,245,101.12,245.38,102.18,244.64Z"/><path class="cls-15" d="M136.26,157.75c-16.85-4.65-33.07-2.48-49.91,1.32a17.81,17.81,0,0,1,9-5,63.41,63.41,0,0,1,37.91,1.73A5.5,5.5,0,0,1,136.26,157.75Z"/><path class="cls-16" d="M81.08,138.42c3.64-8.76,15.83-13.53,27.42-12.57C99.5,129.93,90.19,133.35,81.08,138.42Z"/><path class="cls-17" d="M103.21,220.56a129.46,129.46,0,0,0,30.59,2.76C129.05,228.77,109.79,227.61,103.21,220.56Z"/><path class="cls-18" d="M188.85,153.69c-4.11-7.34-10.37-13.21-14.22-20.7,6.4.41,13.35,9.23,15.55,19.8C190,153.46,189.67,153.95,188.85,153.69Z"/><path class="cls-19" d="M178.93,119.5c-10.45-5.3-22.2-6.11-33.17-9.66,12.09,0,23.85,1.28,34.25,8.28C180.41,119.18,179.94,119.55,178.93,119.5Z"/><path class="cls-20" d="M150.84,127.7c3.88.21,7.81.19,11.43,1.92a9.7,9.7,0,0,1,5,5.48,114.67,114.67,0,0,1-22.1-5.93c.12-1.64,1.4-1.58,2.48-1.54S149.79,127.72,150.84,127.7Z"/><path class="cls-21" d="M166.2,194.47c-2.64-6.77-5.29-13.53-7.88-20.32-.19-.49-1-1.17.06-1.72a1.59,1.59,0,0,1,2.22.26,21.76,21.76,0,0,1,5.31,10.84,89,89,0,0,1,1.69,9.51C167.68,194.06,167.22,194.54,166.2,194.47Z"/><path class="cls-17" d="M106.47,233.82c-7.25-.88-13-4.69-19.43-7.6C97.8,224.48,102.16,226.17,106.47,233.82Z"/><path class="cls-22" d="M57.48,148c4.32-5.4,9.07-10,15.13-13.29C72.27,141.53,65.28,147.69,57.48,148Z"/><path class="cls-13" d="M177.79,239.07c1.44-3.59,1.55-6.9,2.24-10.1a10,10,0,0,1,4.93-6.91c.3-.17.6-.51,1-.28s.29.6.2,1c-.87,3.41-1.26,6.95-2.57,10.23A10.73,10.73,0,0,1,177.79,239.07Z"/><path class="cls-23" d="M46.19,152.84c-3.56,7-7.25,13.88-10,21.23-1.32-.26-.87-1.49-1.24-2.27a47.36,47.36,0,0,1,9.68-19.94C45.51,151.59,45.89,152.15,46.19,152.84Z"/><path class="cls-24" d="M41.31,214.06c0,4.07,1.18,8,1.06,12.14-.05,1.75.17,3.54-.69,5.57-3.24-5.89-3.11-12-3-18.17a2.27,2.27,0,0,0,.16-1.1c0-.87.44-1.24,1.26-1.18a1,1,0,0,1,1,1.2A3.34,3.34,0,0,0,41.31,214.06Z"/><path class="cls-25" d="M48.25,164.33c2.2-6,4.52-7.84,10.27-7.65L49.75,168.1c-1.43.48-1.74-.44-1.84-1.53A7.48,7.48,0,0,1,48.25,164.33Z"/><path class="cls-26" d="M125.54,169.15c3.71-1,5.77-.38,7.84,2.41a30.23,30.23,0,0,1,5.3,14.56,3.55,3.55,0,0,1-2.06-2.28C132.88,174.66,132.9,174.66,125.54,169.15Z"/><path class="cls-27" d="M198,156.54c4.28,6.58,5,13.31,1.7,20.16l-2.12-19.16C197.48,157.11,197.14,156.58,198,156.54Z"/><path class="cls-28" d="M82,122.83c6.07-4.73,12.82-6.71,20.46-4.81Z"/><path class="cls-29" d="M89.69,218.1c-7.11-.29-9.86-3.48-9.72-11.46Z"/><path class="cls-14" d="M88,186.84a48.24,48.24,0,0,0-1.22,15.79C82,198.89,82.36,192.14,88,186.84Z"/><path class="cls-30" d="M67.34,197.33A14.24,14.24,0,0,1,66,190.89c-.1-4.62,0-9.23-.06-13.85.06-.53.07-1.3.74-1.22.93.11.71,1,.71,1.68C67.38,184.11,67.35,190.72,67.34,197.33Z"/><path class="cls-31" d="M94.71,261.65a29.78,29.78,0,0,1-11.2-2.43c4.38-.33,8.77-1.1,13,.74C96.6,261.26,95.63,261.43,94.71,261.65Z"/><path class="cls-32" d="M103.57,270.11c4.51-1.4,9.09-.79,13.67-.52,2.21.13,4.45,0,6.67-.06.94-.23,1.83-.34,2.32.74-.21.65-.74.49-1.16.49q-10.06,0-20.13,0C104.45,270.76,103.63,271.15,103.57,270.11Z"/><path class="cls-33" d="M175.33,199.42c1.21,6.64-.59,12.76.28,19.19-1.64-.88-2.5-2.2-2-3.32,1.89-4.12.59-8.34.81-12.5A7.29,7.29,0,0,1,175.33,199.42Z"/><path class="cls-34" d="M103.57,270.11c.24.15.48.43.73.43,7.17,0,14.35,0,21.68,0-.55-1-1.38-.84-2.07-1,2.41-1.92,4.68-.18,7.09.23-1.66,1.94-3.91,1.16-5.82,1.21-6.94.15-13.89.07-20.84,0-.45,0-1.29.53-1.31-.55C103,270.35,103.38,270.23,103.57,270.11Z"/><path class="cls-35" d="M72.22,265.52c5-1.51,8.79.07,13,2C80.48,268.87,76.72,267,72.22,265.52Z"/><path class="cls-36" d="M52.43,257.62a14.33,14.33,0,0,1-8.52-6.74A13.52,13.52,0,0,1,52.43,257.62Z"/><path class="cls-37" d="M34.93,171.8c.79.55.66,1.6,1.24,2.27l-2.73,8.63C32.36,178.81,33.38,175.27,34.93,171.8Z"/><path class="cls-38" d="M153.17,189.43a7.25,7.25,0,0,1-1.37,3.26V179.46c1.56.77,1.27,1.88,1.71,2.59C153.17,184.5,153.6,187,153.17,189.43Z"/><path class="cls-39" d="M144.68,182.63a32,32,0,0,1-2.27-9,5.05,5.05,0,0,1,3.25,5.6C144.92,180.25,145.84,181.74,144.68,182.63Z"/><path class="cls-40" d="M142,247.94c0,1.2,1.36,1,1.82,1.71a12.91,12.91,0,0,1-9.46.26Z"/><path class="cls-41" d="M166.2,194.47l1.39-1.43a6.38,6.38,0,0,1,.8,5.21c-1.09.53-.76,1.55-.84,2.43-.24,2.73.4,5.52-.46,8.22,0-1.75-.15-3.52,0-5.25C167.41,200.52,166.73,197.51,166.2,194.47Z"/><path class="cls-42" d="M150.84,127.7c-.93.85-2,.41-3.1.46s-2.08-.31-2.53,1c-2.32-.15-2.32-.15-3.64-2.32C144.83,126.84,147.88,126.41,150.84,127.7Z"/><path class="cls-43" d="M24.33,216.69c1.79-1,1.18-2.76,1.33-4.18a61.16,61.16,0,0,0,.05-6.43c.8,3.47.1,7.05.83,10.53.25,1.18.3,2.4.45,3.7C24.9,219.84,24.33,218.47,24.33,216.69Z"/><path class="cls-44" d="M46.19,152.84l-1.57-1c.8-2.21,1.92-4.11,4.62-4.76A8.61,8.61,0,0,1,46.19,152.84Z"/><path class="cls-45" d="M137,148.1c-.56.33-1.25.49-1.58,1.14l-7.17-1.75C131.6,146.8,134.38,146.38,137,148.1Z"/><path class="cls-46" d="M146.22,234a3.14,3.14,0,0,0,1.38,1.3c-2.12,1.94-4.38,1.31-7.35.35Z"/><path class="cls-47" d="M93.69,269c-2.42,1.27-4.4.19-6.48-1C89.61,266.71,91.61,267,93.69,269Z"/><path class="cls-48" d="M79.78,123.75c-2.15,1.89-4.21,3.14-7.16,3A8.16,8.16,0,0,1,79.78,123.75Z"/><path class="cls-49" d="M113.72,117.09c-1.44-.14-2.66.66-4,.89-.87.15-1.92,0-2.05-1-.1-.73,1-.7,1.56-1,1.54-.76,3,.43,4.51.12A.63.63,0,0,1,113.72,117.09Z"/><path class="cls-50" d="M178.93,119.5a1.47,1.47,0,0,0,1.08-1.38c1,.48,2.2.72,2.92,1.72.37.51.67,1.14.2,1.68s-1,.26-1.51.06A6.75,6.75,0,0,1,178.93,119.5Z"/><path class="cls-51" d="M90.86,109.16c-2.58,3.06-5.34,1.7-8,1.2C85.38,109.9,87.85,109.1,90.86,109.16Z"/><path class="cls-52" d="M113.72,117.09v-.93h9.73a.62.62,0,0,1,0,.93Z"/><path class="cls-53" d="M170.86,179.46c2.72,2,3.11,3.58,2,7.42Z"/><path class="cls-54" d="M198.59,221.88l1-5.07c.67-.53,1.06-.17,1.37.44a8.86,8.86,0,0,1-1.37,5.66C199,222.76,199,222.17,198.59,221.88Z"/><path class="cls-55" d="M94.71,261.65c.33-.85,1.64-.66,1.8-1.69l3.86,1.85C98.19,262.94,96.42,263.07,94.71,261.65Z"/><path class="cls-56" d="M41.31,214.06c-.07-.13-.14-.27-.22-.39-.42-.66.42-2-1.12-2.05s-.75,1.39-1.29,2c0-1.21,0-2.42-.09-3.62,0-.73.27-1.21,1-1.25a1.19,1.19,0,0,1,1.26,1.08C41.05,211.22,41.75,212.59,41.31,214.06Z"/><path class="cls-57" d="M123.46,117.09v-.93h9v.93Z"/><path class="cls-58" d="M177,148.87c-2.73-.69-3.67-2.67-5.54-4.41C174.5,144.68,175.87,146.14,177,148.87Z"/><path class="cls-59" d="M146.3,182.83c1.25,2.35,1.1,3.25-.91,5.37-1-1-.58-2.26-.56-3.44C145.34,184.13,145.21,183,146.3,182.83Z"/><path class="cls-60" d="M102.18,244.64,99,246.84c-.46,0-.92.07-1.38.07s-.93-.17-1-.74.39-.8.81-1A9.2,9.2,0,0,1,102.18,244.64Z"/><path class="cls-61" d="M48.25,164.33c.69,1.18-1,3.31,1.5,3.78-.6.74-.7,2.43-2.06,1.78-1.15-.55-.9-2-.58-3.12A16.24,16.24,0,0,1,48.25,164.33Z"/><path class="cls-62" d="M190.22,253.41c-.37-.53-1-.42-1.48-.53l3.57-4.62C193.06,250.76,191.89,252.19,190.22,253.41Z"/><path class="cls-63" d="M198.59,221.88c.72,0,.83.51,1,1,.12,1.85-1,3.26-1.87,5.23C196.48,225.52,198.32,223.81,198.59,221.88Z"/><path class="cls-64" d="M206.25,197c-1-2-1.53-3.71-.58-5.53C207.17,192.8,207.17,192.83,206.25,197Z"/><path class="cls-65" d="M197,150.15c.34,1,.78,2.11,1.06,3.24.09.36-.43.63-.84.49-1.4-.48-1.34-1.68-1.29-2.83C195.92,150.63,196,150.13,197,150.15Z"/><path class="cls-66" d="M128.26,129.59a4.36,4.36,0,0,1-5,.31C124.73,128.36,126.27,128.74,128.26,129.59Z"/><path class="cls-67" d="M200.93,217.24l-1.37-.44,1.51-4.09A3.44,3.44,0,0,1,200.93,217.24Z"/><path class="cls-68" d="M188.85,153.69l1.33-.9c.91,1,2.09,2.42.65,3.37C190.1,156.63,189.43,154.65,188.85,153.69Z"/><path class="cls-69" d="M146.3,182.83c-.57.58-.54,1.62-1.47,1.93l-.15-2.13c.21-1.16-.13-2.49,1-3.39Z"/><path class="cls-70" d="M72.74,181.77c-.64-1.3-1.13-2.42-.21-3.82A2.84,2.84,0,0,1,72.74,181.77Z"/><path class="cls-71" d="M153.17,189.43c.19-2.46-.54-5,.34-7.38l.5,1.82C152.9,185.6,154.33,187.71,153.17,189.43Z"/><path class="cls-72" d="M89.55,174.79c-.05,1-.81,1.19-1.5,1.44-.47.17-.72-.15-.68-.58.07-.82.77-1,1.38-1.3C89.19,174.16,89.45,174.34,89.55,174.79Z"/><path class="cls-73" d="M193,181.83c.71,1,.6,2.06.25,3.4C192.13,184,192.56,182.91,193,181.83Z"/><path class="cls-74" d="M51.47,191.43c-1.48-1.28-.69-2.25.5-3.63A5.31,5.31,0,0,1,51.47,191.43Z"/><path class="cls-75" d="M119.8,216.37l.9.83h-2C118.79,216.51,119.27,216.41,119.8,216.37Z"/><path class="cls-37" d="M198,156.54l-.42,1a9.83,9.83,0,0,1-.38-1.06c-.06-.26-.19-.7.18-.74S197.83,156.24,198,156.54Z"/><path class="cls-76" d="M105.3,195.28c.1-5,3.95-7.94,8.8-6.72a4.27,4.27,0,0,1,3.21,3,9.58,9.58,0,0,1-.08,5.7,3.8,3.8,0,0,1-3.48,2.93,39.56,39.56,0,0,1-5,.17C106.36,200.26,105.23,198.46,105.3,195.28Z"/></svg>
