<svg id="Layer_1" data-name="Layer 1" xmlns="http://www.w3.org/2000/svg" viewBox="0 0 296.53 295.8"><defs><style>.cls-1{fill:#fdfdfd;}.cls-2{fill:#fefefe;}.cls-3{fill:#e1157e;}.cls-4{fill:#e1157f;}.cls-5{fill:#fbfbfb;}.cls-6{fill:#f9f9f9;}.cls-7{fill:#f7f7f7;}.cls-8{fill:#f3f3f3;}.cls-9{fill:#f8f8f8;}.cls-10{fill:#f6f6f6;}.cls-11{fill:#f4f4f4;}.cls-12{fill:#e9e9e9;}.cls-13{fill:#eee;}.cls-14{fill:#dfdfdf;}.cls-15{fill:#cbcbcb;}.cls-16{fill:#f0f0f0;}.cls-17{fill:#e7e7e7;}.cls-18{fill:#e3e3e3;}.cls-19{fill:#ebebeb;}.cls-20{fill:#e4e4e4;}.cls-21{fill:#efefef;}.cls-22{fill:#e6e6e6;}.cls-23{fill:#eaeaea;}.cls-24{fill:#3e3e3e;}.cls-25{fill:#d7d7d7;}.cls-26{fill:#e2e2e2;}.cls-27{fill:#3b3b3b;}.cls-28{fill:#b0b0b0;}.cls-29{fill:#d9d9d9;}.cls-30{fill:#a6a6a6;}.cls-31{fill:#d4d4d4;}.cls-32{fill:#6d6d6d;}.cls-33{fill:#c1c1c1;}.cls-34{fill:#bdbdbd;}.cls-35{fill:#171717;}.cls-36{fill:#393939;}.cls-37{fill:#c5c5c5;}.cls-38{fill:#757575;}.cls-39{fill:#9f9f9f;}.cls-40{fill:#454545;}.cls-41{fill:#acacac;}.cls-42{fill:#666;}.cls-43{fill:#313131;}.cls-44{fill:#b8b8b8;}.cls-45{fill:#8b8b8b;}.cls-46{fill:#b9b9b9;}.cls-47{fill:#9c9c9c;}.cls-48{fill:#989898;}.cls-49{fill:#3d3d3d;}.cls-50{fill:#c3c3c3;}.cls-51{fill:#afafaf;}.cls-52{fill:#747474;}.cls-53{fill:#707070;}.cls-54{fill:#3c3c3c;}.cls-55{fill:#b4b4b4;}.cls-56{fill:#888;}.cls-57{fill:#e0e0e0;}.cls-58{fill:#959595;}.cls-59{fill:#7a7a7a;}.cls-60{fill:#bfbfbf;}.cls-61{fill:#696969;}.cls-62{fill:#484848;}.cls-63{fill:#939393;}.cls-64{fill:#303030;}.cls-65{fill:#7f7f7f;}.cls-66{fill:#8c8c8c;}.cls-67{fill:#858585;}.cls-68{fill:#868686;}.cls-69{fill:#c8c8c8;}.cls-70{fill:#fcf6fa;}.cls-71{fill:#050505;}</style></defs><title>Jazz</title><path class="cls-1" d="M46.1.41Q152.56.41,259,.37c1.56,0,1.91.35,1.91,1.91q-.06,147,0,293.93a3.4,3.4,0,0,1-2.4.41H48.32c-2.76,0-2.84-.09-3-2.95-.21-4.82,0-9.65-.08-14.48-.06-4.21,0-8.41,0-12.61s0-8.41,0-12.61,0-8.14,0-12.2,0-8.27.05-12.41,0-8,0-12c0-4.34,0-8.69,0-13s0-8.55,0-12.82c-.05-3.79.09-7.59,0-11.38-.1-6.56-.07-13.12,0-19.68,0-6.35-.05-12.7,0-19.05.07-4.69-.1-9.39,0-14.08.07-6.56,0-13.12,0-19.67,0-4.83,0-9.66,0-14.5,0-6.49,0-13,0-19.47,0-4.76,0-9.53,0-14.29,0-5,.07-10.08,0-15.12s0-10.08,0-15.12c0-6.42-.09-12.84,0-19.26a45.56,45.56,0,0,0-.06-6.21A3.61,3.61,0,0,1,46.1.41Z"/><path class="cls-2" d="M46.1.41c-.5,2.83.09,5.7-.16,8.49-.18,2,.33,4.06-.17,6.09-.4,1.59,0,3.27.05,4.86.12,3.44,0,6.9.09,10.33,0,2,0,4.06-.06,6.07a35.26,35.26,0,0,0,.06,6.29A40.84,40.84,0,0,1,46,48a74.27,74.27,0,0,1,0,7.46c-.16,2,.1,4.05-.14,6.09A35.17,35.17,0,0,0,46,67.83c.12,1.83-.08,3.64,0,5.48.14,2.61,0,5.26-.05,7.87a58.56,58.56,0,0,1,0,5.88,25.55,25.55,0,0,0,0,5.67c.2,2.11,0,4.2.09,6.3a52.43,52.43,0,0,1,0,7.45c-.17,2,0,4.07-.05,6.08a22.61,22.61,0,0,0,.1,6.07c.4,1.69,0,3.44-.07,5.06-.1,2,0,4.08,0,6.08s-.43,4,.11,6.07c.43,1.59,0,3.28-.08,4.86-.1,2,.07,4.08,0,6.08s-.51,4,.08,6.07c.46,1.58,0,3.27,0,4.86-.1,3.44.05,6.89-.07,10.33a24.12,24.12,0,0,0,.09,6.08c.37,1.69-.07,3.5.06,5.28A64.93,64.93,0,0,1,46,187.5c-.13,2.51,0,5-.06,7.53a53.23,53.23,0,0,0,.06,7.32c.26,2.21,0,4.48,0,6.73,0,2.83.14,5.69,0,8.5-.15,2.52,0,5-.07,7.53a58.06,58.06,0,0,0,0,6.91c.24,2.43,0,4.89,0,7.34.05,2.69-.1,5.4,0,8.1a58.32,58.32,0,0,1-.09,7.12c-.19,2.45.12,4.88,0,7.33-.11,2.76.14,5.54-.08,8.32-.17,2.17.05,4.35,0,6.52-.07,3-.19,6,0,8.91.16,2.45-.57,4.93.24,7.32.34,1-.85,2.19.15,2.91s2.42.29,3.65.29q105.51,0,211,0c-.17.26.4.88-.42.84-.48,0-1,0-1.45,0q-110.51,0-221,0c-1.56,0-1.91-.35-1.91-1.91q.06-146.45,0-292.89c0-1.56.34-2,1.91-1.91C40.69.51,43.4.41,46.1.41Z"/><path d="M149,288.72c-9.87.13-21,0-32-2.05-12.39-2.3-24-6.47-34-14.33a55.64,55.64,0,0,1-21.35-37.66c-3.5-26.38.06-51.9,11.39-76.08,9.38-20,24.9-33.35,46.06-39.57,24.12-7.09,48.29-7.07,72.19,1.43A81.22,81.22,0,0,1,211,130.36a51.89,51.89,0,0,1,19.91,26.12c3,8.81,5.65,17.75,8.25,26.68,2.7,9.25,2.56,18.73,1.74,28.22-1.16,13.42-4.32,26.31-10.9,38.16-7.13,12.85-16.34,23.83-29.51,30.95-9.24,5-19.28,7-29.64,7.83C164,288.85,157.16,288.73,149,288.72Z"/><path class="cls-3" d="M89,103.24a64.5,64.5,0,0,0-4.43-20.67c-1.28-3.43-2.8-6.76-4.19-10.15-.65-1.57-1.62-2-3.27-1.35C69,74.49,60.93,77.85,52.86,81.25c-2.46,1-3.83.78-4.58-.94s-.09-3.43,2.22-4.41q13.62-5.82,27.32-11.47c2.89-1.19,5-.34,6.41,2.45a93.41,93.41,0,0,1,10.47,35.34c1,10.87-7,17-15.48,19C74,122.43,68.91,122.38,64,120c-6.83-3.26-10.15-9.8-8.72-17.06.41-2.11,1.46-3,3.33-2.91s2.7.94,2.55,2.77c-.07.9-.14,1.79-.26,2.68a7.51,7.51,0,0,0,3.92,8.2c5.69,3.34,15,2.67,20.23-1.44A10,10,0,0,0,89,103.24Z"/><path class="cls-3" d="M95.08,58.4c0-.35,0-.69,0-1,0-1.31-.15-2.65,1.24-3.49s2.88-.53,4.26.31a188,188,0,0,1,24.33,17.64c2.63,2.24,5.22,4.54,7.77,6.87,1.85,1.69,2,3,.53,4.63s-2.63,1.5-4.5-.11c-2.82-2.44-5.53-5-8.38-7.43-2.54-2.15-4-2.13-6.36.06a44.67,44.67,0,0,0-7.24,7.68A12.7,12.7,0,0,0,105,94.94a67.15,67.15,0,0,1,1.69,8.1c.33,1.9-.59,3-2.46,3.39s-3-.35-3.28-2.21c-1-6.2-2.16-12.38-3.08-18.59C96.49,76.6,95.66,67.51,95.08,58.4Z"/><path class="cls-4" d="M136.79,57.75c-.24-5.08-.18-8.81-.05-12.54.1-2.83-1-3.59-3.55-2.35-4.22,2-8.37,4.25-12.55,6.37-1.3.66-2.6,1-3.78-.26a2.78,2.78,0,0,1,.56-4.6,54.42,54.42,0,0,1,5.42-3,136.6,136.6,0,0,1,13.8-6.16c4.16-1.59,5.73-.64,5.82,3.76.16,7.26.22,14.52.32,21.78,0,.14,0,.28,0,.41,0,4.28,1.19,5,5,2.87,3.31-1.86,6.59-3.79,9.9-5.65,2.07-1.17,3.38-1,4.35.51s.61,3-1.23,4.43a56,56,0,0,1-19.5,9.3c-2.5.68-3.91-.41-4.21-3.13A107.9,107.9,0,0,1,136.79,57.75Z"/><path class="cls-3" d="M181.95,17a170.87,170.87,0,0,1-3.47,20.2c-.41,1.89-.9,3.76-1.35,5.64-.11.46-.39,1,0,1.38s.87-.06,1.3-.21c3.07-1.05,6.11-2.18,9.2-3.16,1.64-.52,3.36-.69,4.26,1.33s.11,3.41-2.32,4.22a90.7,90.7,0,0,0-9.12,3.41c-2,.92-4,1.91-6,2.84-1.43.66-2.87,1.49-4.42.21s-1.08-2.83-.65-4.39l2.77-10.19a126.81,126.81,0,0,0,2.66-12.78c.1-.59.45-1.35-.12-1.75s-1.18.16-1.74.39c-4.9,2.07-9.78,4.16-14.68,6.22a2.29,2.29,0,0,1-3.32-1.12c-.71-1.46-.67-2.88.77-3.87a13.23,13.23,0,0,1,2.8-1.32,86.47,86.47,0,0,0,15.77-7.81,34.23,34.23,0,0,1,3.35-2.07C180,13.08,182,14.42,181.95,17Z"/><path class="cls-1" d="M165.78,207c-.15,1.27-.26,2.3-.39,3.33-.53,4.15-2.33,6.26-6.46,7.34s-8.43,1.42-12.66,2.08c-1.77.28-3.56.48-5.33.78a5.57,5.57,0,0,1-5.25-1.68c-7.4-7.31-7.32-18.19.41-25.14,5-4.54,10.93-7.3,17.86-7,5,.24,8.3,3.1,9.82,7.86A55.58,55.58,0,0,1,165.78,207Z"/><path class="cls-5" d="M209.79,223.88c0-7.06.05-14-.43-20.88-1.08-15.36-6.19-28.77-19.38-37.89-10.12-7-21.6-9.09-33.7-8.7-9.35.31-17.94,3.58-26.61,6.6-3.19,1.11-6.42,2.13-9.66,3.09-.53.16-1.37,1-1.79,0s.69-1.18,1.26-1.53a91.48,91.48,0,0,1,20.66-9.45,69.64,69.64,0,0,1,41.26-.17c12.57,3.77,21.59,11.77,27.05,23.67a77.91,77.91,0,0,1,7.14,38.52C215.33,221.09,213.86,222.86,209.79,223.88Z"/><path class="cls-6" d="M216.85,257.68c-3.36,6.44-8.51,11-14.32,14.86-9.51,6.38-20.17,9.06-31.44,10a293.6,293.6,0,0,1-41.29-.06,93,93,0,0,1-30.38-6.9c-17.25-7.17-27.51-20-31.6-38.2,1.34-.31,2.19.58,3.06,1.26a7.45,7.45,0,0,1,2.52,4c3.86,14.13,13.1,23.4,26.54,28.34,11.57,4.25,23.32,8.18,35.58,10,6.32,1,12.74.45,19.05-.23a158.92,158.92,0,0,0,29.63-5.82,87.8,87.8,0,0,0,29.68-15.66c.75-.61,1.55-1.16,2.34-1.72C216.29,257.49,216.47,257.59,216.85,257.68Z"/><path class="cls-7" d="M69.38,226a137.9,137.9,0,0,1-1.65-22.52c.59-24.59,9.92-45.17,28.16-61.7,4.85-4.4,10.73-5.12,17.41-5.06a118.18,118.18,0,0,0-19.84,14.23A67.76,67.76,0,0,0,71,194.49a151.21,151.21,0,0,0-.32,28.17,6.22,6.22,0,0,1,.11,2.26C70.76,225.78,70.45,226.42,69.38,226Z"/><path class="cls-6" d="M162.45,261.78c13.33-1,26.25-4.07,39.26-8.12a11,11,0,0,1-4.94,6.26,37.33,37.33,0,0,1-14.63,5.3,70.15,70.15,0,0,1-30.22-1,4.91,4.91,0,0,1-.74-.33c.52-1.65,2-1.39,3.17-1.45C157.05,262.28,159.78,262.51,162.45,261.78Z"/><path class="cls-7" d="M177.75,229.6c1.78-8.68,3.08-17.31,5.54-25.7,1-3.53.73-7.27.84-11,.91.36.86,1.22,1.07,1.84,2.32,6.83,2.18,13.86,1.61,20.91-.17,2.06-.5,4.11-.7,6.17a6.79,6.79,0,0,1-4.41,6.21C180.39,228.51,179.08,229.06,177.75,229.6Z"/><path class="cls-8" d="M99.26,211.88a71.07,71.07,0,0,0,5,13.78c4.6,8.88,11.33,15.19,21.22,17.75a27.59,27.59,0,0,1,4.07,1.41,24.14,24.14,0,0,1-18.92-4.64c-8.48-6.46-12.16-15.44-13.08-25.78a3.78,3.78,0,0,1-.13-1.39C97.38,211.57,98,211.19,99.26,211.88Z"/><path class="cls-9" d="M173.29,253.1a42.84,42.84,0,0,0,15.47-7.65c4.16-3.08,8.23-6.29,12.34-9.44a4.12,4.12,0,0,1,1.72-1.08c.47,5.35-3.77,12.49-9.08,14.8a56,56,0,0,1-18,4.57C174.66,254.48,173.46,254.86,173.29,253.1Z"/><path class="cls-10" d="M106.82,189.13A61.15,61.15,0,0,0,118,232.37a8.84,8.84,0,0,1-4.08-2.46c-3.46-3.36-5.37-7.66-7.14-12-2.64-6.51-3.86-13.39-4.74-20.3C101.55,193.94,104.2,191.77,106.82,189.13Z"/><path class="cls-7" d="M170.38,163.23c12.37,1.77,21.55,8.25,28.14,19.15a30.76,30.76,0,0,1-8-3.48c-4.38-2.52-8.28-5.74-12.38-8.67a72.36,72.36,0,0,0-9.09-5.75C169,163.55,169.43,163.1,170.38,163.23Z"/><path class="cls-9" d="M119.43,256.59c-11.87,3-19.85-.28-24.47-12C104.4,246.17,111.55,251.88,119.43,256.59Z"/><path class="cls-11" d="M137.08,250.09a33.44,33.44,0,0,0,12.56-3.1c3.13-1.52,6.49-1,9.73-.06,2,.61,4,1.36,6.41,2.16-9.53,3.35-19.07,3.37-28.65,3.05A1.39,1.39,0,0,1,137.08,250.09Z"/><path class="cls-8" d="M173.15,207.72c.62,3.58,1.61,7.11,0,10.75-2.49,5.77-4.36,7.12-10.68,7.16a24.77,24.77,0,0,1-8.71-1.1c9.48-1.39,16.87-4.48,17.38-15.16.31-.61.12-1.37.53-1.94C172.37,206.53,172.88,206.61,173.15,207.72Z"/><path class="cls-12" d="M166.92,170.79a113.19,113.19,0,0,0-13.36-1.3,118.17,118.17,0,0,0-26,2.88c-.67-.31-1.37-.61-.82-1.57,13.07-5,26.24-5.82,39.54-.91.39.14.76.33,1.13.49C167.43,170.75,167.38,171,166.92,170.79Z"/><path class="cls-11" d="M180.69,239.27a45.2,45.2,0,0,0,15.92-21.1c1.57.69,1,2.13,1.18,3.32-.49,9.06-6.07,16-14.95,18.67C181.92,240.37,180.87,240.88,180.69,239.27Z"/><path class="cls-13" d="M120.78,154.45c3.53-9.62,17-12.39,23.82-10.56A138.35,138.35,0,0,0,120.78,154.45Z"/><path class="cls-14" d="M168.58,230.68c-9.42,4.75-23.7,3.26-27.59-2.1C150.22,229.92,159.34,231.09,168.58,230.68Z"/><path class="cls-15" d="M168.24,122.5a43.45,43.45,0,0,1-10,.35c-2.24-1.21-4.69-.58-7-.78H135.09a5.86,5.86,0,0,1,4.3-1.52c6.33,0,12.62-1.4,19-.51,3.27.46,6.58.61,9.87.91A1.09,1.09,0,0,1,168.24,122.5Z"/><path class="cls-16" d="M203.49,150c8.16,2.24,13.87,10.09,13.18,18Z"/><path class="cls-17" d="M197.67,151.55c-4.7-.25-17.83-3.87-20.84-6.5,4.78.28,9.3-.39,13.71.84A11.75,11.75,0,0,1,197.67,151.55Z"/><path class="cls-18" d="M207.71,137c-9.77-4.11-20.4-4.91-30.34-7.79-.22-.34-.18-.45,0-.46,10.54-.26,20.62,1.35,29.67,7.22a6.94,6.94,0,0,1,.76.66C207.93,136.76,207.89,136.88,207.71,137Z"/><path class="cls-19" d="M114.08,150.75c-3.55,6.79-7.63,12.24-16,13C102.71,158.42,107.33,153.66,114.08,150.75Z"/><path class="cls-20" d="M89.78,165.85c-3.39,6.53-7.08,12.9-9.71,19.8-1.18-.23-1.08-1.18-1.16-2a45.7,45.7,0,0,1,9.93-19.25C89.54,164.61,90,165,89.78,165.85Z"/><path class="cls-21" d="M143.25,240c-6.25-.91-11.55-3.77-17-6.3C131.5,230.8,138.3,233.31,143.25,240Z"/><path class="cls-16" d="M206.76,244.14c1.15-2.29,1.39-4.77,1.76-7.2.63-4.08,2.21-6.37,6.07-8.14C212.53,234.46,213.62,241.27,206.76,244.14Z"/><path class="cls-22" d="M100.45,170.35,90.33,182.87C89.63,175.18,93.53,170.3,100.45,170.35Z"/><path class="cls-23" d="M189.65,185.09c5.71,3.38,6.8,10.56,7.17,17.93C194,199.32,190.16,189.67,189.65,185.09Z"/><path class="cls-24" d="M145.31,271.36c5.32,0,10.63-.06,16-.07.64,0,1.5-.23,1.53.86,0,.91-.78,1-1.31,1-4.47.2-8.93,1-13.41.43-2.16-.27-4.42-.06-6.48-1C142.65,271.6,144.19,272.12,145.31,271.36Z"/><path class="cls-25" d="M226.41,191.55q-.85-9-1.69-17.9c-.07-.72-.36-1.66.71-1.85.91-.16.88.81,1.11,1.34,2.1,4.82,1.94,9.8,1,14.82-.24,1.2-.54,2.39-.82,3.59Z"/><path class="cls-20" d="M128.14,226.4c-6-.07-9.53-4.08-10.2-12Z"/><path class="cls-26" d="M83.21,219.74c1.39,6.11,3.06,11.92,1.07,18.05C82,233.5,81.56,223.29,83.21,219.74Z"/><path class="cls-26" d="M138.26,136.22c-4.73,2.12-9.9,2.53-14.85,3.8-1,.25-1.64.05-1.26-1.19,3.9-2.06,7.93-3.63,12.45-3.42.73,0,1.46,0,2.19,0S138.18,135.2,138.26,136.22Z"/><path class="cls-14" d="M125.09,212.5c-4.5-5.78-4.11-11.11,1.1-14.7A52.86,52.86,0,0,0,125.09,212.5Z"/><path class="cls-18" d="M159,182.11c7.06-.72,10.57,2.91,10.86,11.06-1.55-2.33-2.64-4.57-4.28-6.42A17.91,17.91,0,0,0,159,182.11Z"/><path class="cls-27" d="M138.26,136.22c-1.08-.9-2.55,0-3.66-.8a10.74,10.74,0,0,1,4.78-.84c3.37,0,6.75,0,10.12.07.46.78,0,.94-.65,1-.47,0-1-.12-1.4.19C144.41,136.47,141.37,137.12,138.26,136.22Z"/><path class="cls-28" d="M197.79,221.49l-1.18-3.32.37-5.88a8.48,8.48,0,0,0,.15-2.25c.1-1,.62-1.12,1.41-.66C198.8,213.45,199.59,217.55,197.79,221.49Z"/><path class="cls-14" d="M132.08,265.07l-8.71-1.27c-1.2-1.54.63-.76.9-1.18,3.37,0,6.79-.55,10,1.12C134.47,265.74,132.92,264.83,132.08,265.07Z"/><path class="cls-29" d="M173.15,207.72c-.36-.25-.66-1.05-1.12-.1l-.84,1.76c-.58-4.26,0-8.58-.51-12.87C172.92,199.92,172.67,203.9,173.15,207.72Z"/><path class="cls-30" d="M162.45,261.78c-1.74,1.22-3.75,1.09-5.74,1.16s-3.87-.45-5.54.91c-1.46.08-2.71-.2-3.31-2.07Z"/><path class="cls-31" d="M120.4,270.52c-3.65-.14-5.2-.58-7.2-2.08,3.84-1.32,7.17.33,10.55,1.64C122.78,271.28,121.53,270.46,120.4,270.52Z"/><path class="cls-32" d="M140.4,272.44c-3.11,0-6.23.08-9.34.08a6.79,6.79,0,0,1-4-1.29c3.1-2.46,5.94-.12,8.81,0a1.07,1.07,0,0,1-1,.47c1.68.08,3.35-.08,5,.09C140.18,271.89,140.42,272.07,140.4,272.44Z"/><path class="cls-29" d="M85.53,253.73a9.91,9.91,0,0,1,6.8,6.17C88.83,258.88,86.91,256.59,85.53,253.73Z"/><path class="cls-33" d="M177,194c-1.37-2.16-1.57-4.6-1.71-7.06a.81.81,0,0,1,1.21,0,6.72,6.72,0,0,1,1.75,5.37C177.7,192.82,178.19,194.06,177,194Z"/><path class="cls-34" d="M78.91,183.62l1.16,2-2,6.29c-.34.36-.62.91-1.23.37,0-1.58-.38-3.23.87-4.56.32-.68-.08-1.46.3-2.13A2.26,2.26,0,0,1,78.91,183.62Z"/><path class="cls-35" d="M147.45,135.82c.44-.81,1.94.22,2-1.18,2.75,0,5.51,0,8.27,0,.5,0,1.26-.17,1.18.7-.06.66-.71.53-1.17.53C154.34,135.84,150.89,135.83,147.45,135.82Z"/><path class="cls-36" d="M204.11,204.47a10.56,10.56,0,0,1,.5,8.16C203.68,209.85,202.2,207.41,204.11,204.47Z"/><path class="cls-37" d="M180.69,239.27c.42,1,1.34.81,2.15.88-3.94,2.14-3.94,2.14-6.7,1.93C177,239.94,178.9,239.66,180.69,239.27Z"/><path class="cls-38" d="M203.17,223.53c-.88-2.62,1-4.68,1.43-7a31.09,31.09,0,0,1-.59,10.79C202.81,226.23,204,224.66,203.17,223.53Z"/><path class="cls-39" d="M173.29,253.1c.48,1.12,1.52,1.08,2.48,1.2-2.78.87-5.56,1.59-8.89.53Z"/><path class="cls-24" d="M137.08,250.09l.06,2c-1.82.17-3.56.12-4.85-1.77A5.16,5.16,0,0,1,137.08,250.09Z"/><path class="cls-37" d="M89.78,165.85l-.94-1.49a5.19,5.19,0,0,1,3.78-3.57C92.52,163,91.21,164.48,89.78,165.85Z"/><path class="cls-40" d="M165,163.59a5.3,5.3,0,0,1-4.18-1.78c2.72-1.54,5,.45,7.43.54C167.44,163.43,165.88,162.58,165,163.59Z"/><path class="cls-41" d="M201.36,194,199,186.66C201.78,188.71,202.42,190.68,201.36,194Z"/><path class="cls-42" d="M232.19,206.6c-1.75-1.13-1.76-2.85-1.56-4.64,1.85-.72,2.27-.53,2.17,1.33C232.73,204.39,233.49,205.71,232.19,206.6Z"/><path class="cls-43" d="M156.6,147.47c1.5-1.75,3.64-2.14,5.06-1.19.28.19.64.37.58.75s-.46.44-.81.44Z"/><path class="cls-44" d="M227.56,223.11c.2,1.92.29,3.81-1.14,5.38a.56.56,0,0,1-.83,0l.91-5.28C226.8,222.66,227.17,222.8,227.56,223.11Z"/><path class="cls-43" d="M232.19,206.6c.92-1.21.47-2.61.39-3.9s-1.22-.66-2-.74a2.41,2.41,0,0,1,.48-1.94c.58-.78,1.56-.85,1.73.07a19.2,19.2,0,0,1,0,6.51C232.82,206.9,232.42,206.77,232.19,206.6Z"/><path class="cls-37" d="M225.59,228.49h.83c.2,2.28-.76,4.24-1.71,6.2-1.08-.32-.45-1.11-.47-1.72A16,16,0,0,1,225.59,228.49Z"/><path class="cls-29" d="M165,163.59c-.24-.94.35-1.17,1.08-1.21s1.45,0,2.17,0a3.23,3.23,0,0,1,2.1.88,2.86,2.86,0,0,0-1.29,1.24Z"/><path class="cls-45" d="M198.54,209.39c-.88-.08-1.2.34-1.19,1.19,0,.58.15,1.23-.37,1.72-.2-1.2.31-2.43-.32-3.64a1.92,1.92,0,0,1,.21-2.3.75.75,0,0,1,.95-.12,2,2,0,0,1,.88,2.14C198.66,208.71,198.59,209,198.54,209.39Z"/><path class="cls-46" d="M122.15,138.83c0,.81.56,1.09,1.26,1.19l-5,2a1,1,0,0,1,0-1.31Z"/><path class="cls-22" d="M203.17,223.53c1.69.93.37,2.54.84,3.74-.25.64-.37,1.68-1.28,1.37-.72-.25-.72-1.23-.56-2C202.38,225.56,203.18,224.68,203.17,223.53Z"/><path class="cls-41" d="M126.72,170.8c-.13.73.6,1,.82,1.57a17.42,17.42,0,0,1-2.14,1.21,1.1,1.1,0,0,1-1.56-.57c-.28-.73.11-1.17.78-1.42Z"/><path class="cls-47" d="M175.1,242.75a7.44,7.44,0,0,1-6.18.22C170.88,242.6,172.82,241,175.1,242.75Z"/><path class="cls-48" d="M118.35,140.75l0,1.31c-1.2.88-2.4,1.73-4.17,1.21A4.54,4.54,0,0,1,118.35,140.75Z"/><path class="cls-49" d="M69.38,226c2.21-.41.85-2.22,1.3-3.31.66,1.37.27,3,1.1,4.34a1,1,0,0,1-.57,1.37c-.74.27-1.18-.15-1.41-.82C69.64,227,69.52,226.5,69.38,226Z"/><path class="cls-50" d="M94.2,196.56c.14-1.67.38-3.1,1.64-4.13.23-.19.52-.5.89-.24s.27.54.17.9C96.52,194.57,96,195.89,94.2,196.56Z"/><path class="cls-51" d="M202.68,196.94c1.47,1.92,1.57,4,.54,6.83l-1-5.94C202.14,197.41,201.89,196.92,202.68,196.94Z"/><path class="cls-52" d="M132.08,265.07c.6-.64,2,0,2.15-1.32l3.47,1.5A5.63,5.63,0,0,1,132.08,265.07Z"/><path class="cls-53" d="M99.26,211.88c-2.49-.47-1.33,1.55-1.72,2.52-.69-1.3-.19-2.71-.35-4.06-.06-.5-.18-1.2.61-1.32a1.2,1.2,0,0,1,1.35,1A9,9,0,0,1,99.26,211.88Z"/><path class="cls-37" d="M168.24,122.5v-1.56a27.59,27.59,0,0,1,6,1C172.25,122.09,170.29,122.74,168.24,122.5Z"/><path class="cls-54" d="M227.56,223.11l-1.06.1c.46-1.61.61-3.31,1.55-4.81C228.35,220,229.35,221.67,227.56,223.11Z"/><path class="cls-55" d="M121.71,129.35l6.32-1.14C126.33,130.29,124.26,130.63,121.71,129.35Z"/><path class="cls-56" d="M204.69,163.85,201,160.59C203.77,160.09,204.85,161,204.69,163.85Z"/><path class="cls-57" d="M177,194l1.25-1.66a26.5,26.5,0,0,1,.4,5.19C176.59,196.94,177.33,195.22,177,194Z"/><path class="cls-58" d="M176.47,187l-1.21,0a3,3,0,0,1-.54-.28,2.22,2.22,0,0,1-.84-2.55c.08-.26.24-.55.58-.44a2.45,2.45,0,0,1,1.73,2.09C176.25,186.18,176.37,186.57,176.47,187Z"/><path class="cls-37" d="M151.22,122.07c2-.76,4.14-.16,6.2-.35.89-.08.48.82.85,1.13A39,39,0,0,1,151.22,122.07Z"/><path class="cls-59" d="M140.4,272.44l-.55-.42a.49.49,0,0,1,.1-.64h5.37c-.89,1.45-2.39,1.06-3.71,1.22Z"/><path class="cls-33" d="M139.95,271.37l-.1.64h-6.79c.8-1.21,2-.38,2.83-.8Z"/><path class="cls-60" d="M124.63,182.23c-.49.41-.9.76-1.32,1.1s-.85.95-1.59.52a.76.76,0,0,1-.41-1,1.83,1.83,0,0,1,1.44-1.31A2.21,2.21,0,0,1,124.63,182.23Z"/><path class="cls-61" d="M76.88,192.32l1.23-.37c.27,1.59-.69,2.7-1.49,3.93C75.4,194.55,76.36,193.45,76.88,192.32Z"/><path class="cls-27" d="M134.92,128a1.63,1.63,0,0,1-1.51,1.18c-.61.05-1.21-.16-1.15-.84a1.34,1.34,0,0,1,1.44-1.19C134.3,127.12,134.79,127.28,134.92,128Z"/><path class="cls-62" d="M124.28,262.62c-.32.38-1.67,0-.9,1.18-.41,0-.81,0-1.22,0a1.63,1.63,0,0,1-1.54-1.11.8.8,0,0,1,.27-.69c.59-.45,1.09-.08,1.66.2A7.55,7.55,0,0,0,124.28,262.62Z"/><path class="cls-63" d="M102.48,183.79c-.39,0-.9-.27-.67-.7a3.32,3.32,0,0,1,2-1.89c.46-.11,1,.39.83.86A2.57,2.57,0,0,1,102.48,183.79Z"/><path class="cls-64" d="M112.36,187.31c.86,1.27,1.61,2.54.3,4.07C111.72,190,112.39,188.6,112.36,187.31Z"/><path class="cls-65" d="M120.4,270.52c1.08-.43,2.32.33,3.35-.45l1.59.59A12.2,12.2,0,0,1,120.4,270.52Z"/><path class="cls-66" d="M207.71,137l.1-.36a1.51,1.51,0,0,1,1.37,1A1.17,1.17,0,0,1,207.71,137Z"/><path class="cls-67" d="M224.24,233c.29.54-.22,1.29.47,1.72-.14.36-.3,1.13-.71.35A2.06,2.06,0,0,1,224.24,233Z"/><path class="cls-68" d="M202.68,196.94l-.43.89a6.3,6.3,0,0,1-.36-.93c-.07-.3-.18-.81.19-.84S202.64,196.53,202.68,196.94Z"/><path class="cls-69" d="M166.92,170.79l.47-.4a1.42,1.42,0,0,1,1.22.63A1.54,1.54,0,0,1,166.92,170.79Z"/><path class="cls-46" d="M78.06,185.62c0,.72.27,1.49-.3,2.13A4.22,4.22,0,0,1,78.06,185.62Z"/><path class="cls-70" d="M113.55,70c-4.22,2.06-7.34,5.14-10.52,8.8a64.42,64.42,0,0,1-1.66-17.1A107.66,107.66,0,0,1,113.55,70Z"/><path class="cls-71" d="M146.71,209.73c-3.25.25-4.16-.17-4.86-2.24a6.41,6.41,0,0,1,2.57-7.29c2.26-1.52,5.44-1.33,7.07.42s1.91,5.75.55,7.57S148.6,209.58,146.71,209.73Z"/></svg>
