<?xml version="1.0" encoding="utf-8"?>
<!-- Generator: Adobe Illustrator 21.0.2, SVG Export Plug-In . SVG Version: 6.00 Build 0)  -->
<svg version="1.1" id="Layer_1" xmlns="http://www.w3.org/2000/svg" xmlns:xlink="http://www.w3.org/1999/xlink" x="0px" y="0px"
	 viewBox="0 0 1231.6 184" style="enable-background:new 0 0 1231.6 184;" xml:space="preserve">
<style type="text/css">
	.st0{stroke:#D94952;stroke-width:15;stroke-miterlimit:10;}
</style>
<title>kontakt</title>
<path class="st0" d="M280.3,13.6v156c0,0.8,0.7,1.5,1.6,1.4c0.8,0,1.4-0.7,1.4-1.4v-156c0-0.8-0.7-1.5-1.6-1.4
	C281,12.1,280.4,12.8,280.3,13.6z"/>
<path class="st0" d="M354.6,18.5c-34,5.6-63.1,31-73.3,63.8c-0.1,0.5,0,1.1,0.4,1.5c27.1,26.4,51,55.8,71.3,87.8
	c1,1.6,3.6,0.1,2.6-1.5c-15.9-25.1-34.1-48.8-54.4-70.6c-4.9-5.3-11.1-10.2-15.5-15.9c-2.9-3.8,3.8-13.8,5.9-17.6
	c6.3-11.1,15-20.8,25.3-28.4c11.4-8.4,24.5-13.9,38.4-16.3C357.3,20.9,356.5,18.2,354.6,18.5L354.6,18.5z"/>
<path class="st0" d="M416.2,21.7c-12.1-4.2-25-0.1-34.4,8c-10.9,9.4-15.7,23.7-17.6,37.6c-3.9,28.6-2.8,63.9,15.8,87.6
	c16.5,21.1,45.5,29.6,68,12.6c25.1-19,28-52.1,24.7-81c-2-17.3-3.8-36.8-12.7-52.1c-7.3-12.6-21.2-21.7-36.1-19.1
	c-1.9,0.3-1.1,3.2,0.8,2.9c14.6-2.7,27.5,7.6,34,20c6.6,12.6,8.3,27.5,10.2,41.4c3.8,27.1,4.2,57.7-15.5,79.1
	c-8.4,9.1-19.8,15.3-32.3,15.3c-12.5,0-24.1-6-32.9-14.5c-20.8-19.9-23.2-50.7-22.1-77.8c0.6-14.6,2.7-30.3,11.4-42.6
	c8.4-11.9,23.8-19.5,38.1-14.4C417.2,25.2,418,22.3,416.2,21.7L416.2,21.7z"/>
<path class="st0" d="M491.5,14c0.1,51.7,1.7,103.4,4.6,155.1c0.1,1.9,3.1,1.9,3,0c-3.1-51.6-4.5-103.3-4.6-155.1
	c0-0.8-0.7-1.5-1.6-1.4C492.2,12.6,491.5,13.2,491.5,14z"/>
<path class="st0" d="M493.9,16.1c11.1,29.1,20.9,59,35,86.8c6.6,13,14.7,25.5,20,39.1c4.1,10.7,4,25,13.4,32.8
	c0.6,0.6,1.6,0.6,2.1,0c0.2-0.2,0.3-0.4,0.4-0.6c11.6-53.6,12.2-108.9,1.9-162.8c-0.4-1.9-3.2-1.1-2.9,0.8
	c10.2,53.4,9.5,108.1-1.9,161.2l2.5-0.7c-5.2-4.3-7-10.7-8.5-17c-1.4-6.3-3.4-12.5-5.8-18.4c-5.2-12.5-12.6-23.9-18.7-36
	c-14-27.5-23.7-57.2-34.7-86.1C496.1,13.5,493.2,14.3,493.9,16.1L493.9,16.1z"/>
<path class="st0" d="M625.6,18v151.5c0,0.8,0.7,1.5,1.6,1.4c0.8,0,1.4-0.7,1.4-1.4V18c0-0.8-0.7-1.5-1.6-1.4
	C626.3,16.6,625.7,17.2,625.6,18z"/>
<path class="st0" d="M584.9,16.9c28.4,0.7,56.8-1.6,84.7-6.7c1.9-0.3,1.1-3.2-0.8-2.9c-27.7,5-55.8,7.3-83.9,6.6
	C582.9,13.9,582.9,16.9,584.9,16.9L584.9,16.9z"/>
<path class="st0" d="M650.9,166.8L691,45.2l4.6-14l2.5-7.5c0.8-2.4,1.9-10.2,6.5-7.7c3.3,1.8,5.3,9.5,6.3,12.7
	c1.5,4.7,2.5,9.6,3.7,14.3l14.9,62.3l16.8,69.9c0.5,1.9,3.3,1.1,2.9-0.8c-11.1-46-22-91.9-33.1-137.9c-1.8-7.4-3.8-18.7-10.4-23.5
	c-6.9-5-9,5.4-10.5,9.9L673,90.1l-25,75.8C647.4,167.9,650.3,168.7,650.9,166.8L650.9,166.8z"/>
<path class="st0" d="M674.5,105.6h51.6c0.8,0,1.5-0.7,1.4-1.6c0-0.8-0.7-1.4-1.4-1.4h-51.6c-0.8,0-1.5,0.7-1.4,1.6
	C673.1,104.9,673.7,105.6,674.5,105.6z"/>
<path class="st0" d="M770.5,15.6v156c0,0.8,0.7,1.5,1.6,1.4c0.8,0,1.4-0.7,1.4-1.4v-156c0-0.8-0.7-1.5-1.6-1.4
	C771.2,14.1,770.6,14.8,770.5,15.6z"/>
<path class="st0" d="M844.8,20.4c-34,5.6-63.1,31-73.3,63.8c-0.1,0.5,0,1.1,0.4,1.5c27.1,26.4,51,55.8,71.3,87.8
	c1,1.6,3.6,0.1,2.6-1.5c-15.9-25.1-34.1-48.8-54.4-70.6c-4.9-5.3-11.1-10.2-15.5-15.9c-2.9-3.8,3.8-13.8,5.9-17.6
	c6.3-11.1,15-20.8,25.3-28.4c11.4-8.4,24.5-13.9,38.4-16.3C847.5,22.9,846.7,20.1,844.8,20.4L844.8,20.4z"/>
<path class="st0" d="M906.3,19.9v151.5c0,0.8,0.7,1.5,1.6,1.4c0.8,0,1.4-0.7,1.4-1.4V19.9c0-0.8-0.7-1.5-1.6-1.4
	C907,18.6,906.4,19.2,906.3,19.9z"/>
<path class="st0" d="M865.5,18.9c28.4,0.7,56.8-1.6,84.7-6.7c1.9-0.3,1.1-3.2-0.8-2.9c-27.7,5-55.8,7.3-83.9,6.6
	C863.6,15.9,863.6,18.9,865.5,18.9L865.5,18.9z"/>
</svg>
