<svg id="Layer_1" data-name="Layer 1" xmlns="http://www.w3.org/2000/svg" width="75mm" height="182.76mm" viewBox="0 0 212.61 518.06"><defs><style>.cls-1{fill:#fff;stroke:#000;stroke-miterlimit:10;}</style></defs><title>vinyl</title><path d="M112.47,346.77c-4.92-48.25-3.35-96.46,3.32-144.45,5.73-41.23,12.69-84.82-5.39-124.08-5.74-12.46-11.16-23.75-11.55-37.75-.36-13.07,1.7-26.08.33-39.14-.2-1.9-3.2-1.92-3,0,1.21,11.51-.2,23-.35,34.5A72.71,72.71,0,0,0,101.4,66c4.39,10.3,9.69,20,12.75,30.86A140.81,140.81,0,0,1,119,130.19c.77,22.41-2.42,44.72-5.51,66.86-3.16,22.63-5.74,45.26-6.65,68.1a578.83,578.83,0,0,0,2.59,81.62c.19,1.9,3.2,1.92,3,0Z"/><path d="M93.78,436.54c-8.34-2.5-11.71-12.76-8.72-20.5,3.79-9.8,16.19-12.57,25.43-10.14,5.23,1.37,11,4.54,13.05,9.8s-.07,11-3.87,14.95c-8.45,8.89-22.1,6.84-33,5.12-1.89-.3-2.7,2.59-.8,2.89,13.23,2.1,29.71,3.92,38.31-8.87,7.94-11.8-.62-23.54-12.93-26.78-10.63-2.79-24.47.61-28.9,11.71-3.78,9.46.42,21.67,10.59,24.73,1.85.56,2.64-2.34.8-2.89Z"/><path d="M102.09,419q-.18-.17,0,.07a.65.65,0,0,1,.11.37q0-.25,0,.09.08-.23,0,.07c.2-.28-.23.21,0,0a.73.73,0,0,1-1,0q-.19-.28-.06-.07l-.07-.18q.06.24,0-.11a1.24,1.24,0,0,1,0,.2.58.58,0,0,1,.11-.38q-.12.21.07-.07t.06-.07a1.51,1.51,0,0,0-.54,2.05,1.53,1.53,0,0,0,2.05.54,2.48,2.48,0,1,0-2.81-.39,1.5,1.5,0,0,0,2.12-2.12Z"/><path d="M94.87,437.14c-11.26,3.12-19.05-9.2-15.76-19.11s12.78-15.19,22.51-17.25c12.53-2.64,37-1,38,16.31.54,9.28-7.67,16.32-14.62,21a229.13,229.13,0,0,1-25.64,14.76c-5.29,2.66-10.95,5.15-17,4-5.07-1-9.53-4-13.43-7.21-6.53-5.43-13.94-12.18-17.49-20-4.79-10.59,2.55-19.84,9.62-27.18a85,85,0,0,1,20.7-15.68c15.3-8.29,36-13.71,53.17-8.77,18.09,5.19,21.23,24.16,20,40.46a112.73,112.73,0,0,1-4,23.79c-3.09,10.33-10.48,15-20.4,17.84-19.55,5.68-40.7,10.08-61.1,10.62-4.59.12-9.41-.19-13.56-2.36-4.88-2.55-7.44-7.39-9.18-12.4a71.73,71.73,0,0,1-3.67-25.48c1.08-37,27.63-67.58,62.84-77.13,16.89-4.58,37.91-5.48,53.29,4.11,14.91,9.3,20.33,27.16,23.1,43.54,1.53,9,2.9,18.43,2.38,27.61a36.87,36.87,0,0,1-12.79,26.28c-14.78,13.29-34.32,23.68-53,30.2-18.36,6.41-38.91,8.52-56.85-.3-17.7-8.7-26.21-25.41-25.68-44.83.88-32.5,21-63,49.23-78.52a89.24,89.24,0,0,1,22-8.51l-.8-2.89c-16.48,4.16-34.06,7.12-49.7,14-14.21,6.21-23.61,17-27.19,32.19-1.82,7.71-2.33,15.67-2.72,23.55-.46,9.27-.92,18.6.25,27.84A59.38,59.38,0,0,0,48.28,486c25.57,21.64,63.17,21.39,93.45,11C171.19,486.8,196.64,464,202,432.23A63.57,63.57,0,0,0,194,389a123.62,123.62,0,0,0-14.45-19.06c-5.76-6.47-11.57-13.35-18.47-18.64-12.82-9.82-31.51-10.61-47-11.88-16.39-1.34-33.48-.48-48.32,7.31-26.35,13.83-38.36,44.18-46.82,71-4.88,15.46-8,32.25,2.19,46.28,8.07,11.06,20.94,17.67,33.47,22.4,16.88,6.36,35.31,10.92,53.45,8.71,14.57-1.78,28.16-8,39.75-16.89,23.24-17.87,43.79-49.46,38.46-79.85-5.12-29.2-30.82-50.69-60.24-51.46-31-.8-57.92,19.77-67.31,49-4.37,13.63-6,31.11,1.19,44.1,7,12.73,21.66,19.41,35.52,21.3,28.28,3.87,58.1-11,68.17-38.47,5-13.5,5-29-.76-42.27-5.18-12-16.49-24.2-30.68-23.16-8,.59-16,5.08-22.88,8.81A122.84,122.84,0,0,0,88.71,380c-11,9.23-20.24,21.52-22,36.14-3.42,28.3,21.38,53.53,47.38,59.85,27.41,6.66,59.77-3.38,74.59-28.39a60.67,60.67,0,0,0,7.68-39.91C194,392.9,185.7,381,173.95,372.1c-13.58-10.33-29.8-18.89-45.64-25.16S95,337.66,78.45,342.36c-14.62,4.16-25.6,14.54-33.92,26.91a211.49,211.49,0,0,0-22.48,44c-9.64,26.21-2.64,57.11,19.06,75.33,26.54,22.28,62.45,13.31,91.24.86,8.07-3.49,16.66-6.93,24.07-11.71,6.17-4,10-9.46,12.56-16.27,6.25-16.59,10.43-35.55,8.83-53.34-1.29-14.37-7-28.66-17.53-38.75-12.18-11.63-27.65-12.77-43.69-13-9.86-.15-19.07-1-28.4-4.38-7.89-2.85-15.23-4.53-23.4-1.7-13.94,4.83-26.35,16.5-34.67,28.41-16.57,23.72-18.19,56,.82,78.87,21.82,26.31,59.65,21.05,87.49,8.35,14.32-6.54,29.24-16,39-28.6,9.9-12.85,9.6-28.46,3-42.81-12-26-42.26-41.95-69.78-45.29-14.92-1.81-29.59,1.66-39.05,14-9.34,12.22-14.37,29.9-10.68,45,7.71,31.62,43.25,43.28,72.09,36.21,13.12-3.22,27.32-10.39,32.69-23.6,4.88-12,.24-26-9.12-34.45-10.85-9.81-27-10.95-40.3-6-11.42,4.24-24.62,14.49-22.54,28.23C75.62,421.4,89.44,428,100.56,431c6.44,1.73,13.42,2.87,20.06,1.74,5.15-.88,11.88-3.91,13.51-9.39,1.77-5.95-5.86-10.44-9.87-13.34-5.93-4.29-12.75-8.3-20-9.84-9.69-2.06-24.15.81-22.79,13.68,1.47,13.92,19.94,21.92,32.11,22.25,12.37.34,25.76-8,26.71-21.28,1-13.73-11.86-24-24.23-26.34-8.87-1.65-18-.35-26.7,1.4-5.09,1-12.32,2.08-14.7,7.51-2.57,5.88,3.27,12.3,6.64,16.56,4.29,5.42,9.53,10.49,16.11,13,10.15,3.81,25.6-1.76,26-14.23.39-14-20-19.73-30.71-21.09-6.72-.86-15.44-1.39-21.59,2.08-5.9,3.33-5.7,10-4.85,16,3.71,26,27.44,46.92,53.59,47.71,1.93.06,1.93-2.94,0-3-25.38-.76-48.71-21.92-50.92-47.48-.37-4.33-.14-8.72,4.27-10.94,3.26-1.64,7.37-1.76,10.94-1.83a55.56,55.56,0,0,1,24.22,5c6,2.75,13.71,7.8,11.75,15.54-1.74,6.87-10,11.3-16.7,10.67-7-.66-13-5.51-17.5-10.57a62.81,62.81,0,0,1-6.22-8.16c-1.59-2.51-3.8-5.52-1.87-8.72,1.26-2.1,4.09-3.06,6.26-3.73,13.36-4.07,31.3-6.38,43.37,2.19,5.51,3.91,10,10.1,9.94,17.08,0,7.57-5.36,14.06-11.94,17.28-12.69,6.21-36.27-.42-40.58-15.18-2.25-7.72,4.06-12.55,11-13.07,6.5-.49,12.64,1.75,18.28,4.75,4.89,2.6,20.1,10.07,15.83,17.46-3.48,6-14.06,5.87-19.87,5.17-11.25-1.35-26.64-6-32-17-7-14.4,9.26-26.51,21.2-30.26,13.45-4.22,29.19-1.86,38.46,9.48,9,11,9.26,26.28-.79,36.63-9.72,10-25,14.3-38.56,14.95-14.63.69-29.57-3.35-40.59-13.3-10.5-9.48-16.41-22.95-14.86-37.15,1.49-13.78,8.44-29.91,21-37s28.32-4.62,41.47-.71a97.54,97.54,0,0,1,34.21,17.65c9.8,8.06,17.72,18.62,21.16,31,4.57,16.37-2.07,29.67-14.28,40.38-21,18.44-52.16,32.15-80.58,28.65-27.65-3.41-46.39-28.38-46-55.63.21-13.38,5.19-26.37,12.81-37.26,7.87-11.24,19.7-22.47,32.88-27,8-2.79,15-.72,22.63,2a71.94,71.94,0,0,0,21.2,4c14.39.66,29.53-.9,42.27,7.21,26.85,17.1,26.06,52.94,18.79,80-1.82,6.77-3.57,14.21-7.21,20.27-4.22,7-11.49,10.41-18.59,13.8-13.88,6.63-28.12,12.91-43.16,16.39s-31.18,3.88-45.5-2.46A58,58,0,0,1,30.72,472a66.53,66.53,0,0,1-10.16-34.14c-.2-14.55,5.51-27.73,11.88-40.52,12.26-24.63,26.62-51.18,57.15-54,15-1.38,29.84,2.73,43.44,8.82C146.11,358,159.4,365.1,171,373.59c11.36,8.34,19.72,19.39,22.26,33.46a57.5,57.5,0,0,1-6.42,37.75c-13,23.34-42.05,33.64-67.61,29.16-24-4.21-47.66-24.12-49.67-49.55C67.2,395,96.39,374.82,120,364.26c7.56-3.38,15-5.49,22.9-1.77,6.64,3.14,11.8,8.94,15.29,15.3,6.41,11.68,7.56,25.82,4.28,38.63-6.67,26.06-31.51,42.43-57.81,42.51C91.4,459,77,455,67.56,445.26c-10.44-10.71-10.78-27.36-7.88-41.2,5.68-27.06,26.73-49,54.37-53.38,27-4.26,53.59,9.29,65,34.33,12.33,27.14-.33,56.57-18.84,77.53-19.07,21.59-45.49,33.35-74.4,29.17a137.74,137.74,0,0,1-39.92-12.3C34.69,474,23.43,466,19.07,453.86c-5.24-14.58,1-30.74,5.83-44.61,4.16-12,9.1-23.82,16-34.53s15.72-20,27.05-25.75c13.67-7,29.37-7.78,44.41-6.7,6.85.49,13.68,1.39,20.48,2.37,7.72,1.12,15.67,2.31,22.52,6.31,5.94,3.47,10.67,8.62,15.31,13.61a219,219,0,0,1,15.22,17.6c8.6,11.49,14.16,24.5,14.09,39a71.12,71.12,0,0,1-12,38.38c-15.79,24-44.48,36.87-72.24,40.29s-59.18-3.33-76.05-27.71C30.93,459.5,29.4,444.6,29.8,429.59c.38-14.07.32-29.64,6.41-42.63,5.92-12.66,17.87-19.28,30.67-23.4C80.2,359.27,94,356.37,107.62,353c1.87-.47,1.08-3.35-.8-2.89-36.19,8.85-65.5,40.11-72.06,76.82-3.53,19.76-.6,40.84,15.77,54.1s37.89,15,57.65,10.42c22.28-5.2,44.15-17.07,62-31.16,8.4-6.62,14.89-14.67,16.79-25.43,1.8-10.19.31-20.76-1.2-30.9-2.7-18.08-8.12-38-24.38-48.56-17-11-40.67-9.7-59.27-4-39.2,12-66.76,50-61.42,91.51,1.1,8.58,3.22,19.22,9.85,25.38,7,6.48,17.28,5.84,26.08,5a309.59,309.59,0,0,0,36.49-5.67c10.16-2.2,22.36-4,31.09-10.06,8.22-5.72,10.28-15.52,11.9-24.8,1.53-8.79,2.64-17.83,1.87-26.77-.66-7.67-2.7-15.42-7.66-21.47-6.15-7.51-15.49-10.45-24.91-11-20.26-1.1-40.91,6-56.91,18.31-7.46,5.72-15.31,13-19.53,21.6s-1.54,17.18,4.1,24.46c5.83,7.52,13.77,15.59,22.44,19.79,9.57,4.63,18.16,1.52,27.06-3.06,10.13-5.22,20.79-10.73,29.55-18.11,6.2-5.23,11.49-12.46,10.35-21C140.31,399.33,119.23,395.38,106,397c-9.5,1.19-19.36,4.46-25.51,12.21-4.93,6.21-7.24,15.17-3.28,22.46,3.57,6.58,11.14,10.34,18.43,8.32a1.5,1.5,0,0,0-.8-2.89Z"/><path d="M120,464.11c14.06,1.26,30.93,0,34.29-16.53,2.2-10.83,3.4-22,5.07-32.89,1.35-8.87,4.54-19.46,2.12-28.39-2.26-8.34-9.39-14.21-15.63-19.66-6.67-5.83-14-11.62-22.78-13.67-17-4-32.74,7-43.78,18.85-13.75,14.82-24.8,33.35-33.37,51.58-3.6,7.67-6.71,16.35-4.69,24.9,1.9,8,8.33,14.46,15,18.83,15.74,10.27,35.6,10.34,53.21,5.64,17.26-4.6,35.14-12.57,49.06-23.93,12.76-10.41,21.4-25,19.33-41.89s-12.72-34.12-26.78-43.72c-16-10.93-34.35-7.78-50.87.29-15.81,7.72-34.47,17.37-44.62,32.3-5.46,8-7.93,17.62-9.26,27.12-1.23,8.8-1.79,18.13,1.62,26.53,6.25,15.42,23,23.65,38.32,27.21,31.91,7.41,70.1-3.57,83.61-35.74,5.77-13.73,6.61-29.94.57-43.73-7.13-16.3-23.63-25.91-39.27-32.76-30.52-13.36-70.66-15.16-89.78,17.21-9,15.21-10.89,33.39-8.46,50.63a154.85,154.85,0,0,0,8.6,32.1c1.24,3.33,2.28,7.34,4.61,10.12,2.68,3.21,6.65,3.37,10.54,3.69a408.41,408.41,0,0,0,68-.13c8.38-.71,18.83-.56,25.89-5.85s9.7-15.17,12.81-23.08c4-10.23,8.7-20.43,11.83-31,2.37-8,3.13-16.77-1.41-24.15-8.18-13.28-27-16.6-41.34-17-29.56-.76-65.91,14.83-74.6,45.69-4.06,14.41.55,28.4,15.69,32.89a105.93,105.93,0,0,0,31.64,3.94c8.87-.16,18.63-.84,26.32-5.74,12.73-8.1,15.92-24.35,16.77-38.34.46-7.65,1.43-17-1.7-24.17-3-7-10.22-8.84-17.25-9.34a52.34,52.34,0,0,0-43.3,18.68c-4.84,5.9-9.35,13.86-6.59,21.66,2.56,7.24,10.65,12.69,16.66,16.92,12.45,8.76,30,8.52,39.14-5.09,8.61-12.81,3.27-30.86-10.35-37.59-6.88-3.4-14.78-4-22.33-3.41-7.06.58-16.21,1.46-22.07,5.84-14.24,10.65,13.7,24.18,22.13,25.44,12.56,1.89,29.74-5.8,25.53-21.1-4.55-16.51-27.83-20.13-42.24-17.82-6,1-11.63,4.27-12.67,10.66-.8,4.93,1.3,10.09,6.42,11.34a1.54,1.54,0,0,0,1.85-1l1.61-.19q3.56-1.2,3.29,4a19.07,19.07,0,0,1-.5,3.82,26.28,26.28,0,0,0-.4,4.29,16.94,16.94,0,0,0,2.21,7.7,23.79,23.79,0,0,0,12.28,10.24c7,2.72,14.89,2,22.15.65,6.58-1.27,15.05-2.45,20.37-6.91s6.36-12,7.55-18.28a132,132,0,0,0,2.28-25.17A129.17,129.17,0,0,0,150,362.4c-1.14-5.73-3-12-8.14-15.36-12.69-8.39-25.77,5.12-36.61,10-14.36,6.46-32.11.55-45.19,10.8-4.56,3.57-6.87,8.44-7.68,14.12-1.32,9.22-1.57,18.7-2.28,28-.53,6.91-.78,13.52,2.53,19.81s8.8,11.1,12.07,17.4c3.68,7.1,3.44,15.42,6.41,22.76a23,23,0,0,0,11.35,12.14c6.12,3.07,13,4.21,19.71,5.28A137.85,137.85,0,0,0,125,489.46c14.35-.1,28.19-4.32,38.62-14.47,9.42-9.16,15.35-21.46,18.77-34,6.82-25,5.45-56.91-20.63-69.93C147,363.69,130,359.67,114.2,355.4c-14.46-3.89-30.14-8-45.1-4.44-26.66,6.26-35.5,35.19-35.68,59.5-.22,29,9.22,57.35,35.38,72.48C113.88,509,191,489.39,198.33,431.58c1.73-13.59-1.16-27.73-9.46-38.78-8.92-11.87-22.25-19.2-34.94-26.33-15.2-8.55-30.69-17.87-47.2-23.7-13.81-4.88-26.61-1-37.86,7.8-11.76,9.19-22.31,21.73-30,34.51-7.25,12.09-11.23,25.91-8.69,40C35.43,453.94,62,472.37,90,475c25.37,2.35,62.29-6.3,60.36-38.46-1.76-29.41-34.9-46-61.35-43.07C78.55,394.6,61.51,398.68,61.32,412c-.18,12.7,13.59,23.64,23.55,29.25a65.55,65.55,0,0,0,38.36,8.21c12.56-1.26,24.85-5.69,26.5-19.74,3.13-26.76-23.78-46.79-48.09-47.81-15.21-.64-30.29,4.5-43.22,12.24-9.86,5.9-23.3,16.17-21.68,29.33.74,6.05,5.11,10,9.92,13.25a152.64,152.64,0,0,0,22.56,12.37,164.55,164.55,0,0,0,22.11,8.08c6.11,1.74,15.16,5.37,21.47,2.87,5.77-2.29,9.18-9.85,11.82-15A107.38,107.38,0,0,0,132.4,425c4.24-15.07,5.69-30.79,6.4-46.38.33-7.25,1-14.74.46-22-.36-4.93-1.66-10.22-5.91-13.23-11.66-8.23-26.35,8.42-34.19,15.08q-10.8,9.17-21.6,18.34c-5.51,4.7-11.13,9.69-14.3,16.34-5.38,11.27-2.5,24.75,4.43,34.69,8,11.53,21.36,17.78,34.75,20.74,15.81,3.49,32.91,3.79,48.92,1.69,5.81-.76,12.18-2.21,16.36-6.66,4-4.22,4.52-10.16,3.79-15.66-1.7-12.69-9.81-23.53-19.87-31-12.26-9.11-27.3-12.84-42.29-14.26-8.34-.79-16.72-.9-25.09-.93s-17-.1-25.17,2.15c-12,3.32-23.45,12.87-23,26.33.28,7.7,3.94,14.88,7.56,21.52a119.76,119.76,0,0,0,11.62,17.76c9,11.27,21.12,20.32,35.61,22.86,13,2.27,26.07-1.15,35.34-10.71,9.8-10.1,14.45-24.32,17.15-37.82,3.15-15.73,4-33,.51-48.79-2.09-9.43-8-21.73-19.36-21.42-6.8.19-12.9,5.09-18.15,8.91a149.66,149.66,0,0,0-16.68,14.1,151.5,151.5,0,0,0-26.61,35,130.64,130.64,0,0,0-9.13,20c-1.91,5.52-2.7,11.59,1.12,16.48,3.67,4.71,9.88,6.72,15.42,8.17A161.06,161.06,0,0,0,122.34,461c7.51-.54,16.28-.92,23.26-3.95,11.84-5.14,13.94-22.85,13.64-34.15a61.48,61.48,0,0,0-14.1-37.81C128.74,365.59,91.89,352.49,72,374.22,61.1,386.2,52.31,401,44.39,415c-4.3,7.65-8.34,15.47-11.94,23.48-2.51,5.57-4.15,11.09-1,16.74,3.46,6.15,9.64,11.38,14.9,15.94a128.49,128.49,0,0,0,17.22,12.6,125.91,125.91,0,0,0,42.29,16.38c13.63,2.55,28.19,2,38.51-8.4,10.87-10.92,16.3-27.44,22.73-41.1,10.8-22.93,30-57.41,6.09-79-1.43-1.29-3.56.82-2.12,2.12,23.47,21.19,2.6,55.93-7.84,78.1-5.6,11.88-10.34,25.5-19,35.59-9.9,11.57-24.35,12.39-38.43,9.66a124.29,124.29,0,0,1-67.21-37.6c-2.2-2.39-4.71-5-5.67-8.2-1.35-4.52,1-9,2.81-13,3-6.6,6.35-13.08,9.86-19.44A310.69,310.69,0,0,1,68.21,383.8c4-5.41,8.27-11.08,14.39-14.24,6.84-3.53,15-3.82,22.52-2.9a59.45,59.45,0,0,1,34.28,16.66,57.63,57.63,0,0,1,16.54,34.91c1.2,11.52.15,32-12.79,36.61-6.51,2.32-14,2.71-20.81,3.2a158.94,158.94,0,0,1-22.62,0,156.27,156.27,0,0,1-23.83-3.53c-6-1.37-13.5-2.76-17.86-7.55-5.64-6.2-1.14-15.18,1.68-21.67a146.35,146.35,0,0,1,8.74-17,148.44,148.44,0,0,1,23.37-29.59A145.42,145.42,0,0,1,106,366.55c5.17-3.9,11.75-9.69,18.55-9.92,13.85-.45,17,19.45,17.9,29.44a129.18,129.18,0,0,1-3.63,44.29c-3,11.65-8,23.67-17.33,31.67-10.4,8.87-24.74,9.83-37.31,5.49C71.15,463,61,453,53.36,441.9,46,431.16,34.59,414.4,40.94,401.08c6.55-13.72,23.34-16.11,36.84-16.32,26.22-.41,56.71-.37,77.07,18.75,8.24,7.74,19,24.46,12.16,36.06-3.45,5.83-11.11,7.19-17.28,7.89a161.75,161.75,0,0,1-23.29.86c-24.63-.79-56.53-7.85-62.38-36.17-3.24-15.69,6.72-25.67,17.74-35l16.47-14c5.92-5,11.64-10.72,18.13-15,6.17-4.05,15.28-6.45,18.66,2.4,2.11,5.53,1.26,12.26,1.09,18-.39,13.21-1,26.47-3.16,39.52s-5.75,25.95-12.14,37.58a63.14,63.14,0,0,1-4.64,7.52c-3.75,5-8.12,4.81-13.73,3.63A155.43,155.43,0,0,1,81.94,451a158.51,158.51,0,0,1-19.24-8.38C56.44,439.38,49.16,435.85,44,431,31.65,419.24,47.83,404.34,57.76,398c22.49-14.24,53.58-20,75.09-.77,8.69,7.75,14.89,19.05,14,31-.59,8.05-4.78,13.3-12.42,15.85a55.38,55.38,0,0,1-18.56,2.62A63.09,63.09,0,0,1,82,435.93c-10.61-7.18-27.56-25.62-9.57-34.9,23.31-12,57.29-2.58,70.27,20.29,6.7,11.8,6.64,27.73-3.2,37.84-9.28,9.55-24.48,12.42-37.23,13-26.3,1.3-53.22-10.09-64.93-34.79-12.67-26.71,2.29-51.95,20.15-71.8,8.93-9.93,20.28-21,34.35-22.16,7-.58,13.64,1.81,20,4.57,7,3,13.81,6.45,20.54,10,12.08,6.37,24.32,12.82,35.77,20.29,11.22,7.32,21.1,16.67,25.29,29.75,8.24,25.72-4.89,52.75-26.28,67.44-19.77,13.57-45.29,18.71-68.85,14.71-23.22-3.95-44.84-17-54.61-39.12-5.6-12.66-7.36-26.88-7.26-40.63.09-11.36,1.8-23.06,6.57-33.45,5-10.87,13.57-19.53,25.32-22.75,13.92-3.82,28.78-.27,42.36,3.31s27.41,7.57,40.75,12.39c13,4.68,23.7,12.09,28.43,25.55,7.65,21.8,1.65,50.24-11.24,68.93-7.32,10.61-17.78,18.07-30.46,20.73-13.55,2.84-28,.8-41.4-1.81-5.46-1.06-11.14-2.45-15.79-5.65-6.29-4.33-8.11-11.27-9.54-18.33-1.06-5.21-2.12-10.36-4.81-15-3.06-5.3-7.55-9.6-10.66-14.87-3.82-6.48-3.3-13.34-2.75-20.54.6-7.87,1-15.77,1.83-23.62.75-7.46,3.14-13.42,10-17.19,6.17-3.37,13.2-4,20.08-4.45,6-.42,12.23-.68,18-2.62,6.17-2.07,11.26-6.06,16.84-9.27s13.52-6.25,19.75-2.56,7.32,12.82,8.3,19.42a128.1,128.1,0,0,1-1.74,46.87c-.69,3.06-1.36,6.31-3,9-2.25,3.83-6,5.48-10.06,6.69-7.15,2.11-14.87,4-22.34,4-6.74-.07-13.32-2.08-18-7.12a15.22,15.22,0,0,1-4.35-9.68c-.1-2.73.85-5.39.9-8.11.07-3.29-1.16-6.26-4.46-7.38-2.79-.95-5.29,0-6.33,2.75l1.85-1c-3.69-.9-4.78-4.62-4.22-8,.75-4.57,4.75-7,9-7.91,7.72-1.7,17.57-.41,25,1.86,8.22,2.52,17.66,10.25,15.19,20-1.86,7.35-9.8,10.75-16.73,11.18-7.88.49-15.88-2.63-22.06-7.4-3.49-2.69-9.33-7.81-5.25-12.23,2.37-2.57,6.63-3.37,9.88-4.12,13.44-3.12,31.54-4.26,40.72,8.3A22.86,22.86,0,0,1,118.69,442c-8.51,2-16.12-1.57-22.81-6.63C89.35,430.39,80,423.95,82,414.54c3.06-14.63,19.75-25.24,33.27-28.41,6.9-1.62,15.39-2.2,22.16.31,8.79,3.26,8.31,13.65,8.22,21.4-.13,12.79-1.07,27.86-9.62,38.15-10.8,13-32.39,11.65-47.53,9.6-7.81-1.06-18-2.26-23.79-8.13-4.88-4.92-5.79-12.25-4.89-18.83,1.87-13.6,11.34-25.37,22.12-33.32,20.7-15.27,52.3-20.68,76.28-10.17,7.06,3.09,13.73,8.31,15.5,16.19,1.93,8.58-1.43,17.25-4.5,25.14-3.2,8.21-6.45,16.41-9.67,24.61-3.15,8-5.91,17.47-14.67,20.9-7.89,3.08-17.51,3-25.88,3.54q-13.11.92-26.25,1-13.62.09-27.23-.72c-4.23-.25-9.44.09-13.48-1.15-5.22-1.6-6.5-8.26-8.16-12.81-10.42-28.73-15.5-65.75,8.55-89.48C74.91,350.15,110.58,357.26,136,370c13.41,6.72,26.74,15.5,32.4,30,4.78,12.29,4,26.29-.74,38.46-10.83,27.88-41.61,39.82-69.79,37.06-14.37-1.4-30-6.31-40.3-16.91-12.18-12.55-10.32-31.76-5.78-47.33,4.67-16,16.45-25.92,30.26-34.24,14-8.44,29.94-18.69,46.94-18.2,30.91.89,56.14,43.07,42.09,70.53-6.35,12.41-18.29,21.06-30.3,27.52-14.63,7.87-31.2,14.48-47.9,15.71C77.6,473.78,61,469.78,50.31,458.26c-13.86-14.86-2.07-34,6.2-48.57,13.1-23.06,39.62-66.75,72.24-51.54,7,3.27,12.9,8.66,18.59,13.8,6.53,5.9,12,12.1,11.91,21.41-.12,8.7-2.34,17.69-3.65,26.27s-2.45,17.07-3.91,25.56c-1.36,7.88-5.21,13.11-13.09,15.18-6,1.58-12.44,1.27-18.59.72-1.92-.17-1.91,2.83,0,3Z"/><circle class="cls-1" cx="105.7" cy="417.2" r="21.27"/><path d="M106.22,418.38a3.17,3.17,0,0,1-.81-4l-.9.69c1.32-.24,2.24,1.39,1.85,2.49-.64,1.83,2.26,2.61,2.89.8a4.89,4.89,0,0,0-5.06-6.26c-1.79.23-2.24,2.48-2.18,4a6.11,6.11,0,0,0,2.07,4.38c1.46,1.25,3.59-.86,2.12-2.12Z"/><path d="M198.13,435.21c-4.4,37.68-37.06,62.43-72.65,68.85a106.23,106.23,0,0,1-51.5-3.4c-15.26-5-33.43-15.1-34.92-33-.16-1.91-3.16-1.93-3,0,2.34,28.15,38.51,38.88,61.84,40.71,29.6,2.32,61.52-7.56,82.53-29.07a75.48,75.48,0,0,0,20.69-44.14c.22-1.91-2.78-1.9-3,0Z"/><path d="M200.72,403.88c-8.74-25.23-22.79-46.48-47.1-58.87a102.36,102.36,0,0,0-64.43-9.15c-21.26,3.81-41.6,14.27-55.84,30.7C19.63,382.38,12.64,403.14,12.63,424c0,23.4,8.84,46.63,26.3,62.52,1.43,1.3,3.55-.82,2.12-2.12C10.85,456.9,7.62,407.14,31,374.35c24.44-34.28,73.68-45.65,112.12-30.78a88.47,88.47,0,0,1,34.19,23.14c9.7,10.88,15.8,24.32,20.52,38,.63,1.81,3.53,1,2.89-.8Z"/></svg>
