<?xml version="1.0" encoding="utf-8"?>
<!-- Generator: Adobe Illustrator 21.0.2, SVG Export Plug-In . SVG Version: 6.00 Build 0)  -->
<svg version="1.1" id="Layer_1" xmlns="http://www.w3.org/2000/svg" xmlns:xlink="http://www.w3.org/1999/xlink" x="0px" y="0px"
	 viewBox="0 0 1440 2199.4" style="enable-background:new 0 0 1440 2199.4;" xml:space="preserve">
<style type="text/css">
	.st0{fill:#162D35;stroke:#1D1D1B;stroke-miterlimit:10;}
	.st1{fill:#1D1D1B;}
	.st2{fill:#C24854;stroke:#1D1D1B;stroke-width:0.5;stroke-miterlimit:10;}
	.st3{fill:#1D1D1B;stroke:#1D1D1B;stroke-miterlimit:10;}
	.st4{fill:none;}
	.st5{fill:#D8D8D8;stroke:#1D1D1B;stroke-width:0.5;stroke-miterlimit:10;}
	.st6{stroke:#000000;stroke-miterlimit:10;}
	.st7{fill:#C24854;}
	.st8{fill:#01722F;stroke:#1D1D1B;stroke-width:0.5;stroke-miterlimit:10;}
	.st9{fill:#0288B7;stroke:#1D1D1B;stroke-width:0.5;stroke-miterlimit:10;}
	.st10{fill:none;stroke:#1D1D1B;stroke-miterlimit:10;}
	.st11{fill:#C24854;stroke:#1D1D1B;stroke-miterlimit:10;}
	.st12{fill:#F9F6C5;}
	.st13{fill:#D8D8D8;stroke:#D8D8D8;stroke-miterlimit:10;}
	.st14{fill:#010101;}
	.st15{fill:#786421;}
	.st16{fill:#080602;}
	.st17{fill:#27241B;}
	.st18{fill:#312E25;}
	.st19{fill:#050403;}
	.st20{fill:#205E2F;}
	.st21{fill:#2C5A33;}
	.st22{fill:#374F36;}
	.st23{fill:#334F35;}
	.st24{fill:#355236;}
	.st25{fill:#385137;}
	.st26{fill:#BFBD9D;}
	.st27{fill:#6F734F;}
	.st28{fill:#BBBC7B;}
	.st29{fill:#ADB17C;}
	.st30{fill:#82844B;}
	.st31{fill:#A8AA6F;}
	.st32{fill:#878562;}
	.st33{fill:#727040;}
	.st34{fill:#918A58;}
	.st35{fill:#BAB389;}
	.st36{fill:#ABA47D;}
	.st37{fill:#080F0A;}
	.st38{fill:#999869;}
	.st39{fill:#ADB36D;}
	.st40{fill:#949F5E;}
	.st41{fill:#6D3F27;}
	.st42{fill:#D3CB95;}
	.st43{fill:#DDD3A9;}
	.st44{fill:#D1C688;}
	.st45{fill:#959268;}
	.st46{fill:#A8A884;}
	.st47{fill:#B6B596;}
	.st48{fill:#8A8C53;}
	.st49{fill:#9C976D;}
	.st50{fill:#929264;}
	.st51{fill:#7C8048;}
	.st52{fill:#8F9160;}
	.st53{fill:#828557;}
	.st54{fill:#CECB9A;}
	.st55{fill:#BCBE83;}
	.st56{fill:#C1BF8D;}
	.st57{fill:#DDD8B0;}
	.st58{fill:#D6CFAB;}
	.st59{fill:#B1AA8E;}
	.st60{fill:#9AA877;}
	.st61{fill:#B6B77E;}
	.st62{fill:#B0B57A;}
	.st63{fill:#7B815B;}
	.st64{fill:#9FA267;}
	.st65{fill:#676D3A;}
	.st66{fill:#B4AF7D;}
	.st67{fill:#C4BF88;}
	.st68{fill:#D0C79D;}
	.st69{fill:#BCB479;}
	.st70{fill:#AFAA6C;}
	.st71{fill:#736A3F;}
	.st72{fill:#9E9559;}
	.st73{fill:#ADAA6F;}
	.st74{fill:#B9BA7B;}
	.st75{fill:#BFC597;}
	.st76{fill:#9FA572;}
	.st77{fill:#A0A66F;}
	.st78{fill:#AAA46B;}
	.st79{fill:#C0BC8A;}
	.st80{fill:#D4CCA0;}
	.st81{fill:#B9C39E;}
	.st82{fill:#A5B68B;}
	.st83{fill:#93A378;}
	.st84{fill:#A6A76A;}
	.st85{fill:#7C7C51;}
	.st86{fill:#B8B375;}
	.st87{fill:#DCD3B8;}
	.st88{fill:#A3A57E;}
	.st89{fill:#71716F;}
	.st90{fill:#706E48;}
	.st91{fill:#917744;}
	.st92{fill:#C4B98A;}
	.st93{fill:#989967;}
	.st94{fill:#86A271;}
	.st95{fill:#9CA883;}
	.st96{fill:#789366;}
	.st97{fill:#9FB391;}
	.st98{fill:#9D9F6E;}
	.st99{fill:#686F46;}
	.st100{fill:#8E8E66;}
	.st101{fill:#66613E;}
	.st102{fill:#82866B;}
	.st103{fill:#A39F57;}
	.st104{fill:#95A773;}
	.st105{fill:#99A67E;}
</style>
<image style="overflow:visible;" width="6000" height="9150" xlink:href="../../events/billeder/baggrund-01.png"  transform="matrix(0.24 0 0 0.24 -0.944 3.4488)">
</image>
<title>dino</title>
<image style="overflow:visible;enable-background:new    ;" width="433" height="407" id="image-2" xlink:href="86B6132F0A717547.png"  transform="matrix(0.4411 0 0 0.4407 620.1998 829.6137)">
</image>
<image style="overflow:visible;enable-background:new    ;" width="406" height="372" xlink:href="86B6132F0A717545.png"  transform="matrix(0.4396 0 0 0.4402 623.014 899.6655)">
</image>
<image style="overflow:visible;enable-background:new    ;" width="465" height="409" xlink:href="86B6132F0A717543.png"  transform="matrix(0.4424 0 0 0.4418 540.332 840.3223)">
</image>
<image style="overflow:visible;enable-background:new    ;" width="350" height="353" xlink:href="86B6132F0A71754D.png"  transform="matrix(0.4411 0 0 0.4424 256.8338 406.18)">
</image>
<image style="overflow:visible;enable-background:new    ;" width="359" height="347" xlink:href="86B6132F0A71754F.png"  transform="matrix(0.4399 0 0 0.4398 301.4527 407.9648)">
</image>
<image style="overflow:visible;enable-background:new    ;" width="361" height="336" xlink:href="86B6132F0A717542.png"  transform="matrix(0.4437 0 0 0.4436 284.9435 446.7832)">
</image>
<path class="st0" d="M252,875.1l164.8,32.1c0,0,39-1.1,33.3-13c0,0-10.7-9.8-23.9-9.7c-7.5-0.2-14.8,1.9-21,6.2L265.8,867
	c0,0-23.3-8.8-28.1-5S252,875.1,252,875.1z"/>
<path class="st1" d="M370.5,890.7c3-1.1,6.2-1.7,9.4-1.7c3,0,5.9,0.3,8.8,0.9c2.9,0.6,5.7,1.6,8.4,2.9c2.9,1.4,5.6,3.3,7.8,5.6
	l-0.1,0.5c-5.8-1-11.5-2.4-17.3-3.6s-11.5-2.6-17.2-4.1L370.5,890.7z"/>
<path class="st0" d="M286.5,882.8c0,0,4.5,11.2-1.6,10.3c-3.2-0.5-6.4-0.6-9.7-0.4c0,0-5.8-11.2-15-1.6c0,0-4.5,8.2,4.5,13.6
	c0,0,8,0.8,9.4-7.1c0,0,9.1-0.9,29.4,5.6c0,0,4.2,13.3,14.5,6s-0.5-17.1-5.2-15c-2.8,0.1-5.6,0.9-8.1,2.3c0,0-6.8-0.2-7.8-2.1
	s1.2-9.5,1.2-9.5L286.5,882.8z"/>
<path class="st0" d="M390.3,902.9c0,0,4.5,11.2-1.6,10.3c-3.2-0.5-6.4-0.6-9.7-0.4c0,0-5.8-11.2-15-1.6c0,0-4.5,8.2,4.5,13.6
	c0,0,8,0.8,9.4-7.1c0,0,9.1-0.9,29.4,5.6c0,0,4.2,13.3,14.5,6s-0.5-17.1-5.2-15c-2.8,0.1-5.6,0.9-8,2.3c0,0-6.8-0.2-7.8-2.1
	s1.2-9.5,1.2-9.5L390.3,902.9z"/>
<path class="st2" d="M225.3,624.6c0,0,122.5,20.8,98.8-87.8c-0.8-3.6-2-7.2-5.4-8.2c0,0-10.7-7-73.8-10.3c0,0,32,32,41.9,32
	c0,0-7.9,26.6-46.9,36.9c0,0-42.3-41.9-41.9-56.5C198.1,530.6,199,612.6,225.3,624.6z"/>
<path class="st3" d="M269.7,539.7c0,0,27.3-0.6,17,10.6L269.7,539.7z"/>
<path class="st3" d="M210.8,563.3c0,0,16.4,13.5,18.8,20.7"/>
<line class="st4" x1="309.4" y1="594.6" x2="307.8" y2="603.9"/>
<path class="st1" d="M309.4,594.6c0.4,1.6,0.4,3.2,0.1,4.8c-0.2,1.6-0.8,3.2-1.7,4.5c-0.4-1.6-0.4-3.2-0.1-4.8
	C307.9,597.5,308.5,595.9,309.4,594.6z"/>
<line class="st4" x1="302.8" y1="600.5" x2="312.8" y2="596.6"/>
<path class="st1" d="M302.8,600.5c1.4-1.2,3-2.2,4.7-2.8c1.7-0.7,3.5-1.1,5.4-1.1c-1.4,1.2-3,2.2-4.7,2.8
	C306.4,600.1,304.6,600.5,302.8,600.5z"/>
<path class="st5" d="M302.8,591.8c0,0-20.8-31.8,5.8-58.2C308.5,533.6,337.3,561.8,302.8,591.8z"/>
<path class="st6" d="M305.3,556.7c0,0,9.8,14.7,11.9,12.1S319.9,563.5,305.3,556.7z"/>
<path class="st5" d="M242.5,603.9c0,0,11.7-35.8,52.6-3.4C295.1,600.5,278.9,635.4,242.5,603.9z"/>
<path class="st6" d="M276.9,594.3c0,0,9.8,14.7,11.9,12.1S291.5,601.2,276.9,594.3z"/>
<path class="st2" d="M268.9,659c0,0-45.4,40.9-86.4-4.8c0,0-0.6-32-37.4-31.1c0,0-9.8,2.6,0,7.4s13.7,3.3,13.5,9.2
	c0,0-22.3-2.4-20.4,5.3s7.4-2.8,12.1-1.5s-10.6,7.7-8.5,13.6s14.4-4.7,14.4-4.7l9.3,5.6c0,0,45.5,65.7,109.7,18.9
	C275.1,677,279.6,668.2,268.9,659z"/>
<path class="st7" d="M174.9,669c-1.2,1.3-4.1,0.9-6.5-1.2s-3.5-4.8-2.3-6.2s4.4-4.4,6.5,1.2C173.7,665.8,177.2,666.6,174.9,669z"/>
<path class="st7" d="M176.7,667.5c0.2,0.5-0.3,1.1-1.1,1.5s-1.6,0.3-1.9-0.1s-0.5-1.6,1.1-1.5C175.8,667.4,176.4,666.6,176.7,667.5z
	"/>
<path class="st8" d="M345.3,725.4c0,0,6.9,5.4,21.4,2.5c0,0,7.2,7.8,2,16.7c-3.1,5-3.2,11.2-0.4,16.3c0,0-2.4,19.3,0.1,21.8
	s6,20,5.9,21.8s15.2,16.7,15.2,16.7s12.2-1.9,15.3,3.3s9.3-5.3,8.6-6.9s22.5-9.3,45.6,12l8.5,1.5c0,0,13.8,16.2-6.1,14.9
	s-27-18.8-35.4-14.6s-38.7,19.3-48.7,2.2s-24.2-32-24.3-70.6c0,0-37-3.7-45,10.4s-40.2,7.4-40.2,7.4s-1.9,10.3-3.6,10.5
	c0,0,13.2,14.6,16.1,29.7c0,0,27.3,17,22.1,25.3c0,0,16.2,16,7.2,19c0,0-13.5-8.6-19.1-6.1s-1.6-13.3-1.6-13.3s-10.4-13.9-16.3-17.4
	s-14.9-19.6-15.3-26.1s-16-17.4-8.2-27s16.4-16.5,45.4-19.4s34.1-22.9,34.1-22.9S340,723.1,345.3,725.4z"/>
<path class="st9" d="M257.6,654.8c0,0,19.4,3.3,18.9,25.2c0,0,5.3,11.3,11.7-14.3c0,0,17.7-19.8,28.4,15.4c0,0,9.3,8.9,3.6,17.8
	s7.8,9.4,7.8,9.4s-15.7,20,0.8,22.2s59.9,1.6,51.6-17.2s-42.1-76.9-45.4-81s25.1-15.9,25.1-15.9s1.9-13.3-50.2-9.3
	c0,0-21.5,17.6-35.3,17.4c0,0,15.2,13.3-0.8,23.6S257.6,654.8,257.6,654.8z"/>
<path class="st2" d="M352.1,620.6c0,0,48.2,12.5,35.2,27.6s-62.5-2.7-62.5-2.7s-9.9,13.2-21.1-1.7c0,0,0.8-4.4,13-2.9
	c0,0,9.3-7.3-4.9-12.2c0,0-4.5,5.1-8.1,2.7s4.2-12.2,4.2-12.2h7c0,0,16.4-5.5,24.8,8.3s27.1,12.2,27.1,12.2l-23-14.6L352.1,620.6z"
	/>
<path class="st10" d="M324.2,621.2c0,0-9,15.9,9,3.5"/>
<path class="st10" d="M340.7,707.4c-3.2,0.9-6.5-0.8-7.5-4"/>
<path class="st10" d="M340.7,714.6c0,0-14.3,1.4-12.7-6.2"/>
<path class="st10" d="M327.9,724.2c0,0-5-2.4-4.9-7.3"/>
<path class="st10" d="M389.4,831.4c0,0,0-7.1,4.7-10.4"/>
<path class="st10" d="M356.2,739.1c0,0,6.3,5.6,8.1,1.3s-1.6,14.7-9.6,12.3S356.2,739.1,356.2,739.1z"/>
<image style="overflow:visible;enable-background:new    ;" width="353" height="424" xlink:href="86B6132F0A717541.png"  transform="matrix(0.4411 0 0 0.4399 275.2389 690.2911)">
</image>
<path class="st10" d="M262.3,778c0.9,2.1,3.2,3.2,5.3,2.6"/>
<path class="st10" d="M455.4,833.1c1.7,0.1,3.2-1.3,3.2-3c0-0.2,0-0.4,0-0.5"/>
<path class="st10" d="M449.1,836.3c0,0,0.5,4-1.7,4.7"/>
<path class="st11" d="M505.6,676c0,0,12.6,3.8,24.6-1.3s51.8-66.4,51.8-66.4l-40.6,4.6c0,0,10.6,12.4-1.9,18c0,0-1.2,0.5-1.2,5
	s-21,8.8-21,8.8l11.6,5.8c0,0-0.4,6.8-18.8,7.9l6.4,8.3L505.6,676z"/>
<polygon class="st11" points="463.3,624.3 454.5,637.8 452,625.1 "/>
<polygon class="st11" points="489.8,635.1 489.8,617.4 502.6,619 "/>
<polygon class="st11" points="527.8,631 530.5,611.4 541.3,613 "/>
<path class="st2" d="M474.4,818.6c0,0-9.3,4.7-7.3,12.5c0,0,5.8,5.6,5.6,10.4s12.6,44.1,29.2,36.8
	C518.5,870.9,476.5,812.3,474.4,818.6z"/>
<path class="st2" d="M306.5,864.6c0,0-12.2-8.5-19.2-5.3s-17.6,0.3-17.6,0.3s-17-1.1-10.2,9.3c6.8,10.4,54.8,10.3,54.8,10.3
	S317.3,869.8,306.5,864.6z"/>
<image style="overflow:visible;enable-background:new    ;" width="391" height="368" xlink:href="86B6132F0A717546.png"  transform="matrix(0.4428 0 0 0.4425 475.9126 534.2364)">
</image>
<path class="st2" d="M577.8,611.4c0,0-14.2-3.9-37.2,4.4c0,0-9.3-2.9-13.2,0s-18.6,20.1-18.6,20.1l-2.8-15.7c0,0-11.4-4.9-19.5-2.5
	c0,0-10.4,14.2-14.2,18.1l-5.5-12.7l-20.8,2.4c0,0,41-119.7,136.7-82.9c0,0,10.8,8.8,9.8,32.4s27.9,13.2,27.9,13.2
	s22.1-27,35.8-20.6s18.6,12.3,18.6,12.3s15.2,12.8,36.8-3.9c0,0,6.4-8.8,29.4,20.1c0,0,5.4,10.3,20.6,3.9c0,0-4.9,24-36.8,11.3
	c0,0-32.9,4.9-53.9,56.9c0,0-4.9,10.3,6.9,27.5s6.9-17.7,6.9-17.7s4.9-12.3,17.7,15.7c0,0,8.8,25.5,8.8,28.9s8.8,2,8.3,7.4
	s-4.9,4.4-4.9,4.4s5.9,6.9,4.4,9.8s-6.9,0-6.9,0s5.4,5.9,1.5,6.9s-7.4,2-13.7-41.2c0,0-8.3-25.5-14.7,2.5s-9.8,35.8-20.1,28.9
	s-16.2-43.2-16.2-43.2s1,13.7-33.8,1c0,0-6.4,5.9-14.2,30.9c0,0-3.4,1.3-7.4-5c0,0-11.3,8.4-15.7,16.2s-21.6,1.5-21.6,1.5
	s-5.4,27.9-21.1,11.8c0,0,15.2,1.5,14.7-11.3s-17.2-15.7-21.1-9.8s-5.4,8.3-5.4,8.3s-4.9-8.5,5.4-16.7s-14.7,0-14.7,0
	s15.2-35.2,27.5-4.8c0,0,13.7,8.8,12.8,11.8s54.9-8.3,47.1-54.9s-12.3-47.6-12.3-47.6s-18.7,39.9-56.6,44.2
	C532.5,673.7,573.3,649.8,577.8,611.4z"/>
<path class="st3" d="M472.1,607.5c3.7-4.5,8.8-7.6,14.5-8.6L472.1,607.5z"/>
<polygon class="st12" points="525.8,665.5 535,673 548.2,661.9 "/>
<path class="st12" d="M532.1,651.5l12.4,13.6l14.1-13.6C558.6,651.5,538.5,646.2,532.1,651.5z"/>
<path class="st12" d="M570.3,621.3c0,0-27.9,2.6-11.8,13.8c0,0-22.3-1.7-8.6,14.1l8.6,2.4c7.9-9.1,13.9-19.8,17.5-31.3L570.3,621.3z
	"/>
<path class="st10" d="M660.5,643.6c0,0,10.7,6.1,10.4,24.6"/>
<path class="st10" d="M640,679.8c0,0,11,5.9,8.8,18.4"/>
<path class="st3" d="M502.6,585.6l77.4-28.7c0,0-0.4,5.1-7.1,8.3c0,0-13,41-49.6,18.8C523.4,584,508,589.7,502.6,585.6z"/>
<path class="st13" d="M534.7,576.7l26.8-9.7c0,0,5.3,13.7-9.9,17.9C535,589.5,534.7,576.7,534.7,576.7z"/>
<ellipse transform="matrix(0.792 -0.6106 0.6106 0.792 -241.9911 450.1019)" class="st3" cx="539.5" cy="580.2" rx="2.2" ry="2.8"/>
<image style="overflow:visible;enable-background:new    ;" width="317" height="316" xlink:href="7850C5CC8265F30E.png"  transform="matrix(0.4391 0 0 0.4405 452.7108 474.8932)">
</image>
<image style="overflow:visible;enable-background:new    ;" width="317" height="317" xlink:href="7850C5CC8265F309.png"  transform="matrix(0.4392 0 0 0.4405 459.6639 472.5507)">
</image>
<image style="overflow:visible;enable-background:new    ;" width="314" height="317" xlink:href="7850C5CC8265F30A.png"  transform="matrix(0.4433 0 0 0.4406 454.384 478.1094)">
</image>
<image style="overflow:visible;enable-background:new    ;" width="316" height="314" xlink:href="7850C5CC8265F308.png"  transform="matrix(0.4419 0 0 0.442 461.7089 476.176)">
</image>
<image style="overflow:visible;enable-background:new    ;" width="316" height="314" xlink:href="7850C5CC8265F306.png"  transform="matrix(0.4433 0 0 0.4433 446.2596 476.3061)">
</image>
<image style="overflow:visible;enable-background:new    ;" width="317" height="313" xlink:href="7850C5CC8265F319.png"  transform="matrix(0.4405 0 0 0.4405 473.3284 471.3608)">
</image>
<image style="overflow:visible;enable-background:new    ;" width="317" height="313" xlink:href="7850C5CC8265F31A.png"  transform="matrix(0.4391 0 0 0.4405 480.9138 470.9146)">
</image>
<image style="overflow:visible;enable-background:new    ;" width="318" height="315" xlink:href="7850C5CC8265F318.png"  transform="matrix(0.4406 0 0 0.4406 474.2208 474.9303)">
</image>
<image style="overflow:visible;enable-background:new    ;" width="318" height="315" xlink:href="7850C5CC8265F31E.png"  transform="matrix(0.4391 0 0 0.4406 480.4675 474.9303)">
</image>
<image style="overflow:visible;enable-background:new    ;" width="318" height="313" xlink:href="7850C5CC8265F31B.png"  transform="matrix(0.4406 0 0 0.4405 467.0818 471.3608)">
</image>
<image style="overflow:visible;enable-background:new    ;" width="319" height="313" xlink:href="7850C5CC8265F33D.png"  transform="matrix(0.4406 0 0 0.4392 493.1653 476.9754)">
</image>
<image style="overflow:visible;enable-background:new    ;" width="318" height="312" xlink:href="7850C5CC8265F33F.png"  transform="matrix(0.4406 0 0 0.4404 486.0264 475.6368)">
</image>
<image style="overflow:visible;enable-background:new    ;" width="319" height="311" xlink:href="7850C5CC8265F33C.png"  transform="matrix(0.4406 0 0 0.4404 493.1653 472.9597)">
</image>
<image style="overflow:visible;enable-background:new    ;" width="317" height="312" xlink:href="7850C5CC8265F33B.png"  transform="matrix(0.4405 0 0 0.4405 487.365 471.6211)">
</image>
<image style="overflow:visible;enable-background:new    ;" width="318" height="308" xlink:href="7850C5CC8265F335.png"  transform="matrix(0.4433 0 0 0.4418 498.9657 478.7601)">
</image>
<image style="overflow:visible;enable-background:new    ;" width="319" height="315" xlink:href="7850C5CC8265F337.png"  transform="matrix(0.4392 0 0 0.4391 585.638 507.0746)">
</image>
<image style="overflow:visible;enable-background:new    ;" width="318" height="314" xlink:href="7850C5CC8265F334.png"  transform="matrix(0.4406 0 0 0.4392 578.053 506.6284)">
</image>
<image style="overflow:visible;enable-background:new    ;" width="317" height="314" xlink:href="7850C5CC8265F32B.png"  transform="matrix(0.4405 0 0 0.4392 584.7456 503.0589)">
</image>
<image style="overflow:visible;enable-background:new    ;" width="318" height="314" xlink:href="7850C5CC8265F32D.png"  transform="matrix(0.4406 0 0 0.4392 578.9452 502.6127)">
</image>
<image style="overflow:visible;enable-background:new    ;" width="320" height="312" xlink:href="7850C5CC8265F32F.png"  transform="matrix(0.4378 0 0 0.439 591.4385 508.4131)">
</image>
<image style="overflow:visible;enable-background:new    ;" width="319" height="316" xlink:href="7850C5CC8265F350.png"  transform="matrix(0.4392 0 0 0.4405 597.8153 515.3291)">
</image>
<image style="overflow:visible;enable-background:new    ;" width="318" height="314" xlink:href="7850C5CC8265F36F.png"  transform="matrix(0.4392 0 0 0.4406 590.6762 516.6676)">
</image>
<image style="overflow:visible;enable-background:new    ;" width="317" height="314" xlink:href="7850C5CC8265F370.png"  transform="matrix(0.4391 0 0 0.4405 596.4769 511.7596)">
</image>
<image style="overflow:visible;enable-background:new    ;" width="318" height="315" xlink:href="7850C5CC8265F373.png"  transform="matrix(0.4392 0 0 0.4406 590.6762 512.2058)">
</image>
<image style="overflow:visible;enable-background:new    ;" width="318" height="313" xlink:href="7850C5CC8265F371.png"  transform="matrix(0.4406 0 0 0.4405 603.6159 515.3291)">
</image>
<image style="overflow:visible;enable-background:new    ;" width="319" height="315" xlink:href="7850C5CC8265F377.png"  transform="matrix(0.4392 0 0 0.4405 570.1887 515.7939)">
</image>
<image style="overflow:visible;enable-background:new    ;" width="318" height="315" xlink:href="7850C5CC8265F372.png"  transform="matrix(0.4406 0 0 0.4406 562.6037 516.2401)">
</image>
<image style="overflow:visible;enable-background:new    ;" width="320" height="316" xlink:href="7850C5CC8265F37D.png"  transform="matrix(0.4365 0 0 0.4377 568.8501 511.7782)">
</image>
<image style="overflow:visible;enable-background:new    ;" width="317" height="315" xlink:href="7850C5CC8265F37E.png"  transform="matrix(0.4406 0 0 0.4406 563.0497 512.2243)">
</image>
<image style="overflow:visible;enable-background:new    ;" width="319" height="313" xlink:href="7850C5CC8265F37F.png"  transform="matrix(0.4392 0 0 0.4405 575.9892 515.7939)">
</image>
<image style="overflow:visible;enable-background:new    ;" width="319" height="313" xlink:href="7850C5CC8265F35B.png"  transform="matrix(0.4392 0 0 0.4406 644.4049 517.3369)">
</image>
<image style="overflow:visible;enable-background:new    ;" width="317" height="314" xlink:href="7850C5CC8265F35D.png"  transform="matrix(0.4405 0 0 0.4405 638.7719 516.3888)">
</image>
<image style="overflow:visible;enable-background:new    ;" width="319" height="313" xlink:href="7850C5CC8265F35F.png"  transform="matrix(0.4406 0 0 0.4405 647.584 511.9827)">
</image>
<image style="overflow:visible;enable-background:new    ;" width="318" height="313" xlink:href="7850C5CC8265F35A.png"  transform="matrix(0.4392 0 0 0.4405 641.7837 511.5365)">
</image>
<image style="overflow:visible;enable-background:new    ;" width="319" height="310" xlink:href="7850C5CC8265F359.png"  transform="matrix(0.4406 0 0 0.4404 652.9011 514.9387)">
</image>
<image style="overflow:visible;enable-background:new    ;" width="313" height="320" xlink:href="7850C5CC8265F355.png"  transform="matrix(0.439 0 0 0.4391 630.6475 523.5278)">
</image>
<image style="overflow:visible;enable-background:new    ;" width="316" height="318" xlink:href="7850C5CC8265F357.png"  transform="matrix(0.4392 0 0 0.4391 623.1737 524.1041)">
</image>
<image style="overflow:visible;enable-background:new    ;" width="312" height="320" xlink:href="7850C5CC8265F34A.png"  transform="matrix(0.4361 0 0 0.4377 629.4576 517.8947)">
</image>
<image style="overflow:visible;enable-background:new    ;" width="313" height="318" xlink:href="7850C5CC8265F34B.png"  transform="matrix(0.4405 0 0 0.4392 621.9653 519.4377)">
</image>
<image style="overflow:visible;enable-background:new    ;" width="313" height="317" xlink:href="7850C5CC8265F34D.png"  transform="matrix(0.4419 0 0 0.4433 633.4732 517.0395)">
</image>
<image style="overflow:visible;enable-background:new    ;" width="316" height="317" xlink:href="7850C5CC8265F3AA.png"  transform="matrix(0.4405 0 0 0.4405 606.9436 520.4974)">
</image>
<image style="overflow:visible;enable-background:new    ;" width="316" height="316" xlink:href="7850C5CC8265F3AD.png"  transform="matrix(0.4405 0 0 0.4406 614.5288 519.9583)">
</image>
<image style="overflow:visible;enable-background:new    ;" width="317" height="319" xlink:href="7850C5CC8265F3AE.png"  transform="matrix(0.4378 0 0 0.4377 609.1745 525.3126)">
</image>
<image style="overflow:visible;enable-background:new    ;" width="316" height="318" xlink:href="7850C5CC8265F3AC.png"  transform="matrix(0.4406 0 0 0.4392 615.6445 523.7695)">
</image>
<image style="overflow:visible;enable-background:new    ;" width="318" height="315" xlink:href="7850C5CC8265F3AB.png"  transform="matrix(0.4391 0 0 0.4392 599.0051 525.2754)">
</image>
<image style="overflow:visible;enable-background:new    ;" width="319" height="314" xlink:href="7850C5CC8265F3A5.png"  transform="matrix(0.4391 0 0 0.4405 597.7223 520.8507)">
</image>
<image style="overflow:visible;enable-background:new    ;" width="318" height="313" xlink:href="7850C5CC8265F3A6.png"  transform="matrix(0.4406 0 0 0.4406 569.9284 506.7957)">
</image>
<image style="overflow:visible;enable-background:new    ;" width="318" height="313" xlink:href="7850C5CC8265F3A4.png"  transform="matrix(0.4406 0 0 0.4405 577.644 511.0717)">
</image>
<image style="overflow:visible;enable-background:new    ;" width="316" height="315" xlink:href="7850C5CC8265F39A.png"  transform="matrix(0.4406 0 0 0.4406 583.7045 512.875)">
</image>
<image style="overflow:visible;enable-background:new    ;" width="315" height="318" xlink:href="7850C5CC8265F39D.png"  transform="matrix(0.4405 0 0 0.4392 635.2022 523.6951)">
</image>
<image style="overflow:visible;enable-background:new    ;" width="318" height="309" xlink:href="7850C5CC8265F381.png"  transform="matrix(0.4405 0 0 0.4403 502.3121 474.3168)">
</image>
<image style="overflow:visible;enable-background:new    ;" width="317" height="313" xlink:href="7850C5CC8265F383.png"  transform="matrix(0.4406 0 0 0.4406 507.7222 477.5331)">
</image>
<image style="overflow:visible;enable-background:new    ;" width="318" height="312" xlink:href="7850C5CC8265F380.png"  transform="matrix(0.4406 0 0 0.4406 511.6635 480.7494)">
</image>
<image style="overflow:visible;enable-background:new    ;" width="316" height="312" xlink:href="7850C5CC8265F3FF.png"  transform="matrix(0.4419 0 0 0.4433 684.8408 536.9879)">
</image>
<image style="overflow:visible;enable-background:new    ;" width="319" height="311" xlink:href="7850C5CC8265F382.png"  transform="matrix(0.4406 0 0 0.439 677.4229 535.7794)">
</image>
<image style="overflow:visible;enable-background:new    ;" width="318" height="308" xlink:href="7850C5CC8265F386.png"  transform="matrix(0.4433 0 0 0.4432 678.9288 542.6954)">
</image>
<g transform="translate(676.233 539.4605) scale(0.442 0.4404)">

		<image style="overflow:visible;enable-background:new    ;" width="320" height="308" id="image" xlink:href="7850C5CC8265F387.png"  transform="matrix(0.4392 0 0 0.4404 676.233 539.4605)">
	</image>
</g>
<g transform="translate(668.8587 533.9019) scale(0.442 0.4404)">

		<image style="overflow:visible;enable-background:new    ;" width="320" height="308" id="image_2_" xlink:href="7850C5CC8265F38C.png"  transform="matrix(0.4392 0 0 0.4404 668.8587 533.9019)">
	</image>
</g>
<g id="o4ZKLz.tif">
	<path class="st14" d="M160.4,595.9c0.3,0.1,0.8,0.1,0.9,0.3c1.1,1.6,0.3,3.6,1.5,5.3c1.3,1.9-0.3,3.4-1.6,4.7
		c-0.7,0.8-1.1,1.8-0.9,2.9c0.4,4.1,1.6,8,3.6,11.6c0.7,1.3,1.9,2.3,3.4,2.6c2,0.4,3.6,2,4,4c0.8,2.6,1.1,5.3,1,8
		c-0.6,11.1,0.9,22.1,4.2,32.7c0.2,0.7,0.4,1.5,0.6,2.3c0.9,4-0.2,5.7-4.3,6.3c-4,0.6-8.1,1-12.2,1.6c-1.7,0.2-3.5,0.4-5.2,0.8
		c-2,0.7-4.2-0.4-4.9-2.4c0-0.1-0.1-0.3-0.1-0.4c-3-7.5-4.7-15.5-5-23.6c-0.3-6.2-1.2-12.3-2.6-18.3c-0.9-2.7,0.2-5.7,2.7-7.3
		c4-2.7,3.1-6.9,2.7-10.7c-0.4-3.3-1.3-6.6-5.4-7.4c-0.4-0.1-0.8-0.4-1.1-0.7c-0.8-0.8-1.3-7.4-0.7-8.5c1,0.8,2.4,1,3.6,0.7
		c2.1-0.3,4.3-0.7,6.4-1.1c1.4-0.2,2.7-0.1,3.7-1.4c0.6-0.8,1.4-0.2,2.2-0.1c1.3,0.2,2.5,0.3,2.7-1.5
		C159.7,595.9,160,595.7,160.4,595.9z"/>
	<path class="st15" d="M159.8,596.4c0.6,0.5,0.8,1.2,0.1,1.8c-0.9,0.7-2.2,0.9-3.2,0.4c-1.1-0.5-1.8-0.8-2.3,0.6
		c0,0.1-0.1,0.2-0.1,0.2c-2.9,0.9-5.8,1.4-8.8,1.5c-0.5-0.2-1-1.1-1.4,0c-0.3,0.9-0.9,1.5-1.9,1.3c-1-0.3-0.6-1.3-0.8-2
		c-0.1-0.2-0.2-0.5-0.4-0.6c0.1-0.6,0.6-0.4,1-0.5c1.7-0.6,3.4-1,5.2-1.2c0.9-0.3,1.8-0.1,2.7-0.5c-0.1-0.1,0-0.3,0.1-0.4
		c0,0,0,0,0.1,0c1.4-0.2,2.9-0.4,4.2-0.8C156,595.8,158,595.8,159.8,596.4z"/>
	<path class="st16" d="M159.8,596.4l-6.3,0.2c-0.5,0.2-0.6-0.1-0.5-0.5l2.6-0.5c1,0.3,2.1,0.3,3.1,0c0.6-0.1,1.2,0,1.7,0.3
		L159.8,596.4z"/>
	<path class="st17" d="M147.3,598.1c-1.7,0.6-3.6,0.9-5.4,0.9c1.2-0.9,2.8-1.4,4.3-1.4C146.5,597.9,147.1,597.7,147.3,598.1z"/>
	<path class="st18" d="M153,596.1c0.2,0.2,0.4,0.3,0.5,0.5c-1.1,0.6-2.2,1.5-3.6,0.5C150.8,596.2,151.9,596.3,153,596.1z"/>
	<path class="st19" d="M147.3,598.1l-1.1-0.5c1.2,0.1,2.3-1,3.6-0.2C149.1,598.3,148.1,598,147.3,598.1z"/>
	<path d="M158.7,595.6c-1,0.6-2.2,0.6-3.1,0L158.7,595.6z"/>
	<path class="st20" d="M159.2,612.2c0.8,2.8,1.8,5.4,3,8c0.8,2.1,2.6,3.7,4.7,4.3c3.4,1,3.5,4.2,3.7,7c-0.3,0.8-0.3,1.8,0.1,2.6
		c0.4,5.8-0.5,11.6,0.4,17.4c1.1,6.1,2.5,12.2,4.3,18.1c1,3.6,0.4,4.8-3.3,5.3c-5.4,0.8-10.8,1.3-16.1,2.5c-1.9,0.6-4-0.4-4.6-2.4
		c0-0.1-0.1-0.3-0.1-0.4c-2.6-7.2-4.1-14.7-4.6-22.3c0.3-0.8,0.3-1.8-0.1-2.6l0,0c-0.7-1.7,0.3-3.6-0.6-5.2l-1.9-9
		c0.1-1.5,0.1-3.1-0.1-4.6c0-1.1,0.5-2.1,1.4-2.6c4.9-2.9,4.8-7.5,3.9-13.5c-0.5-2.2-1.2-4.3-2.1-6.3c-0.3-1.1-1.1-0.5-1.7-0.6
		c-1.6-0.1-3.1-0.4-3.4-2.2c-0.2-1.6,1.3-2.1,2.5-2.6c4.4-1.6,9-2.6,13.7-3c1.4-0.3,2.9,0.5,3.3,2c0.5,1.6-0.6,2.2-1.8,2.7
		c-1.8,0.7-1.1,2.3-1.2,3.6C159.3,609.6,158.6,611,159.2,612.2z"/>
	<path class="st21" d="M144.1,631.1c0.7,1.5,0.7,3.2,0.1,4.6C144.3,634.1,143.1,632.6,144.1,631.1z"/>
	<path class="st22" d="M146.1,644.7c1.2,1.6,0.3,3.5,0.6,5.2C145.7,648.2,146.4,646.4,146.1,644.7z"/>
	<path class="st23" d="M159.2,612.2c-0.9-1.1-0.3-2.5-0.5-3.7C159.6,609.6,159.1,610.9,159.2,612.2z"/>
	<path class="st24" d="M170.7,634.2c-0.7-0.7-0.8-1.8-0.1-2.6C170.7,632.5,170.7,633.3,170.7,634.2z"/>
	<path class="st25" d="M146.7,649.9c0.7,0.7,0.8,1.8,0.1,2.6l0,0C146.7,651.6,146.7,650.7,146.7,649.9z"/>
	<path class="st26" d="M148.3,638.9c-0.3-4.3,0-4.6,4.2-4.8c1.5-0.1,3-0.3,4.5-0.5c0.7-0.2,1.5-0.3,2.3-0.2c1,0.4,0.6,1.2,0.5,1.9
		c-0.4,0.5-1,0.8-1.6,0.9c-0.6,0.1-1.2,0-1.6-0.5c-0.5-1.2-1.2,0-1.8-0.1c-0.5,0.2-0.9,0.6-1.2,1c-0.2,0.4-0.5,0.8-0.8,1
		c-0.3,0.2-0.6,0.4-0.9,0.6c-0.4,0.3-0.7,0.7-0.9,1.2c-0.4,0.7-0.8,1.4-1.7,1.3C148.1,640.6,148.7,639.4,148.3,638.9z"/>
	<path class="st27" d="M162.3,633c3.7-1,4.5-0.3,4.8,3.3c0.3,4.5,1,8.9,1.4,13.4c0.5,1.9,0.4,4-0.3,5.9c-0.1-0.1-0.2-0.2-0.3-0.3
		c-0.9-1.7,0.1-3.7-0.9-5.4c-0.6-1.6-0.8-3.4-0.6-5.1c0.1-0.9,0-1.8-0.2-2.7c-0.1-1.3-0.2-2.7-0.2-4c-0.1,0.8,0.2,1.4-0.1,1.9
		c-0.2,0.4-0.5,0.6-0.9,0.6c-0.5-0.1-0.9-0.6-1-1.1c0-1.3,0.2-2.6,0.7-3.7c0.3-1.2,0-2-1.4-2.1C162.8,633.6,162.5,633.4,162.3,633z"
		/>
	<path class="st28" d="M150.8,660.3c-0.4-1.5-0.6-3.1-0.5-4.7c0.4-0.8-0.3-1.5-0.2-2.2c0.1-0.7-0.4-1.5,0.4-1.9
		c0.8-0.4,1.2,0.5,1.7,0.9c1.1,0.9,1,2.9,2.6,3.4c0.2,0.9-0.2,1.8-1,2.2c-1.4,0.2-1.7,1.4-2.3,2.4
		C151.2,660.5,151,660.5,150.8,660.3z"/>
	<path class="st29" d="M162.3,661.8l-6.1,0.6c-1.3,0.3-2.5,0.7-3-1.1c0-0.3,0.2-0.5,0.4-0.7c1.2-0.6,2.6-0.5,3.8-1
		c0.7-0.3,1.5-0.4,2.2-0.4c0.2,0.1,0.5,0.1,0.7,0.3C160.3,661,162.5,660.3,162.3,661.8z"/>
	<path class="st30" d="M149.4,648.4c0-0.2-0.1-0.3-0.1-0.5c0.4-0.8,0.3-1.8-0.2-2.5c0.1-0.3,0.2-0.7,0.2-1c0.1-0.6,0.1-1.2,0.9-1.2
		c0.9,0.8,1,2.1,1.8,2.9c0.1,0.2,0.2,0.4,0.2,0.7c0,0.5-0.2,0.9-0.3,1.3c-0.4,1.2,1.1,2.4,0,3.6
		C149.9,651.4,150.1,649.6,149.4,648.4z"/>
	<path class="st31" d="M149.4,648.4c1.6,0.4,0.8,2.8,2.5,3c0.4,0.1,0.7,0.3,0.8,0.6c0.1,0.2,0.1,0.5,0,0.7c-0.2,0.3-0.4,0.6-0.8,0.3
		l-1.2-1.3c-1.3,1.3,0.9,2.7-0.4,3.9C149.7,653.3,149.4,650.8,149.4,648.4z"/>
	<path class="st32" d="M162.3,661.8c-0.2-1.2-2.7-0.1-2.1-2c0.3-0.4,0.7-0.7,1.2-0.8c1.3-0.2,2.6,0.4,3.3,1.5c0.2,0.3,0.4,0.7,0.4,1
		C164.2,661.9,163.2,662,162.3,661.8z"/>
	<path class="st33" d="M168.2,655.7c1.4,3.9,1.3,4.5-1.1,5.7c-0.2-0.8-0.3-1.6-0.2-2.5C167.1,657.7,166.4,656.2,168.2,655.7
		L168.2,655.7z"/>
	<path class="st34" d="M167.6,659.3c0.1,0.7-0.1,1.4-0.5,2c-0.6,0.1-1.3,0.1-1.9,0.2l-0.7-0.6c0.5-1.1,0.9-2.2,1.2-3.4
		c0.2-0.4,0.5-0.6,0.9-0.6C167.9,657.3,166.9,658.7,167.6,659.3z"/>
	<path class="st35" d="M159.8,635.2c-0.3-0.4-0.3-1,0-1.5c0.4-0.6,1.1-0.1,1.6-0.5l0.5,0c1,1,1.1,2.6,0.2,3.7
		c-0.3,0.2-0.7,0.3-1.1,0.2C160.3,636.6,159.6,636.2,159.8,635.2z"/>
	<path class="st36" d="M161.8,636.8c0.5-1.2-0.1-2.4,0-3.6c0.1-0.1,0.3-0.1,0.5-0.1c0.4,0.1,0.7,0.1,1.1,0.2
		c1.6,1.7,0.1,3.2-0.4,4.7c-0.4,0.2-0.8,0.2-1.2,0C161.5,637.6,161.6,637.1,161.8,636.8z"/>
	<path class="st37" d="M154.3,606.8c0,0.6-0.3,1.1-0.8,1.3c-0.7,0.4-1.4,1.1-2.3,0.7c-0.2-0.2-0.3-0.4-0.3-0.6
		c0.3-0.9,1.3-0.7,1.9-1.1C153.2,606.8,153.6,606.3,154.3,606.8z"/>
	<path class="st38" d="M148.3,638.9c0.6,1.4,1.3,2.2,2.2,0.2c0.3-0.6,0.1-1.8,1.4-1.2c0.4,1.2-0.4,2.1-0.5,3.1
		c-0.1,0.2-0.2,0.5-0.3,0.7c-1.1,1.2-1.7,0-2.3-0.6C148.3,640.4,148.1,639.6,148.3,638.9z"/>
	<path class="st39" d="M153.5,660.9c0.2,1.7,1.5,1.4,2.7,1.5c-1,0.5-2.1,0.6-3.2,0.4c-0.5-0.7-1.7-0.6-2.1-1.5
		c-0.1-0.3-0.5-0.7-0.1-1.1l0.6,0c0.5-0.1,1.1-0.1,1.6,0.1C153.2,660.6,153.4,660.7,153.5,660.9z"/>
	<path class="st31" d="M148.7,641c0.8-0.2,1.2,1.2,2.1,0.5c0.5,0.6,0.3,1.1-0.2,1.5c-0.1,0-0.2,0.1-0.3,0.1c-0.6,0.4-0.4,1-0.5,1.5
		c-1.4,0.2-0.4-1.2-1-1.6L148.7,641z"/>
	<path class="st40" d="M150.9,661.4c0.7,0.5,2.4-0.4,2.1,1.5C151.7,663.2,150.6,663.2,150.9,661.4z"/>
	<path class="st41" d="M149.3,645.2c1.7,0.9,1.1,1.8,0,2.7c-0.5-0.9-0.6-1.8-0.4-2.8C149,645,149.2,645,149.3,645.2z"/>
	<path class="st36" d="M161.3,633.2c-0.4,0.6-1,0.4-1.6,0.5c-0.9,0-1.8-0.1-2.6-0.1C158.5,633.2,159.9,633.1,161.3,633.2z"/>
	<path class="st38" d="M149.3,645.2c-0.1,0-0.3-0.1-0.4-0.1c0-0.7,0-1.3,0-2l1,1.6L149.3,645.2z"/>
	<path class="st42" d="M150.9,641c-0.3-1.3,0.6-2.1,1-3.2l0.5-0.4c0.6,0.4,1,0.9,1.3,1.6c0.1,0.4,0.1,0.7-0.1,1.1
		c-0.4,0.6-1.1,1.1-1.8,1.2C151.6,641.4,151.2,641.2,150.9,641z"/>
	<path class="st43" d="M153.5,638.9c-0.6-0.2-1.1-0.8-1-1.5c0.3-0.2,0.5-0.6,0.5-1.1c0.3-0.3,0.7-0.4,1.1-0.5c0.7-0.1,1.3,0,1.7,0.7
		C155.5,637.7,154.6,638.6,153.5,638.9z"/>
	<path class="st44" d="M155.6,636.8c-0.4-0.6-1-0.5-1.6-0.5c-0.1-1.2,1.1-0.7,1.6-1.2c0.4-0.1,0.8-0.1,1.1,0.2
		c0.4,0.6,1,0.5,1.6,0.5c0.1,0.2,0.2,0.4,0.1,0.7c-0.2,0.3-0.4,0.6-0.8,0.7c-0.6,0.4-1.4,0.4-2.1,0.2
		C155.3,637.2,155.4,637,155.6,636.8C155.5,636.8,155.5,636.8,155.6,636.8L155.6,636.8z"/>
	<path class="st45" d="M158.3,636.3c0-0.2,0-0.3,0-0.5l1.5-0.5c0.3,0.5,1.1,0.7,1.1,1.6c-0.7,0.6-1.4,0.2-2,0
		C158.6,636.6,158.4,636.5,158.3,636.3z"/>
	<path class="st46" d="M155.6,635.2l-1.6,1c-0.3,0-0.7,0-1,0.1c0.2-0.7,0.9-1.1,1.6-1.1C154.8,634.9,155.3,634.9,155.6,635.2
		L155.6,635.2L155.6,635.2z"/>
	<path class="st47" d="M155.6,635.2l-1.1,0c0.7-0.5,1.4-1,2.1,0L155.6,635.2z"/>
	<path class="st48" d="M167.1,644.7c0.2,1.7-0.4,3.6,0.5,5.2c0.7,2.2-0.2,4.2-0.8,6.3c-0.4,0.6-1.2,0.9-1.9,0.7
		c-0.7-0.7-0.3-1.6-0.3-2.4c0.4-1.8,0.1-3.6-0.8-5.2c-0.4-1.3,1.6-2.1,0.8-3.5c-0.1-0.3,0-0.7,0.1-1c0.6-1.5,0.9-3.1,0.8-4.8v-2.6
		c1.4,1.7,0.9,3.3,1,4.7C167.2,642.8,166.5,643.9,167.1,644.7z"/>
	<path class="st49" d="M162.9,637.8c-0.4-1.6,1.2-3,0.5-4.6c1.9-0.4,2.4,0.6,2,2.2c-0.3,1.3-0.7,2.7-1,4c-0.4,0.7-0.9,0.8-1.5,0.3
		C162.4,639.3,162.4,638.5,162.9,637.8C162.8,637.9,162.9,637.9,162.9,637.8L162.9,637.8z"/>
	<path class="st50" d="M165.5,640c1.1,1.6,0.2,3.2,0.2,4.9l-0.7-0.2c-0.8,0.2-1-0.5-1.4-1c-0.4-0.6-0.6-1.4-0.4-2.1
		c0.3-0.8,1.1-0.8,1.8-1.1L165.5,640z"/>
	<path class="st51" d="M166.6,656.2c-0.5-2.2,1.5-4.1,1.1-6.3c1.1,1.8,0.3,3.8,0.5,5.7c-1,1.1-0.3,2.5-0.5,3.7
		c-0.8-0.5-0.2-1.7-1.1-2.1C166.3,656.9,166.3,656.5,166.6,656.2L166.6,656.2C166.5,656.2,166.5,656.2,166.6,656.2z"/>
	<path class="st52" d="M165,640.5l-1.6,1c-0.9,0.4-1.5-0.4-2.2-0.8c-0.3-0.2-0.5-0.5-0.6-0.8c0-0.6,0.5-0.9,0.8-1.3
		c0.1-0.3,0.2-0.6,0.4-0.8l1,0c0.1,0.9-0.2,2.3,1.5,1.6C164.4,639.8,164.6,640.3,165,640.5z"/>
	<path class="st53" d="M167.1,644.7c-0.9-0.7-0.4-1.7-0.5-2.6C167.4,642.8,167,643.8,167.1,644.7z"/>
	<path class="st54" d="M153.5,660.9l-0.5-0.1c-2.5-1.5-0.3-2.2,0.5-3.1c0.6-0.5,1-1.3,1.1-2.1c0.1-0.4,0.3-0.7,0.5-0.9
		c0.4-0.3,0.8-0.5,1.3-0.5c0.4,0,0.8,0.1,1,0.4c0.8,1.2,1.1,2.6,1,4c-0.1,0.4-0.4,0.7-0.7,0.9c-1.5,0.2-3.2-0.4-4.2,1.3L153.5,660.9
		z"/>
	<path class="st55" d="M155,655.1l-0.5,0.5c-1.2,0.7-2.2,0.8-1.9-1.1c0.1-0.8-0.4-1-0.8-1.5c0.2-0.2,0.3-0.4,0.5-0.6
		c0.7-0.5,1.2-0.1,1.8,0.3C154.8,653.4,155.5,654.1,155,655.1z"/>
	<path class="st56" d="M153.5,657.7c-0.1,1.1-2.1,1.8-0.5,3.1c-0.6,0-1.2,0.1-1.6-0.5C151.3,658.9,151.5,657.6,153.5,657.7z"/>
	<path class="st57" d="M153.5,660.8c0.3-3.5,2.6-1.6,4.2-1.5c0.3,0.2,0.3,0.7,0.1,0.9c0,0,0,0-0.1,0.1
		C156.3,660.8,154.9,661,153.5,660.8z"/>
	<path class="st58" d="M157.7,660.3l0-1l0.5-0.5c0.3-0.3,0.7-0.4,1-0.4c0.3,0.1,0.5,0.2,0.7,0.4c0.1,0.4,0.2,0.7-0.3,1L157.7,660.3z
		"/>
	<path class="st59" d="M159.6,659.8l0.1-1c0.2-0.3,0.6-0.4,1-0.4c0.2,0,0.5,0.1,0.7,0.3c0.1,0.2,0.1,0.5,0,0.7
		c-0.3,0.5-0.7,0.4-1.2,0.5C160,659.8,159.8,659.8,159.6,659.8z"/>
	<path class="st31" d="M151.9,641l1.6-1c0.2-0.2,0.4-0.2,0.6,0l0,0c0.3,1.2-1.3,2.4,0,3.5c0.2,0.5,0.1,1-0.3,1.3
		c-0.5,0.6-1.2,1.1-1.9,1.4c-1.2-0.6-1.8-1.8-1.6-3.1l0.1-0.1C151.3,642.7,151,641.4,151.9,641z"/>
	<path class="st60" d="M151.3,647.7l0.6-1c0.4-0.4,1-0.5,1.6-0.3c0.4,0.2,0.7,0.5,0.9,0.9c0.4,0.9,0.4,1.9-0.1,2.8
		c-0.4,0.6-0.9,0.3-1.4,0.1C152.1,649.6,151.6,648.7,151.3,647.7z"/>
	<path class="st61" d="M151.3,647.7c1,0.4,1.2,1.4,1.7,2.2c0.4,0.6,0.2,1.5-0.4,1.9c-0.1,0-0.1,0.1-0.2,0.1l-0.6-0.6
		C152.4,650.1,150.4,649.1,151.3,647.7z"/>
	<path class="st62" d="M153.5,646.7l-1.5,0c0-0.2-0.1-0.3-0.1-0.5c0-1,0.9-1.2,1.6-1.6c0.1-0.2,0.4-0.2,0.6-0.1c0,0,0.1,0.1,0.1,0.1
		C154.5,645.4,154.2,646.3,153.5,646.7z"/>
	<path class="st63" d="M152.4,652c0.2-0.7,0.4-1.3,0.6-2c0.3,0.2,0.6,0.3,1,0.5c0.2,0.1,0.3,0.3,0.4,0.6c0.1,0.5,0.1,1,0,1.4
		c-0.1,0.2-0.2,0.4-0.4,0.6c-0.5-0.2-1-0.4-1.6-0.6C152.4,652.3,152.4,652.1,152.4,652z"/>
	<path class="st64" d="M161.4,659.3l0-0.5c0.4-0.8-0.1-2,1.1-2.4c2.4-0.4,0.8-2.1,1-3.1c0.1-0.8,0-1.5-0.3-2.3
		c-0.1-0.3-0.1-0.7-0.1-1c0.1-0.5,0.4-0.9,0.8-1.1c2.5,1.3,1.4,3.7,1.5,5.6c0,0.8-0.2,1.5-0.4,2.3c0.3,0.3,0.7,0.6,1,1
		c0.1,1.4,0.1,2.7-1.6,3.2C163.7,660,162.6,659.4,161.4,659.3z"/>
	<path class="st65" d="M166,657.7c-0.7,0-1.1-0.3-1-1c0.5-0.2,1-0.4,1.5-0.6c0,0.3,0,0.7,0,1C166.4,657.4,166.2,657.6,166,657.7z"/>
	<path class="st66" d="M161.8,637.8l0.5,1c-0.4,0.6-2-0.3-1.7,1.3c0.4,1,0.2,2.2-0.6,2.9c-0.8,0.4-1.1-0.2-1.5-0.8
		c-0.2-0.9-0.3-1.8-0.2-2.7c0.3-0.6-0.1-1.1-0.1-1.7c0.2-0.5,0.1-1.1,0.4-1.6l2.1,0.5l1,0C161.8,637.1,161.8,637.5,161.8,637.8z"/>
	<path class="st67" d="M151.9,641c-0.5,0.7-0.1,2-1.5,2.1c0.1-0.5,0.3-1,0.4-1.5c0-0.2,0.1-0.4,0.1-0.5L151.9,641z"/>
	<path class="st68" d="M154.1,639.9l-0.6,0l0-1.1c0.5-0.9,1.2-1.6,2.1-2.1l0,0.5c0.5,0.4,1,0.8,1.5,1.2c0.4,0.2,0.7,0.6,0.8,1.1
		c0,0.5-0.4,1-0.8,1.2c-0.6,0.2-1.3,0.3-1.9,0.2C154.6,640.8,154.2,640.4,154.1,639.9z"/>
	<path class="st69" d="M156.7,638.9c-0.7-0.2-1.1-0.8-1.1-1.5c0.6-0.4,1.3-0.6,2.1-0.5c0.1,0.2,0.2,0.4,0.2,0.6
		c-0.2,0.4-0.4,0.8-0.7,1.1C157,638.6,156.8,638.7,156.7,638.9z"/>
	<path class="st70" d="M157.7,637.3l0-0.5c0.2-0.2,0.4-0.3,0.6-0.5c0.2,0,0.3,0,0.4,0c0.3,0.5,0.3,1.1,0,1.6
		C158.1,638.2,157.6,638.2,157.7,637.3z"/>
	<path class="st71" d="M163.9,643.5c0.3,0.4,0.7,0.7,1,1.1c0,0.3,0,0.7,0,1c0.2,1,0.8,2.2-1,2.4c-1.2-0.2-0.7-1.2-0.9-1.8
		c0-0.8,0.2-1.7,0.6-2.4C163.8,643.7,163.8,643.6,163.9,643.5z"/>
	<path class="st53" d="M163.4,647.8c1.7,0.2,1.6-1,1.6-2.1c1.3,1.6,0.2,2.4-1.1,3.1c0,0.4-0.2,0.8-0.5,1.1c-0.6-0.5-0.7-1.4-0.2-2
		C163.3,647.9,163.4,647.8,163.4,647.8L163.4,647.8z"/>
	<path class="st72" d="M161.3,640.5c0.9-0.1,1.4,0.8,2.1,1.1c0.2,0.7,0.3,1.4,0.5,2l0,0.1c-0.5,1.2-0.9,2.6-2.7,1.6
		C160,643.6,160.7,642,161.3,640.5z"/>
	<path class="st73" d="M161.3,640.5c0.2,1.6-0.5,3.2,0.1,4.7c-0.1,0.1-0.2,0.1-0.3,0.2c-0.3,0.1-0.7,0.1-1-0.1
		c-0.1-0.2-0.2-0.4-0.3-0.6c-0.1-0.5-0.2-1.1-0.1-1.6c0.5-1,0.7-2.1,0.5-3.2c0.2-0.2,0.3-0.2,0.5,0L161.3,640.5z"/>
	<path class="st49" d="M160.8,639.9c-0.2,0-0.3,0-0.5,0c0.2-1.4,1.3-0.9,2.1-1L160.8,639.9z"/>
	<path class="st74" d="M159.3,658.7l-1.1,0.1l-1.1-4.2c-0.3-0.3-0.4-0.7-0.2-1.1c0.2-0.5,0.7-0.8,1.2-0.8c0.3,0,0.5,0.1,0.7,0.2
		c0.2,0.2,0.3,0.4,0.4,0.6C160,655.3,159.9,657.1,159.3,658.7z"/>
	<path class="st75" d="M157.2,653.5l0,1.1l-1.1,0c-1.4,0-1.3-1.2-1.6-2.1c0.2-0.2,0.4-0.3,0.6-0.4c0.8,0,1.5,0.2,2.1,0.7
		C157.3,653,157.3,653.3,157.2,653.5z"/>
	<path class="st76" d="M154.6,652.5c0.4,0.8,0.6,1.6,1.5,2.1c-0.2,0.4-0.6,0.5-1,0.5l-1-2.1c0-0.2,0-0.3,0-0.5
		C154.1,652.4,154.3,652.3,154.6,652.5C154.5,652.5,154.5,652.5,154.6,652.5L154.6,652.5z"/>
	<path class="st77" d="M159.3,658.7c-0.4-1.7,0.2-3.5-0.5-5.2c0.3-0.4,0.7-0.7,1.2-0.8c0.4-0.1,0.8,0.1,1.1,0.3
		c0.3,0.4,0.3,1,0.2,1.5c-0.3,1.1-0.3,2.2-0.1,3.2c0,0.4-0.1,0.7-0.4,1l-1.1,0C159.6,658.8,159.4,658.8,159.3,658.7z"/>
	<path class="st78" d="M160.8,658.8l-0.1-1.2c-0.3-0.9-0.3-2,0-2.9l0-1.7c-0.3-0.3-0.3-0.7-0.2-1.1c0.7-0.8,1.7-1.2,2.7-1
		c1.8,0.3,0.4,1.4,0.6,2.1c-0.7,1.2-1.2,2.4-1.6,3.7c-0.6,0.6,0.7,2.1-1,2.1L160.8,658.8z"/>
	<path class="st79" d="M155,640.5l2.1,0c0.3,0.3,0.4,0.7,0.3,1.1c-0.5,1.1-0.5,2.4-1.4,3.3c-0.6,0.4-1.4,0.2-2-0.3l-0.3,0l-0.3,0
		c0.2-0.3,0.3-0.7,0.5-1C153.5,642.5,153.9,641.1,155,640.5z"/>
	<path class="st80" d="M155,640.5l-1,3.2c-0.8,0-1.6,0.1-1.3-1.2c0.3-0.9,0.7-1.7,1.3-2.5C154.4,640.1,154.7,640.3,155,640.5z"/>
	<path class="st81" d="M154,644.7l2.1,0c0.2,0.2,0.4,0.4,0.5,0.7c0.2,1.4,0,2.5-1.7,2.7c-0.5-0.1-0.6-0.5-0.9-0.8l-0.5-0.5
		C153.7,646,153.8,645.3,154,644.7z"/>
	<path class="st82" d="M154,647.3l0.5,0.5c0.2,0.2,0.3,0.5,0.5,0.7c0.1,1,0.5,2-0.9,2.4c0-0.1-0.1-0.3-0.1-0.4
		C154,649.4,154,648.3,154,647.3z"/>
	<path class="st83" d="M154,650.9c0.8-0.7,0.3-1.7,0.5-2.6c1.5-0.1,1.8,1,2,2.2c0.2,1.1-0.4,1.8-1.5,2c-0.2,0-0.3,0-0.5,0l-0.5,0
		C154,652,154,651.4,154,650.9z"/>
	<path class="st84" d="M162.4,656.7c-0.8-1.8,0.1-2.8,1.6-3.7C163.8,654.4,166.2,656.9,162.4,656.7z"/>
	<path class="st85" d="M163.4,650.9c-0.8,0.5-1.5,1.3-2.6,1c-0.2-0.2-0.3-0.4-0.4-0.6c-0.1-0.5,0.2-1,0.6-1.2c1,0,1.1-0.7,1.4-1.5
		c0.3-0.1,0.7-0.1,0.9,0.2l0,1.1L163.4,650.9z"/>
	<path class="st86" d="M156.1,645.2c0-0.2,0-0.3,0-0.5c0.1-1.1-0.4-2.5,1.1-3.2c0.7-0.3,1.1,0.1,1.6,0.5l1,1c0.6,0.4,0.5,1,0.5,1.6
		c-0.4,0.4-0.9,0.7-1.5,0.8c-0.2,0-0.4,0-0.7-0.1c-0.4-0.3-1-0.3-1.4-0.1C156.5,645.3,156.3,645.3,156.1,645.2z"/>
	<path class="st87" d="M158.7,642l-1.6-0.5c0-0.3,0-0.7,0-1l0.5-1c0.1-0.2,0.3-0.3,0.5-0.4c0.2,0,0.4,0.1,0.6,0.3
		C158.9,640.3,159.4,641.2,158.7,642z"/>
	<path class="st88" d="M158.7,639.4l-0.6-0.1c-0.4-0.4-0.9-0.7-1.5-0.9c0.1-0.5,0.5-0.9,1-1.1c0.2,0.4,0.6,0.6,1.1,0.5
		C158.5,638.4,159.3,638.9,158.7,639.4z"/>
	<path class="st89" d="M156.7,638.4c0.7-0.1,1.5-0.1,1.5,0.9c-0.2,0-0.3,0.1-0.5,0.1c-0.3-0.2-0.7-0.4-1-0.6
		C156.7,638.7,156.7,638.6,156.7,638.4z"/>
	<path class="st90" d="M163.4,648.8l-1,0c-0.4,0.1-0.8,0.3-1.3,0c-0.4-0.3-0.6-0.8-0.4-1.2c0.5-0.7,1.1-1.3,1.8-1.7
		c0.3-0.1,0.7,0,1,0.2c0.8,0.5,0.1,1,0,1.6L163.4,648.8z"/>
	<path class="st91" d="M163.4,646.2l-1.2,0c-0.7,0-1.2-0.3-0.9-1.1l0.1,0c1.3,0.2,1.8-0.9,2.5-1.6
		C164,644.5,163.9,645.4,163.4,646.2z"/>
	<path class="st92" d="M161.3,645.2c0.3,0.4,0.6,0.7,0.9,1.1c0.2,1.1-0.8,1.2-1.4,1.6c-0.5,0.5-1.3,0.4-1.8-0.1
		c0-0.1-0.1-0.1-0.1-0.2c-0.3-0.5-0.3-1.1-0.1-1.7c0.3-0.5,0.8-0.8,1.4-0.8L161.3,645.2z"/>
	<path class="st93" d="M160.3,645.2c-0.2,0.4-0.6,0.6-1,0.5c-0.5,0.1-0.7-0.1-0.6-0.6c0.4-0.6,1-0.5,1.6-0.5
		C160.3,644.8,160.3,645,160.3,645.2z"/>
	<path class="st94" d="M158.7,653l-0.5,0c-0.5-0.4-1.1-0.6-1.5-1.1c-0.3-0.7-0.6-1.5,0-2.2c0.9-0.3,1.8,0,2.3,0.8
		C159.5,651.3,159.4,652.4,158.7,653z"/>
	<path class="st95" d="M158.7,653l0-2.6c-0.1-0.1-0.2-0.3-0.1-0.4c0-0.1,0.1-0.2,0.1-0.2c0.2-0.1,0.5-0.1,0.7,0
		c0.4,0.3,0.7,0.7,0.8,1.2c0,0.7-0.1,1.4-0.4,2.1c-0.2,0.4-0.6,0.6-1,0.5C158.7,653.4,158.7,653.2,158.7,653z"/>
	<path class="st96" d="M157.2,652c0.5-0.1,1,0.3,1,0.8c0,0.1,0,0.1,0,0.2l-1,0.5c0-0.2-0.1-0.3-0.1-0.5
		C156.8,652.7,156.9,652.3,157.2,652z"/>
	<path class="st97" d="M157.2,652c0,0.4,0,0.7-0.1,1.1c-0.7,0-1.4-0.2-2-0.6c1.9-1.6,0.9-2.9-0.5-4.2v-0.5c1.8-0.1,1.6-1.4,1.6-2.6
		c0.2,0,0.3,0,0.5,0c0.1,0.1,0.2,0.2,0.3,0.3c0.7,1.4,0.6,3.1-0.3,4.4C156.6,650.6,156.8,651.4,157.2,652z"/>
	<path class="st98" d="M159.8,653c-0.9-0.7,0.2-1.4,0-2.1c0.6-0.3,0.8,0.2,1,0.5c0,0.2,0,0.3,0,0.5l0,1.1L159.8,653z"/>
	<path class="st99" d="M160.8,654.7c0,1,0,1.9,0,2.9C160,656.8,160,655.5,160.8,654.7z"/>
	<path class="st100" d="M160.8,651.5l-1-0.5l-0.5-1c-0.8-0.5-1.1-1.6-0.7-2.5c0.1-0.2,0.4-0.3,0.7-0.2c0,0,0,0,0,0l0,0
		c0.4,0.6,1.1,0.5,1.7,0.6c0.1,0.3,0.3,0.6,0.4,1c0.4,0.4,0.4,1.1,0,1.5c0,0,0,0,0,0c0,0,0,0,0,0C161,650.6,160.8,651,160.8,651.5z"
		/>
	<path class="st101" d="M161.3,650.4l0-1.6c0.4,0,0.7-0.6,1.1,0C162.5,649.7,162.8,650.7,161.3,650.4z"/>
	<path class="st102" d="M159.2,647.3c-0.1,0-0.3,0-0.4,0c-0.2,0.2-0.5,0.3-0.8,0.2c-0.9-0.6-0.9-1.4-0.5-2.2
		c0.2-0.2,0.5-0.3,0.7-0.1l0,0c0.2,0,0.3,0,0.5,0l0.6,0.6C159.2,646.2,159.2,646.7,159.2,647.3z"/>
	<path class="st103" d="M158.2,645.1l-0.5,0c-0.3,0.3-0.8,0.3-1,0l0,0l0,0l0.8-1.2L158.2,645.1z"/>
	<path class="st104" d="M156.6,645.2l1.1,0c0.1,0.7-0.2,1.5,0.5,2.1c0.3,0.8,0.5,1.7,0.5,2.6l0,0.5l-2.1-0.5
		C156.6,648.3,156.6,646.7,156.6,645.2z"/>
	<path class="st105" d="M158.7,649.9c-0.9-0.7-0.4-1.7-0.5-2.6l0.5,0l0.5,2.6C159.1,649.9,158.9,649.9,158.7,649.9z"/>
</g>
<path class="st11" d="M177,656.3c0,0-16.1,0.6-10.1,10.5s16.7-2.9,16.7-2.9"/>
<g id="image-2-2" transform="translate(743.5292 903.372) rotate(24.6288) scale(0.1828 0.1826)">

		<image style="overflow:visible;enable-background:new    ;" width="463" height="407" id="image-3-2" xlink:href="7850C5CC8265F38D.png"  transform="matrix(0.1662 7.617966e-02 -7.609632e-02 0.166 743.5292 903.372)">
	</image>
</g>
<image style="overflow:visible;enable-background:new    ;" width="406" height="371" xlink:href="7850C5CC8265F38E.png"  transform="matrix(0.4774 0 0 0.4793 702.9224 829.9413)">
</image>
<image style="overflow:visible;enable-background:new    ;" width="432" height="406" id="image-4" xlink:href="7850C5CC8265F3A8.png"  transform="matrix(0.3193 0 0 0.3189 770.7888 911.2129)">
</image>
<g id="image-3" transform="matrix(0.331, -0.1978, 0.1972, 0.33, 786.9141, 895.8478)">

		<image style="overflow:visible;enable-background:new    ;" width="401" height="369" id="image-5" xlink:href="7850C5CC8265F3A9.png"  transform="matrix(0.331 -0.1978 0.1972 0.33 786.9141 895.8478)">
	</image>
</g>
<g id="image-4-2" transform="translate(881.3508 968.0258) rotate(-77.365) scale(0.1088)">

		<image style="overflow:visible;enable-background:new    ;" width="463" height="407" id="image-3-2_2_" xlink:href="7850C5CC8265F3AF.png"  transform="matrix(2.379885e-02 -0.1062 0.1062 2.379885e-02 881.3508 968.0258)">
	</image>
</g>
<image style="overflow:visible;enable-background:new    ;" width="434" height="407" id="image-2-3" xlink:href="7850C5CC8265F3B5.png"  transform="matrix(0.4401 0 0 0.4407 834.2062 911.4467)">
</image>
<g id="image-3-3" transform="translate(942.4336 865.1289) rotate(37.2112) scale(0.3308 0.3299)">

		<image style="overflow:visible;enable-background:new    ;" width="401" height="369" id="image-5_2_" xlink:href="7850C5CC8265F3B6.png"  transform="matrix(0.2635 0.2001 -0.1995 0.2627 942.4336 865.1289)">
	</image>
</g>
<g id="image-6" transform="translate(989.5735 982.7123) rotate(24.6288) scale(0.1088)">

		<image style="overflow:visible;enable-background:new    ;" width="463" height="407" id="image-3-2_3_" xlink:href="7850C5CC8265F3B7.png"  transform="matrix(9.890211e-02 4.534107e-02 -4.534107e-02 9.890211e-02 989.5735 982.7123)">
	</image>
</g>
<g id="image-3-4" transform="matrix(0.331, -0.1978, 0.1972, 0.33, 924.4692, 955.3046)">

		<image style="overflow:visible;enable-background:new    ;" width="401" height="369" id="image-5_3_" xlink:href="7850C5CC8265F3A7.png"  transform="matrix(0.331 -0.1978 0.1972 0.33 924.4692 955.3046)">
	</image>
</g>
<image style="overflow:visible;enable-background:new    ;" width="404" height="370" xlink:href="7850C5CC8265F3B9.png"  transform="matrix(0.3925 0 0 0.3932 983.6851 950.5889)">
</image>
<image style="overflow:visible;enable-background:new    ;" width="431" height="406" xlink:href="7850C5CC8265F3BA.png"  transform="matrix(0.2226 0 0 0.222 875.7065 1027.8958)">
</image>
<g id="image-7" transform="translate(904.1797 1197.0096) rotate(-78.6487) scale(0.3737 0.3735)">

		<image style="overflow:visible;enable-background:new    ;" width="463" height="407" id="image-3-2_4_" xlink:href="7850C5CC8265F3BB.png"  transform="matrix(7.355317e-02 -0.3664 0.3662 7.351381e-02 904.1797 1197.0096)">
	</image>
</g>
<g id="image-3-5" transform="matrix(0.331, -0.1978, 0.1972, 0.33, 915.1889, 1051.9471)">

		<image style="overflow:visible;enable-background:new    ;" width="401" height="369" id="image-5_4_" xlink:href="7850C5CC8265F457.png"  transform="matrix(0.331 -0.1978 0.1972 0.33 915.1889 1051.9471)">
	</image>
</g>
<image style="overflow:visible;enable-background:new    ;" width="432" height="407" xlink:href="7850C5CC8265F459.png"  transform="matrix(0.3193 0 0 0.3181 1050.5306 988.1396)">
</image>
<image style="overflow:visible;enable-background:new    ;" width="432" height="406" xlink:href="7850C5CC8265F45B.png"  transform="matrix(0.2221 0 0 0.222 888.4757 1127.4031)">
</image>
<g id="image-8" transform="matrix(0.0598, -0.1695, 0.1695, 0.0598, 1025.1753, 1121.3335)">

		<image style="overflow:visible;enable-background:new    ;" width="463" height="407" id="image-3-2_5_" xlink:href="7850C5CC8265F45E.png"  transform="matrix(5.980000e-02 -0.1695 0.1695 5.980000e-02 1025.1753 1121.3335)">
	</image>
</g>
<image style="overflow:visible;enable-background:new    ;" width="433" height="407" xlink:href="7850C5CC8265F45F.png"  transform="matrix(0.2216 0 0 0.2215 1101.4272 1072.5865)">
</image>
<g id="image-3-6" transform="matrix(0.0498, -0.6347, 0.6328, 0.0496, 965.976, 1278.7843)">

		<image style="overflow:visible;enable-background:new    ;" width="401" height="369" id="image-5_5_" xlink:href="7850C5CC8265F45A.png"  transform="matrix(4.980000e-02 -0.6347 0.6328 4.960000e-02 965.976 1278.7843)">
	</image>
</g>
<g id="image-5-2" transform="matrix(-0.4441, 0, 0, 0.4451, 1128.6709, 1125.959)">

		<image style="overflow:visible;enable-background:new    ;" width="430" height="403" id="image-10" xlink:href="7850C5CC8265F455.png"  transform="matrix(-0.4441 0 0 0.4451 1128.6709 1125.959)">
	</image>
</g>
<image style="overflow:visible;enable-background:new    ;" width="432" height="406" id="image-4-3" xlink:href="7850C5CC8265F456.png"  transform="matrix(0.3193 0 0 0.3189 1063.4551 1135.2473)">
</image>
<g id="image-3-7" transform="matrix(-0.1043, -0.4718, -0.4705, 0.1039, 1209.1349, 1340.1932)">

		<image style="overflow:visible;enable-background:new    ;" width="401" height="369" id="image-5_6_" xlink:href="7850C5CC8265F454.png"  transform="matrix(-0.1043 -0.4718 -0.4705 0.1039 1209.1349 1340.1932)">
	</image>
</g>
<g id="image-9" transform="translate(1023.1468 1295.0443) rotate(-76.5576) scale(0.1088)">

		<image style="overflow:visible;enable-background:new    ;" width="463" height="407" id="image-3-2_6_" xlink:href="7850C5CC8265F449.png"  transform="matrix(2.529248e-02 -0.1058 0.1058 2.529248e-02 1023.1468 1295.0443)">
	</image>
</g>
<g id="image-5-3" transform="matrix(0.1212, -0.222, 0.2225, 0.1216, 879.1392, 1260.9621)">

		<image style="overflow:visible;enable-background:new    ;" width="430" height="403" id="image-10_2_" xlink:href="7850C5CC8265F476.png"  transform="matrix(0.1212 -0.222 0.2225 0.1216 879.1392 1260.9622)">
	</image>
</g>
<image style="overflow:visible;enable-background:new    ;" width="433" height="407" xlink:href="7850C5CC8265F471.png"  transform="matrix(0.3006 0 0 0.3004 921.7001 1238.8611)">
</image>
<g id="image-3-8" transform="matrix(0.0615, -0.2783, 0.2776, 0.0613, 1015.8757, 1374.5106)">

		<image style="overflow:visible;enable-background:new    ;" width="401" height="369" id="image-5_7_" xlink:href="7850C5CC8265F472.png"  transform="matrix(6.150000e-02 -0.2783 0.2776 6.130000e-02 1015.8757 1374.5106)">
	</image>
</g>
<g id="image-5-4" transform="matrix(0.0768, -0.1404, 0.1407, 0.077, 1104.0698, 1334.5923)">

		<image style="overflow:visible;enable-background:new    ;" width="430" height="403" id="image-10_3_" xlink:href="7850C5CC8265F470.png"  transform="matrix(7.680000e-02 -0.1404 0.1407 7.700000e-02 1104.0698 1334.5923)">
	</image>
</g>
<g id="image-5-5" transform="matrix(-0.1177, -0.1669, -0.1673, 0.1179, 1196.7729, 1378.499)">

		<image style="overflow:visible;enable-background:new    ;" width="430" height="403" id="image-10_4_" xlink:href="7850C5CC8265F46E.png"  transform="matrix(-0.1177 -0.1669 -0.1673 0.1179 1196.7729 1378.499)">
	</image>
</g>
<g id="image-11" transform="matrix(0.0171, -0.0714, 0.0712, 0.017, 1162.8561, 1357.4753)">

		<image style="overflow:visible;enable-background:new    ;" width="463" height="407" id="image-3-2_7_" xlink:href="7850C5CC8265F451.png"  transform="matrix(1.710000e-02 -7.140000e-02 7.120000e-02 1.700000e-02 1162.8561 1357.4753)">
	</image>
</g>
<g id="image-3-9" transform="matrix(0.0128, -0.1625, 0.1619, 0.0126, 1154.0984, 1409.9825)">

		<image style="overflow:visible;enable-background:new    ;" width="401" height="369" id="image-5_8_" xlink:href="7850C5CC8265F452.png"  transform="matrix(1.280000e-02 -0.1625 0.1619 1.260000e-02 1154.0984 1409.9825)">
	</image>
</g>
<g id="image-5-6" transform="matrix(0.0273, -0.0517, 0.0519, 0.0275, 1192.2453, 1367.5326)">

		<image style="overflow:visible;enable-background:new    ;" width="430" height="403" id="image-10_5_" xlink:href="7850C5CC8265F450.png"  transform="matrix(2.730000e-02 -5.170000e-02 5.190000e-02 2.750000e-02 1192.2452 1367.5326)">
	</image>
</g>
<g id="image-5-7" transform="translate(1203.6054 1385.172) rotate(-61.3517) scale(0.0379)">

		<image style="overflow:visible;enable-background:new    ;" width="430" height="403" id="image-10_6_" xlink:href="7850C5CC8265F453.png"  transform="matrix(1.817047e-02 -3.326025e-02 3.326025e-02 1.817047e-02 1203.6053 1385.172)">
	</image>
</g>
<g id="image-12" transform="translate(1222.0729 1374.9596) rotate(-76.5191) scale(0.0279)">

		<image style="overflow:visible;enable-background:new    ;" width="463" height="407" id="image-3-2_8_" xlink:href="7850C5CC8265F45D.png"  transform="matrix(6.504083e-03 -2.713129e-02 2.713129e-02 6.504083e-03 1222.0729 1374.9596)">
	</image>
</g>
<g id="image-5-8" transform="matrix(-0.0147, -0.0208, -0.021, 0.0147, 1238.194, 1388.4316)">

		<image style="overflow:visible;enable-background:new    ;" width="430" height="403" id="image-10_7_" xlink:href="63AC968ED8BC1FA0.png"  transform="matrix(-1.470000e-02 -2.080000e-02 -2.100000e-02 1.470000e-02 1238.194 1388.4316)">
	</image>
</g>
<g id="image-3-10" transform="matrix(0.6364, -0.1826, 0.182, 0.6345, 420.4818, 798.8211)">

		<image style="overflow:visible;enable-background:new    ;" width="401" height="369" id="image-5_9_" xlink:href="63AC968ED8BC1FA3.png"  transform="matrix(0.6364 -0.1826 0.182 0.6345 420.4818 798.8211)">
	</image>
</g>
<image style="overflow:visible;enable-background:new    ;" width="435" height="409" xlink:href="63AC968ED8BC1FA1.png"  transform="matrix(0.4655 0 0 -0.4651 419.3702 1019.6473)">
</image>
</svg>
