<?xml version="1.0" encoding="utf-8"?>
<!-- Generator: Adobe Illustrator 21.0.2, SVG Export Plug-In . SVG Version: 6.00 Build 0)  -->
<svg version="1.1" id="Layer_1" xmlns="http://www.w3.org/2000/svg" xmlns:xlink="http://www.w3.org/1999/xlink" x="0px" y="0px"
	 viewBox="0 0 1440 2199.4" style="enable-background:new 0 0 1440 2199.4;" xml:space="preserve">
<style type="text/css">
	.st0{fill:#162D35;stroke:#1D1D1B;stroke-miterlimit:10;}
	.st1{fill:#1D1D1B;}
	.st2{fill:#C24854;stroke:#1D1D1B;stroke-width:0.5;stroke-miterlimit:10;}
	.st3{fill:#1D1D1B;stroke:#1D1D1B;stroke-miterlimit:10;}
	.st4{fill:none;}
	.st5{fill:#D8D8D8;stroke:#1D1D1B;stroke-width:0.5;stroke-miterlimit:10;}
	.st6{stroke:#000000;stroke-miterlimit:10;}
	.st7{fill:#C24854;}
	.st8{fill:#01722F;stroke:#1D1D1B;stroke-width:0.5;stroke-miterlimit:10;}
	.st9{fill:#0288B7;stroke:#1D1D1B;stroke-width:0.5;stroke-miterlimit:10;}
	.st10{fill:none;stroke:#1D1D1B;stroke-miterlimit:10;}
	.st11{fill:#C24854;stroke:#1D1D1B;stroke-miterlimit:10;}
	.st12{fill:#F9F6C5;}
	.st13{fill:#D8D8D8;stroke:#D8D8D8;stroke-miterlimit:10;}
	.st14{fill:#010101;}
	.st15{fill:#786421;}
	.st16{fill:#080602;}
	.st17{fill:#27241B;}
	.st18{fill:#312E25;}
	.st19{fill:#050403;}
	.st20{fill:#205E2F;}
	.st21{fill:#2C5A33;}
	.st22{fill:#374F36;}
	.st23{fill:#334F35;}
	.st24{fill:#355236;}
	.st25{fill:#385137;}
	.st26{fill:#BFBD9D;}
	.st27{fill:#6F734F;}
	.st28{fill:#BBBC7B;}
	.st29{fill:#ADB17C;}
	.st30{fill:#82844B;}
	.st31{fill:#A8AA6F;}
	.st32{fill:#878562;}
	.st33{fill:#727040;}
	.st34{fill:#918A58;}
	.st35{fill:#BAB389;}
	.st36{fill:#ABA47D;}
	.st37{fill:#080F0A;}
	.st38{fill:#999869;}
	.st39{fill:#ADB36D;}
	.st40{fill:#949F5E;}
	.st41{fill:#6D3F27;}
	.st42{fill:#D3CB95;}
	.st43{fill:#DDD3A9;}
	.st44{fill:#D1C688;}
	.st45{fill:#959268;}
	.st46{fill:#A8A884;}
	.st47{fill:#B6B596;}
	.st48{fill:#8A8C53;}
	.st49{fill:#9C976D;}
	.st50{fill:#929264;}
	.st51{fill:#7C8048;}
	.st52{fill:#8F9160;}
	.st53{fill:#828557;}
	.st54{fill:#CECB9A;}
	.st55{fill:#BCBE83;}
	.st56{fill:#C1BF8D;}
	.st57{fill:#DDD8B0;}
	.st58{fill:#D6CFAB;}
	.st59{fill:#B1AA8E;}
	.st60{fill:#9AA877;}
	.st61{fill:#B6B77E;}
	.st62{fill:#B0B57A;}
	.st63{fill:#7B815B;}
	.st64{fill:#9FA267;}
	.st65{fill:#676D3A;}
	.st66{fill:#B4AF7D;}
	.st67{fill:#C4BF88;}
	.st68{fill:#D0C79D;}
	.st69{fill:#BCB479;}
	.st70{fill:#AFAA6C;}
	.st71{fill:#736A3F;}
	.st72{fill:#9E9559;}
	.st73{fill:#ADAA6F;}
	.st74{fill:#B9BA7B;}
	.st75{fill:#BFC597;}
	.st76{fill:#9FA572;}
	.st77{fill:#A0A66F;}
	.st78{fill:#AAA46B;}
	.st79{fill:#C0BC8A;}
	.st80{fill:#D4CCA0;}
	.st81{fill:#B9C39E;}
	.st82{fill:#A5B68B;}
	.st83{fill:#93A378;}
	.st84{fill:#A6A76A;}
	.st85{fill:#7C7C51;}
	.st86{fill:#B8B375;}
	.st87{fill:#DCD3B8;}
	.st88{fill:#A3A57E;}
	.st89{fill:#71716F;}
	.st90{fill:#706E48;}
	.st91{fill:#917744;}
	.st92{fill:#C4B98A;}
	.st93{fill:#989967;}
	.st94{fill:#86A271;}
	.st95{fill:#9CA883;}
	.st96{fill:#789366;}
	.st97{fill:#9FB391;}
	.st98{fill:#9D9F6E;}
	.st99{fill:#686F46;}
	.st100{fill:#8E8E66;}
	.st101{fill:#66613E;}
	.st102{fill:#82866B;}
	.st103{fill:#A39F57;}
	.st104{fill:#95A773;}
	.st105{fill:#99A67E;}
</style>
<title>dino-01</title>
<image style="overflow:visible;enable-background:new    ;" width="6000" height="9150" xlink:href="../../events/billeder/baggrund-01.png"  transform="matrix(0.24 0 0 0.24 -0.944 3.4488)">
</image>
<image style="overflow:visible;enable-background:new    ;" width="433" height="407" id="image-2" xlink:href="9B6F36A9D725961A.png"  transform="matrix(0.4411 0 0 0.4407 620.1998 929.6767)">
</image>
<image style="overflow:visible;enable-background:new    ;" width="408" height="374" xlink:href="9B6F36A9D725961D.png"  transform="matrix(0.4374 0 0 0.4378 623.014 999.7285)">
</image>
<image style="overflow:visible;enable-background:new    ;" width="467" height="411" xlink:href="9B6F36A9D725961E.png"  transform="matrix(0.4405 0 0 0.4397 540.332 940.3853)">
</image>
<image style="overflow:visible;enable-background:new    ;" width="350" height="354" xlink:href="9B6F36A9D725961C.png"  transform="matrix(0.4411 0 0 0.4412 256.8338 506.243)">
</image>
<image style="overflow:visible;enable-background:new    ;" width="362" height="349" xlink:href="9B6F36A9D725961B.png"  transform="matrix(0.4363 0 0 0.4373 301.4527 508.0278)">
</image>
<image style="overflow:visible;enable-background:new    ;" width="361" height="336" xlink:href="9B6F36A9D7259615.png"  transform="matrix(0.4437 0 0 0.4436 284.9435 546.8462)">
</image>
<path class="st0" d="M252,975.2l164.8,32.1c0,0,39-1.1,33.3-13c0,0-10.7-9.8-23.9-9.7c-7.5-0.2-14.8,1.9-21,6.2l-139.4-23.6
	c0,0-23.3-8.8-28.1-5S252,975.2,252,975.2z"/>
<path class="st1" d="M370.5,990.8c3-1.1,6.2-1.7,9.4-1.7c3,0,5.9,0.3,8.8,0.9c2.9,0.6,5.7,1.6,8.4,2.9c2.9,1.4,5.6,3.3,7.8,5.6
	l-0.1,0.5c-5.8-1-11.5-2.4-17.3-3.6s-11.5-2.6-17.2-4.1L370.5,990.8z"/>
<path class="st0" d="M286.5,982.8c0,0,4.5,11.2-1.6,10.3c-3.2-0.5-6.4-0.6-9.7-0.4c0,0-5.8-11.2-15-1.6c0,0-4.5,8.2,4.5,13.6
	c0,0,8,0.8,9.4-7.1c0,0,9.1-0.9,29.4,5.6c0,0,4.2,13.3,14.5,6s-0.5-17.1-5.2-15c-2.8,0.1-5.6,0.9-8.1,2.3c0,0-6.8-0.2-7.8-2.1
	s1.2-9.5,1.2-9.5L286.5,982.8z"/>
<path class="st0" d="M390.3,1002.9c0,0,4.5,11.2-1.6,10.3c-3.2-0.5-6.4-0.6-9.7-0.4c0,0-5.8-11.2-15-1.6c0,0-4.5,8.2,4.5,13.6
	c0,0,8,0.8,9.4-7.1c0,0,9.1-0.9,29.4,5.6c0,0,4.2,13.3,14.5,6c10.3-7.3-0.5-17.1-5.2-15c-2.8,0.1-5.6,0.9-8,2.3c0,0-6.8-0.2-7.8-2.1
	s1.2-9.5,1.2-9.5L390.3,1002.9z"/>
<path class="st2" d="M225.3,724.6c0,0,122.5,20.8,98.8-87.8c-0.8-3.6-2-7.2-5.4-8.2c0,0-10.7-7-73.8-10.3c0,0,32,32,41.9,32
	c0,0-7.9,26.6-46.9,36.9c0,0-42.3-41.9-41.9-56.5C198.1,630.7,199,712.7,225.3,724.6z"/>
<path class="st3" d="M269.7,639.8c0,0,27.3-0.6,17,10.6L269.7,639.8z"/>
<path class="st3" d="M210.8,663.4c0,0,16.4,13.5,18.8,20.7"/>
<line class="st4" x1="309.4" y1="694.6" x2="307.8" y2="704"/>
<path class="st1" d="M309.4,694.6c0.4,1.6,0.4,3.2,0.1,4.8c-0.2,1.6-0.8,3.2-1.7,4.5c-0.4-1.6-0.4-3.2-0.1-4.8
	C307.9,697.5,308.5,696,309.4,694.6z"/>
<line class="st4" x1="302.8" y1="700.6" x2="312.8" y2="696.7"/>
<path class="st1" d="M302.8,700.6c1.4-1.2,3-2.2,4.7-2.8c1.7-0.7,3.5-1.1,5.4-1.1c-1.4,1.2-3,2.2-4.7,2.8
	C306.4,700.2,304.6,700.6,302.8,700.6z"/>
<path class="st5" d="M302.8,691.9c0,0-20.8-31.8,5.8-58.2C308.5,633.6,337.3,661.9,302.8,691.9z"/>
<path class="st6" d="M305.3,656.7c0,0,9.8,14.7,11.9,12.1S319.9,663.6,305.3,656.7z"/>
<path class="st5" d="M242.5,704c0,0,11.7-35.8,52.6-3.4C295.1,700.6,278.9,735.5,242.5,704z"/>
<path class="st6" d="M276.9,694.4c0,0,9.8,14.7,11.9,12.1S291.5,701.2,276.9,694.4z"/>
<path class="st2" d="M268.9,759.1c0,0-45.4,40.9-86.4-4.8c0,0-0.6-32-37.4-31.1c0,0-9.8,2.6,0,7.4s13.7,3.3,13.5,9.2
	c0,0-22.3-2.4-20.4,5.3s7.4-2.8,12.1-1.5s-10.6,7.7-8.5,13.6s14.4-4.7,14.4-4.7l9.3,5.6c0,0,45.5,65.7,109.7,18.9
	C275.1,777,279.6,768.3,268.9,759.1z"/>
<path class="st7" d="M174.9,769c-1.2,1.3-4.1,0.9-6.5-1.2s-3.5-4.8-2.3-6.2s4.4-4.4,6.5,1.2C173.7,765.8,177.2,766.7,174.9,769z"/>
<path class="st7" d="M176.7,767.5c0.2,0.5-0.3,1.1-1.1,1.5s-1.6,0.3-1.9-0.1s-0.5-1.6,1.1-1.5C175.8,767.5,176.4,766.7,176.7,767.5z
	"/>
<path class="st8" d="M345.3,825.5c0,0,6.9,5.4,21.4,2.5c0,0,7.2,7.8,2,16.7c-3.1,5-3.2,11.2-0.4,16.3c0,0-2.4,19.3,0.1,21.8
	s6,20,5.9,21.8s15.2,16.7,15.2,16.7s12.2-1.9,15.3,3.3s9.3-5.3,8.6-6.9s22.5-9.3,45.6,12l8.5,1.5c0,0,13.8,16.2-6.1,14.9
	s-27-18.8-35.4-14.6s-38.7,19.3-48.7,2.2s-24.2-32-24.3-70.6c0,0-37-3.7-45,10.4s-40.2,7.4-40.2,7.4s-1.9,10.3-3.6,10.5
	c0,0,13.2,14.6,16.1,29.7c0,0,27.3,17,22.1,25.3c0,0,16.2,16,7.2,19c0,0-13.5-8.6-19.1-6.1s-1.6-13.3-1.6-13.3s-10.4-13.9-16.3-17.4
	s-14.9-19.6-15.3-26.1s-16-17.4-8.2-27s16.4-16.5,45.4-19.4s34.1-22.9,34.1-22.9S340,823.2,345.3,825.5z"/>
<path class="st9" d="M257.6,754.8c0,0,19.4,3.3,18.9,25.2c0,0,5.3,11.3,11.7-14.3c0,0,17.7-19.8,28.4,15.4c0,0,9.3,8.9,3.6,17.8
	s7.8,9.4,7.8,9.4s-15.7,20,0.8,22.2s59.9,1.6,51.6-17.2s-42.1-76.9-45.4-81s25.1-15.9,25.1-15.9s1.9-13.3-50.2-9.3
	c0,0-21.5,17.6-35.3,17.4c0,0,15.2,13.3-0.8,23.6S257.6,754.8,257.6,754.8z"/>
<path class="st2" d="M352.1,720.6c0,0,48.2,12.5,35.2,27.6s-62.5-2.7-62.5-2.7s-9.9,13.2-21.1-1.7c0,0,0.8-4.4,13-2.9
	c0,0,9.3-7.3-4.9-12.2c0,0-4.5,5.1-8.1,2.7s4.2-12.2,4.2-12.2h7c0,0,16.4-5.5,24.8,8.3s27.1,12.2,27.1,12.2l-23-14.6L352.1,720.6z"
	/>
<path class="st10" d="M324.2,721.3c0,0-9,15.9,9,3.5"/>
<path class="st10" d="M340.7,807.4c-3.2,0.9-6.5-0.8-7.5-4"/>
<path class="st10" d="M340.7,814.7c0,0-14.3,1.4-12.7-6.2"/>
<path class="st10" d="M327.9,824.2c0,0-5-2.4-4.9-7.3"/>
<path class="st10" d="M389.4,931.5c0,0,0-7.1,4.7-10.4"/>
<path class="st10" d="M356.2,839.2c0,0,6.3,5.6,8.1,1.3s-1.6,14.7-9.6,12.3S356.2,839.2,356.2,839.2z"/>
<image style="overflow:visible;enable-background:new    ;" width="353" height="424" xlink:href="9B6F36A9D7259616.png"  transform="matrix(0.4411 0 0 0.4399 275.2389 790.3541)">
</image>
<path class="st10" d="M262.3,878.1c0.9,2.1,3.2,3.2,5.3,2.6"/>
<path class="st10" d="M455.4,933.2c1.7,0.1,3.2-1.3,3.2-3c0-0.2,0-0.4,0-0.5"/>
<path class="st10" d="M449.1,936.4c0,0,0.5,4-1.7,4.7"/>
<path class="st11" d="M505.6,776.1c0,0,12.6,3.8,24.6-1.3s51.8-66.4,51.8-66.4l-40.6,4.6c0,0,10.6,12.4-1.9,18c0,0-1.2,0.5-1.2,5
	s-21,8.8-21,8.8l11.6,5.8c0,0-0.4,6.8-18.8,7.9l6.4,8.3L505.6,776.1z"/>
<polygon class="st11" points="463.3,724.4 454.5,737.9 452,725.2 "/>
<polygon class="st11" points="489.8,735.1 489.8,717.4 502.6,719.1 "/>
<polygon class="st11" points="527.8,731.1 530.5,711.5 541.3,713.1 "/>
<path class="st2" d="M474.4,918.7c0,0-9.3,4.7-7.3,12.5c0,0,5.8,5.6,5.6,10.4s12.6,44.1,29.2,36.8
	C518.5,971,476.5,912.3,474.4,918.7z"/>
<path class="st2" d="M306.5,964.6c0,0-12.2-8.5-19.2-5.3s-17.6,0.3-17.6,0.3s-17-1.1-10.2,9.3c6.8,10.4,54.8,10.3,54.8,10.3
	S317.3,969.9,306.5,964.6z"/>
<image style="overflow:visible;enable-background:new    ;" width="393" height="370" xlink:href="9B6F36A9D7259614.png"  transform="matrix(0.4405 0 0 0.4401 475.9126 634.2994)">
</image>
<path class="st2" d="M577.8,711.4c0,0-14.2-3.9-37.2,4.4c0,0-9.3-2.9-13.2,0s-18.6,20.1-18.6,20.1l-2.8-15.7c0,0-11.4-4.9-19.5-2.5
	c0,0-10.4,14.2-14.2,18.1l-5.5-12.7l-20.8,2.4c0,0,41-119.7,136.7-82.9c0,0,10.8,8.8,9.8,32.4s27.9,13.2,27.9,13.2
	s22.1-27,35.8-20.6s18.6,12.3,18.6,12.3s15.2,12.8,36.8-3.9c0,0,6.4-8.8,29.4,20.1c0,0,5.4,10.3,20.6,3.9c0,0-4.9,24-36.8,11.3
	c0,0-32.9,4.9-53.9,56.9c0,0-4.9,10.3,6.9,27.5s6.9-17.7,6.9-17.7s4.9-12.3,17.7,15.7c0,0,8.8,25.5,8.8,28.9s8.8,2,8.3,7.4
	s-4.9,4.4-4.9,4.4s5.9,6.9,4.4,9.8s-6.9,0-6.9,0s5.4,5.9,1.5,6.9s-7.4,2-13.7-41.2c0,0-8.3-25.5-14.7,2.5s-9.8,35.8-20.1,28.9
	s-16.2-43.2-16.2-43.2s1,13.7-33.8,1c0,0-6.4,5.9-14.2,30.9c0,0-3.4,1.3-7.4-5c0,0-11.3,8.4-15.7,16.2s-21.6,1.5-21.6,1.5
	s-5.4,27.9-21.1,11.8c0,0,15.2,1.5,14.7-11.3s-17.2-15.7-21.1-9.8s-5.4,8.3-5.4,8.3s-4.9-8.5,5.4-16.7s-14.7,0-14.7,0
	s15.2-35.2,27.5-4.8c0,0,13.7,8.8,12.8,11.8s54.9-8.3,47.1-54.9s-12.3-47.6-12.3-47.6s-18.7,39.9-56.6,44.2
	C532.5,773.8,573.3,749.9,577.8,711.4z"/>
<path class="st3" d="M472.1,707.6c3.7-4.5,8.8-7.6,14.5-8.6L472.1,707.6z"/>
<polygon class="st12" points="525.8,765.5 535,773 548.2,761.9 "/>
<path class="st12" d="M532.1,751.6l12.4,13.6l14.1-13.6C558.6,751.6,538.5,746.2,532.1,751.6z"/>
<path class="st12" d="M570.3,721.4c0,0-27.9,2.6-11.8,13.8c0,0-22.3-1.7-8.6,14.1l8.6,2.4c7.9-9.1,13.9-19.8,17.5-31.3L570.3,721.4z
	"/>
<path class="st10" d="M660.5,743.7c0,0,10.7,6.1,10.4,24.6"/>
<path class="st10" d="M640,779.8c0,0,11,5.9,8.8,18.4"/>
<path class="st3" d="M502.6,685.7l77.4-28.7c0,0-0.4,5.1-7.1,8.3c0,0-13,41-49.6,18.8C523.4,684.1,508,689.8,502.6,685.7z"/>
<path class="st13" d="M534.7,676.8l26.8-9.7c0,0,5.3,13.7-9.9,17.9C535,689.6,534.7,676.8,534.7,676.8z"/>
<ellipse transform="matrix(0.792 -0.6106 0.6106 0.792 -303.0855 470.918)" class="st3" cx="539.5" cy="680.2" rx="2.2" ry="2.8"/>
<image style="overflow:visible;enable-background:new    ;" width="318" height="318" xlink:href="7712E68C186EB189.png"  transform="matrix(0.4377 0 0 0.4377 452.7108 574.9562)">
</image>
<image style="overflow:visible;enable-background:new    ;" width="318" height="319" xlink:href="7712E68C186EB18F.png"  transform="matrix(0.4378 0 0 0.4377 459.6639 572.6137)">
</image>
<image style="overflow:visible;enable-background:new    ;" width="314" height="317" xlink:href="7712E68C186EB188.png"  transform="matrix(0.4433 0 0 0.4406 454.384 578.1724)">
</image>
<image style="overflow:visible;enable-background:new    ;" width="318" height="316" xlink:href="7712E68C186EB18B.png"  transform="matrix(0.4391 0 0 0.4392 461.7089 576.239)">
</image>
<image style="overflow:visible;enable-background:new    ;" width="316" height="315" xlink:href="7712E68C186EB197.png"  transform="matrix(0.4433 0 0 0.4419 446.2596 576.3691)">
</image>
<image style="overflow:visible;enable-background:new    ;" width="317" height="314" xlink:href="7712E68C186EB187.png"  transform="matrix(0.4405 0 0 0.4391 473.3284 571.4238)">
</image>
<image style="overflow:visible;enable-background:new    ;" width="318" height="315" xlink:href="7712E68C186EB199.png"  transform="matrix(0.4377 0 0 0.4377 480.9138 570.9776)">
</image>
<image style="overflow:visible;enable-background:new    ;" width="318" height="315" xlink:href="7712E68C186EB19B.png"  transform="matrix(0.4406 0 0 0.4406 474.2208 574.9933)">
</image>
<image style="overflow:visible;enable-background:new    ;" width="319" height="317" xlink:href="7712E68C186EB198.png"  transform="matrix(0.4377 0 0 0.4378 480.4675 574.9933)">
</image>
<image style="overflow:visible;enable-background:new    ;" width="318" height="314" xlink:href="7712E68C186EB19F.png"  transform="matrix(0.4406 0 0 0.4391 467.0818 571.4238)">
</image>
<image style="overflow:visible;enable-background:new    ;" width="319" height="312" xlink:href="7712E68C186EB1BC.png"  transform="matrix(0.4406 0 0 0.4406 493.1653 577.0384)">
</image>
<image style="overflow:visible;enable-background:new    ;" width="318" height="312" xlink:href="7712E68C186EB1BF.png"  transform="matrix(0.4406 0 0 0.4404 486.0264 575.6998)">
</image>
<image style="overflow:visible;enable-background:new    ;" width="319" height="311" xlink:href="7712E68C186EB1BD.png"  transform="matrix(0.4406 0 0 0.4404 493.1653 573.0227)">
</image>
<image style="overflow:visible;enable-background:new    ;" width="317" height="312" xlink:href="7712E68C186EB1B3.png"  transform="matrix(0.4405 0 0 0.4405 487.365 571.6841)">
</image>
<image style="overflow:visible;enable-background:new    ;" width="318" height="307" xlink:href="7712E68C186EB1B4.png"  transform="matrix(0.4433 0 0 0.4432 498.9657 578.8231)">
</image>
<image style="overflow:visible;enable-background:new    ;" width="322" height="317" xlink:href="7712E68C186EB1B7.png"  transform="matrix(0.4351 0 0 0.4363 585.638 607.1376)">
</image>
<image style="overflow:visible;enable-background:new    ;" width="318" height="314" xlink:href="7712E68C186EB1B5.png"  transform="matrix(0.4406 0 0 0.4392 578.053 606.6914)">
</image>
<image style="overflow:visible;enable-background:new    ;" width="317" height="314" xlink:href="7712E68C186EB1B2.png"  transform="matrix(0.4405 0 0 0.4392 584.7456 603.1219)">
</image>
<image style="overflow:visible;enable-background:new    ;" width="318" height="314" xlink:href="7712E68C186EB1AC.png"  transform="matrix(0.4406 0 0 0.4392 578.9452 602.6757)">
</image>
<image style="overflow:visible;enable-background:new    ;" width="321" height="314" xlink:href="7712E68C186EB1AF.png"  transform="matrix(0.4364 0 0 0.4362 591.4385 608.4761)">
</image>
<image style="overflow:visible;enable-background:new    ;" width="320" height="319" xlink:href="7712E68C186EB1D3.png"  transform="matrix(0.4378 0 0 0.4364 597.8153 615.3921)">
</image>
<image style="overflow:visible;enable-background:new    ;" width="319" height="317" xlink:href="7712E68C186EB1D1.png"  transform="matrix(0.4378 0 0 0.4364 590.6762 616.7306)">
</image>
<image style="overflow:visible;enable-background:new    ;" width="319" height="316" xlink:href="7712E68C186EB1EF.png"  transform="matrix(0.4363 0 0 0.4377 596.4769 611.8226)">
</image>
<image style="overflow:visible;enable-background:new    ;" width="319" height="317" xlink:href="7712E68C186EB1F1.png"  transform="matrix(0.4378 0 0 0.4378 590.6762 612.2688)">
</image>
<image style="overflow:visible;enable-background:new    ;" width="318" height="313" xlink:href="7712E68C186EB1F3.png"  transform="matrix(0.4406 0 0 0.4405 603.6159 615.3921)">
</image>
<image style="overflow:visible;enable-background:new    ;" width="320" height="317" xlink:href="7712E68C186EB1F6.png"  transform="matrix(0.4378 0 0 0.4377 570.1887 615.8569)">
</image>
<image style="overflow:visible;enable-background:new    ;" width="318" height="315" xlink:href="7712E68C186EB1F7.png"  transform="matrix(0.4406 0 0 0.4406 562.6037 616.3031)">
</image>
<image style="overflow:visible;enable-background:new    ;" width="321" height="318" xlink:href="7712E68C186EB1F2.png"  transform="matrix(0.4351 0 0 0.4349 568.8501 611.8412)">
</image>
<image style="overflow:visible;enable-background:new    ;" width="317" height="315" xlink:href="7712E68C186EB1FD.png"  transform="matrix(0.4406 0 0 0.4406 563.0497 612.2873)">
</image>
<image style="overflow:visible;enable-background:new    ;" width="321" height="315" xlink:href="7712E68C186EB1FE.png"  transform="matrix(0.4365 0 0 0.4377 575.9892 615.8569)">
</image>
<image style="overflow:visible;enable-background:new    ;" width="320" height="316" xlink:href="7712E68C186EB1DA.png"  transform="matrix(0.4378 0 0 0.4364 644.4049 617.3999)">
</image>
<image style="overflow:visible;enable-background:new    ;" width="317" height="315" xlink:href="7712E68C186EB1D9.png"  transform="matrix(0.4405 0 0 0.4391 638.7719 616.4518)">
</image>
<image style="overflow:visible;enable-background:new    ;" width="319" height="314" xlink:href="7712E68C186EB1DE.png"  transform="matrix(0.4406 0 0 0.4391 647.584 612.0457)">
</image>
<image style="overflow:visible;enable-background:new    ;" width="320" height="316" xlink:href="7712E68C186EB1D8.png"  transform="matrix(0.4365 0 0 0.4363 641.7837 611.5995)">
</image>
<image style="overflow:visible;enable-background:new    ;" width="319" height="310" xlink:href="7712E68C186EB1DB.png"  transform="matrix(0.4406 0 0 0.4404 652.9011 615.0017)">
</image>
<image style="overflow:visible;enable-background:new    ;" width="315" height="321" xlink:href="7712E68C186EB1C7.png"  transform="matrix(0.4362 0 0 0.4377 630.6475 623.5908)">
</image>
<image style="overflow:visible;enable-background:new    ;" width="317" height="319" xlink:href="7712E68C186EB1D6.png"  transform="matrix(0.4378 0 0 0.4377 623.1737 624.1671)">
</image>
<image style="overflow:visible;enable-background:new    ;" width="314" height="322" xlink:href="7712E68C186EB1C9.png"  transform="matrix(0.4333 0 0 0.435 629.4576 617.9577)">
</image>
<image style="overflow:visible;enable-background:new    ;" width="313" height="318" xlink:href="7712E68C186EB1CA.png"  transform="matrix(0.4405 0 0 0.4392 621.9653 619.5007)">
</image>
<image style="overflow:visible;enable-background:new    ;" width="315" height="319" xlink:href="7712E68C186EB1C8.png"  transform="matrix(0.4391 0 0 0.4405 633.4732 617.1025)">
</image>
<image style="overflow:visible;enable-background:new    ;" width="316" height="317" xlink:href="7712E68C186EB225.png"  transform="matrix(0.4405 0 0 0.4405 606.9436 620.5604)">
</image>
<image style="overflow:visible;enable-background:new    ;" width="316" height="316" xlink:href="7712E68C186EB22B.png"  transform="matrix(0.4405 0 0 0.4406 614.5288 620.0213)">
</image>
<image style="overflow:visible;enable-background:new    ;" width="317" height="319" xlink:href="7712E68C186EB22D.png"  transform="matrix(0.4378 0 0 0.4377 609.1745 625.3756)">
</image>
<image style="overflow:visible;enable-background:new    ;" width="316" height="318" xlink:href="7712E68C186EB22F.png"  transform="matrix(0.4406 0 0 0.4392 615.6445 623.8325)">
</image>
<image style="overflow:visible;enable-background:new    ;" width="319" height="317" xlink:href="7712E68C186EB22C.png"  transform="matrix(0.4377 0 0 0.4364 599.0051 625.3384)">
</image>
<image style="overflow:visible;enable-background:new    ;" width="320" height="317" xlink:href="7712E68C186EB224.png"  transform="matrix(0.4377 0 0 0.4363 597.7223 620.9137)">
</image>
<image style="overflow:visible;enable-background:new    ;" width="318" height="313" xlink:href="7712E68C186EB227.png"  transform="matrix(0.4406 0 0 0.4406 569.9284 606.8587)">
</image>
<image style="overflow:visible;enable-background:new    ;" width="318" height="314" xlink:href="7712E68C186EB222.png"  transform="matrix(0.4406 0 0 0.4391 577.644 611.1347)">
</image>
<image style="overflow:visible;enable-background:new    ;" width="316" height="316" xlink:href="7712E68C186EB223.png"  transform="matrix(0.4406 0 0 0.4392 583.7045 612.938)">
</image>
<image style="overflow:visible;enable-background:new    ;" width="315" height="318" xlink:href="7712E68C186EB21B.png"  transform="matrix(0.4405 0 0 0.4392 635.2022 623.7581)">
</image>
<image style="overflow:visible;enable-background:new    ;" width="318" height="309" xlink:href="7712E68C186EB200.png"  transform="matrix(0.4405 0 0 0.4403 502.3121 574.3798)">
</image>
<image style="overflow:visible;enable-background:new    ;" width="317" height="314" xlink:href="7712E68C186EB203.png"  transform="matrix(0.4406 0 0 0.4392 507.7222 577.5961)">
</image>
<image style="overflow:visible;enable-background:new    ;" width="318" height="312" xlink:href="7712E68C186EB201.png"  transform="matrix(0.4406 0 0 0.4406 511.6635 580.8124)">
</image>
<image style="overflow:visible;enable-background:new    ;" width="317" height="315" xlink:href="7712E68C186EB27F.png"  transform="matrix(0.4405 0 0 0.4391 684.8408 637.0509)">
</image>
<image style="overflow:visible;enable-background:new    ;" width="319" height="310" xlink:href="7712E68C186EB202.png"  transform="matrix(0.4406 0 0 0.4404 677.4229 635.8424)">
</image>
<image style="overflow:visible;enable-background:new    ;" width="318" height="308" xlink:href="7712E68C186EB205.png"  transform="matrix(0.4433 0 0 0.4432 678.9288 642.7584)">
</image>
<image style="overflow:visible;enable-background:new    ;" width="322" height="310" id="image" xlink:href="7712E68C186EB206.png"  transform="matrix(0.4365 0 0 0.4376 676.233 639.5235)">
</image>
<image style="overflow:visible;enable-background:new    ;" width="322" height="310" id="image-2-2" xlink:href="7712E68C186EB207.png"  transform="matrix(0.4365 0 0 0.4376 668.8587 633.9649)">
</image>
<g id="o4ZKLz.tif">
	<path class="st14" d="M160.4,696c0.3,0.1,0.8,0.1,0.9,0.3c1.1,1.6,0.3,3.6,1.5,5.3c1.3,1.9-0.3,3.4-1.6,4.7
		c-0.7,0.8-1.1,1.8-0.9,2.9c0.4,4.1,1.6,8,3.6,11.6c0.7,1.3,1.9,2.3,3.4,2.6c2,0.4,3.6,2,4,4c0.8,2.6,1.1,5.3,1,8
		c-0.6,11.1,0.9,22.1,4.2,32.7c0.2,0.7,0.4,1.5,0.6,2.3c0.9,4-0.2,5.7-4.3,6.3c-4,0.6-8.1,1-12.2,1.6c-1.7,0.2-3.5,0.4-5.2,0.8
		c-2,0.7-4.2-0.4-4.9-2.4c0-0.1-0.1-0.3-0.1-0.4c-3-7.5-4.7-15.5-5-23.6c-0.3-6.2-1.2-12.3-2.6-18.3c-0.9-2.7,0.2-5.7,2.7-7.3
		c4-2.7,3.1-6.9,2.7-10.7c-0.4-3.3-1.3-6.6-5.4-7.4c-0.4-0.1-0.8-0.4-1.1-0.7c-0.8-0.8-1.3-7.4-0.7-8.5c1,0.8,2.4,1,3.6,0.7
		c2.1-0.3,4.3-0.7,6.4-1.1c1.4-0.2,2.7-0.1,3.7-1.4c0.6-0.8,1.4-0.2,2.2-0.1c1.3,0.2,2.5,0.3,2.7-1.5C159.7,696,160,695.7,160.4,696
		z"/>
	<path class="st15" d="M159.8,696.5c0.6,0.5,0.8,1.2,0.1,1.8c-0.9,0.7-2.2,0.9-3.2,0.4c-1.1-0.5-1.8-0.8-2.3,0.6
		c0,0.1-0.1,0.2-0.1,0.2c-2.9,0.9-5.8,1.4-8.8,1.5c-0.5-0.2-1-1.1-1.4,0c-0.3,0.9-0.9,1.5-1.9,1.3c-1-0.3-0.6-1.3-0.8-2
		c-0.1-0.2-0.2-0.5-0.4-0.6c0.1-0.6,0.6-0.4,1-0.5c1.7-0.6,3.4-1,5.2-1.2c0.9-0.3,1.8-0.1,2.7-0.5c-0.1-0.1,0-0.3,0.1-0.4
		c0,0,0,0,0.1,0c1.4-0.2,2.9-0.4,4.2-0.8C156,695.8,158,695.9,159.8,696.5z"/>
	<path class="st16" d="M159.8,696.5l-6.3,0.2c-0.5,0.2-0.6-0.1-0.5-0.5l2.6-0.5c1,0.3,2.1,0.3,3.1,0c0.6-0.1,1.2,0,1.7,0.3
		L159.8,696.5z"/>
	<path class="st17" d="M147.3,698.2c-1.7,0.6-3.6,0.9-5.4,0.9c1.2-0.9,2.8-1.4,4.3-1.4C146.5,698,147.1,697.7,147.3,698.2z"/>
	<path class="st18" d="M153,696.1c0.2,0.2,0.4,0.3,0.5,0.5c-1.1,0.6-2.2,1.5-3.6,0.5C150.8,696.3,151.9,696.4,153,696.1z"/>
	<path class="st19" d="M147.3,698.2l-1.1-0.5c1.2,0.1,2.3-1,3.6-0.2C149.1,698.4,148.1,698,147.3,698.2z"/>
	<path d="M158.7,695.6c-1,0.6-2.2,0.6-3.1,0L158.7,695.6z"/>
	<path class="st20" d="M159.2,712.2c0.8,2.8,1.8,5.4,3,8c0.8,2.1,2.6,3.7,4.7,4.3c3.4,1,3.5,4.2,3.7,7c-0.3,0.8-0.3,1.8,0.1,2.6
		c0.4,5.8-0.5,11.6,0.4,17.4c1.1,6.1,2.5,12.2,4.3,18.1c1,3.6,0.4,4.8-3.3,5.3c-5.4,0.8-10.8,1.3-16.1,2.5c-1.9,0.6-4-0.4-4.6-2.4
		c0-0.1-0.1-0.3-0.1-0.4c-2.6-7.2-4.1-14.7-4.6-22.3c0.3-0.8,0.3-1.8-0.1-2.6l0,0c-0.7-1.7,0.3-3.6-0.6-5.2l-1.9-9
		c0.1-1.5,0.1-3.1-0.1-4.6c0-1.1,0.5-2.1,1.4-2.6c4.9-2.9,4.8-7.5,3.9-13.5c-0.5-2.2-1.2-4.3-2.1-6.3c-0.3-1.1-1.1-0.5-1.7-0.6
		c-1.6-0.1-3.1-0.4-3.4-2.2c-0.2-1.6,1.3-2.1,2.5-2.6c4.4-1.6,9-2.6,13.7-3c1.4-0.3,2.9,0.5,3.3,2c0.5,1.6-0.6,2.2-1.8,2.7
		c-1.8,0.7-1.1,2.3-1.2,3.6C159.3,709.7,158.6,711.1,159.2,712.2z"/>
	<path class="st21" d="M144.1,731.1c0.7,1.5,0.7,3.2,0.1,4.6C144.3,734.2,143.1,732.7,144.1,731.1z"/>
	<path class="st22" d="M146.1,744.7c1.2,1.6,0.3,3.5,0.6,5.2C145.7,748.3,146.4,746.5,146.1,744.7z"/>
	<path class="st23" d="M159.2,712.2c-0.9-1.1-0.3-2.5-0.5-3.7C159.6,709.7,159.1,711,159.2,712.2z"/>
	<path class="st24" d="M170.7,734.2c-0.7-0.7-0.8-1.8-0.1-2.6C170.7,732.5,170.7,733.4,170.7,734.2z"/>
	<path class="st25" d="M146.7,749.9c0.7,0.7,0.8,1.8,0.1,2.6l0,0C146.7,751.7,146.7,750.8,146.7,749.9z"/>
	<path class="st26" d="M148.3,738.9c-0.3-4.3,0-4.6,4.2-4.8c1.5-0.1,3-0.3,4.5-0.5c0.7-0.2,1.5-0.3,2.3-0.2c1,0.4,0.6,1.2,0.5,1.9
		c-0.4,0.5-1,0.8-1.6,0.9c-0.6,0.1-1.2,0-1.6-0.5c-0.5-1.2-1.2,0-1.8-0.1c-0.5,0.2-0.9,0.6-1.2,1c-0.2,0.4-0.5,0.8-0.8,1
		c-0.3,0.2-0.6,0.4-0.9,0.6c-0.4,0.3-0.7,0.7-0.9,1.2c-0.4,0.7-0.8,1.4-1.7,1.3C148.1,740.6,148.7,739.5,148.3,738.9z"/>
	<path class="st27" d="M162.3,733.1c3.7-1,4.5-0.3,4.8,3.3c0.3,4.5,1,8.9,1.4,13.4c0.5,1.9,0.4,4-0.3,5.9c-0.1-0.1-0.2-0.2-0.3-0.3
		c-0.9-1.7,0.1-3.7-0.9-5.4c-0.6-1.6-0.8-3.4-0.6-5.1c0.1-0.9,0-1.8-0.2-2.7c-0.1-1.3-0.2-2.7-0.2-4c-0.1,0.8,0.2,1.4-0.1,1.9
		c-0.2,0.4-0.5,0.6-0.9,0.6c-0.5-0.1-0.9-0.6-1-1.1c0-1.3,0.2-2.6,0.7-3.7c0.3-1.2,0-2-1.4-2.1C162.8,733.7,162.5,733.4,162.3,733.1
		z"/>
	<path class="st28" d="M150.8,760.4c-0.4-1.5-0.6-3.1-0.5-4.7c0.4-0.8-0.3-1.5-0.2-2.2c0.1-0.7-0.4-1.5,0.4-1.9
		c0.8-0.4,1.2,0.5,1.7,0.9c1.1,0.9,1,2.9,2.6,3.4c0.2,0.9-0.2,1.8-1,2.2c-1.4,0.2-1.7,1.4-2.3,2.4
		C151.2,760.6,151,760.6,150.8,760.4z"/>
	<path class="st29" d="M162.3,761.9l-6.1,0.6c-1.3,0.3-2.5,0.7-3-1.1c0-0.3,0.2-0.5,0.4-0.7c1.2-0.6,2.6-0.5,3.8-1
		c0.7-0.3,1.5-0.4,2.2-0.4c0.2,0.1,0.5,0.1,0.7,0.3C160.3,761,162.5,760.3,162.3,761.9z"/>
	<path class="st30" d="M149.4,748.4c0-0.2-0.1-0.3-0.1-0.5c0.4-0.8,0.3-1.8-0.2-2.5c0.1-0.3,0.2-0.7,0.2-1c0.1-0.6,0.1-1.2,0.9-1.2
		c0.9,0.8,1,2.1,1.8,2.9c0.1,0.2,0.2,0.4,0.2,0.7c0,0.5-0.2,0.9-0.3,1.3c-0.4,1.2,1.1,2.4,0,3.6
		C149.9,751.5,150.1,749.6,149.4,748.4z"/>
	<path class="st31" d="M149.4,748.4c1.6,0.4,0.8,2.8,2.5,3c0.4,0.1,0.7,0.3,0.8,0.6c0.1,0.2,0.1,0.5,0,0.7c-0.2,0.3-0.4,0.6-0.8,0.3
		l-1.2-1.3c-1.3,1.3,0.9,2.7-0.4,3.9C149.7,753.3,149.4,750.9,149.4,748.4z"/>
	<path class="st32" d="M162.3,761.9c-0.2-1.2-2.7-0.1-2.1-2c0.3-0.4,0.7-0.7,1.2-0.8c1.3-0.2,2.6,0.4,3.3,1.5c0.2,0.3,0.4,0.7,0.4,1
		C164.2,762,163.2,762.1,162.3,761.9z"/>
	<path class="st33" d="M168.2,755.7c1.4,3.9,1.3,4.5-1.1,5.7c-0.2-0.8-0.3-1.6-0.2-2.5C167.1,757.8,166.4,756.3,168.2,755.7
		L168.2,755.7z"/>
	<path class="st34" d="M167.6,759.4c0.1,0.7-0.1,1.4-0.5,2c-0.6,0.1-1.3,0.1-1.9,0.2l-0.7-0.6c0.5-1.1,0.9-2.2,1.2-3.4
		c0.2-0.4,0.5-0.6,0.9-0.6C167.9,757.4,166.9,758.7,167.6,759.4z"/>
	<path class="st35" d="M159.8,735.3c-0.3-0.4-0.3-1,0-1.5c0.4-0.6,1.1-0.1,1.6-0.5l0.5,0c1,1,1.1,2.6,0.2,3.7
		c-0.3,0.2-0.7,0.3-1.1,0.2C160.3,736.7,159.6,736.3,159.8,735.3z"/>
	<path class="st36" d="M161.8,736.9c0.5-1.2-0.1-2.4,0-3.6c0.1-0.1,0.3-0.1,0.5-0.1c0.4,0.1,0.7,0.1,1.1,0.2
		c1.6,1.7,0.1,3.2-0.4,4.7c-0.4,0.2-0.8,0.2-1.2,0C161.5,737.7,161.6,737.2,161.8,736.9z"/>
	<path class="st37" d="M154.3,706.9c0,0.6-0.3,1.1-0.8,1.3c-0.7,0.4-1.4,1.1-2.3,0.7c-0.2-0.2-0.3-0.4-0.3-0.6
		c0.3-0.9,1.3-0.7,1.9-1.1C153.2,706.9,153.6,706.4,154.3,706.9z"/>
	<path class="st38" d="M148.3,738.9c0.6,1.4,1.3,2.2,2.2,0.2c0.3-0.6,0.1-1.8,1.4-1.2c0.4,1.2-0.4,2.1-0.5,3.1
		c-0.1,0.2-0.2,0.5-0.3,0.7c-1.1,1.2-1.7,0-2.3-0.6C148.3,740.5,148.1,739.7,148.3,738.9z"/>
	<path class="st39" d="M153.5,761c0.2,1.7,1.5,1.4,2.7,1.5c-1,0.5-2.1,0.6-3.2,0.4c-0.5-0.7-1.7-0.6-2.1-1.5
		c-0.1-0.3-0.5-0.7-0.1-1.1l0.6,0c0.5-0.1,1.1-0.1,1.6,0.1C153.2,760.7,153.4,760.8,153.5,761z"/>
	<path class="st31" d="M148.7,741.1c0.8-0.2,1.2,1.2,2.1,0.5c0.5,0.6,0.3,1.1-0.2,1.5c-0.1,0-0.2,0.1-0.3,0.1
		c-0.6,0.4-0.4,1-0.5,1.5c-1.4,0.2-0.4-1.2-1-1.6L148.7,741.1z"/>
	<path class="st40" d="M150.9,761.5c0.7,0.5,2.4-0.4,2.1,1.5C151.7,763.2,150.6,763.2,150.9,761.5z"/>
	<path class="st41" d="M149.3,745.3c1.7,0.9,1.1,1.8,0,2.7c-0.5-0.9-0.6-1.8-0.4-2.8C149,745,149.2,745.1,149.3,745.3z"/>
	<path class="st36" d="M161.3,733.3c-0.4,0.6-1,0.4-1.6,0.5c-0.9,0-1.8-0.1-2.6-0.1C158.5,733.3,159.9,733.1,161.3,733.3z"/>
	<path class="st38" d="M149.3,745.3c-0.1,0-0.3-0.1-0.4-0.1c0-0.7,0-1.3,0-2l1,1.6L149.3,745.3z"/>
	<path class="st42" d="M150.9,741c-0.3-1.3,0.6-2.1,1-3.2l0.5-0.4c0.6,0.4,1,0.9,1.3,1.6c0.1,0.4,0.1,0.7-0.1,1.1
		c-0.4,0.6-1.1,1.1-1.8,1.2C151.6,741.4,151.2,741.3,150.9,741z"/>
	<path class="st43" d="M153.5,739c-0.6-0.2-1.1-0.8-1-1.5c0.3-0.2,0.5-0.6,0.5-1.1c0.3-0.3,0.7-0.4,1.1-0.5c0.7-0.1,1.3,0,1.7,0.7
		C155.5,737.7,154.6,738.7,153.5,739z"/>
	<path class="st44" d="M155.6,736.9c-0.4-0.6-1-0.5-1.6-0.5c-0.1-1.2,1.1-0.7,1.6-1.2c0.4-0.1,0.8-0.1,1.1,0.2
		c0.4,0.6,1,0.5,1.6,0.5c0.1,0.2,0.2,0.4,0.1,0.7c-0.2,0.3-0.4,0.6-0.8,0.7c-0.6,0.4-1.4,0.4-2.1,0.2
		C155.3,737.3,155.4,737,155.6,736.9C155.5,736.9,155.5,736.9,155.6,736.9L155.6,736.9z"/>
	<path class="st45" d="M158.3,736.3c0-0.2,0-0.3,0-0.5l1.5-0.5c0.3,0.5,1.1,0.7,1.1,1.6c-0.7,0.6-1.4,0.2-2,0
		C158.6,736.7,158.4,736.5,158.3,736.3z"/>
	<path class="st46" d="M155.6,735.3l-1.6,1c-0.3,0-0.7,0-1,0.1c0.2-0.7,0.9-1.1,1.6-1.1C154.8,735,155.3,735,155.6,735.3
		L155.6,735.3L155.6,735.3L155.6,735.3z"/>
	<path class="st47" d="M155.6,735.3l-1.1,0c0.7-0.5,1.4-1,2.1,0L155.6,735.3z"/>
	<path class="st48" d="M167.1,744.7c0.2,1.7-0.4,3.6,0.5,5.2c0.7,2.2-0.2,4.2-0.8,6.3c-0.4,0.6-1.2,0.9-1.9,0.7
		c-0.7-0.7-0.3-1.6-0.3-2.4c0.4-1.8,0.1-3.6-0.8-5.2c-0.4-1.3,1.6-2.1,0.8-3.5c-0.1-0.3,0-0.7,0.1-1c0.6-1.5,0.9-3.1,0.8-4.8v-2.6
		c1.4,1.7,0.9,3.3,1,4.7C167.2,742.9,166.5,743.9,167.1,744.7z"/>
	<path class="st49" d="M162.9,737.9c-0.4-1.6,1.2-3,0.5-4.6c1.9-0.4,2.4,0.6,2,2.2c-0.3,1.3-0.7,2.7-1,4c-0.4,0.7-0.9,0.8-1.5,0.3
		C162.4,739.3,162.4,738.5,162.9,737.9C162.8,738,162.8,738,162.9,737.9C162.8,738,162.9,737.9,162.9,737.9L162.9,737.9z"/>
	<path class="st50" d="M165.5,740c1.1,1.6,0.2,3.2,0.2,4.9l-0.7-0.2c-0.8,0.2-1-0.5-1.4-1c-0.4-0.6-0.6-1.4-0.4-2.1
		c0.3-0.8,1.1-0.8,1.8-1.1L165.5,740z"/>
	<path class="st51" d="M166.6,756.2c-0.5-2.2,1.5-4.1,1.1-6.3c1.1,1.8,0.3,3.8,0.5,5.7c-1,1.1-0.3,2.5-0.5,3.7
		c-0.8-0.5-0.2-1.7-1.1-2.1C166.3,757,166.3,756.5,166.6,756.2L166.6,756.2L166.6,756.2C166.5,756.3,166.5,756.2,166.6,756.2z"/>
	<path class="st52" d="M165,740.6l-1.6,1c-0.9,0.4-1.5-0.4-2.2-0.8c-0.3-0.2-0.5-0.5-0.6-0.8c0-0.6,0.5-0.9,0.8-1.3
		c0.1-0.3,0.2-0.6,0.4-0.8l1,0c0.1,0.9-0.2,2.3,1.5,1.6C164.4,739.9,164.6,740.3,165,740.6z"/>
	<path class="st53" d="M167.1,744.7c-0.9-0.7-0.4-1.7-0.5-2.6C167.4,742.8,167,743.8,167.1,744.7z"/>
	<path class="st54" d="M153.5,761l-0.5-0.1c-2.5-1.5-0.3-2.2,0.5-3.1c0.6-0.5,1-1.3,1.1-2.1c0.1-0.4,0.3-0.7,0.5-0.9
		c0.4-0.3,0.8-0.5,1.3-0.5c0.4,0,0.8,0.1,1,0.4c0.8,1.2,1.1,2.6,1,4c-0.1,0.4-0.4,0.7-0.7,0.9c-1.5,0.2-3.2-0.4-4.2,1.3L153.5,761z"
		/>
	<path class="st55" d="M155,755.2l-0.5,0.5c-1.2,0.7-2.2,0.8-1.9-1.1c0.1-0.8-0.4-1-0.8-1.5c0.2-0.2,0.3-0.4,0.5-0.6
		c0.7-0.5,1.2-0.1,1.8,0.3C154.8,753.5,155.5,754.1,155,755.2z"/>
	<path class="st56" d="M153.5,757.8c-0.1,1.1-2.1,1.8-0.5,3.1c-0.6,0-1.2,0.1-1.6-0.5C151.3,758.9,151.5,757.7,153.5,757.8z"/>
	<path class="st57" d="M153.5,760.9c0.3-3.5,2.6-1.6,4.2-1.5c0.3,0.2,0.3,0.7,0.1,0.9c0,0,0,0-0.1,0.1
		C156.3,760.9,154.9,761.1,153.5,760.9z"/>
	<path class="st58" d="M157.7,760.4l0-1l0.5-0.5c0.3-0.3,0.7-0.4,1-0.4c0.3,0.1,0.5,0.2,0.7,0.4c0.1,0.4,0.2,0.7-0.3,1L157.7,760.4z
		"/>
	<path class="st59" d="M159.6,759.8l0.1-1c0.2-0.3,0.6-0.4,1-0.4c0.2,0,0.5,0.1,0.7,0.3c0.1,0.2,0.1,0.5,0,0.7
		c-0.3,0.5-0.7,0.4-1.2,0.5C160,759.9,159.8,759.9,159.6,759.8z"/>
	<path class="st31" d="M151.9,741l1.6-1c0.2-0.2,0.4-0.2,0.6,0l0,0c0.3,1.2-1.3,2.4,0,3.5c0.2,0.5,0.1,1-0.3,1.3
		c-0.5,0.6-1.2,1.1-1.9,1.4c-1.2-0.6-1.8-1.8-1.6-3.1l0.1-0.1C151.3,742.7,151,741.4,151.9,741z"/>
	<path class="st60" d="M151.3,747.8l0.6-1c0.4-0.4,1-0.5,1.6-0.3c0.4,0.2,0.7,0.5,0.9,0.9c0.4,0.9,0.4,1.9-0.1,2.8
		c-0.4,0.6-0.9,0.3-1.4,0.1C152.1,749.6,151.6,748.8,151.3,747.8z"/>
	<path class="st61" d="M151.3,747.8c1,0.4,1.2,1.4,1.7,2.2c0.4,0.6,0.2,1.5-0.4,1.9c-0.1,0-0.1,0.1-0.2,0.1l-0.6-0.6
		C152.4,750.1,150.4,749.2,151.3,747.8z"/>
	<path class="st62" d="M153.5,746.8l-1.5,0c0-0.2-0.1-0.3-0.1-0.5c0-1,0.9-1.2,1.6-1.6c0.1-0.2,0.4-0.2,0.6-0.1c0,0,0.1,0.1,0.1,0.1
		C154.5,745.5,154.2,746.4,153.5,746.8z"/>
	<path class="st63" d="M152.4,752c0.2-0.7,0.4-1.3,0.6-2c0.3,0.2,0.6,0.3,1,0.5c0.2,0.1,0.3,0.3,0.4,0.6c0.1,0.5,0.1,1,0,1.4
		c-0.1,0.2-0.2,0.4-0.4,0.6c-0.5-0.2-1-0.4-1.6-0.6C152.4,752.3,152.4,752.2,152.4,752z"/>
	<path class="st64" d="M161.4,759.4l0-0.5c0.4-0.8-0.1-2,1.1-2.4c2.4-0.4,0.8-2.1,1-3.1c0.1-0.8,0-1.5-0.3-2.3
		c-0.1-0.3-0.1-0.7-0.1-1c0.1-0.5,0.4-0.9,0.8-1.1c2.5,1.3,1.4,3.7,1.5,5.6c0,0.8-0.2,1.5-0.4,2.3c0.3,0.3,0.7,0.6,1,1
		c0.1,1.4,0.1,2.7-1.6,3.2C163.7,760,162.6,759.5,161.4,759.4z"/>
	<path class="st65" d="M166,757.8c-0.7,0-1.1-0.3-1-1c0.5-0.2,1-0.4,1.5-0.6c0,0.3,0,0.7,0,1C166.4,757.4,166.2,757.6,166,757.8z"/>
	<path class="st66" d="M161.8,737.9l0.5,1c-0.4,0.6-2-0.3-1.7,1.3c0.4,1,0.2,2.2-0.6,2.9c-0.8,0.4-1.1-0.2-1.5-0.8
		c-0.2-0.9-0.3-1.8-0.2-2.7c0.3-0.6-0.1-1.1-0.1-1.7c0.2-0.5,0.1-1.1,0.4-1.6l2.1,0.5l1,0C161.8,737.2,161.8,737.6,161.8,737.9z"/>
	<path class="st67" d="M151.9,741c-0.5,0.7-0.1,2-1.5,2.1c0.1-0.5,0.3-1,0.4-1.5c0-0.2,0.1-0.4,0.1-0.5L151.9,741z"/>
	<path class="st68" d="M154.1,740l-0.6,0l0-1.1c0.5-0.9,1.2-1.6,2.1-2.1l0,0.5c0.5,0.4,1,0.8,1.5,1.2c0.4,0.2,0.7,0.6,0.8,1.1
		c0,0.5-0.4,1-0.8,1.2c-0.6,0.2-1.3,0.3-1.9,0.2C154.6,740.9,154.2,740.5,154.1,740z"/>
	<path class="st69" d="M156.7,738.9c-0.7-0.2-1.1-0.8-1.1-1.5c0.6-0.4,1.3-0.6,2.1-0.5c0.1,0.2,0.2,0.4,0.2,0.6
		c-0.2,0.4-0.4,0.8-0.7,1.1C157,738.7,156.8,738.8,156.7,738.9z"/>
	<path class="st70" d="M157.7,737.4l0-0.5c0.2-0.2,0.4-0.3,0.6-0.5c0.2,0,0.3,0,0.4,0c0.3,0.5,0.3,1.1,0,1.6
		C158.1,738.2,157.6,738.3,157.7,737.4z"/>
	<path class="st71" d="M163.9,743.6l1,1.1l0,1c0.2,1,0.8,2.2-1,2.4c-1.2-0.2-0.7-1.2-0.9-1.8c0-0.8,0.2-1.7,0.6-2.4
		C163.8,743.8,163.8,743.7,163.9,743.6z"/>
	<path class="st53" d="M163.4,747.9c1.7,0.2,1.6-1,1.6-2.1c1.3,1.6,0.2,2.4-1.1,3.1c0,0.4-0.2,0.8-0.5,1.1c-0.6-0.5-0.7-1.4-0.2-2
		C163.3,748,163.4,747.9,163.4,747.9L163.4,747.9z"/>
	<path class="st72" d="M161.3,740.5c0.9-0.1,1.4,0.8,2.1,1.1c0.2,0.7,0.3,1.4,0.5,2l0,0.1c-0.5,1.2-0.9,2.6-2.7,1.6
		C160,743.7,160.7,742.1,161.3,740.5z"/>
	<path class="st73" d="M161.3,740.5c0.2,1.6-0.5,3.2,0.1,4.7l-0.3,0.2c-0.3,0.1-0.7,0.1-1-0.1c-0.1-0.2-0.2-0.4-0.3-0.6
		c-0.1-0.5-0.2-1.1-0.1-1.6c0.5-1,0.7-2.1,0.5-3.2c0.2-0.2,0.3-0.2,0.5,0L161.3,740.5z"/>
	<path class="st49" d="M160.8,740c-0.2,0-0.3,0-0.5,0c0.2-1.4,1.3-0.9,2.1-1L160.8,740z"/>
	<path class="st74" d="M159.3,758.8l-1.1,0.1l-1.1-4.2c-0.3-0.3-0.4-0.7-0.2-1.1c0.2-0.5,0.7-0.8,1.2-0.8c0.3,0,0.5,0.1,0.7,0.2
		c0.2,0.2,0.3,0.4,0.4,0.6C160,755.3,159.9,757.2,159.3,758.8z"/>
	<path class="st75" d="M157.2,753.6l0,1.1l-1.1,0c-1.4,0-1.3-1.2-1.6-2.1c0.2-0.2,0.4-0.3,0.6-0.4c0.8,0,1.5,0.2,2.1,0.7
		C157.3,753.1,157.3,753.4,157.2,753.6z"/>
	<path class="st76" d="M154.6,752.6c0.4,0.8,0.6,1.6,1.5,2.1c-0.2,0.4-0.6,0.5-1,0.5l-1-2.1c0-0.2,0-0.3,0-0.5
		C154.1,752.4,154.3,752.4,154.6,752.6C154.5,752.5,154.5,752.6,154.6,752.6L154.6,752.6z"/>
	<path class="st77" d="M159.3,758.8c-0.4-1.7,0.2-3.5-0.5-5.2c0.3-0.4,0.7-0.7,1.2-0.8c0.4-0.1,0.8,0.1,1.1,0.3
		c0.3,0.4,0.3,1,0.2,1.5c-0.3,1.1-0.3,2.2-0.1,3.2c0,0.4-0.1,0.7-0.4,1l-1.1,0C159.6,758.8,159.4,758.8,159.3,758.8z"/>
	<path class="st78" d="M160.8,758.8l-0.1-1.2c-0.3-0.9-0.3-2,0-2.9l0-1.7c-0.3-0.3-0.3-0.7-0.2-1.1c0.7-0.8,1.7-1.2,2.7-1
		c1.8,0.3,0.4,1.4,0.6,2.1c-0.7,1.2-1.2,2.4-1.6,3.7c-0.6,0.6,0.7,2.1-1,2.1L160.8,758.8z"/>
	<path class="st79" d="M155,740.5l2.1,0c0.3,0.3,0.4,0.7,0.3,1.1c-0.5,1.1-0.5,2.4-1.4,3.3c-0.6,0.4-1.4,0.2-2-0.3l-0.3,0l-0.3,0
		c0.2-0.3,0.3-0.7,0.5-1C153.5,742.5,153.9,741.2,155,740.5z"/>
	<path class="st80" d="M155,740.5l-1,3.2c-0.8,0-1.6,0.1-1.3-1.2c0.3-0.9,0.7-1.7,1.3-2.5C154.4,740.2,154.7,740.3,155,740.5z"/>
	<path class="st81" d="M154,744.7l2.1,0c0.2,0.2,0.4,0.4,0.5,0.7c0.2,1.4,0,2.5-1.7,2.7c-0.5-0.1-0.6-0.5-0.9-0.8l-0.5-0.5
		C153.7,746.1,153.8,745.4,154,744.7z"/>
	<path class="st82" d="M154,747.3l0.5,0.5c0.2,0.2,0.3,0.5,0.5,0.7c0.1,1,0.5,2-0.9,2.4c0-0.1-0.1-0.3-0.1-0.4
		C154,749.5,154,748.4,154,747.3z"/>
	<path class="st83" d="M154,750.9c0.8-0.7,0.3-1.7,0.5-2.6c1.5-0.1,1.8,1,2,2.2c0.2,1.1-0.4,1.8-1.5,2c-0.2,0-0.3,0-0.5,0l-0.5,0
		C154,752,154,751.5,154,750.9z"/>
	<path class="st84" d="M162.4,756.8c-0.8-1.8,0.1-2.8,1.6-3.7C163.8,754.5,166.2,756.9,162.4,756.8z"/>
	<path class="st85" d="M163.4,751c-0.8,0.5-1.5,1.3-2.6,1c-0.2-0.2-0.3-0.4-0.4-0.6c-0.1-0.5,0.2-1,0.6-1.2c1,0,1.1-0.7,1.4-1.5
		c0.3-0.1,0.7-0.1,0.9,0.2l0,1.1L163.4,751z"/>
	<path class="st86" d="M156.1,745.2c0-0.2,0-0.3,0-0.5c0.1-1.1-0.4-2.5,1.1-3.2c0.7-0.3,1.1,0.1,1.6,0.5l1,1c0.6,0.4,0.5,1,0.5,1.6
		c-0.4,0.4-0.9,0.7-1.5,0.8c-0.2,0-0.4,0-0.7-0.1c-0.4-0.3-1-0.3-1.4-0.1C156.5,745.4,156.3,745.4,156.1,745.2z"/>
	<path class="st87" d="M158.7,742.1l-1.6-0.5l0-1l0.5-1c0.1-0.2,0.3-0.3,0.5-0.4c0.2,0,0.4,0.1,0.6,0.3
		C158.9,740.3,159.4,741.2,158.7,742.1z"/>
	<path class="st88" d="M158.7,739.5l-0.6-0.1c-0.4-0.4-0.9-0.7-1.5-0.9c0.1-0.5,0.5-0.9,1-1.1c0.2,0.4,0.6,0.6,1.1,0.5
		C158.5,738.4,159.3,738.9,158.7,739.5z"/>
	<path class="st89" d="M156.7,738.5c0.7-0.1,1.5-0.1,1.5,0.9c-0.2,0-0.3,0.1-0.5,0.1c-0.3-0.2-0.7-0.4-1-0.6
		C156.7,738.8,156.7,738.6,156.7,738.5z"/>
	<path class="st90" d="M163.4,748.9l-1,0c-0.4,0.1-0.8,0.3-1.3,0c-0.4-0.3-0.6-0.8-0.4-1.2c0.5-0.7,1.1-1.3,1.8-1.7
		c0.3-0.1,0.7,0,1,0.2c0.8,0.5,0.1,1,0,1.6L163.4,748.9z"/>
	<path class="st91" d="M163.4,746.3l-1.2,0c-0.7,0-1.2-0.3-0.9-1.1l0.1,0c1.3,0.2,1.8-0.9,2.5-1.6
		C164,744.6,163.9,745.5,163.4,746.3z"/>
	<path class="st92" d="M161.3,745.2c0.3,0.4,0.6,0.7,0.9,1.1c0.2,1.1-0.8,1.2-1.4,1.6c-0.5,0.5-1.3,0.4-1.8-0.1
		c0-0.1-0.1-0.1-0.1-0.2c-0.3-0.5-0.3-1.1-0.1-1.7c0.3-0.5,0.8-0.8,1.4-0.8L161.3,745.2z"/>
	<path class="st93" d="M160.3,745.2c-0.2,0.4-0.6,0.6-1,0.5c-0.5,0.1-0.7-0.1-0.6-0.6c0.4-0.6,1-0.5,1.6-0.5
		C160.3,744.9,160.3,745.1,160.3,745.2z"/>
	<path class="st94" d="M158.7,753.1l-0.5,0c-0.5-0.4-1.1-0.6-1.5-1.1c-0.3-0.7-0.6-1.5,0-2.2c0.9-0.3,1.8,0,2.3,0.8
		C159.5,751.4,159.4,752.4,158.7,753.1z"/>
	<path class="st95" d="M158.7,753.1l0-2.6c-0.1-0.1-0.2-0.3-0.1-0.4c0-0.1,0.1-0.2,0.1-0.2c0.2-0.1,0.5-0.1,0.7,0
		c0.4,0.3,0.7,0.7,0.8,1.2c0,0.7-0.1,1.4-0.4,2.1c-0.2,0.4-0.6,0.6-1,0.5C158.7,753.4,158.7,753.3,158.7,753.1z"/>
	<path class="st96" d="M157.2,752c0.5-0.1,1,0.3,1,0.8c0,0.1,0,0.1,0,0.2l-1,0.5c0-0.2-0.1-0.3-0.1-0.5
		C156.8,752.8,156.9,752.3,157.2,752z"/>
	<path class="st97" d="M157.2,752c0,0.4,0,0.7-0.1,1.1c-0.7,0-1.4-0.2-2-0.6c1.9-1.6,0.9-2.9-0.5-4.2v-0.5c1.8-0.1,1.6-1.4,1.6-2.6
		c0.2,0,0.3,0,0.5,0c0.1,0.1,0.2,0.2,0.3,0.3c0.7,1.4,0.6,3.1-0.3,4.4C156.6,750.7,156.8,751.4,157.2,752z"/>
	<path class="st98" d="M159.8,753.1c-0.9-0.7,0.2-1.4,0-2.1c0.6-0.3,0.8,0.2,1,0.5c0,0.2,0,0.3,0,0.5l0,1.1L159.8,753.1z"/>
	<path class="st99" d="M160.8,754.7c0,1,0,1.9,0,2.9C160,756.8,160,755.6,160.8,754.7z"/>
	<path class="st100" d="M160.8,751.5l-1-0.5l-0.5-1c-0.8-0.5-1.1-1.6-0.7-2.5c0.1-0.2,0.4-0.3,0.7-0.2c0,0,0,0,0,0l0,0l0,0
		c0.4,0.6,1.1,0.5,1.7,0.6c0.1,0.3,0.3,0.6,0.4,1c0.4,0.4,0.4,1.1,0,1.5c0,0,0,0,0,0l0,0l0,0C161,750.7,160.8,751.1,160.8,751.5z"/>
	<path class="st101" d="M161.3,750.5l0-1.6c0.4,0,0.7-0.6,1.1,0C162.5,749.8,162.8,750.7,161.3,750.5z"/>
	<path class="st102" d="M159.2,747.3c-0.1,0-0.3,0-0.4,0c-0.2,0.2-0.5,0.3-0.8,0.2c-0.9-0.6-0.9-1.4-0.5-2.2
		c0.2-0.2,0.5-0.3,0.7-0.1l0,0c0.2,0,0.3,0,0.5,0l0.6,0.6C159.2,746.3,159.2,746.8,159.2,747.3z"/>
	<path class="st103" d="M158.2,745.2l-0.5,0c-0.3,0.3-0.8,0.3-1,0l0,0l0,0l0.8-1.2L158.2,745.2z"/>
	<path class="st104" d="M156.6,745.2l1.1,0c0.1,0.7-0.2,1.5,0.5,2.1c0.3,0.8,0.5,1.7,0.5,2.6l0,0.5l-2.1-0.5
		C156.6,748.4,156.6,746.8,156.6,745.2z"/>
	<path class="st105" d="M158.7,749.9c-0.9-0.7-0.4-1.7-0.5-2.6l0.5,0l0.5,2.6C159.1,749.9,158.9,749.9,158.7,749.9z"/>
</g>
<path class="st11" d="M177,756.4c0,0-16.1,0.6-10.1,10.5s16.7-2.9,16.7-2.9"/>
<g id="image-2-2_1_">
	<g id="image-3-2_1_" transform="translate(743.5292 903.372) rotate(24.6288) scale(0.1828 0.1826)">

			<image style="overflow:visible;enable-background:new    ;" width="463" height="407" id="image-3-2" xlink:href="7712E68C186EB20C.png"  transform="matrix(0.1662 7.617966e-02 -7.609632e-02 0.166 743.5292 1003.435)">
		</image>
	</g>
</g>
<image style="overflow:visible;enable-background:new    ;" width="408" height="375" xlink:href="7712E68C186EB20D.png"  transform="matrix(0.4751 0 0 0.4742 702.9224 930.0043)">
</image>
<image style="overflow:visible;enable-background:new    ;" width="435" height="407" id="image-4" xlink:href="7712E68C186EB226.png"  transform="matrix(0.3171 0 0 0.3181 770.7888 1011.2759)">
</image>
<g id="image-3">
	<g id="image-5" transform="matrix(0.331, -0.1978, 0.1972, 0.33, 786.9141, 895.8478)">

			<image style="overflow:visible;enable-background:new    ;" width="401" height="369" id="image-4-2" xlink:href="7712E68C186EB22A.png"  transform="matrix(0.331 -0.1978 0.1972 0.33 786.9141 995.9108)">
		</image>
	</g>
</g>
<g id="image-4-2_1_">
	<g id="image-3-2-2" transform="matrix(0.0238, -0.1062, 0.1062, 0.0238, 881.3508, 968.0258)">

			<image style="overflow:visible;enable-background:new    ;" width="463" height="407" id="image-3-2_3_" xlink:href="7712E68C186EB229.png"  transform="matrix(2.380000e-02 -0.1062 0.1062 2.380000e-02 881.3508 1068.0889)">
		</image>
	</g>
</g>
<image style="overflow:visible;enable-background:new    ;" width="437" height="410" id="image-2-3" xlink:href="7712E68C186EB22E.png"  transform="matrix(0.4371 0 0 0.4375 834.2062 1011.5097)">
</image>
<g id="image-3-3">
	<g id="image-5-2" transform="matrix(0.2635, 0.2001, -0.1995, 0.2627, 942.4336, 865.1289)">

			<image style="overflow:visible;enable-background:new    ;" width="401" height="369" id="image-4-2_3_" xlink:href="7712E68C186EB228.png"  transform="matrix(0.2635 0.2001 -0.1995 0.2627 942.4336 965.1919)">
		</image>
	</g>
</g>
<g id="image-6">
	<g id="image-3-2-3" transform="translate(989.5735 982.7123) rotate(24.6288) scale(0.1088)">

			<image style="overflow:visible;enable-background:new    ;" width="463" height="407" id="image-3-2_4_" xlink:href="7712E68C186EB236.png"  transform="matrix(9.890211e-02 4.534107e-02 -4.534107e-02 9.890211e-02 989.5735 1082.7753)">
		</image>
	</g>
</g>
<g id="image-3-4">
	<g id="image-5-3" transform="matrix(0.331, -0.1978, 0.1972, 0.33, 924.4692, 955.3046)">

			<image style="overflow:visible;enable-background:new    ;" width="401" height="369" id="image-4-2_4_" xlink:href="7712E68C186EB237.png"  transform="matrix(0.331 -0.1978 0.1972 0.33 924.4692 1055.3677)">
		</image>
	</g>
</g>
<image style="overflow:visible;enable-background:new    ;" width="404" height="372" xlink:href="7712E68C186EB238.png"  transform="matrix(0.3925 0 0 0.3911 983.6851 1050.652)">
</image>
<image style="overflow:visible;enable-background:new    ;" width="431" height="406" xlink:href="7712E68C186EB239.png"  transform="matrix(0.2226 0 0 0.222 875.7065 1127.9587)">
</image>
<g id="image-7">
	<g id="image-3-2-4" transform="matrix(0.0736, -0.3664, 0.3662, 0.0735, 904.1797, 1197.0096)">

			<image style="overflow:visible;enable-background:new    ;" width="463" height="407" id="image-3-2_5_" xlink:href="7712E68C186EB23A.png"  transform="matrix(7.360000e-02 -0.3664 0.3662 7.350000e-02 904.1797 1297.0726)">
		</image>
	</g>
</g>
<g id="image-3-5">
	<g id="image-5-4" transform="matrix(0.331, -0.1978, 0.1972, 0.33, 915.1889, 1051.9471)">

			<image style="overflow:visible;enable-background:new    ;" width="401" height="369" id="image-4-2_5_" xlink:href="7712E68C186EB2D6.png"  transform="matrix(0.331 -0.1978 0.1972 0.33 915.1889 1152.0101)">
		</image>
	</g>
</g>
<image style="overflow:visible;enable-background:new    ;" width="435" height="407" xlink:href="7712E68C186EB2D5.png"  transform="matrix(0.3171 0 0 0.3181 1050.5306 1088.2026)">
</image>
<image style="overflow:visible;enable-background:new    ;" width="432" height="406" xlink:href="7712E68C186EB2DA.png"  transform="matrix(0.2221 0 0 0.222 888.4757 1227.4661)">
</image>
<g id="image-8">
	<g id="image-3-2-5" transform="translate(1025.1753 1121.3335) rotate(-70.567) scale(0.1797)">

			<image style="overflow:visible;enable-background:new    ;" width="463" height="407" id="image-3-2_6_" xlink:href="7712E68C186EB2DD.png"  transform="matrix(5.978696e-02 -0.1695 0.1695 5.978696e-02 1025.1753 1221.3965)">
		</image>
	</g>
</g>
<image style="overflow:visible;enable-background:new    ;" width="434" height="409" xlink:href="7712E68C186EB2DE.png"  transform="matrix(0.2211 0 0 0.2204 1101.4272 1172.6495)">
</image>
<g id="image-3-6">
	<g id="image-5-5" transform="matrix(0.0498, -0.6347, 0.6328, 0.0496, 965.976, 1278.7843)">

			<image style="overflow:visible;enable-background:new    ;" width="401" height="369" id="image-4-2_6_" xlink:href="7712E68C186EB2DC.png"  transform="matrix(4.980000e-02 -0.6347 0.6328 4.960000e-02 965.976 1378.8473)">
		</image>
	</g>
</g>
<g id="image-5-2-2">
	<g id="image-10" transform="matrix(-0.4441, 0, 0, 0.4451, 1128.6709, 1125.959)">

			<image style="overflow:visible;enable-background:new    ;" width="430" height="403" id="image-5-7" xlink:href="7712E68C186EB2DB.png"  transform="matrix(-0.4441 0 0 0.4451 1128.6709 1226.022)">
		</image>
	</g>
</g>
<image style="overflow:visible;enable-background:new    ;" width="433" height="407" id="image-4-3" xlink:href="7712E68C186EB2D4.png"  transform="matrix(0.3186 0 0 0.3181 1063.4551 1235.3103)">
</image>
<g id="image-3-7">
	<g id="image-5-6" transform="matrix(-0.1043, -0.4718, -0.4705, 0.1039, 1209.1349, 1340.1932)">

			<image style="overflow:visible;enable-background:new    ;" width="401" height="369" id="image-4-2_7_" xlink:href="7712E68C186EB2D7.png"  transform="matrix(-0.1043 -0.4718 -0.4705 0.1039 1209.1349 1440.2562)">
		</image>
	</g>
</g>
<g id="image-9">
	<g id="image-3-2-6" transform="translate(1023.1468 1295.0443) rotate(-76.5576) scale(0.1088)">

			<image style="overflow:visible;enable-background:new    ;" width="463" height="407" id="image-3-2_7_" xlink:href="7712E68C186EB2D3.png"  transform="matrix(2.529248e-02 -0.1058 0.1058 2.529248e-02 1023.1468 1395.1073)">
		</image>
	</g>
</g>
<g id="image-5-3-2">
	<g id="image-10-2" transform="matrix(0.1212, -0.222, 0.2225, 0.1216, 879.1392, 1260.9622)">

			<image style="overflow:visible;enable-background:new    ;" width="430" height="403" id="image-5-7_2_" xlink:href="7712E68C186EB2F1.png"  transform="matrix(0.1212 -0.222 0.2225 0.1216 879.1392 1361.0251)">
		</image>
	</g>
</g>
<image style="overflow:visible;enable-background:new    ;" width="435" height="409" xlink:href="7712E68C186EB2F7.png"  transform="matrix(0.2992 0 0 0.2989 921.7001 1338.9241)">
</image>
<g id="image-3-8">
	<g id="image-5-8" transform="matrix(0.0615, -0.2783, 0.2776, 0.0613, 1015.8757, 1374.5106)">

			<image style="overflow:visible;enable-background:new    ;" width="401" height="369" id="image-4-2_8_" xlink:href="7712E68C186EB2F0.png"  transform="matrix(6.150000e-02 -0.2783 0.2776 6.130000e-02 1015.8757 1474.5736)">
		</image>
	</g>
</g>
<g id="image-5-4-2">
	<g id="image-10-3" transform="matrix(0.0768, -0.1404, 0.1407, 0.077, 1104.0698, 1334.5923)">

			<image style="overflow:visible;enable-background:new    ;" width="430" height="403" id="image-5-7_3_" xlink:href="7712E68C186EB2F3.png"  transform="matrix(7.680000e-02 -0.1404 0.1407 7.700000e-02 1104.0698 1434.6553)">
		</image>
	</g>
</g>
<g id="image-5-5-2">
	<g id="image-10-4" transform="matrix(-0.1177, -0.1669, -0.1673, 0.1179, 1196.7729, 1378.499)">

			<image style="overflow:visible;enable-background:new    ;" width="430" height="403" id="image-5-7_4_" xlink:href="7712E68C186EB2CF.png"  transform="matrix(-0.1177 -0.1669 -0.1673 0.1179 1196.7729 1478.562)">
		</image>
	</g>
</g>
<g id="image-11">
	<g id="image-3-2-7" transform="matrix(0.0171, -0.0714, 0.0712, 0.017, 1162.8561, 1357.4753)">

			<image style="overflow:visible;enable-background:new    ;" width="463" height="407" id="image-3-2_8_" xlink:href="7712E68C186EB2EF.png"  transform="matrix(1.710000e-02 -7.140000e-02 7.120000e-02 1.700000e-02 1162.8561 1457.5383)">
		</image>
	</g>
</g>
<g id="image-3-9">
	<g id="image-5-9" transform="matrix(0.0128, -0.1625, 0.1619, 0.0126, 1154.0984, 1409.9825)">

			<image style="overflow:visible;enable-background:new    ;" width="401" height="369" id="image-4-2_9_" xlink:href="7712E68C186EB2D1.png"  transform="matrix(1.280000e-02 -0.1625 0.1619 1.260000e-02 1154.0984 1510.0455)">
		</image>
	</g>
</g>
<g id="image-5-6-2">
	<g id="image-10-5" transform="matrix(0.0273, -0.0517, 0.0519, 0.0275, 1192.2452, 1367.5326)">

			<image style="overflow:visible;enable-background:new    ;" width="430" height="403" id="image-5-7_5_" xlink:href="7712E68C186EB2D0.png"  transform="matrix(2.730000e-02 -5.170000e-02 5.190000e-02 2.750000e-02 1192.2452 1467.5956)">
		</image>
	</g>
</g>
<g id="image-5-7_1_">
	<g id="image-10-6" transform="translate(1203.6053 1385.172) rotate(-61.3517) scale(0.0379)">

			<image style="overflow:visible;enable-background:new    ;" width="430" height="403" id="image-5-7_6_" xlink:href="7712E68C186EB2D9.png"  transform="matrix(1.817047e-02 -3.326025e-02 3.326025e-02 1.817047e-02 1203.6053 1485.235)">
		</image>
	</g>
</g>
<g id="image-12">
	<g id="image-3-2-8" transform="matrix(0.0065, -0.0271, 0.0271, 0.0065, 1222.0729, 1374.9596)">

			<image style="overflow:visible;enable-background:new    ;" width="463" height="407" id="image-3-2_9_" xlink:href="7712E68C186EB2D2.png"  transform="matrix(6.500000e-03 -2.710000e-02 2.710000e-02 6.500000e-03 1222.0729 1475.0226)">
		</image>
	</g>
</g>
<g id="image-5-8-2">
	<g id="image-10-7" transform="matrix(-0.0147, -0.0208, -0.021, 0.0147, 1238.194, 1388.4316)">

			<image style="overflow:visible;enable-background:new    ;" width="430" height="403" id="image-5-7_8_" xlink:href="35BB523F87FFA87B.png"  transform="matrix(-1.470000e-02 -2.080000e-02 -2.100000e-02 1.470000e-02 1238.194 1488.4946)">
		</image>
	</g>
</g>
<g id="image-3-10">
	<g id="image-5-10" transform="matrix(0.6364, -0.1826, 0.182, 0.6345, 420.4818, 798.8211)">

			<image style="overflow:visible;enable-background:new    ;" width="401" height="369" id="image-4-2_10_" xlink:href="35BB523F87FFA845.png"  transform="matrix(0.6364 -0.1826 0.182 0.6345 420.4818 898.8841)">
		</image>
	</g>
</g>
<image style="overflow:visible;enable-background:new    ;" width="437" height="411" xlink:href="35BB523F87FFA847.png"  transform="matrix(0.4634 0 0 -0.4628 419.3702 1119.7103)">
</image>
</svg>
