<?xml version="1.0" encoding="utf-8"?>
<!-- Generator: Adobe Illustrator 21.0.2, SVG Export Plug-In . SVG Version: 6.00 Build 0)  -->
<svg version="1.1" id="Layer_1" xmlns="http://www.w3.org/2000/svg" xmlns:xlink="http://www.w3.org/1999/xlink" x="0px" y="0px"
	 viewBox="0 0 1232 184" style="enable-background:new 0 0 1232 184;" xml:space="preserve">
<style type="text/css">
	.st0{stroke:#D94952;stroke-width:15;stroke-miterlimit:10;}
</style>
<title>olbestilling</title>
<path class="st0" d="M75.1,27.6c-10.8-3.8-22.2-0.2-30.7,7C34.3,43.2,30,56.4,28.3,69.2c-3.4,25.5-2.2,56.9,14.4,77.9
	c15,19,41.3,26.3,61.4,10.6c22.4-17.4,24.5-47.3,21.4-73.4c-1.8-15.3-3.4-32.4-11.6-45.8c-6.6-11-18.9-19-32.1-16.5
	c-1.8,0.3-1.1,3.1,0.8,2.8c13.1-2.3,24.7,7,30.4,18.1c5.5,10.9,7.1,23.7,8.8,35.6c3.4,24.1,4.2,51.5-13,71
	c-7.2,8.1-17.2,13.9-28.3,14.2c-11.3,0.3-22-5.1-30.1-12.7c-18.4-17.3-20.8-44.5-20.1-68.3c0.5-13.5,2.1-28.1,10.2-39.4
	C47.9,32.7,61.6,26,74.3,30.5C76.1,31.1,76.8,28.2,75.1,27.6z"/>
<path class="st0" d="M127.3,16.6c-24.6,15.9-40.4,41.9-55.9,65.9c-18,27.9-34.8,56.5-50.5,85.8c-0.9,1.7,1.7,3.1,2.5,1.5
	c15.2-28.1,31.3-55.7,48.5-82.6c15.8-24.6,31.6-51.8,56.8-67.9C130.4,18.2,128.9,15.7,127.3,16.6L127.3,16.6z"/>
<path class="st0" d="M161.4,16.8l-4.1,147.1c0,0.8,0.7,1.5,1.5,1.5c28,1.3,56.2,0.9,84.1-1.2c1.8-0.1,1.8-3,0-2.9
	c-28,2-56.1,2.4-84.1,1.2l1.5,1.5l4.1-147.1C164.4,15,161.5,15,161.4,16.8L161.4,16.8z"/>
<path class="st0" d="M264.2,10.2l-4,146.1c-0.1,1.8,2.8,1.8,2.9,0l4-146.1C267.2,8.4,264.3,8.4,264.2,10.2L264.2,10.2z"/>
<path class="st0" d="M268.5,13c26-7.4,55.8,6.2,67.5,30.6c3.5,7.3,5.8,16.4,3.7,24.4c-2,8-8.4,13-15.6,16.4
	c-15.7,7.2-34.7,9.5-51.7,11.4l0.4,2.8c16-4.4,31.8-8.8,47.8-13c12-3.2,32.9-6.5,32.8,12.1c0,7.1-3.3,14.1-6,20.5
	c-2.4,5.5-5.1,11.1-8.1,16.5c-6.2,11-14.4,21.7-26.4,26.9c-16.2,7-36.9,3-53.2-1.8c-1.8-0.6-2.5,2.2-0.8,2.8
	c15.9,4.8,35.5,8.4,51.7,3c12.8-4.3,22.1-14.5,28.9-25.7c3.8-6.4,7.2-13.1,10.1-20.1c2.8-6.3,5.6-12.8,6.3-19.8
	c1.4-14.5-10.4-21.1-23.5-19.8c-9.3,1-18.6,4.3-27.6,6.7L271.8,96c-1.6,0.4-1.3,3,0.4,2.8c15.7-1.7,31.9-4.2,46.9-9.2
	c11-3.8,21.7-10.5,23.7-23c3.8-23.8-16.6-45.8-37.1-54c-12.1-5-25.5-5.7-38.1-2.2c-0.8,0.2-1.2,1.1-1,1.8
	C266.9,12.8,267.7,13.1,268.5,13L268.5,13z"/>
<path class="st0" d="M373.8,18.2l-0.1,122.3c0,5.2,0,10.3,0,15.5c0,3.5-0.2,7.2,1,10.6c1.9,5.5,6.9,7.4,12.4,7.8
	c20.1,1.6,40.9-0.1,60.9-1.7c1.8-0.1,1.8-3,0-2.9c-18.7,1.5-37.4,2-56.2,1.8c-4.2-0.1-9.4,0.3-12.7-3c-3.1-3.2-2.6-8.6-2.6-12.6
	c0-9.1,0-18.1,0-27.2l0.1-110.6c0-0.8-0.7-1.5-1.6-1.4C374.5,16.8,373.8,17.4,373.8,18.2L373.8,18.2z"/>
<path class="st0" d="M378.3,95.4h45.5c0.8,0,1.5-0.7,1.4-1.6c0-0.8-0.7-1.4-1.4-1.4h-45.5c-0.8,0-1.5,0.7-1.4,1.6
	C376.8,94.8,377.5,95.4,378.3,95.4z"/>
<path class="st0" d="M372.3,17.8c20.2-1.5,40.6-1,60.7,1.5c1.8,0.2,1.8-2.7,0-2.9c-20.2-2.4-40.5-2.8-60.7-1.5
	C370.3,15,370.3,17.9,372.3,17.8z"/>
<path class="st0" d="M519.7,14.6c-17.9-6.7-36.1,3.2-46.1,18.2c-5.2,7.8-9.8,17.9-9.3,27.5c0.5,9.2,7,16.5,13.6,22.1
	c7.2,6.2,15.7,10.9,24.4,14.7c4,1.8,8.1,3.3,12.2,4.8c5.5,1.9,11.8,3.5,15.9,7.9c7.2,7.7,5.7,22,5.1,31.6
	c-0.8,10.9-4.5,21.1-14.3,26.8c-22,12.8-45.8-4.5-50.8-26.9c-0.4-1.8-3.2-1.1-2.8,0.8c3.7,16.5,16.8,31.6,34.5,33.2
	c17.9,1.6,32.9-10.4,35.7-28c1.5-9.1,1.8-19.7,0-28.7c-1.8-9.3-7.9-14.3-16.5-17.5c-10.2-3.8-20.5-7.4-30.1-12.9
	c-9.2-5.4-21.1-13.9-23.6-24.9c-2.7-12.5,6.1-27.8,14.6-36.4c9.5-9.7,23.7-14.3,36.7-9.3C520.6,18.1,521.4,15.3,519.7,14.6
	L519.7,14.6z"/>
<path class="st0" d="M590.3,25.5v149.2c0,0.8,0.7,1.5,1.6,1.4c0.8,0,1.4-0.7,1.4-1.4V25.5c0-0.8-0.7-1.5-1.6-1.4
	C591,24.1,590.4,24.7,590.3,25.5z"/>
<path class="st0" d="M550.2,24.4c27.9,0.7,56-1.6,83.4-6.6c1.8-0.3,1.1-3.1-0.8-2.8c-27.3,5-55,7.2-82.6,6.5
	C548.3,21.5,548.3,24.4,550.2,24.4L550.2,24.4z"/>
<path class="st0" d="M662.1,18.3v154.8c0,0.8,0.7,1.5,1.6,1.4c0.8,0,1.4-0.7,1.4-1.4V18.3c0-0.8-0.7-1.5-1.6-1.4
	C662.7,16.9,662.2,17.5,662.1,18.3z"/>
<path class="st0" d="M710.4,19.8l-4.1,147.1c0,0.8,0.7,1.5,1.5,1.5c28,1.3,56.2,0.9,84.1-1.2c1.8-0.1,1.8-3,0-2.9
	c-28,2-56.1,2.4-84.1,1.2l1.5,1.5l4.1-147.1C713.5,17.9,710.5,17.9,710.4,19.8L710.4,19.8z"/>
<path class="st0" d="M823.4,19.8l-4.1,147.1c0,0.8,0.7,1.5,1.5,1.5c28,1.3,56.2,0.9,84.1-1.2c1.8-0.1,1.8-3,0-2.9
	c-28,2-56.1,2.4-84.1,1.2l1.5,1.5l4.1-147.1C826.4,17.9,823.5,17.9,823.4,19.8L823.4,19.8z"/>
<path class="st0" d="M931.7,16.4v154.8c0,0.8,0.7,1.5,1.6,1.4c0.8,0,1.4-0.7,1.4-1.4V16.4c0-0.8-0.7-1.5-1.6-1.4
	C932.4,15,931.8,15.6,931.7,16.4z"/>
<path class="st0" d="M972.2,16.7c0.1,50.9,1.7,101.8,4.6,152.7c0.1,1.8,3,1.8,2.9,0c-3-50.8-4.5-101.7-4.6-152.7
	c0-0.8-0.7-1.5-1.6-1.4C972.9,15.4,972.2,16,972.2,16.7z"/>
<path class="st0" d="M974.6,17c10.9,28.9,20.5,58.8,34.5,86.4c6.5,13,14.5,25.3,19.7,39c4,10.6,3.9,24.9,13.2,32.7
	c0.6,0.6,1.6,0.6,2,0c0.2-0.2,0.3-0.4,0.4-0.6c11.4-53.3,12-108.4,1.8-162.1c-0.4-1.8-3.1-1.1-2.8,0.8c10,53.2,9.3,107.7-1.8,160.5
	l2.4-0.7c-5.2-4.3-6.9-10.6-8.4-16.9c-1.4-6.2-3.3-12.4-5.7-18.3c-5.2-12.4-12.4-23.8-18.4-35.8c-13.8-27.5-23.4-57-34.2-85.7
	C976.9,14.5,974.1,15.2,974.6,17L974.6,17z"/>
<path class="st0" d="M1157.7,9.4c-11.4-1.6-23.9-3-34.7,2.2c-11.5,5.5-17,18.5-22.1,29.5c-11.6,25.3-17.9,52.8-18.6,80.6
	c-0.2,11.1,0.7,22.9,5.9,32.8c5,9.3,13.7,15.3,23.8,17.6c11.8,2.6,24.3,1.3,36.1-0.3c11-1.6,19.6-6.6,24.9-16.6
	c3-5.9,4.8-12.4,5.3-19.1c0.4-4.1,0.5-8.3,0.4-12.4c0-3.2,0.4-7-0.7-10.1c-1.7-4.6-6.2-5.7-10.7-5.6c-8.3,0.1-16.6,1.5-24.8,2.2v2.9
	l26.7-2.7c4.4-0.5,9-1.2,13.3-1.4c2.8-0.1,4.6-0.7,5.3,3.4c0.3,1.8-0.4,4.2-0.6,6l-5.3,52.5c-0.2,1.8,2.7,1.8,2.9,0l3.1-31.4
	l1.6-15.3c0.4-4.2,1.8-9.2,1.1-13.4c-1.3-7.2-10.9-4.4-15.8-3.9l-32.4,3.3c-1.8,0.2-1.8,3.1,0,2.9l18.6-1.8c2.5-0.3,5-0.5,7.5-0.5
	c4.9,0.2,6.6,2.7,7.1,7.6c1.2,11.4,0.2,25-5.2,35.2c-2.4,4.9-6.1,8.9-10.8,11.7c-5.4,3.1-11.8,3.6-17.8,4.3
	c-10,1.1-20.5,1.8-30.5-0.7c-23.4-6-27.1-30-26.2-50.7c1-23.9,6.2-47.5,15.4-69.6c4.7-11.3,10.3-26.3,21.1-33.1
	c10.4-6.6,24.1-4.8,35.7-3.2C1159.6,12.7,1159.6,9.7,1157.7,9.4L1157.7,9.4z"/>
</svg>
