<?xml version="1.0" encoding="utf-8"?>
<!-- Generator: Adobe Illustrator 21.0.2, SVG Export Plug-In . SVG Version: 6.00 Build 0)  -->
<svg version="1.1" id="Layer_1" xmlns="http://www.w3.org/2000/svg" xmlns:xlink="http://www.w3.org/1999/xlink" x="0px" y="0px"
	 viewBox="0 0 841.9 385.5" style="enable-background:new 0 0 841.9 385.5;" xml:space="preserve">
<style type="text/css">
	.st0{fill:#E3057E;stroke:#E3057E;stroke-width:13;stroke-miterlimit:10;}
</style>
<title>Specialøl</title>
<path class="st0" d="M149.7,30.4c-19-10.9-41.2-2.8-55.1,12.3C82,56.3,72.8,76.7,81.1,94.9c7.5,16.5,26.4,21.8,39.9,31.6
	c7.8,5.7,12.6,13.3,13.3,23.1c0.3,5-0.3,9.8-1.4,14.7c-1.2,5-2.6,11.2-7.2,14.2c-4.5,2.9-10.6,2.6-15.7,2.7
	c-6.7,0.2-13.6,0.3-20.2-0.9c-10.6-1.9-22.7-8.7-23.4-20.8c-0.4-6.3-10.4-6.5-10,0c1.4,23.6,26,31.7,46.1,31.8
	c9.5,0.1,21.2,0.8,29.4-4.8c8.5-5.9,11.1-18,12.3-27.6c1.2-9.7,0-20.2-5.4-28.4c-4.8-7.5-12.1-12.7-19.7-17.1
	c-8-4.8-16.9-8.6-23.5-15.3c-6.9-6.9-8.8-16.3-6.4-25.7c5.6-22.1,32.2-46.7,55.7-33.3C150.1,42.2,155.3,33.7,149.7,30.4L149.7,30.4z
	"/>
<path class="st0" d="M176.6,123.7c-18.6,49.8-37.1,99.7-52.6,150.6c-1.6,5.3,6.8,9.2,9.1,3.9c18.8-42,34.8-85.2,47.8-129.4
	c1.2-4.1,1.6-11.5,6.6-12.1c5.6-0.5,11.4-0.5,17,0c9.7,0.9,19.6,3.8,26.6,10.8c14.4,14.4,4.3,33.6-9.8,43.7
	c-16.9,12.1-41.7,15.3-59.9,4.2c-5.5-3.4-10.6,5.2-5.2,8.5c19.2,11.9,44.1,10.2,63.7-0.2c16.8-8.9,32.7-27.8,27.4-48
	c-6.4-24.1-33.9-30.1-55.4-29.4c-4.6,0.2-9.9,0-13.6,3.2c-4.5,3.9-5.5,10.9-7.1,16.4c-3.8,13.2-8,26.1-12.3,39.1
	c-10.1,29.8-21.6,59.1-34.4,87.9l9.1,3.9c15.5-50.9,34.1-100.7,52.6-150.6C188.6,120.4,179,117.7,176.6,123.7L176.6,123.7z"/>
<path class="st0" d="M278.8,186.1c14.8,6.6,35.3,10.6,50.8,3.3c6.5-3.1,10.5-9.6,8.3-16.9c-2.2-7.3-9.2-15.4-15.4-19.5
	c-15.2-10-33.5-1.4-45.6,9.1c-6.3,5.5-11.7,12.3-12,20.9c-0.3,7.5,3.2,14.6,7.7,20.3c11.7,15.4,30.7,24.1,49.6,25.8
	c6.4,0.6,6.4-9.4,0-10c-15.3-1.3-29.6-8.4-40-19.7c-4.5-5-8.8-12.3-6.7-19.3c2.1-7.1,10.2-12.9,16.2-16.5c6.7-4,15-6.7,22.6-3.7
	c4,1.6,6.9,4.7,9.5,8.1c1.8,2.3,5.4,6.1,4.8,9.1c-1.3,6-15.2,5.6-19.6,5.6c-8.6,0-17-1.9-24.9-5.4
	C278.2,174.9,273,183.5,278.8,186.1L278.8,186.1z"/>
<path class="st0" d="M400.3,177c-11.8-8.6-23.8,2.1-31.1,11c-8.4,10.3-17.1,23.5-12,37.3c4.1,11.1,14.9,17.6,25.2,22.1
	c6.5,2.9,13.2,5.8,20,7.5c5.3,1.4,10.7,1.2,14.9-2.7c4.8-4.4-2.2-11.5-6.9-7.2c-2.4,2.2-7.8-0.4-10.3-1.4c-4.6-1.6-9.2-3.4-13.8-5.3
	c-7-3.1-15.1-7.3-18.8-14.3c-4.8-9,0.8-18.5,6.2-25.8c4.2-5.8,13-18.9,21.4-12.8C400.3,189.4,405.4,180.8,400.3,177L400.3,177z"/>
<path class="st0" d="M454.7,193.9c-6,21.5-12.5,42.9-19.6,64.1c-2,6.1,7.6,8.8,9.6,2.7c7-21.2,13.6-42.5,19.6-64.1
	C466,190.4,456.4,187.6,454.7,193.9z"/>
<path class="st0" d="M465.4,166.8c6.2,1.7,8.9-7.9,2.7-9.6C462,155.4,459.3,165,465.4,166.8z"/>
<path class="st0" d="M601.4,151.2c-10.8,33.6-21.5,67.3-32.3,101c-4.5,14-8.6,29.2-1.9,43.1c5.9,12.4,19.3,18.5,32.1,13.3
	c6-2.4,1.1-11.1-4.9-8.8c-12.8,5.2-20.7-10.2-20.8-20.5c-0.2-14,6.3-28.1,10.5-41.3l26.9-84.2C612.9,147.8,603.3,145.1,601.4,151.2z
	"/>
<path class="st0" d="M691.9,258.1c-14-9.4-32.2-9.2-45.9,0.4c-13.4,9.7-27,27.8-24.7,45.3c2.1,16.2,19.1,29.4,34.6,31.8
	c20.2,3.1,30.5-16.8,37.8-32.4c4.4-9.2,9.6-19.9,8.4-30.4c-1-8.9-8.2-17.6-17.8-16.7c-6.3,0.6-6.5,10.6,0,10c10.8-1,8,13.7,5.9,19.8
	c-3.1,8.7-7,17.1-11.9,25c-4.3,7.3-9.3,15.6-18.9,15.1c-7.5-0.4-14.8-4.8-20.2-9.8c-6.2-5.7-9.6-12.9-7.7-21.3
	c1.8-8.1,7-15.4,12.6-21.4c5.7-6.2,12.3-11.1,20.8-12.2c7.7-1.1,15.5,0.8,21.9,5.3C692,270.2,697.2,261.7,691.9,258.1L691.9,258.1z"
	/>
<path class="st0" d="M710.6,258.4c-8.8-1.6-16.6,3.7-24.1,7.8c-8.5,4.7-16.8,9.7-24.8,15.2c-16.3,11.2-31.4,24.1-46.4,36.9
	c-4.9,4.2,2.1,11.4,6.9,7.2c13.4-11.5,26.9-23.1,41.3-33.3c6.9-4.9,14.1-9.4,21.3-13.7c3.6-2.1,7.4-4.1,11.1-6.1
	c3.3-1.8,7.8-5.1,11.7-4.4C714.2,269.1,717,259.5,710.6,258.4L710.6,258.4z"/>
<path class="st0" d="M756,205.5c-10.8,33.6-21.5,67.3-32.3,101c-4.5,14-8.6,29.2-1.9,43.1c5.9,12.4,19.3,18.5,32.1,13.3
	c6-2.4,1.1-11.1-4.9-8.8c-12.8,5.2-20.7-10.2-20.8-20.5c-0.2-14,6.3-28.1,10.5-41.3l26.9-84.2C767.6,202.1,758,199.4,756,205.5
	L756,205.5z"/>
<path class="st0" d="M485.6,226.4c15.7-5.3,39-12.3,51.4,3.6c12,15.5,2.9,36.8-4,52.3c-2.6,5.8,5.9,11,8.5,5.2
	c8.6-19.5,18-44,3.4-63.3c-14.9-19.8-41.9-14.3-61.9-7.4C477.1,218.8,479.5,228.5,485.6,226.4L485.6,226.4z"/>
<path class="st0" d="M534.7,291.1c6.2,1.7,8.9-7.9,2.7-9.6C531.3,279.7,528.5,289.4,534.7,291.1z"/>
<path class="st0" d="M540.3,255.8c-8-2.4-15.9-4.7-24-7c-6.8-1.9-14-3.7-21.2-3.2c-11.5,0.8-27.2,8.4-25,22.3
	c2.1,13.2,17.8,20.4,29.5,22.3c14.5,2.2,28.7-2,41.8-8.2c5.8-2.8,0.9-11.5-4.9-8.8c-9.5,4.5-19.7,8-30.4,7.6
	c-5.4-0.2-10.7-1.5-15.6-3.8c-3.9-2-9.6-5.5-10.5-10.2c-1-5.1,4.7-8.6,8.7-10c4.8-1.6,10-1.6,14.9-0.8c11.4,1.8,22.8,6.1,33.9,9.4
	C543.9,267.2,546.6,257.6,540.3,255.8L540.3,255.8z"/>
</svg>
