<?xml version="1.0" standalone="no"?>
<!DOCTYPE svg PUBLIC "-//W3C//DTD SVG 20010904//EN"
 "http://www.w3.org/TR/2001/REC-SVG-20010904/DTD/svg10.dtd">
<svg version="1.0" xmlns="http://www.w3.org/2000/svg"
 width="16.000000pt" height="16.000000pt" viewBox="0 0 16.000000 16.000000"
 preserveAspectRatio="xMidYMid meet">
<metadata>
Created by potrace 1.11, written by Peter Selinger 2001-2013
</metadata>
<g transform="translate(0.000000,16.000000) scale(0.005479,-0.005479)"
fill="#000000" stroke="none">
<path d="M2656 2698 c-60 -106 -128 -223 -152 -259 -24 -36 -87 -160 -139
-275 -209 -455 -271 -542 -446 -624 -58 -27 -170 -62 -177 -55 -2 2 11 23 28
47 41 58 51 121 22 137 -28 15 -64 0 -127 -51 -27 -23 -59 -49 -69 -57 -11 -9
-1 11 21 44 56 84 145 240 171 302 28 66 29 109 2 118 -51 16 -157 -91 -274
-277 -43 -69 -94 -143 -113 -164 l-34 -39 6 30 c3 17 32 84 65 150 50 102 60
129 62 183 2 44 -1 62 -9 62 -22 0 -113 -142 -201 -315 l-86 -170 -6 45 c-8
68 -14 73 -60 50 -46 -23 -80 -64 -80 -96 0 -12 5 -45 12 -74 18 -76 12 -79
-177 -91 -186 -12 -209 -7 -225 50 -6 20 -14 176 -18 346 l-8 310 27 133 c15
72 33 148 39 167 8 25 8 39 0 55 -6 12 -13 20 -15 18 -14 -15 -489 -1122 -508
-1183 -46 -149 -63 -314 -47 -466 13 -131 31 -206 71 -287 35 -72 60 -92 131
-103 65 -11 90 -28 131 -92 65 -101 153 -160 295 -199 104 -29 386 -31 537 -4
230 41 456 111 611 189 261 131 480 355 559 571 18 49 41 89 65 115 88 92 186
471 220 849 17 182 10 275 -21 308 -24 26 -24 28 -23 222 1 149 8 242 27 382
14 102 24 186 23 188 -2 1 -51 -84 -110 -190z m-440 -1320 c-4 -46 -14 -114
-22 -153 -20 -87 -82 -221 -120 -259 -74 -74 -258 -178 -378 -215 -70 -22
-188 -32 -202 -18 -19 18 71 312 129 420 27 52 107 137 128 137 4 0 3 -17 -3
-37 -17 -62 6 -203 33 -203 15 0 40 60 45 108 5 42 -2 78 -30 143 -9 20 81 62
246 114 62 20 118 38 123 40 6 2 21 4 34 4 24 1 24 1 17 -81z m-1565 -205 c46
-23 97 -53 112 -65 l28 -23 -17 -40 c-20 -49 -15 -132 11 -171 l18 -28 17 22
c23 28 34 107 21 150 l-10 32 27 -19 c67 -49 183 -185 221 -258 31 -62 28 -70
-31 -88 -194 -57 -327 -39 -467 65 -152 113 -227 260 -202 395 12 66 30 77
117 73 60 -3 85 -10 155 -45z m827 -961 c5 -17 -27 -27 -41 -13 -9 9 -8 14 3
21 18 11 32 8 38 -8z"/>
</g>
</svg>
