<?xml version="1.0" encoding="utf-8"?>
<!-- Generator: Adobe Illustrator 21.0.2, SVG Export Plug-In . SVG Version: 6.00 Build 0)  -->
<svg version="1.1" id="Layer_1" xmlns="http://www.w3.org/2000/svg" xmlns:xlink="http://www.w3.org/1999/xlink" x="0px" y="0px"
	 viewBox="0 0 1232.3 184" style="enable-background:new 0 0 1232.3 184;" xml:space="preserve">
<style type="text/css">
	.st0{stroke:#D94952;stroke-width:15;stroke-miterlimit:10;}
</style>
<title>events</title>
<path class="st0" d="M304.7,13.6l-0.1,125.6c0,5.3,0,10.6,0,15.9c0,3.6-0.2,7.4,1,10.9c2,5.6,7.1,7.6,12.7,8
	c20.6,1.6,42-0.1,62.6-1.7c1.9-0.1,1.9-3.1,0-3c-19.2,1.5-38.4,2.1-57.7,1.8c-4.3-0.1-9.7,0.3-13-3.1c-3.2-3.3-2.7-8.8-2.7-12.9
	c0-9.3,0-18.6,0-27.9l0.1-113.6c0-0.8-0.7-1.5-1.6-1.4C305.4,12.1,304.7,12.8,304.7,13.6L304.7,13.6z"/>
<path class="st0" d="M309.3,92.9H356c0.8,0,1.5-0.7,1.4-1.6c0-0.8-0.7-1.4-1.4-1.4h-46.7c-0.8,0-1.5,0.7-1.4,1.6
	C307.9,92.2,308.5,92.8,309.3,92.9z"/>
<path class="st0" d="M303.1,13.1c20.8-1.5,41.7-1,62.4,1.5c1.9,0.2,1.9-2.8,0-3c-20.7-2.5-41.6-2.9-62.4-1.5
	C301.2,10.3,301.2,13.3,303.1,13.1z"/>
<path class="st0" d="M391,13.7c-10.2,47.3,19.6,89.1,37.9,130.2c2.5,5.7,4.9,11.4,6.9,17.3c1.2,3.5,1.7,9,4.6,11.6
	c6.7,6.1,11.6-8.7,13.4-12.5c10.1-21.3,18.5-43.3,25.4-65.9c7.6-25.2,13.1-51,16.5-77c0.3-1.9-2.8-1.9-3,0
	c-5.6,42.2-16.7,83.4-33.1,122.6c-2.1,4.9-4.2,9.8-6.5,14.7c-1,2.2-2.1,4.4-3.1,6.6c-0.8,1.7-2.3,6.9-3.9,7.8l-2.5-0.3
	c-1.8,0.5-2.7,0.1-2.8-1.4c-0.5-1.1-0.8-2.3-1.1-3.5c-0.7-2.3-1.5-4.6-2.4-6.9c-1.7-4.7-3.6-9.2-5.6-13.8
	c-8.3-18.9-18.7-36.7-26.9-55.7c-9.8-22.9-16.4-48.1-11.1-73C394.3,12.6,391.4,11.8,391,13.7L391,13.7z"/>
<path class="st0" d="M515.7,15.6l-0.1,125.6c0,5.3,0,10.6,0,15.9c0,3.6-0.2,7.4,1,10.9c2,5.6,7.1,7.6,12.7,8
	c20.6,1.6,42-0.1,62.6-1.7c1.9-0.1,1.9-3.1,0-3c-19.2,1.5-38.4,2.1-57.7,1.8c-4.3-0.1-9.7,0.3-13-3.1c-3.2-3.3-2.7-8.8-2.7-12.9
	c0-9.3,0-18.6,0-27.9l0.1-113.6c0-0.8-0.7-1.5-1.6-1.4C516.4,14.1,515.7,14.8,515.7,15.6L515.7,15.6z"/>
<path class="st0" d="M520.3,94.9H567c0.8,0,1.5-0.7,1.4-1.6c0-0.8-0.7-1.4-1.4-1.4h-46.7c-0.8,0-1.5,0.7-1.4,1.6
	C518.9,94.2,519.5,94.8,520.3,94.9z"/>
<path class="st0" d="M514.1,15.1c20.8-1.5,41.7-1,62.4,1.5c1.9,0.2,1.9-2.8,0-3c-20.7-2.5-41.6-2.9-62.4-1.5
	C512.2,12.3,512.2,15.3,514.1,15.1L514.1,15.1z"/>
<path class="st0" d="M618.4,13c0.1,52.3,1.7,104.6,4.7,156.9c0.1,1.9,3.1,1.9,3,0c-3.1-52.2-4.6-104.5-4.7-156.9
	c0-0.8-0.7-1.5-1.6-1.4C619.1,11.6,618.5,12.3,618.4,13z"/>
<path class="st0" d="M621,13.3c11.2,29.7,21.1,60.4,35.4,88.8c6.7,13.4,14.9,26,20.2,40.1c4.1,10.9,4,25.6,13.6,33.6
	c0.6,0.6,1.6,0.6,2.1,0c0.2-0.2,0.3-0.4,0.4-0.6c11.7-54.8,12.3-111.4,1.9-166.5c-0.4-1.9-3.2-1.1-2.9,0.8
	c10.3,54.6,9.6,110.6-1.9,164.9l2.5-0.7c-5.3-4.4-7.1-10.9-8.6-17.4c-1.4-6.4-3.4-12.7-5.9-18.8c-5.3-12.7-12.7-24.5-18.9-36.8
	c-14.2-28.2-24-58.6-35.1-88C623.2,10.7,620.3,11.5,621,13.3L621,13.3z"/>
<path class="st0" d="M759.2,19v153.3c0,0.8,0.7,1.5,1.6,1.4c0.8,0,1.4-0.7,1.4-1.4V19c0-0.8-0.7-1.5-1.6-1.4
	C759.8,17.6,759.2,18.3,759.2,19z"/>
<path class="st0" d="M717.9,18c28.7,0.7,57.5-1.6,85.7-6.8c1.9-0.3,1.1-3.2-0.8-2.9c-28,5.1-56.5,7.4-84.9,6.7
	C716,14.9,716,17.9,717.9,18L717.9,18z"/>
<path class="st0" d="M871.5,9.9c-18.4-6.9-37.1,3.3-47.4,18.7c-5.3,8-10.1,18.4-9.6,28.2c0.5,9.4,7.2,16.9,14,22.7
	c7.4,6.4,16.1,11.2,25.1,15.1c4.1,1.8,8.3,3.4,12.5,4.9c5.6,2,12.1,3.6,16.3,8.1c7.4,7.9,5.9,22.6,5.2,32.5
	c-0.8,11.2-4.6,21.7-14.7,27.5c-22.6,13.1-47-4.6-52.2-27.6c-0.4-1.9-3.3-1.1-2.9,0.8c3.8,17,17.3,32.5,35.4,34.1
	c18.4,1.6,33.8-10.7,36.7-28.8c1.5-9.3,1.9-20.2,0-29.5c-1.9-9.6-8.1-14.7-17-18c-10.5-3.9-21.1-7.6-30.9-13.3
	c-9.4-5.5-21.7-14.3-24.2-25.6c-2.8-12.8,6.3-28.6,15-37.4c9.8-10,24.3-14.7,37.7-9.6C872.5,13.4,873.3,10.5,871.5,9.9z"/>
</svg>
