<?xml version="1.0" encoding="utf-8"?>
<!-- Generator: Adobe Illustrator 21.0.2, SVG Export Plug-In . SVG Version: 6.00 Build 0)  -->
<svg version="1.1" id="Layer_1" xmlns="http://www.w3.org/2000/svg" xmlns:xlink="http://www.w3.org/1999/xlink" x="0px" y="0px"
	 viewBox="0 0 1232 184" style="enable-background:new 0 0 1232 184;" xml:space="preserve">
<style type="text/css">
	.st0{stroke:#000000;stroke-width:4;stroke-miterlimit:10;}
</style>
<title>olbestilling</title>
<path class="st0" d="M60.6,25.6c-11.1-3.9-22.8-0.2-31.5,7.2c-10.4,8.8-14.8,22.3-16.6,35.5c-3.5,26.2-2.3,58.5,14.8,80
	c15.4,19.5,42.4,27,63.1,10.9c23-17.9,25.2-48.6,22-75.4c-1.9-15.7-3.5-33.3-11.9-47.1c-6.8-11.3-19.4-19.5-33-17
	c-1.9,0.3-1.1,3.2,0.8,2.9c13.5-2.4,25.4,7.2,31.2,18.6c5.7,11.2,7.3,24.3,9,36.6c3.5,24.8,4.3,52.9-13.4,72.9
	C87.7,159,77.4,165,66,165.3c-11.6,0.3-22.6-5.2-30.9-13c-18.9-17.8-21.4-45.7-20.6-70.2C15,68.2,16.7,53.2,25,41.6
	c7.7-10.8,21.8-17.7,34.8-13.1C61.6,29.1,62.4,26.2,60.6,25.6z"/>
<path class="st0" d="M114.2,14.3C88.9,30.6,72.7,57.3,56.8,82c-18.5,28.7-35.7,58-51.9,88.1c-0.9,1.7,1.7,3.2,2.6,1.5
	c15.6-28.9,32.2-57.2,49.8-84.9c16.2-25.3,32.5-53.2,58.4-69.8C117.4,15.9,115.9,13.3,114.2,14.3L114.2,14.3z"/>
<path class="st0" d="M149.3,14.5l-4.2,151.1c0,0.8,0.7,1.5,1.5,1.5c28.8,1.3,57.7,0.9,86.4-1.2c1.9-0.1,1.9-3.1,0-3
	c-28.8,2.1-57.6,2.5-86.4,1.2l1.5,1.5l4.2-151.1C152.4,12.6,149.4,12.6,149.3,14.5L149.3,14.5z"/>
<path class="st0" d="M254.9,7.7l-4.1,150.1c-0.1,1.9,2.9,1.9,3,0l4.1-150.1C258,5.8,255,5.8,254.9,7.7L254.9,7.7z"/>
<path class="st0" d="M259.3,10.6c26.7-7.6,57.3,6.4,69.3,31.4c3.6,7.5,6,16.8,3.8,25.1c-2.1,8.2-8.6,13.4-16,16.8
	c-16.1,7.4-35.6,9.8-53.1,11.7l0.4,2.9c16.4-4.5,32.7-9,49.1-13.4c12.3-3.3,33.8-6.7,33.7,12.4c0,7.3-3.4,14.5-6.2,21.1
	c-2.5,5.7-5.2,11.4-8.3,16.9c-6.4,11.3-14.8,22.3-27.1,27.6c-16.6,7.2-37.9,3.1-54.6-1.9c-1.9-0.6-2.6,2.3-0.8,2.9
	c16.3,4.9,36.5,8.6,53.1,3.1c13.1-4.4,22.7-14.9,29.7-26.4c3.9-6.6,7.4-13.5,10.4-20.6c2.9-6.5,5.8-13.2,6.5-20.3
	c1.4-14.9-10.7-21.7-24.1-20.3c-9.6,1-19.1,4.4-28.4,6.9l-34,9.3c-1.6,0.4-1.3,3.1,0.4,2.9c16.1-1.7,32.8-4.3,48.2-9.5
	c11.3-3.9,22.3-10.8,24.3-23.6c3.9-24.4-17.1-47-38.1-55.5c-12.4-5.1-26.2-5.9-39.1-2.3c-0.8,0.2-1.2,1.1-1,1.9
	C257.7,10.3,258.5,10.7,259.3,10.6L259.3,10.6z"/>
<path class="st0" d="M367.5,15.9l-0.1,125.6c0,5.3,0,10.6,0,15.9c0,3.6-0.2,7.4,1,10.9c2,5.6,7.1,7.6,12.7,8
	c20.6,1.6,42-0.1,62.6-1.7c1.9-0.1,1.9-3.1,0-3c-19.2,1.5-38.4,2.1-57.7,1.8c-4.3-0.1-9.7,0.3-13-3.1c-3.2-3.3-2.7-8.8-2.7-12.9
	c0-9.3,0-18.6,0-27.9l0.1-113.6c0-0.8-0.7-1.5-1.6-1.4C368.2,14.5,367.5,15.1,367.5,15.9L367.5,15.9z"/>
<path class="st0" d="M372.1,95.2h46.7c0.8,0,1.5-0.7,1.4-1.6c0-0.8-0.7-1.4-1.4-1.4h-46.7c-0.8,0-1.5,0.7-1.4,1.6
	C370.6,94.6,371.3,95.2,372.1,95.2z"/>
<path class="st0" d="M365.9,15.5c20.8-1.5,41.7-1,62.4,1.5c1.9,0.2,1.9-2.8,0-3c-20.7-2.5-41.6-2.9-62.4-1.5
	C363.9,12.6,363.9,15.6,365.9,15.5z"/>
<path class="st0" d="M517.3,12.2c-18.4-6.9-37.1,3.3-47.4,18.7c-5.3,8-10.1,18.4-9.6,28.2c0.5,9.4,7.2,16.9,14,22.7
	c7.4,6.4,16.1,11.2,25.1,15.1c4.1,1.8,8.3,3.4,12.5,4.9c5.6,2,12.1,3.6,16.3,8.1c7.4,7.9,5.9,22.6,5.2,32.5
	c-0.8,11.2-4.6,21.7-14.7,27.5c-22.6,13.1-47-4.6-52.2-27.6c-0.4-1.9-3.3-1.1-2.9,0.8c3.8,17,17.3,32.5,35.4,34.1
	c18.4,1.6,33.8-10.7,36.7-28.8c1.5-9.3,1.9-20.2,0-29.5c-1.9-9.6-8.1-14.7-17-18c-10.5-3.9-21.1-7.6-30.9-13.3
	c-9.4-5.5-21.7-14.3-24.2-25.6c-2.8-12.8,6.3-28.6,15-37.4c9.8-10,24.3-14.7,37.7-9.6C518.3,15.8,519.1,12.9,517.3,12.2L517.3,12.2z
	"/>
<path class="st0" d="M589.9,23.4v153.3c0,0.8,0.7,1.5,1.6,1.4c0.8,0,1.4-0.7,1.4-1.4V23.4c0-0.8-0.7-1.5-1.6-1.4
	C590.6,22,590,22.6,589.9,23.4z"/>
<path class="st0" d="M548.7,22.3c28.7,0.7,57.5-1.6,85.7-6.8c1.9-0.3,1.1-3.2-0.8-2.9c-28,5.1-56.5,7.4-84.9,6.7
	C546.7,19.3,546.7,22.3,548.7,22.3L548.7,22.3z"/>
<path class="st0" d="M663.6,16v159c0,0.8,0.7,1.5,1.6,1.4c0.8,0,1.4-0.7,1.4-1.4V16c0-0.8-0.7-1.5-1.6-1.4
	C664.3,14.6,663.7,15.2,663.6,16z"/>
<path class="st0" d="M713.3,17.5l-4.2,151.1c0,0.8,0.7,1.5,1.5,1.5c28.8,1.3,57.7,0.9,86.4-1.2c1.9-0.1,1.9-3.1,0-3
	c-28.8,2.1-57.6,2.5-86.4,1.2l1.5,1.5l4.2-151.1C716.4,15.6,713.4,15.6,713.3,17.5L713.3,17.5z"/>
<path class="st0" d="M829.3,17.5l-4.2,151.1c0,0.8,0.7,1.5,1.5,1.5c28.8,1.3,57.7,0.9,86.4-1.2c1.9-0.1,1.9-3.1,0-3
	c-28.8,2.1-57.6,2.5-86.4,1.2l1.5,1.5l4.2-151.1C832.4,15.6,829.4,15.6,829.3,17.5L829.3,17.5z"/>
<path class="st0" d="M940.6,14v159c0,0.8,0.7,1.5,1.6,1.4c0.8,0,1.4-0.7,1.4-1.4V14c0-0.8-0.7-1.5-1.6-1.4
	C941.3,12.6,940.7,13.2,940.6,14z"/>
<path class="st0" d="M982.2,14.4c0.1,52.3,1.7,104.6,4.7,156.9c0.1,1.9,3.1,1.9,3,0c-3.1-52.2-4.6-104.5-4.7-156.9
	c0-0.8-0.7-1.5-1.6-1.4C982.9,13,982.2,13.6,982.2,14.4z"/>
<path class="st0" d="M984.7,14.7c11.2,29.7,21.1,60.4,35.4,88.8c6.7,13.4,14.9,26,20.2,40.1c4.1,10.9,4,25.6,13.6,33.6
	c0.6,0.6,1.6,0.6,2.1,0c0.2-0.2,0.3-0.4,0.4-0.6c11.7-54.8,12.3-111.4,1.9-166.5c-0.4-1.9-3.2-1.1-2.9,0.8
	c10.3,54.6,9.6,110.6-1.9,164.9l2.5-0.7c-5.3-4.4-7.1-10.9-8.6-17.4c-1.4-6.4-3.4-12.7-5.9-18.8c-5.3-12.7-12.7-24.5-18.9-36.8
	c-14.2-28.2-24-58.6-35.1-88C987,12.1,984.1,12.8,984.7,14.7L984.7,14.7z"/>
<path class="st0" d="M1172.8,6.9c-11.7-1.6-24.6-3.1-35.6,2.3c-11.8,5.7-17.5,19-22.7,30.3c-11.9,26-18.4,54.2-19.1,82.8
	c-0.2,11.4,0.7,23.5,6.1,33.7c5.1,9.6,14.1,15.7,24.5,18.1c12.1,2.7,25,1.3,37.1-0.3c11.3-1.6,20.1-6.8,25.6-17.1
	c3.1-6.1,4.9-12.7,5.4-19.6c0.4-4.2,0.5-8.5,0.4-12.7c0-3.3,0.4-7.2-0.7-10.4c-1.7-4.7-6.4-5.9-11-5.8c-8.5,0.1-17.1,1.5-25.5,2.3v3
	l27.4-2.8c4.5-0.5,9.2-1.2,13.7-1.4c2.9-0.1,4.7-0.7,5.4,3.5c0.3,1.8-0.4,4.3-0.6,6.2l-5.4,53.9c-0.2,1.9,2.8,1.9,3,0l3.2-32.3
	l1.6-15.7c0.4-4.3,1.8-9.5,1.1-13.8c-1.3-7.4-11.2-4.5-16.2-4l-33.3,3.4c-1.9,0.2-1.9,3.2,0,3l19.1-1.8c2.6-0.3,5.1-0.5,7.7-0.5
	c5,0.2,6.8,2.8,7.3,7.8c1.2,11.7,0.2,25.7-5.3,36.2c-2.5,5-6.3,9.1-11.1,12c-5.5,3.2-12.1,3.7-18.3,4.4c-10.3,1.1-21.1,1.9-31.3-0.7
	c-24-6.2-27.8-30.8-26.9-52.1c1-24.6,6.4-48.8,15.8-71.5c4.8-11.6,10.6-27,21.7-34c10.7-6.8,24.8-4.9,36.7-3.3
	C1174.7,10.2,1174.7,7.2,1172.8,6.9L1172.8,6.9z"/>
</svg>
