<svg id="Layer_1" data-name="Layer 1" xmlns="http://www.w3.org/2000/svg" width="176.0037" height="402.9991" viewBox="0 0 176.0037 402.9991"><defs><style>.cls-1,.cls-3,.cls-7,.cls-9{fill:#1d1d1b;}.cls-1,.cls-10,.cls-2,.cls-4,.cls-7,.cls-8,.cls-9{stroke:#1d1d1b;stroke-miterlimit:10;}.cls-1,.cls-10,.cls-2{stroke-width:0.25px;}.cls-2,.cls-6{fill:#c24854;}.cls-4,.cls-5,.cls-8{fill:#fff;}.cls-8,.cls-9{stroke-width:0.5px;}.cls-10{fill:#07381e;}.cls-11{fill:#ca9e67;}</style></defs><title>cat_crate</title><path class="cls-1" d="M130.0957,250.3826s3.65,30.5972,0,35.148.5936,28.6051.5936,28.6051,4.2116,27.63,1.5507,31.8557c0,0-5.0835,19.1275-3.0691,22.053s-15.1119-.8538-15.1119-.8538-1.4941-5.6366-2.9212-11.996c-1.619-7.2143-3.1517-15.3588-2.3189-17.2593,1.5668-3.5756-.3784-32.1807-.3784-32.1807s-4.3219-19.8285-2.0837-30.23-3.7-7.5184-3.7-7.5184-8.7245,3.3927-8.01,10.8567c0,0,2.0059,24.9437-.0208,29.0171s0,28.5131,0,28.5131-1.7718,31.4755-4.3216,31.4755-14.0029-2.5921-14.0029-2.5921-2.3449-25.5507-3.3649-28.1428.8035-29.624.8035-29.624-.7649-30.3646-2.2948-31.1052-1.6693-29.9905-1.6693-29.9905"/><path class="cls-2" d="M23.358,80.6791,44.7562,31.7339s.9674,1.5785.5776,2.3581S43.7176,39.89,43.7176,39.89l-1.6968,8.8185.2838,16.1.6587,13.9424s.2326,3.4425,4.3093,3.2643,13.1605-.7125,13.1605-.7125,3.3842.1781,1.603-5.3434,4.9872-7.1246,4.9872-7.1246a9.7434,9.7434,0,0,1,0,8.1933c-1.9593,4.8091,10.1525-23.333,14.7835-25.6485,0,0-1.0687,5.4756,0,5.4986,0,0-7.0326,12.2428-6.3085,14.1437S85.8626,56.8777,85.8626,56.8777s6.97-9.9339,9.8664-7.6257S82.8756,74.28,82.8756,74.28s10.01-11.2288,12.42-8.8186-3.3474,8.8372-3.3474,8.8372,12.1847-1.4729,18.4779-9.7745,15.666-32.1354,16.8711-32.9388,12.8542-22.227,12.8542-22.227-5.5657,35.4458-1.236,36.3316-2.7061,52.5719-11.0949,54.7367c0,0-4.6,26.79-45.7327,36.8026s-47.627-7.577-47.627-7.577-1.353-4.0591-7.577-4.33S14.3978,101.1744,23.358,80.6791Z"/><path class="cls-3" d="M72.7427,75.2786a9.2944,9.2944,0,0,0-1.7905,1.9068,5.3,5.3,0,0,0-.5829,1.1289,2.8979,2.8979,0,0,0-.1531,1.2l.001.0437-.0068.0352c-.1307.676-.2353,1.3685-.3114,2.0566-.0843.688-.1528,1.3767-.1774,2.0639-.0016.3422-.0163.6865.0088,1.0243a8.7643,8.7643,0,0,0,.1005,1.0024,4.6171,4.6171,0,0,0,.265.9251,4.3329,4.3329,0,0,0,.2176.3889c.0826.1156.1877.1964.2748.3045l-.5487.1228c.5288-.9651,1.069-1.9172,1.6353-2.8607.283-.4715.5717-.94.8794-1.4018.15-.2331.3178-.456.491-.68a3.1472,3.1472,0,0,1,.6422-.66l.4089-.29.0081.5119a9.0569,9.0569,0,0,0,.1375,1.4676,2.1427,2.1427,0,0,0,.5336,1.2286.4914.4914,0,0,0,.5542-.0337A2.3473,2.3473,0,0,0,75.883,84.3a10.7885,10.7885,0,0,0,.9193-1.1993,7.8681,7.8681,0,0,1-.7775,1.3192,2.5577,2.5577,0,0,1-.5547.5671.996.996,0,0,1-.3977.1809.69.69,0,0,1-.4725-.0771,1.37,1.37,0,0,1-.542-.6687,4.47,4.47,0,0,1-.2556-.7563,9.5183,9.5183,0,0,1-.2429-1.5459l.4168.2219a1.7507,1.7507,0,0,0-.2223.2415c-.08.0908-.1534.2064-.2294.3115-.15.2168-.2905.4457-.4358.6726-.2893.4542-.5648.9225-.8346,1.394-.54.9427-1.0588,1.9038-1.5608,2.8669l-.23.4418-.3187-.3189a4.0058,4.0058,0,0,1-.4416-.4621,4.5853,4.5853,0,0,1-.2859-.5328,5.3141,5.3141,0,0,1-.2933-1.0994,11.7385,11.7385,0,0,1-.0748-2.1717A21.0363,21.0363,0,0,1,69.73,79.479l-.0058.0785a3.3444,3.3444,0,0,1,.2611-1.3912,4.5463,4.5463,0,0,1,.7271-1.1608A8.1526,8.1526,0,0,1,72.7427,75.2786Z"/><path class="cls-4" d="M80.5648,109.0424s3.0694-16.9314,8.8122-23.6643,25.9416-11.3866,25.9416-11.3866,1.252,14.3984-6.5322,24.1225C108.7865,98.1139,93.4366,111.4187,80.5648,109.0424Z"/><path class="cls-5" d="M94.6648,81.2963c.3514,7.367.4859,7.302,0,12.7182"/><path class="cls-3" d="M94.6648,81.2963l.1147.1376a4.4739,4.4739,0,0,1,.3071.39,9.9037,9.9037,0,0,1,.8284,1.4026,11.1127,11.1127,0,0,1,1.0478,4.3764,10.0493,10.0493,0,0,1-.2342,2.46,8.6818,8.6818,0,0,1-1.6195,3.4415,4.3918,4.3918,0,0,1-.3236.3777l-.1207.1329-.0956-.1521a4.4872,4.4872,0,0,1-.2528-.4277,10.4406,10.4406,0,0,1-.64-1.4923,15.171,15.171,0,0,1-.7118-4.23,12.19,12.19,0,0,1,.6457-4.3707,9.5107,9.5107,0,0,1,.6856-1.4795,4.4731,4.4731,0,0,1,.2678-.4178Z"/><path class="cls-4" d="M64.1584,110.0885s-14.5374,6.4739-24.1358-1.25c0,0-14.4077-8.2736-9.7585-22.4462,0,0,6.7489-4.5742,19.9466,6.074S64.1584,110.0885,64.1584,110.0885Z"/><line class="cls-5" x1="49.496" y1="92.0028" x2="49.696" y2="103.2489"/><path class="cls-3" d="M49.496,92.0027l.11.1244a4.0119,4.0119,0,0,1,.2941.3518,8.2784,8.2784,0,0,1,.78,1.26,9.23,9.23,0,0,1,.9146,3.8508,9.13,9.13,0,0,1-.7716,3.8808,8.2043,8.2043,0,0,1-.7386,1.2875,3.9765,3.9765,0,0,1-.2829.3621l-.1064.1282-.1108-.1244a3.9778,3.9778,0,0,1-.2956-.3518,8.2068,8.2068,0,0,1-.7838-1.26,9.13,9.13,0,0,1-.9091-3.8509,9.2307,9.2307,0,0,1,.7772-3.8809,8.28,8.28,0,0,1,.7352-1.2874,4.0033,4.0033,0,0,1,.2814-.362Z"/><line class="cls-6" x1="65.0727" y1="126.1968" x2="77.7371" y2="132.7186"/><path class="cls-3" d="M65.0727,126.1968a13.86,13.86,0,0,1,2.2405.5109,26.7842,26.7842,0,0,1,4.5494,1.8613,26.4883,26.4883,0,0,1,4.1586,2.62,13.7461,13.7461,0,0,1,1.7159,1.53,13.7444,13.7444,0,0,1-2.2417-.5086,26.4882,26.4882,0,0,1-4.5482-1.8636A26.7859,26.7859,0,0,1,66.79,127.724,13.8587,13.8587,0,0,1,65.0727,126.1968Z"/><line class="cls-6" x1="76.641" y1="123.4895" x2="68.8663" y2="135.4258"/><path class="cls-3" d="M76.641,123.4895a13.86,13.86,0,0,1-.7358,2.177,26.7863,26.7863,0,0,1-2.3138,4.3368,26.4906,26.4906,0,0,1-3.0291,3.8708,13.744,13.744,0,0,1-1.6959,1.5517,13.748,13.748,0,0,1,.7337-2.1784,26.4909,26.4909,0,0,1,2.316-4.3354,26.7861,26.7861,0,0,1,3.0313-3.8694A13.86,13.86,0,0,1,76.641,123.4895Z"/><path class="cls-7" d="M64.1584,132.7186a5.6587,5.6587,0,0,1,3.6484,0,4.6318,4.6318,0,0,0,2.2346-1.3375c.7-.9441,8.2833.1523,8.2833.1523s3.9285-3.7153,8.1615-3.5021a6.3541,6.3541,0,0,1,5.6034,3.3194,9.5572,9.5572,0,0,1-4.5474,2.2417,9.9091,9.9091,0,0,0-4.2912,1.8335s-4.0991,4.187-17.357,1.8172C65.8942,137.243,60.8215,134.791,64.1584,132.7186Z"/><path class="cls-5" d="M67.3475,133.4144h1.802s.0162,2.2566-.901,2.3215S67.3475,133.4144,67.3475,133.4144Z"/><path class="cls-5" d="M72.234,132.7186a.714.714,0,0,1,0,1.0043S71.6982,133.1429,72.234,132.7186Z"/><path class="cls-5" d="M80.2581,131.9476s.9136.8565.78.99c0,0-1.6748,1.2755-2.5123-.2187A2.8917,2.8917,0,0,1,80.2581,131.9476Z"/><path class="cls-2" d="M66.663,140.1487s12.6893,7.0182,21.4572-4.4116l-10.5644,2.5147Z"/><path class="cls-1" d="M110.2127,255.4135c-1.3835-1.3634-10.1289-8.7419-24.6628-.916s-21.9872-4.0993-21.9872-4.0993-5.5343-32.7944,1.1736-35.4031c0,0-13.986-8.7194-11.18-12.23s6.5765.91,6.5765.91-9.5-7.9661-11.1813-13.5216c0,0,1.3-9.4911,0-13.0016a38.2278,38.2278,0,0,1-1.679-8.581s-3.1315-.78-4.9517,1.04-.5222-3.1516-.5222-3.1516-7.2587.8914-7.0677-4.5208c0,0,1.9739-6.622,5.6669-6.94a41.535,41.535,0,0,1,6.8748,0,41.72,41.72,0,0,0,3.8223-3.4383s-10.4424-3.7567-11.1428-5.6032-6.096-9.5594-6.096-9.5594.205-1.5035,2.87,0c0,0,12.61,5.5349,14.83,4.579s15.5138,2.1186,15.5138,2.1186l4.3342-1.2715a16.8025,16.8025,0,0,0,12.4806-2.0521c6.3736-3.8433,21.3738-4.3459,21.3738-4.3459s14.3618,1.62,14.0427,11.6729c0,0-3.0319,1.5958.9575,5.1064s4.8461,3.1207,4.8461,3.1207a8.8805,8.8805,0,0,0,4.1389-.9933c2.5661-1.1589,7.2844.0828,7.2844.0828s2.0694,1.4072,0,3.5594c0,0-2.9127,2.0861-2.6828,2.9678s-1.955,1.2266-1.955,1.2266h-5.6364s1.61,1.84.92,3.6809c0,0,.726,2.5238-.1287,3.1774,0,0-1.2439-1.3713-1.604-1.0491s2.0418,7.3,3.0892,7.1451c0,0,1.1444-.0771.796-.815l-1.6524-3.31.6488-.6859,2.6023,4.8138s1.83,3.38-1.9913,3.8107c0,0,0,2.4757-1.2917,2.3143a2.6891,2.6891,0,0,1-1.83-.9149s1.2917,7.1042,3.283,10.8178c0,0,6.0278,10.5487,4.5209,12.7553a9.9859,9.9859,0,0,1-2.4757,3.6059s1.9913,5.92,1.3993,6.1355-2.9688,1.1147-2.4983,1.7028,9.7548,34.58,7.4062,37.05c0,0-9.5233,3.2933-9.5233,4.1166,0,0-1.7643,1.7643-5.2928,1.0586l-.1932.5028s-4.9305-1.5952-6.284-1.5468"/><path class="cls-2" d="M38.6589,143.6115S27.1617,157.05,28.1523,159.0309c0,0,5.5426,15.7149,1.0536,19.9489,0,0-19.3739,15.811-13.7035,24.7891s20.4028,17.47,20.4028,17.47,7.725,4.67,11.3673,5.0032H60.6414s14.3175-2.1656,13.4608-4.0694-8.8527.19-8.8527.19,9.8046-.6663,10.5661-2.57-10.2806-.19-10.2806-.19,11.518-.6663,11.1373-2.57-10.9469.2856-10.9469.2856,10.9654-.6663,10.9561-2.6653-11.7177-.8567-11.7177-.8567l-4.8547,2.2846-7.6939,2.4533s-26.7306-14.58-27.46-17.4964S31.2738,186.7,36.8629,183.7841l4.7338-13.7877a4.4834,4.4834,0,0,1,.2019-3.5366c-6.0835.46-7.3594-2.142-7.0677-4.5208.36-2.9353,2.8691-6.05,4.0037-6.5276,3.1775-1.3375,8.5379-.4127,8.5379-.4127l3.8223-3.4383c-5.5227-1.4461-11.1428-5.6032-11.1428-5.6032Z"/><path class="cls-2" d="M118.2779,142.2809s15.077.78,15.5482,4.7853,6.4061,5.1827,6.4061,5.1827,4.6661,6.125,1.8391,17.1972S159.033,206.432,159.033,206.432s16.4684,13.2616,7.5164,22.2136c0,0-9.03,3.385-16.912,4.1015H134.2313l-6.7374,3.174s-5.1992,2.7633-5.7336,1.2365,7.2986-4.6387,7.2986-4.6387-11.2986,5.2857-12.6152,2.36c-.9382-2.0849,2.2325-1.9781,11.8518-4.9555,0,0-14.0884,2.6334-14.3537,1.3069-.3127-1.5637,11.529-4.2843,12.9032-3.8262,0,0-9.5441.7341-12.9032,1.1158s.4585-3.7118,5.4209-4.17,14.1242,1.7563,14.1242,1.7563,16.3375-.4581,17.0246-1.9086c0,0,10.3064.3054,9.0849-1.3742s-6.8232-8.9347-6.8232-8.9347-11.94-4.6433-12.6032-16.9812c0,0,.398-4.1126,1.3267-5.3066,0,0-8.6453-11.16-10.5522-15.4259-1.26-2.8187-2.9458-11.9938-2.9458-11.9938l-1.9174-2.6364S109.9953,152.257,118.2779,142.2809Z"/><line class="cls-6" x1="111.7531" y1="228.2792" x2="113.2898" y2="227.9054"/><path class="cls-5" d="M111.7531,228.2792a1.3257,1.3257,0,0,1,.1895-.2667,1.0038,1.0038,0,0,1,1.0562-.2579.2174.2174,0,1,1,.1018.4184,1.0038,1.0038,0,0,1-1.0567.256A1.3259,1.3259,0,0,1,111.7531,228.2792Z"/><line class="cls-6" x1="112.8778" y1="231.4921" x2="114.4145" y2="231.1183"/><path class="cls-5" d="M112.8778,231.4921a1.3275,1.3275,0,0,1,.1895-.2667,1.004,1.004,0,0,1,1.0562-.2579.2174.2174,0,1,1,.1018.4185,1.0039,1.0039,0,0,1-1.0567.256A1.3268,1.3268,0,0,1,112.8778,231.4921Z"/><line class="cls-6" x1="115.2438" y1="234.827" x2="116.8252" y2="234.8147"/><path class="cls-5" d="M115.2438,234.827a1.327,1.327,0,0,1,.2454-.2162,1.0039,1.0039,0,0,1,1.0872-.0095.2174.2174,0,1,1,.0034.4306,1.0039,1.0039,0,0,1-1.0873.0075A1.3262,1.3262,0,0,1,115.2438,234.827Z"/><line class="cls-6" x1="120.5653" y1="237.6176" x2="122.093" y2="237.2087"/><path class="cls-5" d="M120.5653,237.6176a1.3263,1.3263,0,0,1,.1833-.2709,1.0039,1.0039,0,0,1,1.05-.282.2174.2174,0,1,1,.1113.416,1.004,1.004,0,0,1-1.0506.28A1.3261,1.3261,0,0,1,120.5653,237.6176Z"/><path class="cls-8" d="M82.9538,157.7542s6.8042-1.5464,11.0568,1.0825,5.3351,9.5877,5.3351,9.5877.5412,4.1753-2.32,6.1083c0,0-1.4691,2.2423,2.01,2.3969s7.3454-.7732,8.5053,2.7835-9.1238,2.6289-9.1238,2.6289a10.0744,10.0744,0,0,0,2.9382,6.8042s2.2423,1.4691-1.3918,3.2475c0,0-3.2475.7552-3.2475-2.4446,0,0-.1546-1.9627-2.7062-.4936a46.9889,46.9889,0,0,1,1.7784,4.9485c.3866,1.6237-3.9433,0-3.9433,0s0-3.884-1.5464-4.4549-.232,5.1766-.232,5.1766-.232,1.0567-3.7887,1.0567c0,0-1.7784-.7732-.8505-4.098,0,0-.9278-2.0877-2.01,0,0,0,2.01,5.3351-.9278,5.1032s-1.3918-4.9485-1.3918-4.9485-1.3144-1.6237-2.3969-.4639c0,0,1.16,4.8086-1.0825,5.42s-1.933-4.7239-1.933-4.7239-.8505-4.098,1.0052-5.3351c0,0-1.8557-1.4691-6.1083,0s-1.7011-4.7166-1.7011-4.7166,1.4691-2.0877,5.8764-3.0155c0,0,1.3144.1546,1.0825-2.8609S69.3454,162.0842,82.9538,157.7542Z"/><path class="cls-9" d="M81.8157,167.77c2.407-.2725,4.8692,7.01.6216,9.6694C80.3842,178.7248,76.3249,168.3917,81.8157,167.77Z"/><path class="cls-9" d="M89.5512,162.9354c-3.5915-.0027-4.2821,8.53.2417,10.36.97.3926,2.84.439,3.6951-1.9684C94.399,168.7612,93.2424,162.9382,89.5512,162.9354Z"/><path class="cls-9" d="M84.0667,182.8515s1.111-3.9842,4.1374-3.8693a3.1741,3.1741,0,0,1,1.3025,4.2524s-.5746.498-1.4175-1.609c0,0-1.4175,2.6434-2.6051,3.3713S84.0667,182.8515,84.0667,182.8515Z"/><path class="cls-10" d="M93.9325,355.1947l-2.9212,11.996v22.243H53.6823s-13.2649-3.7542-10.2615-7.0079,1.2436-8.2593,28.5281-5.7565l2.95-8.6249s.2269-9.7195-.2746-13.0866Z"/><path class="cls-3" d="M77.6128,358.9454H75.6a1.016,1.016,0,0,0-.9471.43c-.1416.299.1244.5576.428.5576h2.0127a1.016,1.016,0,0,0,.9471-.43c.1416-.299-.1244-.5576-.428-.5576Z"/><path class="cls-3" d="M78.3209,362.2371a23.4589,23.4589,0,0,1-2.7853-.0893,1.056,1.056,0,0,0-.9519.4123c-.163.3112.1413.4652.41.49a23.459,23.459,0,0,0,2.7853.0893,1.0929,1.0929,0,0,0,.9519-.4123c.1512-.2886-.13-.4974-.41-.49Z"/><path class="cls-3" d="M79.0572,365.32H75.9608a1.6539,1.6539,0,0,0-1.0245.2745c-.1789.1555-.2346.35.0937.35h3.0964a1.6539,1.6539,0,0,0,1.0245-.2745c.1789-.1555.2346-.35-.0937-.35Z"/><path class="cls-3" d="M78.6664,367.6844a8.26,8.26,0,0,1-3.4253-.3833c-.5629-.1838-1.7045.6316-.8545.9091a10.0319,10.0319,0,0,0,4.1265.4428c.7745-.0759,1.1477-1.066.1533-.9686Z"/><path class="cls-3" d="M77.3076,370.0317H74.6757a1.0406,1.0406,0,0,0-.949.4232c-.1463.2972.1271.5313.4209.5313H76.78a1.0406,1.0406,0,0,0,.949-.4232c.1463-.2972-.1271-.5313-.4209-.5313Z"/><path class="cls-3" d="M76.6219,372.7821H73.9126a1.1094,1.1094,0,0,0-.9535.4061c-.1584.2916.1353.4662.4035.4662h2.7094a1.1094,1.1094,0,0,0,.9535-.4061c.1584-.2916-.1353-.4662-.4035-.4662Z"/><path class="cls-3" d="M76.47,375.1932h-3.406c-.297,0-.81.0955-.9548.4014-.1389.2929.1184.4482.3986.4482h3.406c.297,0,.81-.0955.9548-.4014.1389-.2929-.1184-.4482-.3986-.4482Z"/><path class="cls-11" d="M91.0113,389.4337c-3.1107.3319-6.2215.5159-9.3322.6786q-4.6661.2107-9.3322.2817c-3.1107.0362-6.2215.0479-9.3322.0054q-4.6661-.0592-9.3322-.2615l-.148-.0065-.0836-.0327c-.7755-.3033-1.5311-.6373-2.2925-.9645-.76-.3293-1.5169-.6649-2.2629-1.0289-.7476-.3594-1.4943-.7206-2.2206-1.1287-.3631-.203-.729-.4-1.0774-.6325a5.9283,5.9283,0,0,1-.9926-.7574,5.81,5.81,0,0,0,1.1083.5324c.382.148.766.2928,1.1545.4257l2.34.7726,4.7064,1.4511-.2312-.0391q4.6661-.204,9.3322-.2615c3.1107-.0425,6.2215-.0308,9.3322.0054q4.6661.0782,9.3322.2817C84.79,388.9178,87.9006,389.1018,91.0113,389.4337Z"/><path class="cls-10" d="M130.5987,354.9579s-1.0934,9.83-1.4277,13.0866l-.7145,21.3892H91.57s-12.3966-3.7542-9.59-7.0079,1.1622-8.2593,26.6606-5.7565l2.7568-8.6249s.2121-9.7195-.2567-13.0866Z"/><path class="cls-3" d="M113.9508,358.9454H112.07a1.016,1.016,0,0,0-.9471.43c-.1416.299.1244.5576.428.5576h1.8809a1.016,1.016,0,0,0,.9471-.43c.1416-.299-.1244-.5576-.428-.5576Z"/><path class="cls-3" d="M114.4291,362.2423a19.0821,19.0821,0,0,1-2.4189-.0945,1.0544,1.0544,0,0,0-.9519.4123c-.1637.3124.142.4635.41.49a21.9073,21.9073,0,0,0,2.7871.0842c.2685-.0078.7793-.2089.8146-.5244.0394-.3517-.4015-.3744-.6408-.3674Z"/><path class="cls-3" d="M115.3141,365.32H112.42a1.6975,1.6975,0,0,0-1.0245.2745c-.1887.153-.2267.35.0937.35h2.8937a1.6975,1.6975,0,0,0,1.0245-.2745c.1887-.153.2267-.35-.0937-.35Z"/><path class="cls-3" d="M114.9234,367.6843a7.18,7.18,0,0,1-3.1781-.3833c-.561-.196-1.7.6136-.8545.9091a8.86,8.86,0,0,0,3.8793.4428c.2885-.03.7728-.2058.8072-.5522s-.3886-.4442-.6539-.4164Z"/><path class="cls-3" d="M113.6658,370.0317h-2.46a1.0406,1.0406,0,0,0-.949.4232c-.1463.2972.1271.5313.4209.5313h2.46a1.0406,1.0406,0,0,0,.949-.4232c.1463-.2972-.1271-.5313-.4209-.5313Z"/><path class="cls-3" d="M113.0258,372.7821h-2.532a1.1094,1.1094,0,0,0-.9535.4061c-.1584.2916.1353.4662.4035.4662h2.532a1.1094,1.1094,0,0,0,.9535-.4061c.1584-.2916-.1353-.4662-.4035-.4662Z"/><path class="cls-3" d="M112.8841,375.1932H109.701c-.297,0-.81.0955-.9548.4014-.1389.2929.1184.4482.3986.4482h3.1831c.297,0,.81-.0955.9548-.4014.1389-.2929-.1184-.4482-.3986-.4482Z"/><path class="cls-11" d="M126.4552,389.4337c-2.9071.3311-5.8142.5151-8.7214.6774-2.9071.141-5.8142.2295-8.7213.2827-2.9072.0353-5.8143.0488-8.7214.0062q-4.3607-.0575-8.7214-.2585l-.1576-.0074-.0895-.0371c-.7277-.3022-1.4326-.6388-2.1446-.9664-.71-.3309-1.4177-.6656-2.1131-1.03-.6969-.3607-1.3935-.7213-2.068-1.13-.3371-.2036-.6776-.4-.9993-.6318a5.4532,5.4532,0,0,1-.9114-.7519,5.3376,5.3376,0,0,0,1.0346.5284c.3572.1484.7176.292,1.0817.4254l2.1953.7737,4.4185,1.4563-.2467-.0444q4.3607-.2031,8.7214-.2585c2.9071-.0426,5.8142-.0291,8.7214.0062,2.9071.0532,5.8142.1417,8.7213.2827C120.641,388.9186,123.5481,389.1026,126.4552,389.4337Z"/></svg>
