<?xml version="1.0" encoding="utf-8"?>
<!-- Generator: Adobe Illustrator 21.0.2, SVG Export Plug-In . SVG Version: 6.00 Build 0)  -->
<svg version="1.1" id="Layer_1" xmlns="http://www.w3.org/2000/svg" xmlns:xlink="http://www.w3.org/1999/xlink" x="0px" y="0px"
	 viewBox="0 0 296.5 295.8" style="enable-background:new 0 0 296.5 295.8;" xml:space="preserve">
<style type="text/css">
	.st0{fill:#010101;}
	.st1{fill:#E3187F;}
	.st2{fill:#E31880;}
	.st3{fill:#F6C6DE;}
	.st4{fill:#FFFFFF;}
	.st5{fill:#FEFEFE;}
	.st6{fill:#FAFAFA;}
	.st7{fill:#FCFCFC;}
	.st8{fill:#FBFBFB;}
	.st9{fill:#F8F9F9;}
	.st10{fill:#FAF9FA;}
	.st11{fill:#F0EFEF;}
	.st12{fill:#F1F1F1;}
	.st13{fill:#F5F4F4;}
	.st14{fill:#EDEDEC;}
	.st15{fill:#EBEBEB;}
	.st16{fill:#E2E1E1;}
	.st17{fill:#EEEEED;}
	.st18{fill:#E7E6E6;}
	.st19{fill:#F3F3F3;}
	.st20{fill:#EDECEC;}
	.st21{fill:#F2F2F2;}
	.st22{fill:#E5E5E5;}
	.st23{fill:#E0E0E0;}
	.st24{fill:#EEEEEE;}
	.st25{fill:#E6E6E6;}
	.st26{fill:#D9D9D9;}
	.st27{fill:#DEDEDD;}
	.st28{fill:#EAEAEA;}
	.st29{fill:#5A5A5A;}
	.st30{fill:#DFDFDE;}
	.st31{fill:#7C7D7D;}
	.st32{fill:#7A7A7B;}
	.st33{fill:#373837;}
	.st34{fill:#C5C5C5;}
	.st35{fill:#D1D1D1;}
	.st36{fill:#BCBBBB;}
	.st37{fill:#9D9D9D;}
	.st38{fill:#C4C4C4;}
	.st39{fill:#B1B1B0;}
	.st40{fill:#A8A8A8;}
	.st41{fill:#757575;}
	.st42{fill:#787878;}
	.st43{fill:#C9C7C8;}
	.st44{fill:#D5D5D5;}
	.st45{fill:#C8C7C7;}
	.st46{fill:#AAAAAA;}
	.st47{fill:#8D8D8D;}
	.st48{fill:#3A3A3A;}
	.st49{fill:#CECDCD;}
	.st50{fill:#A5A4A4;}
	.st51{fill:#252525;}
	.st52{fill:#A0A0A0;}
	.st53{fill:#A09F9F;}
	.st54{fill:#828282;}
	.st55{fill:#6B6B6A;}
	.st56{fill:#111111;}
	.st57{fill:#8C8B8B;}
	.st58{fill:#979797;}
	.st59{fill:#707070;}
	.st60{fill:#7B7B7B;}
	.st61{fill:#C1C0C0;}
	.st62{fill:#C2C2C1;}
	.st63{fill:#A9A8A8;}
	.st64{fill:#727272;}
	.st65{fill:#5E5E5E;}
	.st66{fill:#757475;}
	.st67{fill:#605F5F;}
	.st68{fill:#E7E6E7;}
	.st69{fill:#1F1F1F;}
	.st70{fill:#D6D5D5;}
	.st71{fill:#1B1B1B;}
	.st72{fill:#373737;}
	.st73{fill:#D2D2D2;}
	.st74{fill:#8A8A8A;}
	.st75{fill:#040505;}
</style>
<title>Funk</title>
<path class="st0" d="M117.2,287.7c-11.2,0-20.2,0.4-29.2-0.4c-14.7-1.4-28.7-5-41.4-12.6c-16.9-10-26.8-25-30.1-44.2
	c-4.9-28.5-0.3-56,9.9-82.8c5.3-13.9,13.4-25.1,26.5-32.4c6.7-3.8,13.8-6.3,21-8.9c12.3-4.6,25-5.4,37.8-4.5
	c12.6,0.8,25.2,0.7,37.8,1.3c8,0.3,16,1.8,23.6,4.3c15.7,5.5,26.3,16.2,31.6,32c2,6.1,3.9,12.3,6.5,18.2c3.3,7.7,4.4,15.8,5.1,24.1
	c1.2,16-0.1,31.8-5.4,47c-5.1,14.8-13.6,28.2-24.7,39.2c-10.9,11-24.5,16.5-39.6,18.7C136,288.3,125.5,287.5,117.2,287.7z"/>
<path class="st1" d="M260,102.1c7.8,3.9,15.2,7.6,22.7,11.4c3,1.5,3.4,3.9,1,5.8c-1.4,1.1-2.9,0.7-4.4,0c-5.8-2.9-11.6-5.7-17.4-8.7
	c-1.8-0.9-2.3-0.7-2.8,1.3c-2.4,9.4-7.7,16.2-17.2,19.2c-1.6,0.5-3,0.6-4.1-1c-1.4-2-0.8-4,1.5-5.1c2-0.8,4-1.7,5.8-2.9
	c4.5-3.1,7.4-8.1,7.8-13.6c0.2-2.6-0.1-2.7-2.3-1.5c-5.1,2.7-10.3,5.3-15.4,7.9c-1.8,0.9-3.4,1.1-4.6-0.8c-1.4-2.1-1-3.7,1.6-5
	c6.4-3.4,12.8-6.8,19.2-10.2l23.8-12.5c1-0.6,2.1-1.1,3.1-1.5c2-0.8,3.7-0.2,4.4,1.6c0.8,1.4,0.3,3.3-1.2,4.1
	c-0.1,0.1-0.2,0.1-0.4,0.2c-4.6,2.4-9.3,4.9-13.9,7.4L260,102.1z"/>
<path class="st1" d="M233.7,75.8c-2.3,2.1-4.3,4.5-5.8,7.2c-1.4,2.2-2.6,4.6-3.9,6.8c-0.9,1.6-2,2.8-4.1,1.8c-1.7-0.6-2.6-2.4-2-4.1
	c0.1-0.2,0.1-0.4,0.2-0.5c2.7-5.9,6.2-11.4,10.6-16.2c4-4.5,8.5-8.5,13.6-11.8c1.6-1.1,3.2-2,5-0.4c2,1.7,1.3,3.5,0.2,5.4
	c-4,6.3-6.8,13.3-8.3,20.7c1,0.6,1.9-0.1,2.8-0.5c6.7-2.8,13.5-5.3,20.7-6.5c0.6-0.1,1.2-0.2,1.8-0.2c2.6-0.1,3.7,0.7,4,3.1
	c0.3,1.9-0.7,3-3.2,3.4c-9.4,1.7-18.5,5-26.8,9.7c-0.6,0.4-1.3,0.8-2,1.1c-3,1.2-5.6-0.7-5.1-3.9c0.7-4.2,1.5-8.3,2.3-12.5
	C233.8,77.4,233.9,76.6,233.7,75.8z"/>
<path class="st2" d="M204.1,36.4l-15.2-10.5c-2.8-2-4.2-1.7-6,1.3c-1.5,2.4-3.2,4.7-5.1,6.9c-0.6,0.7-1.2,1.4-1.7,2.2
	c-2.1,3.1-1.6,5.2,1.6,7.1c2.2,1.3,4.7,2.3,6.7,4.1c0.8,0.6,1.4,1.4,1.6,2.4c0.1,1.3-0.4,2.5-1.5,3.2c-0.9,0.7-2.3,0.8-3.2,0.1
	c-2.3-1.3-4.5-2.8-6.8-4c-3.4-1.9-5.1-1.6-7.6,1.5c-1.6,1.9-2.9,4-4.5,5.8s-4,1.7-5.5-0.3c-1.3-1.7-0.2-3,0.7-4.4
	c4.3-6.2,8.6-12.3,12.8-18.4c2.9-4.2,5.8-8.6,8.8-12.8c3.4-4.8,6.4-4.7,10.3-2.2c6,3.9,11.8,7.9,17.6,11.9c0.7,0.4,1.3,1.1,1.6,1.9
	C209.2,36,207.5,37.5,204.1,36.4z"/>
<path class="st1" d="M210.6,35c1.3-0.7,2.7-1.2,4.1-1.4c1.4-0.2,2.7,0.6,3.1,1.9c0.7,1.3,0.3,2.9-0.9,3.7c-1.9,1.3-3.9,2.5-5.9,3.7
	c-4.3,2.8-7.5,6.4-8.5,11.6c-0.8,3.5,0.4,7.1,3.2,9.3c2.7,2.3,5.8,2.2,8.9,0.9c4.6-1.9,7.5-5.5,9.4-10c1.2-2.9,2.1-5.9,3.2-8.9
	c0.9-2.7,2-3.4,4.1-2.9c2.3,0.5,2.8,2.3,2.5,4.3c-1,8.2-5.4,14.6-11.2,20.2c-3.1,3-7.3,4.7-11.7,4.8c-7.9,0.3-14.8-6.3-15.2-14.2
	c-0.4-8.2,3.4-14.2,9.3-19.2C206.6,37,208.5,35.8,210.6,35z"/>
<path class="st3" d="M210.6,35c-1.7,1.5-3.6,2.7-5.6,3.7c0.2-1-0.6-1.6-0.9-2.3c4-0.3,4.7-0.9,4.7-4.2
	C209.9,32.8,208.3,35.2,210.6,35z"/>
<path class="st4" d="M92.4,196.3c0.1-4.5,1.8-8.9,4.8-12.2c5.4-6.2,12.4-9.3,20.4-9.9c5.3-0.5,10.2,2.8,11.8,7.8
	c1.8,5.1,2.7,10.4,2.6,15.8c-0.1,7.6-3.1,10.8-10.7,11.9c-5.6,0.8-11.1,1.5-16.7,2.3c-2.4,0.4-4.8-0.4-6.4-2.3
	C94.7,206.2,92.6,201.4,92.4,196.3z"/>
<path class="st5" d="M181.4,215.8c-0.1-8,0.2-15.8-0.5-23.5c-1.8-20.6-10-37.2-29.5-46.6c-9.7-4.7-20.1-5.9-30.9-5.1
	c-11.1,0.8-21.4,4.9-31.8,8.3c-3.1,1.1-6.2,2.1-9.5,2.8c0.7-1.6,1.9-2.9,3.4-3.7c15.4-8.6,31.8-13.2,49.5-12.3
	c12.9,0.6,24.8,4,34.7,12.7c9.1,8,14.3,18.4,17.7,29.8c2.8,9.5,3.2,19.3,3.2,29.1C187.8,212.5,186.1,214.5,181.4,215.8z"/>
<path class="st6" d="M24.3,216.7c-1-7.6-1.5-15.2-1.5-22.9c0.5-27.4,10.4-50.5,30.8-69.1c5.5-5,11.7-6.7,18.9-5.9
	c0,0.9-0.8,0.9-1.2,1.1c-10.6,6.3-20.2,13.6-28.1,23.2c-9.9,12.1-15.9,26.9-17.2,42.4c-0.6,6.9-0.3,13.7-0.3,20.6
	c0.2,3,0.2,6.1,0.1,9.1C25.8,215.9,25.9,217.2,24.3,216.7z"/>
<path class="st7" d="M98.9,279.9c12.1,0.7,24.1-0.8,36.1-2.9c20-3.5,38.3-10.6,53.8-24.1c0.6-0.2,1.3-0.6,1.5,0.5
	c-9.5,13.8-22.6,22.2-38.8,26c-10,2.3-20.2,2.2-30.4,2.6c-6.9,0.3-13.9,0-20.8-0.4C99.7,281.1,97.2,282.1,98.9,279.9z"/>
<path class="st8" d="M98.9,279.9c-0.7,1.5,0.9,1.2,1.4,1.7c-16.2-0.8-32.2-2.5-46.8-10.2c-16.1-8.5-26.6-21.4-30.2-39.5
	c-0.1-0.3-0.2-0.6-0.3-0.9c0.6-0.5,1.2-0.3,1.8,0.1c1.9,1.4,3.6,2.9,4.2,5.3c4.8,17.6,16.8,28.1,33.6,33.4c10.6,3.3,21.1,7,32,9.3
	C96,279.4,97.4,279.6,98.9,279.9z"/>
<path class="st6" d="M173.4,248.8c-4.1,6.5-10.2,9.9-17.1,12c-14.1,4.3-28.1,3.3-42-1.5c-0.1,0-0.2-0.2-0.5-0.6
	C134.3,258.9,154.1,255.2,173.4,248.8z"/>
<path class="st9" d="M154,183.9c2.5,7.2,2.4,14.7,1.7,22.1c-0.3,3.3-1.2,6.5-1.5,9.8c-0.2,2.1-1.6,3.9-3.6,4.6
	c-1.6,0.7-3.3,1.2-5.3,2l6.5-29.7c0.5-1.2,0.4-2.5,1-3.7c0.2-1,0.3-2.1,0.2-3.1C153.1,185.1,152.8,184.1,154,183.9z"/>
<path class="st10" d="M67.3,197.3c0.3,7.7,3.3,14.3,7.9,20.4c1.8,2.5,3.1,5.5,3.7,8.5c-2.5-1.4-4.6-3.2-6.3-5.4
	c-5.1-6.7-7.7-14.5-9.4-22.6c-0.7-3.4-1.8-6.7-2-10.2c-0.4-4.2,1.4-8.4,4.7-11c1,0.9,0.7,2.1,0.7,3.3
	C66.8,186,66.2,191.7,67.3,197.3z"/>
<path class="st10" d="M142,247.9c6.3-1.6,11.7-5,16.9-8.8c4.5-3.4,9-6.9,13.9-10.7c0.2,4-1,8-3.4,11.2c-2,2.9-4.9,5-8.3,6
	c-5.6,1.9-11.4,3.3-17.3,4C143,249.3,141.6,249.7,142,247.9z"/>
<path class="st9" d="M137,148.1c8.6,1.3,16.3,4.3,22.8,10.2c5,4.5,8,10.3,10.9,16.3c-1.8-0.8-2-0.9-2.7-3c-0.4-1.3-1.4-2.3-2.7-2.8
	c-6.1-2.9-11.4-7-16.8-11c-4.2-3.1-8.6-6-13.1-8.5C135.4,148.1,136.1,148,137,148.1z"/>
<path class="st9" d="M90.1,239.1c-11.1,0.6-19.7-4.3-26.4-12.7c-6-7.5-8.9-15.9-6.6-25.6c1.3,3.5,2.3,7.1,3.6,10.6
	C65.9,225.5,74.9,235.4,90.1,239.1z"/>
<path class="st8" d="M80.8,252.6c-5.2,0.6-10.2,0.7-15.1-0.6c-6.1-1.6-10-5.6-12-11.4c-0.2-0.5-0.6-1.1-0.1-1.4
	c0.3-0.2,1-0.1,1.5,0.1c6.6,1.6,12.3,5,18,8.5C75.7,249.3,78.2,251,80.8,252.6z"/>
<path class="st11" d="M119.8,216.4c4.1-1,8.1-2.5,11.8-4.4c3.9-2.2,5.7-5.6,6.3-9.9s-0.3-8.8,0-13.6c1.5,2.3,2.5,4.9,2.8,7.6
	c0.8,4.2,0.8,8.5-0.1,12.6c-1.4,6.7-6.5,10.2-13.2,9.3c-2.2-0.3-4.4-0.5-6.7-0.8C120.5,216.8,119.5,217.3,119.8,216.4z"/>
<path class="st12" d="M146.2,234c8.1-3.9,13.4-10.6,17.5-18.3c1.2-2.2,2.3-4.5,3.4-6.8c0.4-2.9,0.1-5.8,0.2-8.6c0-0.8-0.4-2,1.1-2
	c0,5.8,0.6,11.6-0.6,17.3c-2,10.2-8.7,16.1-18.2,19.2c-0.7,0.2-1.3,0.4-2,0.5C146.6,235.5,146.2,235,146.2,234z"/>
<path class="st13" d="M102.2,244.6c3.6-0.5,7.1-1,10.5-2.5c5.2-2.4,10.3-1.5,15.5,0.3c1.1,0.4,2.2,1,3.9,1.7
	c-10.7,3.1-21.9,4-33,2.7C99.3,245,101.1,245.4,102.2,244.6z"/>
<path class="st14" d="M136.3,157.7c-16.8-4.6-33.1-2.5-49.9,1.3c2.4-2.5,5.6-4.3,9-5c12.5-3.3,25.7-2.7,37.9,1.7
	C134.4,156.1,135.5,156.8,136.3,157.7z"/>
<path class="st15" d="M81.1,138.4c3.6-8.8,15.8-13.5,27.4-12.6C99.5,129.9,90.2,133.3,81.1,138.4z"/>
<path class="st16" d="M103.2,220.6c10.1,2.1,20.3,3.1,30.6,2.8C129.1,228.8,109.8,227.6,103.2,220.6z"/>
<path class="st17" d="M188.9,153.7c-4.1-7.3-10.4-13.2-14.2-20.7c6.4,0.4,13.4,9.2,15.6,19.8C190,153.5,189.7,153.9,188.9,153.7z"/>
<path class="st18" d="M178.9,119.5c-10.4-5.3-22.2-6.1-33.2-9.7c12.1,0,23.9,1.3,34.2,8.3C180.4,119.2,179.9,119.5,178.9,119.5z"/>
<path class="st19" d="M150.8,127.7c3.9,0.2,7.8,0.2,11.4,1.9c2.3,1.1,4.1,3.1,5,5.5c-7.5-1.2-14.9-3.2-22.1-5.9
	c0.1-1.6,1.4-1.6,2.5-1.5S149.8,127.7,150.8,127.7z"/>
<path class="st20" d="M166.2,194.5c-2.6-6.8-5.3-13.5-7.9-20.3c-0.2-0.5-1-1.2,0.1-1.7c0.7-0.5,1.7-0.4,2.2,0.3
	c2.8,3,4.6,6.8,5.3,10.8c0.7,3.1,1.3,6.3,1.7,9.5C167.7,194.1,167.2,194.5,166.2,194.5z"/>
<path class="st16" d="M106.5,233.8c-7.2-0.9-13-4.7-19.4-7.6C97.8,224.5,102.2,226.2,106.5,233.8z"/>
<path class="st21" d="M57.5,148c4.3-5.4,9.1-10,15.1-13.3C72.3,141.5,65.3,147.7,57.5,148z"/>
<path class="st12" d="M177.8,239.1c1.4-3.6,1.6-6.9,2.2-10.1c0.5-2.9,2.3-5.5,4.9-6.9c0.3-0.2,0.6-0.5,1-0.3s0.3,0.6,0.2,1
	c-0.9,3.4-1.3,6.9-2.6,10.2C182.6,235.7,180.5,237.9,177.8,239.1z"/>
<path class="st22" d="M46.2,152.8c-3.6,7-7.2,13.9-10,21.2c-1.3-0.3-0.9-1.5-1.2-2.3c1.6-7.3,4.9-14.2,9.7-19.9
	C45.5,151.6,45.9,152.1,46.2,152.8z"/>
<path class="st23" d="M41.3,214.1c0,4.1,1.2,8,1.1,12.1c0,1.8,0.2,3.5-0.7,5.6c-3.2-5.9-3.1-12-3-18.2c0.1-0.3,0.2-0.7,0.2-1.1
	c0-0.9,0.4-1.2,1.3-1.2c0.6,0,1,0.4,1,1c0,0.1,0,0.1,0,0.2C41,213,41.1,213.6,41.3,214.1z"/>
<path class="st24" d="M48.2,164.3c2.2-6,4.5-7.8,10.3-7.6l-8.8,11.4c-1.4,0.5-1.7-0.4-1.8-1.5C47.9,165.8,48,165.1,48.2,164.3z"/>
<path class="st25" d="M125.5,169.1c3.7-1,5.8-0.4,7.8,2.4c3,4.3,4.8,9.3,5.3,14.6c-1-0.4-1.8-1.2-2.1-2.3
	C132.9,174.7,132.9,174.7,125.5,169.1z"/>
<path class="st26" d="M198,156.5c4.3,6.6,5,13.3,1.7,20.2l-2.1-19.2C197.5,157.1,197.1,156.6,198,156.5z"/>
<path class="st27" d="M82,122.8c6.1-4.7,12.8-6.7,20.5-4.8L82,122.8z"/>
<path class="st28" d="M89.7,218.1c-7.1-0.3-9.9-3.5-9.7-11.5L89.7,218.1z"/>
<path class="st13" d="M88,186.8c-1.3,5.2-1.7,10.5-1.2,15.8C82,198.9,82.4,192.1,88,186.8z"/>
<path class="st29" d="M67.3,197.3c-0.9-2-1.4-4.2-1.3-6.4c-0.1-4.6,0-9.2-0.1-13.9c0.1-0.5,0.1-1.3,0.7-1.2c0.9,0.1,0.7,1,0.7,1.7
	C67.4,184.1,67.3,190.7,67.3,197.3z"/>
<path class="st30" d="M94.7,261.6c-3.9-0.1-7.7-0.9-11.2-2.4c4.4-0.3,8.8-1.1,13,0.7C96.6,261.3,95.6,261.4,94.7,261.6z"/>
<path class="st31" d="M103.6,270.1c4.5-1.4,9.1-0.8,13.7-0.5c2.2,0.1,4.4,0,6.7-0.1c0.9-0.2,1.8-0.3,2.3,0.7
	c-0.2,0.6-0.7,0.5-1.2,0.5c-6.7,0-13.4,0-20.1,0C104.4,270.8,103.6,271.1,103.6,270.1z"/>
<path class="st32" d="M175.3,199.4c1.2,6.6-0.6,12.8,0.3,19.2c-1.6-0.9-2.5-2.2-2-3.3c1.9-4.1,0.6-8.3,0.8-12.5
	C174.4,201.6,174.8,200.5,175.3,199.4z"/>
<path class="st33" d="M103.6,270.1c0.2,0.1,0.5,0.4,0.7,0.4c7.2,0,14.3,0,21.7,0c-0.6-1-1.4-0.8-2.1-1c2.4-1.9,4.7-0.2,7.1,0.2
	c-1.7,1.9-3.9,1.2-5.8,1.2c-6.9,0.1-13.9,0.1-20.8,0c-0.4,0-1.3,0.5-1.3-0.5C103,270.4,103.4,270.2,103.6,270.1z"/>
<path class="st34" d="M72.2,265.5c5-1.5,8.8,0.1,13,2C80.5,268.9,76.7,267,72.2,265.5z"/>
<path class="st35" d="M52.4,257.6c-3.6-1-6.7-3.5-8.5-6.7C47.6,251.8,50.7,254.3,52.4,257.6z"/>
<path class="st36" d="M34.9,171.8c0.8,0.6,0.7,1.6,1.2,2.3l-2.7,8.6C32.4,178.8,33.4,175.3,34.9,171.8z"/>
<path class="st37" d="M153.2,189.4c-0.2,1.2-0.7,2.3-1.4,3.3v-13.2c1.6,0.8,1.3,1.9,1.7,2.6C153.2,184.5,153.6,187,153.2,189.4z"/>
<path class="st38" d="M144.7,182.6c-1.2-2.9-2-5.9-2.3-9c2.3,0.8,3.7,3.2,3.2,5.6C144.9,180.2,145.8,181.7,144.7,182.6z"/>
<path class="st39" d="M142,247.9c0,1.2,1.4,1,1.8,1.7c-3,1.3-6.4,1.4-9.5,0.3L142,247.9z"/>
<path class="st40" d="M166.2,194.5l1.4-1.4c1,1.5,1.3,3.4,0.8,5.2c-1.1,0.5-0.8,1.6-0.8,2.4c-0.2,2.7,0.4,5.5-0.5,8.2
	c0-1.8-0.1-3.5,0-5.2C167.4,200.5,166.7,197.5,166.2,194.5z"/>
<path class="st41" d="M150.8,127.7c-0.9,0.9-2,0.4-3.1,0.5s-2.1-0.3-2.5,1c-2.3-0.1-2.3-0.1-3.6-2.3
	C144.8,126.8,147.9,126.4,150.8,127.7z"/>
<path class="st42" d="M24.3,216.7c1.8-1,1.2-2.8,1.3-4.2c0.1-2.1,0.1-4.3,0-6.4c0.8,3.5,0.1,7.1,0.8,10.5c0.2,1.2,0.3,2.4,0.5,3.7
	C24.9,219.8,24.3,218.5,24.3,216.7z"/>
<path class="st43" d="M46.2,152.8l-1.6-1c0.8-2.2,1.9-4.1,4.6-4.8C49,149.3,47.9,151.4,46.2,152.8z"/>
<path class="st44" d="M137,148.1c-0.6,0.3-1.2,0.5-1.6,1.1l-7.2-1.8C131.6,146.8,134.4,146.4,137,148.1z"/>
<path class="st45" d="M146.2,234c0.3,0.6,0.8,1,1.4,1.3c-2.1,1.9-4.4,1.3-7.4,0.4L146.2,234z"/>
<path class="st46" d="M93.7,269c-2.4,1.3-4.4,0.2-6.5-1C89.6,266.7,91.6,267,93.7,269z"/>
<path class="st47" d="M79.8,123.7c-2.2,1.9-4.2,3.1-7.2,3C74.3,124.6,77,123.5,79.8,123.7z"/>
<path class="st48" d="M113.7,117.1c-1.4-0.1-2.7,0.7-4,0.9c-0.9,0.2-1.9,0-2.1-1c-0.1-0.7,1-0.7,1.6-1c1.5-0.8,3,0.4,4.5,0.1
	c0.3,0.2,0.3,0.6,0.1,0.9C113.8,117,113.8,117.1,113.7,117.1z"/>
<path class="st49" d="M178.9,119.5c0.6-0.2,1.1-0.7,1.1-1.4c1,0.5,2.2,0.7,2.9,1.7c0.4,0.5,0.7,1.1,0.2,1.7s-1,0.3-1.5,0.1
	C180.6,121.1,179.6,120.4,178.9,119.5z"/>
<path class="st50" d="M90.9,109.2c-2.6,3.1-5.3,1.7-8,1.2C85.4,109.9,87.8,109.1,90.9,109.2z"/>
<path class="st51" d="M113.7,117.1v-0.9h9.7c0.3,0.2,0.3,0.6,0.1,0.9c0,0,0,0-0.1,0.1H113.7z"/>
<path class="st52" d="M170.9,179.5c2.7,2,3.1,3.6,2,7.4L170.9,179.5z"/>
<path class="st53" d="M198.6,221.9l1-5.1c0.7-0.5,1.1-0.2,1.4,0.4c0.2,2-0.3,4-1.4,5.7C199,222.8,199,222.2,198.6,221.9z"/>
<path class="st54" d="M94.7,261.6c0.3-0.9,1.6-0.7,1.8-1.7l3.9,1.9C98.2,262.9,96.4,263.1,94.7,261.6z"/>
<path class="st55" d="M41.3,214.1c-0.1-0.1-0.1-0.3-0.2-0.4c-0.4-0.7,0.4-2-1.1-2.1s-0.8,1.4-1.3,2c0-1.2,0-2.4-0.1-3.6
	c0-0.7,0.3-1.2,1-1.2c0.6,0,1.2,0.4,1.3,1.1C41,211.2,41.8,212.6,41.3,214.1z"/>
<path class="st56" d="M123.5,117.1v-0.9h9v0.9H123.5z"/>
<path class="st57" d="M177,148.9c-2.7-0.7-3.7-2.7-5.5-4.4C174.5,144.7,175.9,146.1,177,148.9z"/>
<path class="st58" d="M146.3,182.8c1.2,2.4,1.1,3.2-0.9,5.4c-1-1-0.6-2.3-0.6-3.4C145.3,184.1,145.2,183,146.3,182.8z"/>
<path class="st59" d="M102.2,244.6l-3.2,2.2c-0.5,0-0.9,0.1-1.4,0.1s-0.9-0.2-1-0.7s0.4-0.8,0.8-1
	C98.9,244.6,100.6,244.4,102.2,244.6z"/>
<path class="st60" d="M48.2,164.3c0.7,1.2-1,3.3,1.5,3.8c-0.6,0.7-0.7,2.4-2.1,1.8c-1.2-0.6-0.9-2-0.6-3.1
	C47.4,165.9,47.8,165.1,48.2,164.3z"/>
<path class="st61" d="M190.2,253.4c-0.4-0.5-1-0.4-1.5-0.5l3.6-4.6C193.1,250.8,191.9,252.2,190.2,253.4z"/>
<path class="st62" d="M198.6,221.9c0.7,0,0.8,0.5,1,1c0.1,1.9-1,3.3-1.9,5.2C196.5,225.5,198.3,223.8,198.6,221.9z"/>
<path class="st63" d="M206.2,197c-1-2-1.5-3.7-0.6-5.5C207.2,192.8,207.2,192.8,206.2,197z"/>
<path class="st64" d="M197,150.1c0.3,1,0.8,2.1,1.1,3.2c0.1,0.4-0.4,0.6-0.8,0.5c-1.4-0.5-1.3-1.7-1.3-2.8
	C195.9,150.6,196,150.1,197,150.1z"/>
<path class="st65" d="M128.3,129.6c-1.4,1.1-3.4,1.3-5,0.3C124.7,128.4,126.3,128.7,128.3,129.6z"/>
<path class="st66" d="M200.9,217.2l-1.4-0.4l1.5-4.1C202.2,214,202.1,216,200.9,217.2z"/>
<path class="st67" d="M188.9,153.7l1.3-0.9c0.9,1,2.1,2.4,0.6,3.4C190.1,156.6,189.4,154.6,188.9,153.7z"/>
<path class="st68" d="M146.3,182.8c-0.6,0.6-0.5,1.6-1.5,1.9l-0.1-2.1c0.2-1.2-0.1-2.5,1-3.4L146.3,182.8z"/>
<path class="st69" d="M72.7,181.8c-0.6-1.3-1.1-2.4-0.2-3.8C73.6,179,73.7,180.6,72.7,181.8z"/>
<path class="st70" d="M153.2,189.4c0.2-2.5-0.5-5,0.3-7.4l0.5,1.8C152.9,185.6,154.3,187.7,153.2,189.4z"/>
<path class="st71" d="M89.6,174.8c-0.1,1-0.8,1.2-1.5,1.4c-0.5,0.2-0.7-0.1-0.7-0.6c0.1-0.8,0.8-1,1.4-1.3
	C89.2,174.2,89.4,174.3,89.6,174.8z"/>
<path class="st72" d="M193,181.8c0.7,1,0.6,2.1,0.2,3.4C192.1,184,192.6,182.9,193,181.8z"/>
<path class="st73" d="M51.5,191.4c-1.5-1.3-0.7-2.2,0.5-3.6C52.2,189,52.1,190.3,51.5,191.4z"/>
<path class="st74" d="M119.8,216.4l0.9,0.8h-2C118.8,216.5,119.3,216.4,119.8,216.4z"/>
<path class="st36" d="M198,156.5l-0.4,1c-0.1-0.3-0.3-0.7-0.4-1.1c-0.1-0.3-0.2-0.7,0.2-0.7S197.8,156.2,198,156.5z"/>
<path class="st75" d="M105.3,195.3c0.1-5,3.9-7.9,8.8-6.7c1.5,0.3,2.8,1.5,3.2,3c0.6,1.9,0.5,3.9-0.1,5.7c-0.4,1.6-1.8,2.8-3.5,2.9
	c-1.7,0.2-3.3,0.2-5,0.2C106.4,200.3,105.2,198.5,105.3,195.3z"/>
</svg>
