<?xml version="1.0" encoding="utf-8"?>
<!-- Generator: Adobe Illustrator 21.0.2, SVG Export Plug-In . SVG Version: 6.00 Build 0)  -->
<svg version="1.1" id="Layer_1" xmlns="http://www.w3.org/2000/svg" xmlns:xlink="http://www.w3.org/1999/xlink" x="0px" y="0px"
	 viewBox="0 0 296.5 295.8" style="enable-background:new 0 0 296.5 295.8;" xml:space="preserve">
<style type="text/css">
	.st0{fill:#FEFEFE;}
	.st1{fill:#E1157E;}
	.st2{fill:#E1157F;}
	.st3{fill:#FDFDFD;}
	.st4{fill:#FBFBFB;}
	.st5{fill:#F9F9F9;}
	.st6{fill:#F7F7F7;}
	.st7{fill:#F3F3F3;}
	.st8{fill:#F8F8F8;}
	.st9{fill:#F6F6F6;}
	.st10{fill:#F4F4F4;}
	.st11{fill:#E9E9E9;}
	.st12{fill:#EEEEEE;}
	.st13{fill:#DFDFDF;}
	.st14{fill:#CBCBCB;}
	.st15{fill:#F0F0F0;}
	.st16{fill:#E7E7E7;}
	.st17{fill:#E3E3E3;}
	.st18{fill:#EBEBEB;}
	.st19{fill:#E4E4E4;}
	.st20{fill:#EFEFEF;}
	.st21{fill:#E6E6E6;}
	.st22{fill:#EAEAEA;}
	.st23{fill:#3E3E3E;}
	.st24{fill:#D7D7D7;}
	.st25{fill:#E2E2E2;}
	.st26{fill:#3B3B3B;}
	.st27{fill:#B0B0B0;}
	.st28{fill:#D9D9D9;}
	.st29{fill:#A6A6A6;}
	.st30{fill:#D4D4D4;}
	.st31{fill:#6D6D6D;}
	.st32{fill:#C1C1C1;}
	.st33{fill:#BDBDBD;}
	.st34{fill:#171717;}
	.st35{fill:#393939;}
	.st36{fill:#C5C5C5;}
	.st37{fill:#757575;}
	.st38{fill:#9F9F9F;}
	.st39{fill:#454545;}
	.st40{fill:#ACACAC;}
	.st41{fill:#666666;}
	.st42{fill:#313131;}
	.st43{fill:#B8B8B8;}
	.st44{fill:#8B8B8B;}
	.st45{fill:#B9B9B9;}
	.st46{fill:#9C9C9C;}
	.st47{fill:#989898;}
	.st48{fill:#3D3D3D;}
	.st49{fill:#C3C3C3;}
	.st50{fill:#AFAFAF;}
	.st51{fill:#747474;}
	.st52{fill:#707070;}
	.st53{fill:#3C3C3C;}
	.st54{fill:#B4B4B4;}
	.st55{fill:#888888;}
	.st56{fill:#E0E0E0;}
	.st57{fill:#959595;}
	.st58{fill:#7A7A7A;}
	.st59{fill:#BFBFBF;}
	.st60{fill:#696969;}
	.st61{fill:#484848;}
	.st62{fill:#939393;}
	.st63{fill:#303030;}
	.st64{fill:#7F7F7F;}
	.st65{fill:#8C8C8C;}
	.st66{fill:#858585;}
	.st67{fill:#868686;}
	.st68{fill:#C8C8C8;}
	.st69{fill:#FCF6FA;}
	.st70{fill:#050505;}
</style>
<title>Jazz</title>
<path class="st0" d="M46.1,0.4c-0.5,2.8,0.1,5.7-0.2,8.5c-0.2,2,0.3,4.1-0.2,6.1c-0.4,1.6,0,3.3,0,4.9c0.1,3.4,0,6.9,0.1,10.3
	c0,2,0,4.1-0.1,6.1c-0.2,2.1-0.1,4.2,0.1,6.3c0.2,1.8,0.2,3.6,0.1,5.5c0.1,2.5,0.1,5,0,7.5c-0.2,2,0.1,4-0.1,6.1
	c-0.1,2.1-0.1,4.2,0.1,6.3c0.1,1.8-0.1,3.6,0,5.5c0.1,2.6,0,5.3,0,7.9c0.1,2,0.1,3.9,0,5.9c-0.2,1.9-0.2,3.8,0,5.7
	c0.2,2.1,0,4.2,0.1,6.3c0.2,2.5,0.2,5,0,7.4c-0.2,2,0,4.1,0,6.1c-0.2,2-0.2,4.1,0.1,6.1c0.4,1.7,0,3.4-0.1,5.1c-0.1,2,0,4.1,0,6.1
	s-0.4,4,0.1,6.1c0.4,1.6,0,3.3-0.1,4.9c-0.1,2,0.1,4.1,0,6.1s-0.5,4,0.1,6.1c0.5,1.6,0,3.3,0,4.9c-0.1,3.4,0,6.9-0.1,10.3
	c-0.2,2-0.2,4.1,0.1,6.1c0.4,1.7-0.1,3.5,0.1,5.3c0.1,2.7,0,5.4-0.2,8.1c-0.1,2.5,0,5-0.1,7.5c-0.1,2.4-0.1,4.9,0.1,7.3
	c0.3,2.2,0,4.5,0,6.7c0,2.8,0.1,5.7,0,8.5c-0.2,2.5,0,5-0.1,7.5c-0.1,2.3-0.1,4.6,0,6.9c0.2,2.4,0,4.9,0,7.3c0,2.7-0.1,5.4,0,8.1
	c0.1,2.4,0.1,4.8-0.1,7.1c-0.2,2.5,0.1,4.9,0,7.3c-0.1,2.8,0.1,5.5-0.1,8.3c-0.2,2.2,0,4.4,0,6.5c-0.1,3-0.2,6,0,8.9
	c0.2,2.5-0.6,4.9,0.2,7.3c0.3,1-0.8,2.2,0.2,2.9s2.4,0.3,3.7,0.3c70.3,0,140.7,0,211,0c-0.2,0.3,0.4,0.9-0.4,0.8c-0.5,0-1,0-1.5,0
	c-73.7,0-147.3,0-221,0c-1.6,0-1.9-0.4-1.9-1.9c0-97.6,0-195.3,0-292.9c0-1.6,0.3-2,1.9-1.9C40.7,0.5,43.4,0.4,46.1,0.4z"/>
<path d="M149,288.7c-9.9,0.1-21,0-32-2c-12.4-2.3-24-6.5-34-14.3c-11.9-9.2-19.6-22.7-21.3-37.7c-3.5-26.4,0.1-51.9,11.4-76.1
	c9.4-20,24.9-33.3,46.1-39.6c24.1-7.1,48.3-7.1,72.2,1.4c7,2.4,13.6,5.7,19.7,9.9c9.3,6.3,16.3,15.5,19.9,26.1
	c3,8.8,5.6,17.8,8.2,26.7c2.7,9.2,2.6,18.7,1.7,28.2c-1.2,13.4-4.3,26.3-10.9,38.2c-7.1,12.9-16.3,23.8-29.5,31
	c-9.2,5-19.3,7-29.6,7.8C164,288.9,157.2,288.7,149,288.7z"/>
<path class="st1" d="M89,103.2c-0.3-7.1-1.8-14.1-4.4-20.7c-1.3-3.4-2.8-6.8-4.2-10.2c-0.7-1.6-1.6-2-3.3-1.3
	c-8.1,3.4-16.2,6.8-24.2,10.2c-2.5,1-3.8,0.8-4.6-0.9s-0.1-3.4,2.2-4.4c9.1-3.9,18.2-7.7,27.3-11.5c2.9-1.2,5-0.3,6.4,2.4
	c5.8,11,9.4,23,10.5,35.3c1,10.9-7,17-15.5,19c-5.2,1.2-10.3,1.2-15.2-1.2c-6.8-3.3-10.2-9.8-8.7-17.1c0.4-2.1,1.5-3,3.3-2.9
	s2.7,0.9,2.5,2.8c-0.1,0.9-0.1,1.8-0.3,2.7c-0.7,3.3,0.9,6.7,3.9,8.2c5.7,3.3,15,2.7,20.2-1.4C87.9,110.1,89.4,106.7,89,103.2z"/>
<path class="st1" d="M95.1,58.4c0-0.3,0-0.7,0-1c0-1.3-0.2-2.7,1.2-3.5s2.9-0.5,4.3,0.3c8.6,5.2,16.7,11.1,24.3,17.6
	c2.6,2.2,5.2,4.5,7.8,6.9c1.9,1.7,2,3,0.5,4.6s-2.6,1.5-4.5-0.1c-2.8-2.4-5.5-5-8.4-7.4c-2.5-2.2-4-2.1-6.4,0.1
	c-2.7,2.3-5.1,4.8-7.2,7.7c-2.4,3.3-3,7.5-1.7,11.4c0.7,2.7,1.3,5.4,1.7,8.1c0.3,1.9-0.6,3-2.5,3.4s-3-0.3-3.3-2.2
	c-1-6.2-2.2-12.4-3.1-18.6C96.5,76.6,95.7,67.5,95.1,58.4z"/>
<path class="st2" d="M136.8,57.7c-0.2-5.1-0.2-8.8-0.1-12.5c0.1-2.8-1-3.6-3.6-2.3c-4.2,2-8.4,4.2-12.6,6.4c-1.3,0.7-2.6,1-3.8-0.3
	c-1.2-1-1.3-2.8-0.3-3.9c0.2-0.3,0.5-0.5,0.9-0.7c1.7-1.1,3.6-2.1,5.4-3c4.5-2.3,9.1-4.4,13.8-6.2c4.2-1.6,5.7-0.6,5.8,3.8
	c0.2,7.3,0.2,14.5,0.3,21.8c0,0.1,0,0.3,0,0.4c0,4.3,1.2,5,5,2.9c3.3-1.9,6.6-3.8,9.9-5.7c2.1-1.2,3.4-1,4.4,0.5s0.6,3-1.2,4.4
	c-5.8,4.3-12.5,7.5-19.5,9.3c-2.5,0.7-3.9-0.4-4.2-3.1C136.8,65.6,136.7,61.7,136.8,57.7z"/>
<path class="st1" d="M181.9,17c-0.8,6.8-1.9,13.5-3.5,20.2c-0.4,1.9-0.9,3.8-1.4,5.6c-0.1,0.5-0.4,1,0,1.4s0.9-0.1,1.3-0.2
	c3.1-1,6.1-2.2,9.2-3.2c1.6-0.5,3.4-0.7,4.3,1.3s0.1,3.4-2.3,4.2c-3.1,1-6.1,2.1-9.1,3.4c-2,0.9-4,1.9-6,2.8
	c-1.4,0.7-2.9,1.5-4.4,0.2s-1.1-2.8-0.6-4.4l2.8-10.2c1.1-4.2,2-8.5,2.7-12.8c0.1-0.6,0.4-1.4-0.1-1.8s-1.2,0.2-1.7,0.4
	c-4.9,2.1-9.8,4.2-14.7,6.2c-1.1,0.7-2.5,0.3-3.1-0.8c-0.1-0.1-0.1-0.2-0.2-0.4c-0.7-1.5-0.7-2.9,0.8-3.9c0.9-0.5,1.8-1,2.8-1.3
	c5.5-2.1,10.8-4.7,15.8-7.8c1.1-0.8,2.2-1.4,3.4-2.1C180,13.1,182,14.4,181.9,17z"/>
<path class="st3" d="M165.8,207c-0.1,1.3-0.3,2.3-0.4,3.3c-0.5,4.1-2.3,6.3-6.5,7.3s-8.4,1.4-12.7,2.1c-1.8,0.3-3.6,0.5-5.3,0.8
	c-1.9,0.4-3.9-0.2-5.2-1.7c-7.4-7.3-7.3-18.2,0.4-25.1c5-4.5,10.9-7.3,17.9-7c5,0.2,8.3,3.1,9.8,7.9
	C164.9,198.6,165.6,202.8,165.8,207z"/>
<path class="st4" d="M209.8,223.9c0-7.1,0.1-14-0.4-20.9c-1.1-15.4-6.2-28.8-19.4-37.9c-10.1-7-21.6-9.1-33.7-8.7
	c-9.4,0.3-17.9,3.6-26.6,6.6c-3.2,1.1-6.4,2.1-9.7,3.1c-0.5,0.2-1.4,1-1.8,0s0.7-1.2,1.3-1.5c6.5-4,13.4-7.2,20.7-9.4
	c13.4-4.2,27.8-4.3,41.3-0.2c12.6,3.8,21.6,11.8,27.1,23.7c5.6,12,8.1,25.3,7.1,38.5C215.3,221.1,213.9,222.9,209.8,223.9z"/>
<path class="st5" d="M216.9,257.7c-3.4,6.4-8.5,11-14.3,14.9c-9.5,6.4-20.2,9.1-31.4,10c-13.7,0.9-27.5,0.9-41.3-0.1
	c-10.4-0.6-20.7-2.9-30.4-6.9c-17.2-7.2-27.5-20-31.6-38.2c1.3-0.3,2.2,0.6,3.1,1.3c1.3,1,2.1,2.4,2.5,4
	c3.9,14.1,13.1,23.4,26.5,28.3c11.6,4.2,23.3,8.2,35.6,10c6.3,1,12.7,0.5,19.1-0.2c10-1,20-2.9,29.6-5.8
	c10.8-3.3,20.9-8.6,29.7-15.7c0.8-0.6,1.6-1.2,2.3-1.7C216.3,257.5,216.5,257.6,216.9,257.7z"/>
<path class="st6" d="M69.4,226c-1.2-7.4-1.7-15-1.7-22.5c0.6-24.6,9.9-45.2,28.2-61.7c4.8-4.4,10.7-5.1,17.4-5.1
	c-7.1,4-13.7,8.8-19.8,14.2c-12.7,11.2-20.7,26.7-22.5,43.5c-1,9.4-1.1,18.8-0.3,28.2c0.2,0.7,0.2,1.5,0.1,2.3
	C70.8,225.8,70.4,226.4,69.4,226z"/>
<path class="st5" d="M162.4,261.8c13.3-1,26.2-4.1,39.3-8.1c-0.8,2.6-2.6,4.9-4.9,6.3c-4.5,2.8-9.4,4.6-14.6,5.3
	c-10,1.9-20.3,1.5-30.2-1c-0.3-0.1-0.5-0.2-0.7-0.3c0.5-1.6,2-1.4,3.2-1.5C157.1,262.3,159.8,262.5,162.4,261.8z"/>
<path class="st6" d="M177.8,229.6c1.8-8.7,3.1-17.3,5.5-25.7c1-3.5,0.7-7.3,0.8-11c0.9,0.4,0.9,1.2,1.1,1.8
	c2.3,6.8,2.2,13.9,1.6,20.9c-0.2,2.1-0.5,4.1-0.7,6.2c-0.1,2.8-1.8,5.2-4.4,6.2C180.4,228.5,179.1,229.1,177.8,229.6z"/>
<path class="st7" d="M99.3,211.9c1.2,4.8,2.9,9.4,5,13.8c4.6,8.9,11.3,15.2,21.2,17.8c1.4,0.4,2.8,0.8,4.1,1.4
	c-6.7,1.2-13.5-0.5-18.9-4.6c-8.5-6.5-12.2-15.4-13.1-25.8c-0.1-0.5-0.2-0.9-0.1-1.4C97.4,211.6,98,211.2,99.3,211.9z"/>
<path class="st8" d="M173.3,253.1c5.6-1.5,10.9-4.1,15.5-7.6c4.2-3.1,8.2-6.3,12.3-9.4c0.5-0.5,1.1-0.9,1.7-1.1
	c0.5,5.4-3.8,12.5-9.1,14.8c-5.7,2.5-11.8,4.1-18,4.6C174.7,254.5,173.5,254.9,173.3,253.1z"/>
<path class="st9" d="M106.8,189.1c-1.9,15.3,2.1,30.8,11.2,43.2c-1.6-0.4-3-1.3-4.1-2.5c-3.5-3.4-5.4-7.7-7.1-12
	c-2.6-6.5-3.9-13.4-4.7-20.3C101.6,193.9,104.2,191.8,106.8,189.1z"/>
<path class="st6" d="M170.4,163.2c12.4,1.8,21.6,8.2,28.1,19.1c-2.8-0.8-5.5-1.9-8-3.5c-4.4-2.5-8.3-5.7-12.4-8.7
	c-2.9-2.1-5.9-4.1-9.1-5.8C169,163.5,169.4,163.1,170.4,163.2z"/>
<path class="st8" d="M119.4,256.6c-11.9,3-19.8-0.3-24.5-12C104.4,246.2,111.6,251.9,119.4,256.6z"/>
<path class="st10" d="M137.1,250.1c4.3-0.2,8.6-1.3,12.6-3.1c3.1-1.5,6.5-1,9.7-0.1c2,0.6,4,1.4,6.4,2.2c-9.5,3.4-19.1,3.4-28.6,3.1
	C136.6,251.6,136.5,250.8,137.1,250.1C137,250.1,137.1,250.1,137.1,250.1z"/>
<path class="st7" d="M173.1,207.7c0.6,3.6,1.6,7.1,0,10.8c-2.5,5.8-4.4,7.1-10.7,7.2c-2.9,0.2-5.9-0.2-8.7-1.1
	c9.5-1.4,16.9-4.5,17.4-15.2c0.3-0.6,0.1-1.4,0.5-1.9C172.4,206.5,172.9,206.6,173.1,207.7z"/>
<path class="st11" d="M166.9,170.8c-4.4-0.7-8.9-1.1-13.4-1.3c-8.7,0-17.5,1-26,2.9c-0.7-0.3-1.4-0.6-0.8-1.6
	c13.1-5,26.2-5.8,39.5-0.9c0.4,0.1,0.8,0.3,1.1,0.5C167.4,170.7,167.4,171,166.9,170.8z"/>
<path class="st10" d="M180.7,239.3c7.3-5.3,12.8-12.6,15.9-21.1c1.6,0.7,1,2.1,1.2,3.3c-0.5,9.1-6.1,16-14.9,18.7
	C181.9,240.4,180.9,240.9,180.7,239.3z"/>
<path class="st12" d="M120.8,154.4c3.5-9.6,17-12.4,23.8-10.6C136.3,146.7,128.4,150.2,120.8,154.4z"/>
<path class="st13" d="M168.6,230.7c-9.4,4.8-23.7,3.3-27.6-2.1C150.2,229.9,159.3,231.1,168.6,230.7z"/>
<path class="st14" d="M168.2,122.5c-3.3,0.5-6.7,0.6-10,0.3c-2.2-1.2-4.7-0.6-7-0.8h-16.2c1.2-1.1,2.7-1.6,4.3-1.5
	c6.3,0,12.6-1.4,19-0.5c3.3,0.5,6.6,0.6,9.9,0.9C168.7,121.4,168.7,122.1,168.2,122.5C168.2,122.5,168.2,122.5,168.2,122.5z"/>
<path class="st15" d="M203.5,150c8.2,2.2,13.9,10.1,13.2,18L203.5,150z"/>
<path class="st16" d="M197.7,151.5c-4.7-0.2-17.8-3.9-20.8-6.5c4.8,0.3,9.3-0.4,13.7,0.8C193.6,146.7,196.2,148.8,197.7,151.5z"/>
<path class="st17" d="M207.7,137c-9.8-4.1-20.4-4.9-30.3-7.8c-0.2-0.3-0.2-0.4,0-0.5c10.5-0.3,20.6,1.4,29.7,7.2
	c0.3,0.2,0.5,0.4,0.8,0.7C207.9,136.8,207.9,136.9,207.7,137z"/>
<path class="st18" d="M114.1,150.7c-3.6,6.8-7.6,12.2-16,13C102.7,158.4,107.3,153.7,114.1,150.7z"/>
<path class="st19" d="M89.8,165.8c-3.4,6.5-7.1,12.9-9.7,19.8c-1.2-0.2-1.1-1.2-1.2-2c1.7-7.1,5.1-13.7,9.9-19.2
	C89.5,164.6,90,165,89.8,165.8z"/>
<path class="st20" d="M143.2,240c-6.2-0.9-11.6-3.8-17-6.3C131.5,230.8,138.3,233.3,143.2,240z"/>
<path class="st15" d="M206.8,244.1c1.1-2.3,1.4-4.8,1.8-7.2c0.6-4.1,2.2-6.4,6.1-8.1C212.5,234.5,213.6,241.3,206.8,244.1z"/>
<path class="st21" d="M100.4,170.3l-10.1,12.5C89.6,175.2,93.5,170.3,100.4,170.3z"/>
<path class="st22" d="M189.6,185.1c5.7,3.4,6.8,10.6,7.2,17.9C194,199.3,190.2,189.7,189.6,185.1z"/>
<path class="st23" d="M145.3,271.4c5.3,0,10.6-0.1,16-0.1c0.6,0,1.5-0.2,1.5,0.9c0,0.9-0.8,1-1.3,1c-4.5,0.2-8.9,1-13.4,0.4
	c-2.2-0.3-4.4-0.1-6.5-1C142.6,271.6,144.2,272.1,145.3,271.4z"/>
<path class="st24" d="M226.4,191.5c-0.6-6-1.1-12-1.7-17.9c-0.1-0.7-0.4-1.7,0.7-1.9c0.9-0.2,0.9,0.8,1.1,1.3
	c2.1,4.8,1.9,9.8,1,14.8c-0.2,1.2-0.5,2.4-0.8,3.6L226.4,191.5z"/>
<path class="st19" d="M128.1,226.4c-6-0.1-9.5-4.1-10.2-12L128.1,226.4z"/>
<path class="st25" d="M83.2,219.7c1.4,6.1,3.1,11.9,1.1,18.1C82,233.5,81.6,223.3,83.2,219.7z"/>
<path class="st25" d="M138.3,136.2c-4.7,2.1-9.9,2.5-14.8,3.8c-1,0.2-1.6,0.1-1.3-1.2c3.9-2.1,7.9-3.6,12.4-3.4c0.7,0,1.5,0,2.2,0
	S138.2,135.2,138.3,136.2z"/>
<path class="st13" d="M125.1,212.5c-4.5-5.8-4.1-11.1,1.1-14.7C125.1,202.6,124.8,207.6,125.1,212.5z"/>
<path class="st17" d="M159,182.1c7.1-0.7,10.6,2.9,10.9,11.1c-1.6-2.3-2.6-4.6-4.3-6.4C163.8,184.7,161.5,183.1,159,182.1z"/>
<path class="st26" d="M138.3,136.2c-1.1-0.9-2.6,0-3.7-0.8c1.5-0.6,3.1-0.9,4.8-0.8c3.4,0,6.8,0,10.1,0.1c0.5,0.8,0,0.9-0.6,1
	c-0.5,0-1-0.1-1.4,0.2C144.4,136.5,141.4,137.1,138.3,136.2z"/>
<path class="st27" d="M197.8,221.5l-1.2-3.3l0.4-5.9c0.1-0.7,0.2-1.5,0.1-2.2c0.1-1,0.6-1.1,1.4-0.7
	C198.8,213.4,199.6,217.5,197.8,221.5z"/>
<path class="st13" d="M132.1,265.1l-8.7-1.3c-1.2-1.5,0.6-0.8,0.9-1.2c3.4,0,6.8-0.5,10,1.1C134.5,265.7,132.9,264.8,132.1,265.1z"
	/>
<path class="st28" d="M173.1,207.7c-0.4-0.2-0.7-1.1-1.1-0.1l-0.8,1.8c-0.6-4.3,0-8.6-0.5-12.9C172.9,199.9,172.7,203.9,173.1,207.7
	z"/>
<path class="st29" d="M162.4,261.8c-1.7,1.2-3.8,1.1-5.7,1.2s-3.9-0.5-5.5,0.9c-1.5,0.1-2.7-0.2-3.3-2.1H162.4z"/>
<path class="st30" d="M120.4,270.5c-3.7-0.1-5.2-0.6-7.2-2.1c3.8-1.3,7.2,0.3,10.6,1.6C122.8,271.3,121.5,270.5,120.4,270.5z"/>
<path class="st31" d="M140.4,272.4c-3.1,0-6.2,0.1-9.3,0.1c-1.4,0-2.8-0.4-4-1.3c3.1-2.5,5.9-0.1,8.8,0c-0.2,0.3-0.6,0.5-1,0.5
	c1.7,0.1,3.4-0.1,5,0.1C140.2,271.9,140.4,272.1,140.4,272.4z"/>
<path class="st28" d="M85.5,253.7c3.1,0.8,5.7,3.1,6.8,6.2C88.8,258.9,86.9,256.6,85.5,253.7z"/>
<path class="st32" d="M177,194c-1.4-2.2-1.6-4.6-1.7-7.1c0.3-0.3,0.8-0.4,1.1-0.1c0,0,0,0,0.1,0.1c1.3,1.4,2,3.4,1.8,5.4
	C177.7,192.8,178.2,194.1,177,194z"/>
<path class="st33" d="M78.9,183.6l1.2,2l-2,6.3c-0.3,0.4-0.6,0.9-1.2,0.4c0-1.6-0.4-3.2,0.9-4.6c0.3-0.7-0.1-1.5,0.3-2.1
	C78,184.8,78.3,184.1,78.9,183.6z"/>
<path class="st34" d="M147.4,135.8c0.4-0.8,1.9,0.2,2-1.2c2.8,0,5.5,0,8.3,0c0.5,0,1.3-0.2,1.2,0.7c-0.1,0.7-0.7,0.5-1.2,0.5
	C154.3,135.8,150.9,135.8,147.4,135.8z"/>
<path class="st35" d="M204.1,204.5c1.3,2.5,1.4,5.5,0.5,8.2C203.7,209.8,202.2,207.4,204.1,204.5z"/>
<path class="st36" d="M180.7,239.3c0.4,1,1.3,0.8,2.1,0.9c-3.9,2.1-3.9,2.1-6.7,1.9C177,239.9,178.9,239.7,180.7,239.3z"/>
<path class="st37" d="M203.2,223.5c-0.9-2.6,1-4.7,1.4-7c0.4,3.6,0.2,7.3-0.6,10.8C202.8,226.2,204,224.7,203.2,223.5z"/>
<path class="st38" d="M173.3,253.1c0.5,1.1,1.5,1.1,2.5,1.2c-2.8,0.9-5.6,1.6-8.9,0.5L173.3,253.1z"/>
<path class="st23" d="M137.1,250.1l0.1,2c-1.8,0.2-3.6,0.1-4.9-1.8C133.8,249.5,135.5,249.4,137.1,250.1z"/>
<path class="st36" d="M89.8,165.8l-0.9-1.5c0.5-1.8,2-3.1,3.8-3.6C92.5,163,91.2,164.5,89.8,165.8z"/>
<path class="st39" d="M165,163.6c-1.6,0.1-3.1-0.6-4.2-1.8c2.7-1.5,5,0.4,7.4,0.5C167.4,163.4,165.9,162.6,165,163.6z"/>
<path class="st40" d="M201.4,194l-2.4-7.3C201.8,188.7,202.4,190.7,201.4,194z"/>
<path class="st41" d="M232.2,206.6c-1.8-1.1-1.8-2.9-1.6-4.6c1.9-0.7,2.3-0.5,2.2,1.3C232.7,204.4,233.5,205.7,232.2,206.6z"/>
<path class="st42" d="M156.6,147.5c1.5-1.8,3.6-2.1,5.1-1.2c0.3,0.2,0.6,0.4,0.6,0.8s-0.5,0.4-0.8,0.4H156.6z"/>
<path class="st43" d="M227.6,223.1c0.2,1.9,0.3,3.8-1.1,5.4c-0.2,0.2-0.6,0.2-0.8,0c0,0,0,0,0,0l0.9-5.3
	C226.8,222.7,227.2,222.8,227.6,223.1z"/>
<path class="st42" d="M232.2,206.6c0.9-1.2,0.5-2.6,0.4-3.9s-1.2-0.7-2-0.7c-0.1-0.7,0-1.4,0.5-1.9c0.6-0.8,1.6-0.9,1.7,0.1
	c0.4,2.2,0.4,4.4,0,6.5C232.8,206.9,232.4,206.8,232.2,206.6z"/>
<path class="st36" d="M225.6,228.5h0.8c0.2,2.3-0.8,4.2-1.7,6.2c-1.1-0.3-0.4-1.1-0.5-1.7C224.5,231.4,224.9,229.9,225.6,228.5z"/>
<path class="st28" d="M165,163.6c-0.2-0.9,0.4-1.2,1.1-1.2s1.4,0,2.2,0c0.8,0,1.5,0.3,2.1,0.9c-0.6,0.3-1,0.7-1.3,1.2L165,163.6z"/>
<path class="st44" d="M198.5,209.4c-0.9-0.1-1.2,0.3-1.2,1.2c0,0.6,0.1,1.2-0.4,1.7c-0.2-1.2,0.3-2.4-0.3-3.6
	c-0.5-0.7-0.4-1.7,0.2-2.3c0.2-0.3,0.6-0.3,0.9-0.1c0.7,0.5,1.1,1.3,0.9,2.1C198.7,208.7,198.6,209,198.5,209.4z"/>
<path class="st45" d="M122.2,138.8c0,0.8,0.6,1.1,1.3,1.2l-5,2c-0.3-0.4-0.3-0.9,0-1.3L122.2,138.8z"/>
<path class="st21" d="M203.2,223.5c1.7,0.9,0.4,2.5,0.8,3.7c-0.2,0.6-0.4,1.7-1.3,1.4c-0.7-0.2-0.7-1.2-0.6-2
	C202.4,225.6,203.2,224.7,203.2,223.5z"/>
<path class="st40" d="M126.7,170.8c-0.1,0.7,0.6,1,0.8,1.6c-0.7,0.5-1.4,0.9-2.1,1.2c-0.5,0.3-1.2,0.1-1.5-0.4c0,0,0-0.1-0.1-0.1
	c-0.3-0.7,0.1-1.2,0.8-1.4L126.7,170.8z"/>
<path class="st46" d="M175.1,242.7c-1.9,1-4.2,1-6.2,0.2C170.9,242.6,172.8,241,175.1,242.7z"/>
<path class="st47" d="M118.3,140.7v1.3c-1.2,0.9-2.4,1.7-4.2,1.2C115,141.7,116.6,140.7,118.3,140.7z"/>
<path class="st48" d="M69.4,226c2.2-0.4,0.8-2.2,1.3-3.3c0.7,1.4,0.3,3,1.1,4.3c0.2,0.5,0,1.1-0.5,1.3c0,0-0.1,0-0.1,0
	c-0.7,0.3-1.2-0.1-1.4-0.8C69.6,227,69.5,226.5,69.4,226z"/>
<path class="st49" d="M94.2,196.6c0.1-1.7,0.4-3.1,1.6-4.1c0.2-0.2,0.5-0.5,0.9-0.2s0.3,0.5,0.2,0.9C96.5,194.6,96,195.9,94.2,196.6
	z"/>
<path class="st50" d="M202.7,196.9c1.5,1.9,1.6,4,0.5,6.8l-1-5.9C202.1,197.4,201.9,196.9,202.7,196.9z"/>
<path class="st51" d="M132.1,265.1c0.6-0.6,2,0,2.1-1.3l3.5,1.5C135.9,266.2,133.8,266.1,132.1,265.1z"/>
<path class="st52" d="M99.3,211.9c-2.5-0.5-1.3,1.6-1.7,2.5c-0.7-1.3-0.2-2.7-0.3-4.1c-0.1-0.5-0.2-1.2,0.6-1.3
	c0.6-0.1,1.2,0.4,1.3,1C99.3,210.6,99.3,211.3,99.3,211.9z"/>
<path class="st36" d="M168.2,122.5v-1.6c2,0.1,4,0.4,6,1C172.2,122.1,170.3,122.7,168.2,122.5z"/>
<path class="st53" d="M227.6,223.1l-1.1,0.1c0.5-1.6,0.6-3.3,1.6-4.8C228.4,220,229.4,221.7,227.6,223.1z"/>
<path class="st54" d="M121.7,129.3l6.3-1.1C126.3,130.3,124.3,130.6,121.7,129.3z"/>
<path class="st55" d="M204.7,163.8l-3.7-3.3C203.8,160.1,204.9,161,204.7,163.8z"/>
<path class="st56" d="M177,194l1.2-1.7c0.3,1.7,0.4,3.5,0.4,5.2C176.6,196.9,177.3,195.2,177,194z"/>
<path class="st57" d="M176.5,187h-1.2c-0.2-0.1-0.4-0.2-0.5-0.3c-0.8-0.6-1.2-1.6-0.8-2.6c0.1-0.3,0.2-0.6,0.6-0.4
	c0.9,0.3,1.6,1.1,1.7,2.1C176.2,186.2,176.4,186.6,176.5,187z"/>
<path class="st36" d="M151.2,122.1c2-0.8,4.1-0.2,6.2-0.3c0.9-0.1,0.5,0.8,0.9,1.1C155.9,122.8,153.5,122.5,151.2,122.1z"/>
<path class="st58" d="M140.4,272.4l-0.6-0.4c-0.1-0.2-0.1-0.5,0.1-0.6h5.4c-0.9,1.5-2.4,1.1-3.7,1.2L140.4,272.4z"/>
<path class="st32" d="M139.9,271.4l-0.1,0.6h-6.8c0.8-1.2,2-0.4,2.8-0.8L139.9,271.4z"/>
<path class="st59" d="M124.6,182.2c-0.5,0.4-0.9,0.8-1.3,1.1s-0.8,0.9-1.6,0.5c-0.4-0.2-0.6-0.6-0.4-1c0,0,0,0,0,0
	c0.2-0.7,0.7-1.2,1.4-1.3C123.5,181.5,124.1,181.7,124.6,182.2z"/>
<path class="st60" d="M76.9,192.3l1.2-0.4c0.3,1.6-0.7,2.7-1.5,3.9C75.4,194.5,76.4,193.4,76.9,192.3z"/>
<path class="st26" d="M134.9,128c-0.2,0.7-0.8,1.2-1.5,1.2c-0.6,0.1-1.2-0.2-1.1-0.8c0.1-0.7,0.7-1.2,1.4-1.2
	C134.3,127.1,134.8,127.3,134.9,128z"/>
<path class="st61" d="M124.3,262.6c-0.3,0.4-1.7,0-0.9,1.2c-0.4,0-0.8,0-1.2,0c-0.7,0-1.3-0.4-1.5-1.1c0-0.3,0.1-0.5,0.3-0.7
	c0.6-0.5,1.1-0.1,1.7,0.2C123.1,262.4,123.7,262.5,124.3,262.6z"/>
<path class="st62" d="M102.5,183.8c-0.4,0-0.9-0.3-0.7-0.7c0.4-0.9,1.1-1.6,2-1.9c0.5-0.1,1,0.4,0.8,0.9
	C104.3,183,103.5,183.7,102.5,183.8z"/>
<path class="st63" d="M112.4,187.3c0.9,1.3,1.6,2.5,0.3,4.1C111.7,190,112.4,188.6,112.4,187.3z"/>
<path class="st64" d="M120.4,270.5c1.1-0.4,2.3,0.3,3.3-0.5l1.6,0.6C123.7,271,122,270.9,120.4,270.5z"/>
<path class="st65" d="M207.7,137l0.1-0.4c0.6,0,1.2,0.4,1.4,1C208.6,137.8,208,137.6,207.7,137z"/>
<path class="st66" d="M224.2,233c0.3,0.5-0.2,1.3,0.5,1.7c-0.1,0.4-0.3,1.1-0.7,0.4C223.7,234.4,223.8,233.6,224.2,233z"/>
<path class="st67" d="M202.7,196.9l-0.4,0.9c-0.1-0.3-0.3-0.6-0.4-0.9c-0.1-0.3-0.2-0.8,0.2-0.8S202.6,196.5,202.7,196.9z"/>
<path class="st68" d="M166.9,170.8l0.5-0.4c0.5,0,0.9,0.2,1.2,0.6C168.1,171.3,167.4,171.2,166.9,170.8z"/>
<path class="st45" d="M78.1,185.6c0,0.7,0.3,1.5-0.3,2.1C77.7,187,77.8,186.3,78.1,185.6z"/>
<path class="st69" d="M113.6,70c-4.2,2.1-7.3,5.1-10.5,8.8c-1.3-5.6-1.9-11.4-1.7-17.1C105.6,64.2,109.7,67,113.6,70z"/>
<path class="st70" d="M146.7,209.7c-3.2,0.2-4.2-0.2-4.9-2.2c-0.9-2.7,0.2-5.7,2.6-7.3c2.3-1.5,5.4-1.3,7.1,0.4s1.9,5.8,0.6,7.6
	S148.6,209.6,146.7,209.7z"/>
</svg>
