<?xml version="1.0" encoding="utf-8"?>
<!-- Generator: Adobe Illustrator 21.0.2, SVG Export Plug-In . SVG Version: 6.00 Build 0)  -->
<svg version="1.1" id="Layer_1" xmlns="http://www.w3.org/2000/svg" xmlns:xlink="http://www.w3.org/1999/xlink" x="0px" y="0px"
	 viewBox="0 0 1231.6 184" style="enable-background:new 0 0 1231.6 184;" xml:space="preserve">
<style type="text/css">
	.st0{stroke:#000000;stroke-width:4;stroke-miterlimit:10;}
</style>
<title>kontakt</title>
<path class="st0" d="M276.3,12.7v157.8c0,0.8,0.7,1.5,1.6,1.4c0.8,0,1.4-0.7,1.4-1.4V12.7c0-0.8-0.7-1.5-1.6-1.4
	C277,11.2,276.4,11.9,276.3,12.7z"/>
<path class="st0" d="M351.5,17.6c-34.4,5.7-63.8,31.4-74.2,64.6c-0.1,0.5,0,1.1,0.4,1.5c27.4,26.7,51.6,56.5,72.1,88.8
	c1,1.6,3.6,0.1,2.6-1.5c-16.1-25.4-34.5-49.4-55-71.4c-5-5.4-11.2-10.3-15.7-16.1c-2.9-3.8,3.8-14,6-17.8
	c6.4-11.2,15.2-21,25.6-28.7c11.5-8.5,24.8-14.1,38.9-16.5C354.2,20.1,353.4,17.3,351.5,17.6L351.5,17.6z"/>
<path class="st0" d="M413.8,20.9c-12.2-4.3-25.3-0.1-34.8,8.1c-11,9.5-15.9,24-17.8,38c-3.9,28.9-2.8,64.7,16,88.6
	c16.7,21.3,46,30,68.8,12.7c25.4-19.2,28.3-52.7,25-82c-2-17.5-3.8-37.2-12.9-52.7c-7.4-12.7-21.4-22-36.5-19.3
	c-1.9,0.3-1.1,3.2,0.8,2.9c14.8-2.7,27.8,7.7,34.4,20.2c6.7,12.7,8.4,27.8,10.3,41.9c3.8,27.4,4.3,58.4-15.7,80
	c-8.5,9.2-20,15.5-32.7,15.5c-12.6,0-24.4-6.1-33.3-14.7c-21-20.1-23.5-51.3-22.4-78.7c0.6-14.8,2.7-30.7,11.5-43.1
	c8.5-12,24.1-19.7,38.6-14.6C414.9,24.4,415.7,21.5,413.8,20.9L413.8,20.9z"/>
<path class="st0" d="M490,13.1c0.1,52.3,1.7,104.6,4.7,156.9c0.1,1.9,3.1,1.9,3,0c-3.1-52.2-4.6-104.5-4.7-156.9
	c0-0.8-0.7-1.5-1.6-1.4C490.7,11.7,490,12.3,490,13.1z"/>
<path class="st0" d="M492.5,15.2c11.2,29.4,21.1,59.7,35.4,87.8c6.7,13.2,14.9,25.8,20.2,39.6c4.1,10.8,4,25.3,13.6,33.2
	c0.6,0.6,1.6,0.6,2.1,0c0.2-0.2,0.3-0.4,0.4-0.6C575.9,121,576.5,65,566.1,10.5c-0.4-1.9-3.2-1.1-2.9,0.8
	c10.3,54,9.6,109.4-1.9,163.1l2.5-0.7c-5.3-4.4-7.1-10.8-8.6-17.2c-1.4-6.4-3.4-12.6-5.9-18.6c-5.3-12.6-12.7-24.2-18.9-36.4
	c-14.2-27.8-24-57.9-35.1-87.1C494.7,12.6,491.8,13.4,492.5,15.2L492.5,15.2z"/>
<path class="st0" d="M625.7,17.1v153.3c0,0.8,0.7,1.5,1.6,1.4c0.8,0,1.4-0.7,1.4-1.4V17.1c0-0.8-0.7-1.5-1.6-1.4
	C626.4,15.7,625.8,16.3,625.7,17.1z"/>
<path class="st0" d="M584.5,16c28.7,0.7,57.5-1.6,85.7-6.8c1.9-0.3,1.1-3.2-0.8-2.9c-28,5.1-56.5,7.4-84.9,6.7
	C582.5,13,582.5,16,584.5,16L584.5,16z"/>
<path class="st0" d="M651.3,167.7l40.6-123.1l4.7-14.2l2.5-7.6c0.8-2.4,1.9-10.3,6.6-7.8c3.3,1.8,5.4,9.6,6.4,12.8
	c1.5,4.8,2.5,9.7,3.7,14.5l15.1,63l17,70.7c0.5,1.9,3.3,1.1,2.9-0.8c-11.2-46.5-22.3-93-33.5-139.5c-1.8-7.5-3.8-18.9-10.5-23.8
	c-7-5.1-9.1,5.5-10.6,10l-22.5,68.2l-25.3,76.7C647.8,168.8,650.7,169.6,651.3,167.7L651.3,167.7z"/>
<path class="st0" d="M675.2,105.8h52.2c0.8,0,1.5-0.7,1.4-1.6c0-0.8-0.7-1.4-1.4-1.4h-52.2c-0.8,0-1.5,0.7-1.4,1.6
	C673.8,105.1,674.4,105.8,675.2,105.8z"/>
<path class="st0" d="M772.3,14.7v157.8c0,0.8,0.7,1.5,1.6,1.4c0.8,0,1.4-0.7,1.4-1.4V14.7c0-0.8-0.7-1.5-1.6-1.4
	C773,13.2,772.4,13.9,772.3,14.7z"/>
<path class="st0" d="M847.5,19.6c-34.4,5.7-63.8,31.4-74.2,64.6c-0.1,0.5,0,1.1,0.4,1.5c27.4,26.7,51.6,56.5,72.1,88.8
	c1,1.6,3.6,0.1,2.6-1.5c-16.1-25.4-34.5-49.4-55-71.4c-5-5.4-11.2-10.3-15.7-16.1c-2.9-3.8,3.8-14,6-17.8
	c6.4-11.2,15.2-21,25.6-28.7c11.5-8.5,24.8-14.1,38.9-16.5C850.2,22.1,849.4,19.3,847.5,19.6L847.5,19.6z"/>
<path class="st0" d="M909.7,19.1v153.3c0,0.8,0.7,1.5,1.6,1.4c0.8,0,1.4-0.7,1.4-1.4V19.1c0-0.8-0.7-1.5-1.6-1.4
	C910.4,17.7,909.8,18.3,909.7,19.1z"/>
<path class="st0" d="M868.5,18c28.7,0.7,57.5-1.6,85.7-6.8c1.9-0.3,1.1-3.2-0.8-2.9c-28,5.1-56.5,7.4-84.9,6.7
	C866.5,15,866.5,18,868.5,18L868.5,18z"/>
</svg>
