<?xml version="1.0" encoding="utf-8"?>
<!-- Generator: Adobe Illustrator 21.0.2, SVG Export Plug-In . SVG Version: 6.00 Build 0)  -->
<svg version="1.1" id="Layer_1" xmlns="http://www.w3.org/2000/svg" xmlns:xlink="http://www.w3.org/1999/xlink" x="0px" y="0px"
	 viewBox="0 0 296.5 295.8" style="enable-background:new 0 0 296.5 295.8;" xml:space="preserve">
<style type="text/css">
	.st0{fill:#010101;}
	.st1{fill:#E2187F;}
	.st2{fill:#E21880;}
	.st3{fill:#F2B8D5;}
	.st4{fill:#FFFFFF;}
	.st5{fill:#FCFCFC;}
	.st6{fill:#F9F9F9;}
	.st7{fill:#FBFBFB;}
	.st8{fill:#FAFAFA;}
	.st9{fill:#F8F8F8;}
	.st10{fill:#F7F6F6;}
	.st11{fill:#F2F2F2;}
	.st12{fill:#F4F4F4;}
	.st13{fill:#F5F5F5;}
	.st14{fill:#EEEDED;}
	.st15{fill:#EEEEEE;}
	.st16{fill:#F3F2F3;}
	.st17{fill:#E9E9E9;}
	.st18{fill:#E8E7E7;}
	.st19{fill:#F0F0F0;}
	.st20{fill:#E6E5E5;}
	.st21{fill:#F3F3F3;}
	.st22{fill:#D9D9D9;}
	.st23{fill:#EFEFF0;}
	.st24{fill:#E0E0E0;}
	.st25{fill:#E0DFDF;}
	.st26{fill:#E2E2E2;}
	.st27{fill:#D7D7D7;}
	.st28{fill:#E7E7E7;}
	.st29{fill:#E2E1E1;}
	.st30{fill:#787878;}
	.st31{fill:#E3E2E2;}
	.st32{fill:#7E7E7F;}
	.st33{fill:#434343;}
	.st34{fill:#E1E1E0;}
	.st35{fill:#A7A7A7;}
	.st36{fill:#C1C1C1;}
	.st37{fill:#D5D5D5;}
	.st38{fill:#919190;}
	.st39{fill:#B7B7B7;}
	.st40{fill:#B8B7B8;}
	.st41{fill:#7B7B7B;}
	.st42{fill:#ADADAD;}
	.st43{fill:#C9C9C9;}
	.st44{fill:#ABABAB;}
	.st45{fill:#B5B4B4;}
	.st46{fill:#A5A5A6;}
	.st47{fill:#B3B2B3;}
	.st48{fill:#CECECE;}
	.st49{fill:#A6A6A7;}
	.st50{fill:#EFEEEE;}
	.st51{fill:#ACACAC;}
	.st52{fill:#A1A1A1;}
	.st53{fill:#B5B5B6;}
	.st54{fill:#777777;}
	.st55{fill:#E6E6E6;}
	.st56{fill:#D4D4D4;}
	.st57{fill:#8E8E8E;}
	.st58{fill:#8F9090;}
	.st59{fill:#4F4E4E;}
	.st60{fill:#BCBBBB;}
	.st61{fill:#999999;}
	.st62{fill:#676767;}
	.st63{fill:#404040;}
	.st64{fill:#A9A9A9;}
	.st65{fill:#929191;}
	.st66{fill:#A1A0A0;}
	.st67{fill:#979696;}
	.st68{fill:#AAAAAA;}
	.st69{fill:#CCCBCB;}
	.st70{fill:#3A3A3B;}
	.st71{fill:#A2A2A2;}
	.st72{fill:#8E8F8F;}
	.st73{fill:#F2F2F3;}
	.st74{fill:#575757;}
	.st75{fill:#B2B2B2;}
	.st76{fill:#787979;}
	.st77{fill:#9F9E9D;}
	.st78{fill:#B2B1B0;}
	.st79{fill:#3B3B3B;}
	.st80{fill:#FDFDFD;}
	.st81{fill:#252525;}
	.st82{fill:#616060;}
	.st83{fill:#B5B5B5;}
	.st84{fill:#656464;}
	.st85{fill:#626161;}
	.st86{fill:#DDDEDE;}
	.st87{fill:#504F50;}
	.st88{fill:#FFFCFD;}
	.st89{fill:#FFFDFF;}
	.st90{fill:#070808;}
</style>
<title>Rock</title>
<path class="st0" d="M141.7,292.9c-12.2,0.1-24.4,0-36.5-1.9c-17.1-2.7-33-8.3-46.2-20.1c-11.1-9.9-18.4-23.4-20.5-38.1
	c-5.2-32.8-0.9-64.3,14.5-93.9c12.6-24.1,32.5-39.1,59-44.7c26.1-5.4,52-5.2,77.4,3.9c14.3,5.1,26.8,12.8,36.6,24.7
	c3.9,4.8,5.9,10.6,8.3,16.1c6,13.4,10,27.6,11.8,42.1c2.4,20.6-1,41.4-9.6,60.2c-6.6,14.7-15.4,27.7-28.9,37.1
	c-11.5,8.1-24.5,12.3-38.4,13.9C160.1,293,150.9,292.9,141.7,292.9z"/>
<path class="st1" d="M102.7,17.4c5.9-0.5,12.3,4.4,14.3,9.4c1.8,4.2,0.5,9-3,11.9c-0.2,0.2-0.3,0.3-0.5,0.5
	c-2.3,2.3-2.3,2.6,0.7,3.9c7.6,3.3,13.4,12.6,13.1,20.8c0.1,1.6-1.1,3-2.7,3.1c-1.8,0.3-3.2-0.2-3.8-2.1c-0.2-0.6-0.3-1.2-0.4-1.9
	c-1.3-9.1-8.3-14.9-16.5-16.5c-2.1-0.4-4.3-0.2-6.4,0.5c-2.4,0.7-3,1.9-2.1,4.4c2.3,6.2,4.7,12.3,6.9,18.4c0.7,1.8,1.2,3.6-1,4.7
	s-4.1,0.7-5.2-2c-2.2-5.3-4.1-10.7-6.2-16.1c-2.8-7.5-5.6-14.8-8.3-22.3c-0.7-1.8-1.7-2.9-3.7-2.6c-1.3,0.2-2.5-0.1-2.8-1.6
	s-0.6-3.6,1.1-4.3C84.6,22.3,92.4,17.7,102.7,17.4z"/>
<path class="st1" d="M205.6,44.5c0.6,4.8,1.2,9.3,1.8,13.8c0.1,0.9,0.2,1.9,0.3,2.9c0,2.6-1.1,3.9-3.4,4s-3-1.5-3.3-3.4
	c-0.7-4.3-1.3-8.7-1.9-13.1c-1.6-11.3-3.1-22.7-4.6-34c-0.1-1.1-0.2-2.2-0.2-3.4c-0.1-2.2,1-3.6,3.1-3.8s3.2,1.3,3.4,3.2
	c0.9,6.2,1.7,12.4,2.6,18.5c0.2,1.7-0.2,4.2,1.5,4.7c1.2,0.4,2-2,3-3.2c2.8-3.8,5.5-7.7,8.4-11.4c1.1-1.5,2.5-2.8,4.7-1.8
	s2.9,2.7,1.6,4.8c-2,3-4.2,5.9-6.5,8.7c-1.1,1.2-2.1,2.6-3,4c-1.6,2.8-1.3,4.4,1.6,5.9c6.2,3.2,9.1,8.8,11,15c0.7,2.4,1,4.9,0.7,7.4
	c-0.2,2-1,3.6-3.3,3.7s-3.2-1.2-3.5-3.4c-0.3-2.9-0.8-5.9-1.7-8.7C215.8,49.3,211.6,46.2,205.6,44.5z"/>
<path class="st1" d="M164,48.9c-0.6,2.5-1.7,4.9-3.1,7c-4.6,6.6-10.6,8.6-17.9,5.4c-7.7-3.4-14-8.4-17.1-16.6
	c-3.8-9.8,3.3-21.9,15.7-20c6.9,1.1,13.1,3.4,17.8,8.9c2.3,2.7,3.8,5.9,4.6,9.4C164.9,44.9,164.9,47.1,164,48.9z"/>
<path class="st2" d="M164.8,41.6c0.8-7.5,6.4-13.2,12.9-14.1c2.8-0.3,5.6,0.3,8.1,1.7c1.5,0.7,2.2,2.6,1.5,4.1
	c-0.7,1.8-2.1,2.3-3.9,2c-0.8-0.1-1.6-0.4-2.3-0.5c-6.2-1-10.8,4.1-9,10.2c2.1,7.6,9,12.9,16.9,13c1.1,0,2.2-0.1,3.4-0.1
	c1.8,0,3.2,0.6,3.4,2.6s-0.5,3.6-2.6,3.9c-4.1,0.7-8.4,0.4-12.3-1C174,61,169.6,56,166.5,49.7c-0.1-0.3-0.3-0.6-0.5-0.8
	C164.5,46.7,164.1,44.1,164.8,41.6z"/>
<path class="st3" d="M164.8,41.6c-0.2,2.5,1.1,4.8,1,7.2H164c0-2,0-4,0-5.9L164.8,41.6z"/>
<path class="st4" d="M159.1,198c-0.1,9.2-3.1,12.3-12.2,13.6c-5.5,0.8-10.9,1.6-16.4,2.4c-2.2,0.4-4.5-0.3-6.1-1.9
	c-8-7.4-8.5-19.8-1.2-27.8c0.9-1,1.9-1.8,2.9-2.6c4.3-3.5,9.4-5.8,14.8-6.9c7.8-1.4,14,2.2,16.1,9.8
	C158.2,188.9,158.9,193.4,159.1,198z"/>
<path class="st5" d="M105.7,148.5c17.7-10.4,36.7-15.4,57.3-13.7c26.4,2.2,42,17.3,50,41.6c3.6,11.2,4.3,22.8,3.8,34.4
	c-0.1,3.4-2.3,5.5-5.4,6.7c-1.1,0.4-1.4,0.2-1.4-1c0.1-3,0-6.1,0-9.1c0.1-10.8-0.3-21.6-3.8-32c-6.6-19.4-20.1-30.8-40.1-34.7
	c-15.7-3-30.8-1-45.5,5.2c-4.2,1.8-8.5,3.2-13,4C106.5,150.2,105.2,150.5,105.7,148.5z"/>
<path class="st6" d="M47,220c-1.7-10.4-2.2-21-1.6-31.6C47,165,55.8,144.8,72.2,128c2.6-2.8,5.3-5.3,8.3-7.6
	c1.9-1.6,4.3-2.6,6.8-2.7c1.5-0.3,3-0.3,4.5-0.2c0.8,0,2.3,0,1.8,1.7c-6.5,4-12.7,8.6-18.4,13.7c-15.7,14.2-24.6,31.9-26.7,53.1
	c-0.8,9.8-0.8,19.7,0,29.5c0.2,1.1,0.2,2.2,0,3.3C48.3,219.4,48.2,220.2,47,220z"/>
<path class="st7" d="M123.9,283.8c11.8,1.4,23.5-0.2,35-2.1c22.2-3.6,42.9-10.7,59.6-26.6c0.1-0.1,0.3-0.1,0.6-0.2
	c0.3,2.1-0.7,3.6-1.9,5.1c-12.4,15.1-28.6,23.3-47.9,25.2c-14.9,1.5-29.8,1.2-44.7,0.7c-0.7-0.1-1.4-0.2-2.1-0.3
	C122.1,284.3,123,284.1,123.9,283.8z"/>
<path class="st8" d="M123.9,283.8c-0.7,0.4-1.1,1.1-1.4,1.8c-15.5-0.6-30.7-2.9-44.7-9.9c-17.7-8.9-27.8-22.1-32.6-42.1
	c3.5,0.6,5.4,2.2,6.5,5.9c1.2,4.4,3,8.6,5.3,12.5c6.4,10.6,15.9,17.1,27.4,21c9.4,3.2,19,6,28.5,8.8
	C116.5,282.9,120.1,283.9,123.9,283.8z"/>
<path class="st7" d="M138.9,262.4c21.9-0.1,43.6-3.9,64.2-11.3c-1.8,2.7-4.1,5-6.8,6.8c-6.6,4.7-14.1,7.2-22,8.3
	c-11.4,1.8-23.1,0.7-34-3.2C139.9,262.8,139.4,262.6,138.9,262.4z"/>
<path class="st9" d="M182.1,183.7c1.4,5.9,2,12,1.8,18.1c0,5.3-0.6,10.5-1.7,15.7c-0.7,3.2-5.4,6.6-8.5,6.1
	c-1.2-0.2-0.5-0.9-0.4-1.4c1.4-6.7,2.9-13.4,4.4-20c0.7-3.4,1.5-6.8,2.2-10.3c0.9-1.7,0.6-3.6,0.8-5.4
	C180.7,185.4,180.4,184,182.1,183.7z"/>
<path class="st9" d="M101.3,227.5c-7.8-7.2-11.8-16.5-13.9-26.7c-0.8-4.2-1.6-8.5-2.3-12.7c-0.6-2.3,0-4.7,1.5-6.5
	c1.3-1.5,2.6-3.1,4.2-5.2c0,5.6,0.2,10.6-0.1,15.5c-0.6,9.4,2.4,17.8,7.2,25.6c1.7,2.8,3.2,5.7,4.8,8.5
	C102.9,227.1,102.4,227.6,101.3,227.5z"/>
<path class="st6" d="M169.2,251.1c6.2-1.5,11.5-4.7,16.6-8.4c4.7-3.5,9.3-7.1,13.9-10.6c0.4-0.3,0.8-1,1.4-0.7s0.4,1.2,0.3,1.7
	c-0.9,6.4-3.7,11.9-9.9,14.6c-5.9,2.5-12.1,4.2-18.4,4.8c-0.8,0.2-1.7,0.3-2.6,0.2C169.7,252.6,168.7,252.3,169.2,251.1z"/>
<path class="st10" d="M81.1,203.4c2.8,10.5,6.8,20.5,15,28.1c5.9,5.6,13.5,9,21.6,9.9c0.3,1-0.7,0.5-1,0.9
	c-21.8,1.2-37.1-17-36.4-36.4C80.9,205.1,79.6,203.8,81.1,203.4z"/>
<path class="st8" d="M105.4,255.7c-16.2,2.2-24.1-1.3-28.6-14C87.8,243.4,95.9,250.4,105.4,255.7z"/>
<path class="st10" d="M165.4,147.5c13.4,2.4,23.7,9.3,30.1,21.4c-3.5-2.9-7.7-4.2-11.8-5.9c-2.9-1.2-5.8-2.6-7.6-5.2
	c-3-4.2-7.3-6.6-12-8.4c-0.7-0.3-1.4-0.6-2.2-0.9C162.6,146.4,164.1,147.4,165.4,147.5z"/>
<path class="st11" d="M174,236.5c10.9-5.7,16.8-15.6,21.3-26.4c0.9-2.1,0.2-4.4,0.4-6.6c0-0.2-0.3-0.9,0.4-0.7
	c0.1,0,0.2,0.4,0.3,0.6c0.3,1.9-0.3,3.9,0.5,5.8c-0.3,3.5-0.8,7-1.5,10.4c-1.6,7.6-6.2,12.6-13.2,15.6c-2.4,1-4.9,2-7.3,2.9
	C174.3,237.8,173.7,237.4,174,236.5z"/>
<path class="st12" d="M167.3,196.1c1,5.5,2.5,11,0,16.6c-2,4.5-5.3,6.8-10.2,7c-4.4,0.2-8.7-0.2-13-1.2c3.1-0.6,6-1.1,8.7-1.9
	c7.2-2,11.7-6.4,12.1-14.1c0.1-0.4,0.1-0.8,0.3-1.1c0.8-0.9,0.4-2.1,0.5-3.1S165.9,196.2,167.3,196.1z"/>
<path class="st13" d="M158.6,247.3c-11.4,3.2-22.3,4-33.4,2.1c5.6-2.9,20.6-6.2,25.3-5.6C153.5,244.1,156.3,245.3,158.6,247.3z"/>
<path class="st14" d="M114.8,155.8c15-5.5,30-6.1,45.2-0.5c0,0.9-0.6,0.6-1,0.5c-8.9-1.3-17.9-1.5-26.8-0.6
	c-5.5,0.6-10.9,1.4-16.4,2.3C115.2,157.2,114.2,156.9,114.8,155.8z"/>
<path class="st15" d="M131.1,126.3c-8.5,2.7-16.4,7-24.5,10.7c1.3-6.3,9.1-10.8,18.8-12.2c1.3-0.1,2.5-0.1,3.8-0.1
	C130,124.9,131.1,124.9,131.1,126.3z"/>
<path class="st16" d="M169.7,126.4c5.6-0.1,10.6-0.5,15.5,0.3s8.4,3.6,11.1,8C187.4,132.1,178.6,130.3,169.7,126.4z"/>
<path class="st17" d="M205.7,116.8c-9-4-18.7-5.2-28.2-7.2c-0.9-0.2-1.7-0.4-2.6-0.6c0.2-1.3,1.3-1.3,2.2-1.5s1.7,0.2,2.5,0
	c9.6,0.5,18.8,2.4,27,7.7C207,116.2,206.4,116.5,205.7,116.8z"/>
<path class="st18" d="M129.3,98.5c2.7-0.9,5.6-1.2,8.5-1.2c10.2-0.1,20.4,0.8,30.6,1.7c0.5,0.1,0.9,0.2,1.4,0.4
	c0.4,1.1-0.3,1.2-1.1,1.2c-5-0.1-9.9,0.2-14.9-0.2l-9.6-0.1c-3.7-0.6-7.5-0.8-11.2-0.6C131.8,99.9,129.8,100.9,129.3,98.5z"/>
<path class="st19" d="M217.6,153.1c-3.7-7.5-10.2-12.6-13.1-20.2C212.7,134.9,219.1,144.6,217.6,153.1z"/>
<path class="st20" d="M159.5,226.9c-4.4,0.6-8.7,1.9-13.2,2.1c-5.6,0.3-10.8-0.7-15.6-4.7c8.7-0.1,16.7,1.4,24.9,1.8
	c1,0.2,2,0.2,3,0.2C159.1,226.3,159.6,226.2,159.5,226.9z"/>
<path class="st21" d="M81.3,147.5c4.3-6.2,10.2-11.1,17-14.2C94.4,142.3,87.8,147.4,81.3,147.5z"/>
<path class="st14" d="M193.7,192c-3.1-6.7-6.4-13.4-8-20.8c4.5,1.6,8.6,9.6,9.1,17.6C195.1,190,194.7,191.3,193.7,192z"/>
<path class="st22" d="M227.9,154.7c4.1,8.1,4.6,17.5,1.5,25.9l-2.6-25.4C226.8,154.4,227.3,154.4,227.9,154.7z"/>
<path class="st23" d="M206.9,240.9c1.4-3.3,1.3-6.8,2.2-10c0.8-3.5,3.3-6.4,6.7-7.7C213.2,229.7,214.7,237.6,206.9,240.9z"/>
<path class="st24" d="M123,227.9c2.4,0.4,4.2,1.9,5.8,3.5c1.7,1.6,3.2,3.3,4.9,5c-6.4-0.8-12.5-3.1-17.8-6.7c0-1.4,1-1.2,1.8-1.2
	C119.4,228.7,121.3,228.5,123,227.9z"/>
<path class="st25" d="M58,173.3c1.2-9.4,5.8-17.1,11.9-24.1l0.5,0.3l-12,24.5C57.9,174,57.8,173.8,58,173.3z"/>
<path class="st15" d="M71.5,164.8c1.1-6.1,5.3-8.6,11.4-9.4l-10,12.8C70.7,167.8,71.6,166.1,71.5,164.8z"/>
<path class="st26" d="M116.4,221c-9.6-0.4-12.2-5.5-12.2-13.1C108.4,212.2,111.7,217,116.4,221z"/>
<path class="st27" d="M106.6,120.1c4.8-3.4,10.5-5.1,16.4-4.8c0.6,0.5,1.9,0,1.9,1.3c-5.8,1.9-11.8,3.1-17.7,4.4
	C106.3,121.2,106.3,120.8,106.6,120.1z"/>
<path class="st16" d="M63.3,231.3c-1.8-5.5-1.7-11.1-1.4-16.8c1-0.4,1.7,0.2,2.3,0.9l1.1,12.9C65.6,229.9,65.7,231.4,63.3,231.3z"/>
<path class="st28" d="M112.6,187.3c-1.2,5.7-1.5,11.6-0.7,17.4C106.5,199.4,106.8,193.8,112.6,187.3z"/>
<path class="st29" d="M162.9,180.9c-2.4-5-5.6-9.2-11.1-11.5c4.9-1.1,8,0.2,10.2,4.3c1,1.7,1.7,3.6,2.1,5.6
	C163.9,180,163.7,180.7,162.9,180.9z"/>
<path class="st30" d="M129.3,98.5c1.2,1.5,2.8,0.7,4.1,0.7c3.3-0.3,6.7,0,9.9,0.8c0.3,0.1,0.6,0.3,0.8,0.4h-27.5
	c3.5-1.6,6.7-2.4,10-1.7C127.6,98.8,128.5,98.8,129.3,98.5z"/>
<path class="st31" d="M97.5,268.9c4.2-0.8,7.7-0.1,12.9,2.5C106.1,272.4,102.2,271.6,97.5,268.9z"/>
<path class="st32" d="M131.3,273.8h22.8v0.5h-22.8V273.8z"/>
<path class="st33" d="M153.8,100.4c4.7,0,9.4,0,14.1-0.1c0.7,0,1.9,0.6,1.8-1c2.6-1.2,4.4,1.1,7.1,1.5c-2.1,0.8-4.5,0.9-6.7,0.3
	c-3-0.7-6.3-0.2-9.5-0.3C158.3,100.7,156,101.2,153.8,100.4z"/>
<path class="st34" d="M74.1,259.8c-4.4-1.6-6.7-4.5-9.3-8.3C69.2,253.1,71.7,255.8,74.1,259.8z"/>
<path class="st35" d="M182.1,183.7c-1.2,1.3-0.8,3-0.9,4.6c0,1.4,0,2.7-1.4,3.6v-13.3C180.8,180.1,181.6,181.9,182.1,183.7z"/>
<path class="st36" d="M162.9,180.9c0.2-0.7,0.6-1.3,1.1-1.7c1.7,3.1,2.1,6.4,2.2,10.4C163.7,186.8,163.4,183.8,162.9,180.9z"/>
<path class="st37" d="M171.5,175c1.5,1.5,2.2,3.6,1.9,5.8c-0.6,0.7,0.1,2.1-1.3,2.4c-1.2-2.6-1.9-5.3-1.9-8.2
	c0.3-0.4,0.9-0.4,1.2-0.1L171.5,175z"/>
<path class="st38" d="M117.7,108.2c-2.1,1.8-4.5,1-6.8,0.7c-0.6-0.1-1.2-0.2-1.8-0.4c-0.2-0.2-0.3-0.5-0.1-0.8
	c0-0.1,0.1-0.1,0.1-0.1l7.7-0.9C117.3,107.1,118.2,107.2,117.7,108.2z"/>
<path class="st39" d="M167.3,196.1c-1,0.8-1,1.9-1,2.9c0,0.9,0.1,1.9-1,2.3c0-3.6,0-7.2,0-11.1C167.4,191.9,167.6,193.9,167.3,196.1
	z"/>
<path class="st40" d="M93.6,119.1c-0.3-1.3-1.4-1.2-2.3-1.1c-1.3,0-2.7-0.1-4-0.3c3.1-0.7,6.2-2.1,9.7-1
	C96.3,118.3,94.9,118.6,93.6,119.1z"/>
<path class="st41" d="M204.3,209.6v10c-1.6-1-2.3-3-1.8-4.9c0.5-1.7,0.8-3.4,0.9-5.1c0.2-0.3,0.6-0.3,0.8-0.1L204.3,209.6z"/>
<path class="st42" d="M131.1,126.3c-0.6-1.2-1.7-0.8-2.7-0.9s-2.2,0.5-3.1-0.5c3.2-1.9,6.4-0.7,10.2-0.3L131.1,126.3z"/>
<path class="st39" d="M116.7,264.9c-2.9,0.1-4.4-0.4-7-2.3h8C118,263.6,117.4,264.3,116.7,264.9z"/>
<path class="st43" d="M193.7,192l1.1-3.2c1.5,1.9,1.4,4.1,1.4,6.4c0.1,1.1-0.4,1.6-1.4,1.5C194.1,195.2,193.7,193.6,193.7,192z"/>
<path class="st44" d="M120.9,273c-3.3,1-6,0.5-9.1-1.3C114.9,270.8,118.2,271.2,120.9,273z"/>
<path class="st45" d="M165.4,147.5c-1.2,0.1-2.5-0.2-3.4,1l-7-1.7C159,145.4,162.2,146.2,165.4,147.5z"/>
<path class="st46" d="M106.6,120.1c-0.1,0.4,0.2,0.8,0.6,1c-2,1.9-4.6,2.9-7.3,2.8C101.6,121.3,104,120.7,106.6,120.1z"/>
<path class="st47" d="M179.8,107.5c-1.4,1.2-3.5-0.3-4.8,1.4c-1.5-0.3-2.9-0.7-4.2-1.4C174.1,106.6,176.9,105.9,179.8,107.5z"/>
<path class="st48" d="M114.8,155.8c0,0.8,0.7,1.1,0.9,1.7l-6.8,2.6C109.9,157.7,112.2,156,114.8,155.8z"/>
<path class="st49" d="M169.2,251.1c0.6,2.2,2.6,0.9,3.9,1.4c-2.6,0.9-5.3,1.8-8.1,1.3c-0.5-0.4-0.5-0.8,0-1.3L169.2,251.1z"/>
<path class="st50" d="M75.8,185.5c0.8-2,1.6-4.1,2.3-6.1c0.3-0.9,0.8-0.8,1.4-0.6c0.9,0.3,0.7,0.9,0.3,1.5c-1,1.8-2,3.6-2.9,5.4
	C76.6,185.9,76.1,185.8,75.8,185.5z"/>
<path class="st51" d="M123,227.9c-1.6,1.1-3.5,1.6-5.4,1.2c-0.8-0.1-1.4-0.3-1.8,0.6l-3-1.4C116.5,227.2,119.8,227.7,123,227.9z"/>
<path class="st52" d="M75.8,185.5l1.1,0.1c0.2,2.5-1,4.7-2,7.5C73.8,190.6,74.1,187.7,75.8,185.5z"/>
<path class="st53" d="M172.2,239c-2.5,1.5-5.1,1.5-8.6,0.3l6.5-1.7C170.8,238.2,171.7,238.2,172.2,239z"/>
<path class="st54" d="M203.4,202.8c-0.6-3-0.9-6.1-1-9.1c0.1-0.2,0.3-0.2,0.4,0c0.5,1.6,1.4,3.1,1.6,4.8c0.2,1.2,0.3,2.3,0.1,3.5
	C204.5,202.8,204.3,203.3,203.4,202.8z"/>
<path class="st55" d="M116.7,264.9l1-2.3c1.5-0.6,2.6,0.4,3.8,0.9c0.6,1.1-0.2,1.5-1,1.8L116.7,264.9z"/>
<path class="st56" d="M205.7,116.8l1-1.5c2.3,0.6,2.8,1,4,3.3C208.6,119.1,207.1,118.3,205.7,116.8z"/>
<path class="st57" d="M120.5,265.4c0.2-0.7,1.1-1,1-1.8c1.6,0.1,3.2,0.8,4.3,2.1C123.9,266.6,122.2,266.7,120.5,265.4z"/>
<path class="st58" d="M63.3,231.3c1.4-0.3,2.2-1.6,2-3c0.9,2-0.1,4.1,0.4,6.1C63.3,234.3,63.2,232.9,63.3,231.3z"/>
<path class="st59" d="M47,220c1.8-1.1,1.2-3.1,1.4-4.7c0.6,1.9,0.9,4,0.9,6c0,0.5,0.4,1.4-0.6,1.5c-0.6,0-1.1-0.6-1.3-1.2
	S47.2,220.6,47,220z"/>
<path class="st60" d="M202.8,193.7h-0.2h-0.2l-1.3-8.2C204,188.2,203.5,190.9,202.8,193.7z"/>
<path class="st61" d="M64.2,215.4l-2.3-0.9c-0.3-1.5-0.2-3.1,0.2-4.5C63.8,211.7,64.6,213.3,64.2,215.4z"/>
<path class="st62" d="M229.4,217.8l1.5-5.5c1.6,3.5-0.4,6.1-0.5,8.9C229.1,220.4,230.3,218.8,229.4,217.8z"/>
<path class="st63" d="M203.4,202.8c2-1,0.4-2.9,1-4.3c0.6,1.1,0.8,2.5,0.4,3.7c-0.5,2.5-0.3,4.9-0.4,7.4h-0.9
	C203.4,207.4,203.4,205.1,203.4,202.8z"/>
<path class="st64" d="M105.7,148.5c0,1.3,1.1,1.3,2,1.5c-0.9,0.5-1.8,0.9-2.7,1.4s-1.7,0.6-2.2-0.4s0.4-1.3,1-1.7
	C104.4,149,105,148.8,105.7,148.5z"/>
<path class="st65" d="M171.5,175h-1.4c-1.3-1.1-2.5-2.3-1.8-4.2C170.9,171.1,170.9,173.3,171.5,175z"/>
<path class="st66" d="M55.5,179.3c0.1-0.4,0.2-0.8,0.3-1.1c0.3-0.6,0.5-1.4,1.3-1.2s0.6,1.2,0.5,1.9c-0.2,1.1-0.8,2.1-0.6,3.3
	c-0.9,0.6-1.5,0.4-1.6-0.7C55.3,180.7,55.3,180,55.5,179.3z"/>
<path class="st67" d="M71.5,164.8c1.1,0.8-0.2,2.7,1.4,3.3c-0.2,0.6-0.5,1.1-0.9,1.6c-0.6,0.6-1.4,0.7-1.5-0.4
	C70.5,167.9,69.9,166.1,71.5,164.8z"/>
<path class="st68" d="M101.3,227.5c0.8-0.2,1.1-0.9,1.5-1.5l3.5,4.4C104.2,230.3,102.4,229.2,101.3,227.5z"/>
<path class="st69" d="M172.2,239c-0.9-0.1-1.9,0-2-1.4l3.8-1.1l1,1.5C174.3,239.1,173.2,239,172.2,239z"/>
<path class="st70" d="M55.5,179.3c0.7,0.9-1.2,3,1.5,2.8c0.1,0.9-0.1,1.8-0.8,2.4c-0.3,0.4-0.4,1.4-1.3,0.9c-0.5-0.3-1-1.1-0.6-1.7
	C55.4,182.4,54.8,180.7,55.5,179.3z"/>
<path class="st71" d="M200.3,177.3c0.8,1.9,1.4,4,1.8,6.1C199.6,182,199.2,180.7,200.3,177.3z"/>
<path class="st72" d="M194.7,196.6l1.4-1.5c0.3,0.6,0.6,1.2,0.8,1.9c0.2,0.8,0.3,1.6-0.5,2.1c-0.4,0.3-0.9,0.4-1.4,0.2
	c-0.9-0.4-0.4-1.2-0.5-1.9C194.6,197.2,194.7,196.9,194.7,196.6z"/>
<path class="st73" d="M172.1,183.1c0.6-0.7,0.5-1.8,1.3-2.4c0.3,1.5,0.8,2.9,0.5,4.4c-0.1,0.5-0.1,1.2-0.8,1.3s-0.8-0.7-0.9-1.2
	C172.1,184.5,172.1,183.8,172.1,183.1z"/>
<path class="st74" d="M164.9,252.5v1.3c-1.2,0.4-2.4,0.7-3.6,1c-0.4,0.1-0.8,0-1-0.3c-0.2-0.4,0.1-0.7,0.4-1
	C161.9,252.4,163.4,252.1,164.9,252.5z"/>
<path class="st75" d="M229.4,217.8c2.1,0.6,0.5,2.3,1,3.4c-0.2,1-0.8,1.9-1.8,2.4C228.6,221.6,228.9,219.7,229.4,217.8z"/>
<path class="st76" d="M236.1,190.7c0.5,1.7,1.2,3.1-0.1,4.3c-0.3,0.3-0.9,0.4-1.2,0c-0.1-0.1-0.2-0.2-0.2-0.3
	C234.1,193.2,234.8,192,236.1,190.7z"/>
<path class="st77" d="M227.9,154.7c-0.4,0-0.8,0.2-1.1,0.6c-0.6-1.5-1.9-2.9-0.9-5C227.3,151.7,228.1,153,227.9,154.7z"/>
<path class="st6" d="M124.9,116.7l-1.9-1.3h5.8C127.9,117.4,126.2,116.5,124.9,116.7z"/>
<path class="st78" d="M117.7,108.2l-1-1.5c1.3,0,2.5-0.1,3.8-0.1c0.4,0,1.1-0.1,1.2,0.5s-0.6,0.9-1.1,1
	C119.6,108.2,118.7,108.2,117.7,108.2z"/>
<path class="st79" d="M222.6,188.6c-1.1-2-1.4-3.6-0.2-5.3C223.5,184.9,223.1,186.4,222.6,188.6z"/>
<path class="st80" d="M196.9,209.1c-0.3,0.1-0.8,0.2-0.8-0.1c0.1-1.9-0.4-3.8,0.3-5.6C197.4,205.2,197.2,207.2,196.9,209.1z"/>
<path class="st81" d="M96.8,177.4c1.6,1.2,1,2.3,0.4,3.5C96.4,179.6,96.4,179.6,96.8,177.4z"/>
<path class="st82" d="M159.5,226.9c-1.1-1.1-2.7,0-3.9-0.9c1.4,0,2.8,0,4.2,0c0.4,0,1,0,0.9,0.5S160,227,159.5,226.9z"/>
<path class="st83" d="M159,155.8l1-0.5c0.9,0.1,1.8,0.6,2.4,1.3C161.1,156.3,160,156.4,159,155.8z"/>
<path class="st84" d="M81.1,203.4c-1,0.6-0.2,1.8-0.9,2.5c-0.3-1-0.3-2,0.2-2.9C81,202.2,81.1,202.9,81.1,203.4z"/>
<path class="st85" d="M116.6,242.3c0.2-0.4,1.1-0.1,1-0.9c0.4-0.1,0.9-0.2,1.1,0.2s-0.3,0.6-0.7,0.7
	C117.6,242.3,117.1,242.3,116.6,242.3z"/>
<path class="st86" d="M58,173.3l0.4,0.6l-0.6,1.7C57.5,174.9,57.5,174,58,173.3z"/>
<path class="st87" d="M109.1,107.6v0.9c-0.5,0-1.1,0-1.1-0.5S108.7,107.7,109.1,107.6z"/>
<path class="st88" d="M100.5,23.8c5.5,0,8.7,2.1,9.6,5.9c0.7,2.7-0.1,4.3-2.7,5.3c-4.5,1.9-9,3.7-13.4,5.7c-1.8,0.8-2.7,0.3-3.3-1.6
	c-0.8-2.6-2.1-5-2.9-7.6c-1-3-0.3-4.3,2.6-5.4C93.6,24.7,97,24,100.5,23.8z"/>
<path class="st89" d="M131.6,39.5c0.1-4.7,4-8.5,8.7-8.4c0.3,0,0.7,0,1,0.1c6.3,0.6,11.8,4.4,14.6,10c2.7,4.7,1.4,10.6-3,13.7
	c-1.8,1.3-4,2-5.9,1.1c-6.8-3-12.9-6.8-15.1-14.5C131.8,40.8,131.7,40.1,131.6,39.5z"/>
<path class="st90" d="M139.9,203c-6-0.2-7-1-6.9-5.3c0.2-4.5,3.1-7.4,7.5-7.3c3.8,0.1,5.8,2.6,5.6,6.8
	C146,201.4,144,203.2,139.9,203z"/>
</svg>
